<?xml version="1.0" encoding="iso-8859-1"?>
<!-- Generator: Adobe Illustrator 19.0.0, SVG Export Plug-In . SVG Version: 6.00 Build 0)  -->
<svg version="1.1" id="Capa_1" xmlns="http://www.w3.org/2000/svg" xmlns:xlink="http://www.w3.org/1999/xlink" x="0px" y="0px"
	 viewBox="0 0 512 512" style="enable-background:new 0 0 512 512;" xml:space="preserve">
<g>
	<g>
		<g>
			<path d="M296,334.122c0-11.046-8.954-20-20-20H168c-11.046,0-20,8.954-20,20c0,11.046,8.954,20,20,20h108
				C287.046,354.122,296,345.168,296,334.122z"/>
			<circle cx="256" cy="421.122" r="20"/>
			<path d="M424,352.122c11.046,0,20-8.954,20-20V80c0-44.112-35.888-80-80-80H148c-44.112,0-80,35.888-80,80v352
				c0,44.112,35.888,80,80,80h216c44.112,0,80-35.888,80-80c0-11.046-8.954-20-20-20c-11.046,0-20,8.954-20,20
				c0,22.056-17.944,40-40,40H148c-22.056,0-40-17.944-40-40V80c0-22.056,17.944-40,40-40h216c22.056,0,40,17.944,40,40v252.122
				C404,343.168,412.954,352.122,424,352.122z"/>
			<path d="M364,256.122c0-11.046-8.954-20-20-20H168c-11.046,0-20,8.954-20,20s8.954,20,20,20h176
				C355.046,276.122,364,267.168,364,256.122z"/>
			<path d="M344,80.122H168c-11.046,0-20,8.954-20,20c0,11.046,8.954,20,20,20h176c11.046,0,20-8.954,20-20
				C364,89.076,355.046,80.122,344,80.122z"/>
			<path d="M344,158.122H168c-11.046,0-20,8.954-20,20c0,11.046,8.954,20,20,20h176c11.046,0,20-8.954,20-20
				C364,167.076,355.046,158.122,344,158.122z"/>
		</g>
	</g>
</g>
<g>
</g>
<g>
</g>
<g>
</g>
<g>
</g>
<g>
</g>
<g>
</g>
<g>
</g>
<g>
</g>
<g>
</g>
<g>
</g>
<g>
</g>
<g>
</g>
<g>
</g>
<g>
</g>
<g>
</g>
</svg>
