<svg id="Capa_1" enable-background="new 0 0 512 512" height="512" viewBox="0 0 512 512" width="512" xmlns="http://www.w3.org/2000/svg"><g><path d="m512 256c0 81.92-38.48 154.85-98.35 201.71-38.03 29.76-84.68 49-135.58 53.35-7.27.62-14.63.94-22.07.94h-.01c-7.43 0-14.79-.32-22.07-.94-50.91-4.34-97.57-23.59-135.59-53.37-59.86-46.86-98.33-119.78-98.33-201.69 0-141.38 114.62-256 256-256s256 114.62 256 256z" fill="#ecc32e"/><g><path d="m375.462 393.231c-10.352 6.946-21.341 13.019-32.867 18.094-8.934 3.943-18.187 7.298-27.708 9.999-18.707 5.327-38.462 8.179-58.888 8.179-20.418 0-40.173-2.852-58.888-8.171-6.073-1.728-12.046-3.725-17.893-5.973-.361-.134-.721-.268-1.082-.411-2.944-1.141-5.855-2.357-8.733-3.624-11.526-5.083-22.515-11.148-32.875-18.103 8.716-12.054 19.931-22.171 32.875-29.629 8.556-4.924 17.868-8.674 27.708-11.031 1.518-.369 3.053-.705 4.597-.998 2.911-.57 5.872-1.007 8.867-1.317.864-.092 1.72-.176 2.592-.243 2.835-.235 5.704-.352 8.607-.352h68.443c3.792 0 7.525.201 11.199.587 2.995.31 5.948.755 8.867 1.309 1.166.226 2.324.47 3.473.73.378.101.763.176 1.133.277 9.848 2.366 19.151 6.115 27.708 11.039 12.942 7.467 24.149 17.584 32.865 29.638z" fill="#f6f1f1"/><g fill="#dfeaef"><path d="m221.774 349.652c-24.629 0-41.322 35.593-42.556 65.708-.361-.134-.721-.268-1.082-.411-2.944-1.141-5.855-2.357-8.733-3.624-11.526-5.083-22.515-11.148-32.875-18.103 8.716-12.054 19.931-22.171 32.875-29.629 8.556-4.924 17.868-8.674 27.708-11.031 1.518-.369 3.053-.705 4.597-.998 2.911-.57 5.872-1.007 8.867-1.317.864-.092 1.72-.176 2.592-.243 2.835-.234 5.704-.352 8.607-.352z"/><path d="m255.988 392.687-44.454 24.705-13.524-67.097 27.623-12.074"/><path d="m255.988 392.687 44.455 24.705 13.523-67.097-27.622-12.074"/></g><path d="m293.501 309.159v46.028c0 16.851-11.111 31.095-26.415 35.825-3.503 1.087-7.237 1.675-11.098 1.675-20.713 0-37.5-16.787-37.5-37.5v-46.028z" fill="#eaac9d"/><path d="m293.501 352.271v2.915c0 16.851-11.111 31.095-26.415 35.825-13.808-4.245-24.19-16.25-26.108-30.941 2.506.153 5.025.23 7.556.23 7.096 0 14.051-.563 20.828-1.675 8.349-1.342 16.417-3.49 24.139-6.354z" fill="#ffcbbe"/><g><path d="m152.433 233.338c0 17.194-12.56 31.451-29.007 34.097-1.798.291-3.646.443-5.533.443-19.081 0-34.54-15.459-34.54-34.54s15.459-34.54 34.54-34.54c1.887 0 3.735.152 5.533.443 16.447 2.647 29.007 16.903 29.007 34.097z" fill="#ffcbbe"/><path d="m152.433 233.338c0 17.194-12.56 31.451-29.007 34.097-2.988-10.863-4.583-22.296-4.583-34.097 0-11.8 1.595-23.233 4.583-34.097 16.447 2.647 29.007 16.903 29.007 34.097z" fill="#eaac9d"/><circle cx="117.893" cy="233.338" fill="#eaac9d" r="12.345"/><path d="m359.556 233.338c0 17.194 12.56 31.451 29.007 34.097 1.798.291 3.646.443 5.533.443 19.081 0 34.54-15.459 34.54-34.54s-15.459-34.54-34.54-34.54c-1.887 0-3.735.152-5.533.443-16.447 2.647-29.007 16.903-29.007 34.097z" fill="#ffcbbe"/><g fill="#eaac9d"><path d="m359.556 233.338c0 17.194 12.56 31.451 29.007 34.097 2.988-10.863 4.583-22.296 4.583-34.097 0-11.8-1.595-23.233-4.583-34.097-16.447 2.647-29.007 16.903-29.007 34.097z"/><circle cx="394.096" cy="233.338" r="12.345"/></g></g><path d="m385.768 215.183c0 64.58-47.179 118.151-108.946 128.099-6.776 1.112-13.732 1.675-20.828 1.675-71.676 0-129.773-58.098-129.773-129.773v-132.121h259.547z" fill="#ffcbbe"/><path d="m278.853 342.941c-.671.117-1.351.235-2.03.344-6.778 1.107-13.732 1.669-20.829 1.669-71.673 0-129.772-58.091-129.772-129.772v-132.121h45.76v132.121c-.001 63.872 46.12 116.947 106.871 127.759z" fill="#eaac9d"/><path d="m385.768 199.813-5.483-82.08c-81.978 27.769-136.584 40.878-171.217 34.959 48.546-9.276 62.568-39.932 62.568-39.932s-31.816 20.553-66.251 27.394c-16.151 3.205-32.547-5.139-39.014-20.288-.047-.082-.082-.175-.117-.256 0 0 .774 80.204-40.034 80.204 0 0-54.937-180.419 31.877-154.783 0 0 25.112-23.061 62.6-36.171.14-.047.28-.093.431-.151.408-.152.827-.291 1.247-.42.443-.14.862-.28 1.259-.42 39.644-13.075 92.304-14.439 143.635 33.082 101.964 94.389 18.499 158.862 18.499 158.862z" fill="#2f373b"/><path d="m205.386 140.153c-16.151 3.205-32.547-5.139-39.014-20.288-.047-.082-.082-.175-.117-.256 0 0 .774 80.204-40.034 80.204 0 0-54.937-180.419 31.877-154.783 0 0 25.112-23.061 62.6-36.171-51.447 18.738-37.884 131.294-15.312 131.294z" fill="#181e21"/><path d="m255.995 298.483c-10.867 0-21.733-2.723-31.639-8.168-2.794-1.536-3.814-5.046-2.278-7.84s5.047-3.813 7.84-2.278c16.328 8.977 35.825 8.976 52.153 0 2.792-1.536 6.303-.517 7.84 2.278 1.536 2.794.516 6.304-2.278 7.84-9.905 5.445-20.772 8.168-31.638 8.168z" fill="#df9380"/><path d="m270.716 259.697h-29.442c-3.507 0-6.35-2.843-6.35-6.35 0-3.507 2.843-6.35 6.35-6.35h29.442c3.507 0 6.35 2.843 6.35 6.35 0 3.507-2.843 6.35-6.35 6.35z" fill="#eaac9d"/><g><path d="m277.256 224.017c0 14.399 11.673 26.072 26.072 26.072s26.072-11.673 26.072-26.072" fill="#eaac9d"/><circle cx="303.328" cy="224.017" fill="#2f373b" r="18.696"/><circle cx="311.119" cy="220.718" fill="#fff" r="8.011"/><path d="m182.59 224.017c0 14.399 11.673 26.072 26.072 26.072s26.072-11.673 26.072-26.072" fill="#eaac9d"/><circle cx="208.662" cy="224.017" fill="#2f373b" r="18.696"/><path d="m213.034 242.196c-1.401.344-2.869.52-4.37.52-10.326 0-18.698-8.372-18.698-18.698s8.372-18.698 18.698-18.698c1.502 0 2.97.176 4.37.52-8.221 1.963-14.319 9.362-14.319 18.178s6.098 16.215 14.319 18.178z" fill="#181e21"/><path d="m307.7 242.196c-1.401.344-2.869.52-4.371.52-10.326 0-18.698-8.372-18.698-18.698s8.372-18.698 18.698-18.698c1.502 0 2.97.176 4.371.52-8.221 1.963-14.319 9.362-14.319 18.178s6.098 16.215 14.319 18.178z" fill="#181e21"/><circle cx="216.453" cy="220.718" fill="#fff" r="8.011"/></g></g><path d="m255.99 339.9v172.1c-7.43 0-14.79-.32-22.07-.94-50.91-4.34-97.57-23.59-135.59-53.37v-108.07c0-17.2 13.94-31.15 31.15-31.15h105.08c11.83 0 21.43 9.6 21.43 21.43z" fill="#f6f1f1"/><path d="m135.64 318.47v130.44h-37.31v-99.29c0-17.2 13.94-31.15 31.15-31.15z" fill="#dfeaef"/><path d="m413.65 364.62v93.09c-38.03 29.76-84.68 49-135.58 53.35-7.27.62-14.63.94-22.07.94h-.01v-173.362c0-2.854 2.314-5.168 5.168-5.168h121.342c17.204 0 31.15 13.946 31.15 31.15z" fill="#f6f1f1"/><path d="m255.99 338.22v173.78c-59.47 0-114.21-20.28-157.66-54.31v-88.32c0-17.2 13.94-31.15 31.15-31.15z" fill="#66b49d"/><path d="m413.65 369.37v88.34c-43.46 34.01-98.19 54.29-157.65 54.29h-.01v-173.78h126.51c17.2 0 31.15 13.95 31.15 31.15z" fill="#80e29d"/><path d="m278.07 338.22v172.84c-7.27.62-14.63.94-22.07.94h-.01c-7.43 0-14.79-.32-22.07-.94v-172.84z" fill="#1e8470"/><path d="m233.924 358.014h44.141v19.793h-44.141z" fill="#ecc32e"/><path d="m377.674 403.639h-66.464c-6.217 0-11.257-5.04-11.257-11.257v-17.384c0-6.217 5.04-11.257 11.257-11.257h66.464c6.217 0 11.257 5.04 11.257 11.257v17.384c0 6.217-5.04 11.257-11.257 11.257z" fill="#ecc32e"/><path d="m312.954 383.69c0-3.838 3.111-6.949 6.949-6.949h49.08c3.838 0 6.949 3.111 6.949 6.949 0 3.838-3.111 6.949-6.949 6.949h-49.08c-3.838 0-6.949-3.111-6.949-6.949z" fill="#2f373b"/><path d="m233.924 392.687h44.141v19.793h-44.141z" fill="#ecc32e"/></g></svg>