<?xml version="1.0" encoding="iso-8859-1"?>
<!-- Generator: Adobe Illustrator 19.0.0, SVG Export Plug-In . SVG Version: 6.00 Build 0)  -->
<svg version="1.1" id="Capa_1" xmlns="http://www.w3.org/2000/svg" xmlns:xlink="http://www.w3.org/1999/xlink" x="0px" y="0px"
	 viewBox="0 0 512 512" style="enable-background:new 0 0 512 512;" xml:space="preserve">
<g>
	<g>
		<g>
			<path d="M100.871,316.142c-10.959-1.305-20.921,6.515-22.234,17.482c-5.792,48.407-13.102,81.692-23.004,104.751
				C41.193,472,25.796,472,20,472c-11.046,0-20,8.954-20,20c0,11.046,8.954,20,20,20c31.551,0,55.905-19.461,72.388-57.841
				c11.455-26.677,19.706-63.468,25.966-115.783C119.666,327.408,111.839,317.454,100.871,316.142z"/>
			<path d="M492,236h-58.479c4.442-48.206,9.875-99.649,19.883-137.941C463.473,59.534,476.458,40,492,40c11.046,0,20-8.954,20-20
				s-8.954-20-20-20c-14.091,0-34.495,4.891-51.68,28.192c-10.423,14.132-18.802,33.677-25.616,59.752
				c-11.047,42.269-16.705,97.25-21.351,148.056H127.81c4.374-54.016,8.739-104.725,17.89-142.786C151.538,68.938,161.88,40,178,40
				c21.552,0,38.194,46.576,49.466,138.436c1.346,10.964,11.336,18.751,22.287,17.416c10.964-1.346,18.761-11.324,17.416-22.287
				c-6.518-53.114-13.886-88.559-23.89-114.927C228.517,19.729,206.554,0,178,0c-13.36,0-32.606,4.733-48.422,27.281
				c-9.384,13.381-16.832,31.889-22.769,56.58c-10.05,41.797-14.537,95.321-19.13,152.138H20c-11.046,0-20,8.954-20,20
				c0,11.046,8.954,20,20,20h217.616c5.939,59.911,11.688,109.384,22.32,149.6c6.751,25.537,14.913,44.677,24.953,58.516
				C301.609,507.162,321.368,512,335,512c28.938,0,51.013-19.755,65.612-58.715c9.866-26.33,16.985-61.8,23.082-115.009
				c1.257-10.973-6.619-20.888-17.594-22.146c-10.978-1.264-20.889,6.621-22.146,17.594C373.44,425.477,356.971,472,335,472
				c-17.707,0-29.564-30.793-36.394-56.624c-10.227-38.683-16.165-92.629-20.8-139.376H492c11.046,0,20-8.954,20-20
				C512,244.954,503.046,236,492,236z"/>
		</g>
	</g>
</g>
<g>
</g>
<g>
</g>
<g>
</g>
<g>
</g>
<g>
</g>
<g>
</g>
<g>
</g>
<g>
</g>
<g>
</g>
<g>
</g>
<g>
</g>
<g>
</g>
<g>
</g>
<g>
</g>
<g>
</g>
</svg>
