<svg id="Capa_1" enable-background="new 0 0 512 512" height="512" viewBox="0 0 512 512" width="512" xmlns="http://www.w3.org/2000/svg"><g><path d="m512 256c0 36.52-7.65 71.25-21.43 102.68-8.24 18.8-18.67 36.41-30.98 52.53-5.7 7.48-11.81 14.62-18.28 21.41-7.96 8.35-16.47 16.15-25.48 23.36-43.8 35.05-99.37 56.02-159.83 56.02s-116.03-20.97-159.83-56.02c-9.01-7.21-17.52-15.01-25.48-23.36-3.24-3.4-6.4-6.9-9.45-10.48 0 0 0 0-.01-.01-1.5-1.75-2.98-3.53-4.43-5.32-1.49-1.84-2.95-3.71-4.39-5.6-3.18-4.17-6.24-8.44-9.17-12.81-8.39-12.51-15.7-25.79-21.81-39.72-13.78-31.43-21.43-66.16-21.43-102.68s7.65-71.25 21.43-102.69c5.23-11.92 11.33-23.36 18.24-34.24 24.47-38.58 58.96-70.16 99.83-91.08 34.94-17.89 74.54-27.99 116.5-27.99s81.56 10.1 116.5 27.99c52.4 26.82 94.33 71.18 118.07 125.32 13.78 31.44 21.43 66.17 21.43 102.69z" fill="#bc95e2"/><path d="m490.57 81.69v276.99c-8.24 18.8-18.67 36.41-30.98 52.53-5.7 7.48-11.81 14.62-18.28 21.41-1.46.13-2.94.19-4.44.19h-361.74c-1.5 0-2.98-.06-4.44-.19-6.47-6.79-12.58-13.93-18.28-21.41-12.31-16.12-22.74-33.73-30.98-52.53v-276.99c0-29.66 24.04-53.7 53.7-53.7h361.74c29.66 0 53.7 24.04 53.7 53.7z" fill="#ecc32e"/><g fill="#e7a52e"><path d="m61.24 422.14c8.96 6.7 20.08 10.67 32.13 10.67h-18.25c-1.49 0-2.97-.06-4.43-.19-3.24-3.4-6.4-6.9-9.45-10.48z"/><path d="m39.67 379.11c0 6.8 1.26 13.31 3.57 19.29-8.39-12.51-15.7-25.79-21.81-39.72v-276.99c0-29.66 24.04-53.7 53.69-53.7h18.25c-29.66 0-53.7 24.04-53.7 53.7z"/><path d="m75.125 392.81c-7.551 0-13.694-6.144-13.694-13.695v-297.43c0-7.552 6.144-13.695 13.694-13.695h361.75c7.551 0 13.694 6.144 13.694 13.695v297.43c0 7.552-6.144 13.695-13.694 13.695z"/></g><path d="m75.125 380.81c-.918 0-1.694-.776-1.694-1.695v-297.43c0-.919.776-1.695 1.694-1.695h361.75c.918 0 1.694.776 1.694 1.695v297.43c0 .919-.776 1.695-1.694 1.695z" fill="#66b49d"/><path d="m93.37 177.219c41.441-57.778 77.829-89.952 108.539-78.207s-23.174 55.033 0 78.207 119.307-98.751 155.805-80.652-27.58 86.109-12.274 101.416 54.529-27.081 71.61-10-47.1 94.936-29.668 112.368 30.237-1.491 40.712 15.227-87.344 70.28-102.03 55.594 19.924-60.822 0-80.746-99.656 92.388-115.946 76.098 18.342-88.406 4.256-102.492-71.277 98.272-92.775 77.653 44.353-129.033 5.074-115.393c-51.934 18.035-46.145-31.168-33.303-49.073z" fill="#80e29d"/><g><path d="m115.464 308.554-2.168-.54c-4.706-1.172-9.471 1.692-10.644 6.398l-11.289 45.312c-1.172 4.706 1.692 9.471 6.398 10.644l2.168.54c4.706 1.172 9.472-1.692 10.644-6.398l11.289-45.312c1.173-4.706-1.692-9.472-6.398-10.644z" fill="#f6f1f1"/><path d="m102.404 371.165c-.812.035-1.647-.05-2.472-.255l-2.174-.542c-4.706-1.173-7.569-5.936-6.397-10.642l11.29-45.315c1.173-4.706 5.936-7.57 10.642-6.397l2.174.542c.825.205 1.601.523 2.302.934-3.801.156-7.196 2.783-8.161 6.654l-11.29 45.315c-.964 3.872.803 7.785 4.086 9.706z" fill="#dfeaef"/></g><g><path d="m97.796 320.131-2.168-.54c-4.706-1.172-9.471 1.692-10.644 6.398l-11.289 45.312c-1.172 4.706 1.692 9.471 6.398 10.644l2.168.54c4.706 1.172 9.472-1.692 10.644-6.398l11.289-45.312c1.173-4.706-1.692-9.472-6.398-10.644z" fill="#f6f1f1"/><path d="m84.736 382.742c-.812.035-1.647-.05-2.472-.255l-2.174-.542c-4.706-1.173-7.569-5.936-6.397-10.642l11.29-45.315c1.173-4.706 5.936-7.57 10.642-6.397l2.174.542c.825.205 1.601.523 2.302.934-3.801.156-7.196 2.783-8.161 6.654l-11.29 45.315c-.964 3.872.803 7.785 4.086 9.706z" fill="#dfeaef"/></g><g><path d="m64.479 313.325-2.218.273c-4.813.593-8.235 4.976-7.642 9.789l5.71 46.347c.593 4.814 4.976 8.235 9.789 7.642l2.218-.273c4.813-.593 8.235-4.976 7.642-9.789l-5.71-46.347c-.592-4.813-4.975-8.235-9.789-7.642z" fill="#f6f1f1"/><path d="m74.739 376.456c-.746.324-1.555.544-2.399.648l-2.223.274c-4.814.593-9.195-2.827-9.788-7.641l-5.71-46.35c-.593-4.814 2.827-9.195 7.641-9.788l2.223-.274c.843-.104 1.682-.086 2.484.047-3.492 1.508-5.72 5.178-5.232 9.138l5.71 46.35c.488 3.961 3.54 6.98 7.294 7.596z" fill="#dfeaef"/></g><path d="m116.51 340.115v76.695h-59.71c-1.49-1.84-2.95-3.71-4.39-5.6v-71.095z" fill="#2f373b"/><path d="m449.26 422.14c-5.31 2.22-19.6 2.32-33.04 1.81-14.61-.55-28.21-1.81-28.21-1.81-33.23-7.74-34.6-18.62-25.42-27.81 6.28-6.28 33.02-22.32 54.43-26.69 9.91-2.02 18.68-1.55 23.76 3.53 16.08 16.08 19.55 46.33 8.48 50.97z" fill="#f6f1f1"/><path d="m416.22 423.95c-14.61-.55-28.21-1.81-28.21-1.81-33.23-7.74-34.6-18.62-25.42-27.81 6.28-6.28 33.02-22.32 54.43-26.69h.03c-18.11 5.71-30.31 33.17-5.25 49.17 3.78 2.41 5.02 4.81 4.42 7.14z" fill="#dfeaef"/><path d="m459.59 411.21c-12.71 16.65-27.41 31.69-43.76 44.77h-319.66c-16.35-13.08-31.05-28.12-43.76-44.77z" fill="#e7a52e"/><path d="m114.05 334.136h-59.18c-4.17 0-7.55 3.38-7.55 7.55 0 4.17 3.38 7.55 7.55 7.55h59.18c4.17 0 7.55-3.38 7.55-7.55 0-4.169-3.38-7.55-7.55-7.55z" fill="#2f373b"/></g></svg>