<svg id="Capa_1" enable-background="new 0 0 512 512" height="512" viewBox="0 0 512 512" width="512" xmlns="http://www.w3.org/2000/svg">
    <g>

        <g>
            <path
                d="m342.85 25.275 84.062 325.583c4.652 18.016-6.18 36.388-24.197 41.04l-276.535 71.399c-18.016 4.652-36.388-6.18-41.04-24.197l-84.062-325.583c-4.652-18.016 6.18-36.388 24.197-41.04l276.535-71.399c18.017-4.652 36.389 6.18 41.04 24.197z"
                fill="#dfeaef" />
            <g>
                <g fill="#404a4a">
                    <path
                        d="m321.826 167.469-233.514 60.291c-4.243 1.096-8.571-1.456-9.666-5.699l-.452-1.752c-1.096-4.243 1.456-8.571 5.699-9.666l233.514-60.291c4.243-1.096 8.571 1.456 9.666 5.699l.452 1.752c1.096 4.242-1.456 8.57-5.699 9.666z" />
                    <path
                        d="m331.956 206.702-233.515 60.291c-4.243 1.095-8.571-1.456-9.666-5.699l-.452-1.752c-1.096-4.243 1.456-8.571 5.699-9.666l233.514-60.291c4.243-1.096 8.571 1.456 9.666 5.699l.452 1.752c1.096 4.243-1.455 8.57-5.698 9.666z" />
                    <path
                        d="m342.085 245.935-233.514 60.291c-4.243 1.096-8.571-1.456-9.666-5.699l-.452-1.752c-1.096-4.243 1.456-8.571 5.699-9.666l233.514-60.291c4.243-1.096 8.571 1.456 9.666 5.699l.452 1.752c1.096 4.243-1.456 8.57-5.699 9.666z" />
                    <path
                        d="m352.215 285.168-233.514 60.291c-4.243 1.096-8.571-1.456-9.666-5.699l-.452-1.752c-1.096-4.243 1.456-8.571 5.699-9.666l233.514-60.291c4.243-1.096 8.571 1.456 9.666 5.699l.452 1.752c1.095 4.243-1.456 8.571-5.699 9.666z" />
                    <path
                        d="m273.939 347.227-144.233 37.239c-4.727 1.22-9.548-1.622-10.769-6.349-1.22-4.727 1.622-9.548 6.349-10.769l144.233-37.239c4.727-1.22 9.548 1.622 10.769 6.349 1.221 4.727-1.622 9.548-6.349 10.769z" />
                </g>
            </g>
            <path
                d="m112.566 133.947c1.424-4.348 1.671-9.135.445-13.885-3.421-13.251-16.986-21.249-30.237-17.827l-19.508 5.037c-4.738 1.223-7.588 6.056-6.364 10.794l7.984 30.924.013.05 9.342 36.184c.589 2.282 2.063 4.235 4.096 5.428 2.022 1.186 4.43 1.522 6.698.936.013-.003.026-.007.038-.01 0 0 17.913-4.71 22.856-5.987 14.698-3.795 23.569-18.84 19.774-33.538-2.146-8.312-7.892-14.758-15.137-18.106zm-25.363-14.554c3.79-.979 7.67 1.309 8.649 5.099s-1.309 7.67-5.099 8.649c-1.426.368-4.102 1.067-7.025 1.833l-3.899 1.007-3.554-13.766zm16.296 49.04c-2.643.682-8.98 2.343-14.324 3.745l-4.912-19.025c1.294-.34 2.624-.688 3.908-1.025l10.423-2.691c5.237-1.352 10.598 1.809 11.95 7.046s-1.808 10.598-7.045 11.95z"
                fill="#66b49d" />
        </g>
        <g>
            <path
                d="m512 260.48-.04.17-28.95 113.77c-37.27 71.33-107.19 122.9-189.91 134.91l-163.3-41.55c-18.04-4.59-28.93-22.92-24.35-40.95l82.91-325.88c4.59-18.04 22.92-28.93 40.96-24.34l209.42 53.28 73.22 130.52z"
                fill="#f6f1f1" />
            <path d="m512 260.479-67.366-17.139c-18.033-4.588-28.93-22.921-24.342-40.954l18.445-72.501z" fill="#dfeaef" />
            <g>
                <g fill="#404a4a">
                    <path
                        d="m443.617 302.529-233.727-59.463c-4.247-1.08-6.814-5.399-5.733-9.646l.446-1.754c1.08-4.247 5.399-6.814 9.646-5.733l233.726 59.463c4.247 1.08 6.814 5.399 5.733 9.646l-.446 1.754c-1.08 4.247-5.398 6.814-9.645 5.733z" />
                    <path
                        d="m433.626 341.798-233.726-59.463c-4.247-1.08-6.814-5.399-5.733-9.646l.446-1.754c1.08-4.247 5.399-6.814 9.646-5.733l233.726 59.463c4.247 1.08 6.814 5.399 5.733 9.646l-.446 1.754c-1.08 4.246-5.399 6.813-9.646 5.733z" />
                    <path
                        d="m423.636 381.067-233.726-59.463c-4.247-1.081-6.814-5.399-5.733-9.646l.446-1.754c1.08-4.247 5.399-6.814 9.646-5.733l233.726 59.463c4.247 1.081 6.814 5.399 5.733 9.646l-.446 1.754c-1.081 4.246-5.399 6.813-9.646 5.733z" />
                    <path
                        d="m413.645 420.336-233.726-59.463c-4.247-1.08-6.814-5.399-5.733-9.646l.446-1.754c1.08-4.247 5.399-6.814 9.646-5.733l233.726 59.463c4.247 1.08 6.814 5.399 5.733 9.646l-.446 1.754c-1.08 4.246-5.399 6.813-9.646 5.733z" />
                    <path
                        d="m315.169 437.092-144.364-36.728c-4.731-1.204-7.591-6.015-6.387-10.746 1.204-4.731 6.015-7.591 10.746-6.387l144.364 36.728c4.731 1.204 7.591 6.015 6.387 10.746-1.204 4.731-6.015 7.591-10.746 6.387z" />
                </g>
                <path
                    d="m282.255 141.555c-.01-.086-.02-.172-.033-.258-.597-4.205-3.641-7.596-7.756-8.643-.003-.001-.007-.002-.01-.003-4.121-1.044-8.417.489-10.947 3.905-.043.058-.085.116-.126.175l-42.101 59.851c-2.816 4.003-1.853 9.53 2.149 12.345.908.639 1.895 1.083 2.911 1.342 3.46.88 7.258-.397 9.434-3.491l6.972-9.911 28.7 7.302 1.347 12.002c.545 4.863 4.931 8.363 9.793 7.817 4.863-.546 8.363-4.93 7.817-9.793zm-28.597 39.801 13.135-18.673 2.543 22.661z"
                    fill="#f93d6e" />
            </g>
        </g>
    </g>
</svg>