<?xml version="1.0" encoding="iso-8859-1"?>
<!-- Generator: Adobe Illustrator 19.0.0, SVG Export Plug-In . SVG Version: 6.00 Build 0)  -->
<svg version="1.1" id="Capa_1" xmlns="http://www.w3.org/2000/svg" xmlns:xlink="http://www.w3.org/1999/xlink" x="0px" y="0px"
	 viewBox="0 0 512 512" style="enable-background:new 0 0 512 512;" xml:space="preserve">
<g>
	<g>
		<g>
			<path d="M208,214c-11.046,0-20,8.954-20,20v56h-54v-56c0-11.046-8.954-20-20-20s-20,8.954-20,20v152c0,11.046,8.954,20,20,20
				s20-8.954,20-20v-56h54v56c0,11.046,8.954,20,20,20s20-8.954,20-20V234C228,222.954,219.046,214,208,214z"/>
			<path d="M336,446h-14.326c29.216-33.116,33.036-49.441,33.036-60c0-27.57-22.43-50-50-50c-0.12,0-0.235,0.016-0.355,0.018
				C304.236,336.016,304.12,336,304,336c-27.57,0-50,22.43-50,50c0,11.046,8.954,20,20,20c11.046,0,20-8.954,20-20
				c0-5.421,4.579-10,10-10c0.12,0,0.236-0.016,0.355-0.018c0.119,0.002,0.235,0.018,0.355,0.018c5.351,0,9.881,4.462,9.998,9.79
				c-0.195,1.029-2.659,11.331-26.191,37.281c-13.94,15.374-27.81,27.984-27.945,28.106c-6.128,5.552-8.208,14.303-5.233,22.018
				C258.314,480.911,265.73,486,274,486h62c11.046,0,20-8.954,20-20C356,454.954,347.046,446,336,446z"/>
			<path d="M212.753,6.497C208.965,2.357,203.611,0,198,0c-5.611,0-10.965,2.357-14.753,6.497
				c-1.847,2.017-45.726,50.095-90.341,110.566C31.258,200.623,0,264.883,0,308.058v5.467C0,422.965,88.822,512,198,512
				c11.046,0,20-8.954,20-20c0-11.046-8.954-20-20-20c-87.121,0-158-71.092-158-158.474v-5.467c0-33.43,30.149-92.73,84.894-166.978
				c28.094-38.102,56.475-71.783,73.101-90.912c26.854,30.915,84.427,99.877,122.347,164.589c5.585,9.533,17.84,12.728,27.367,7.145
				c9.531-5.585,12.729-17.838,7.145-27.367C302.062,104.446,216.375,10.454,212.753,6.497z"/>
			<path d="M440,219c-39.701,0-72,32.299-72,72v43c0,39.701,32.299,72,72,72s72-32.299,72-72v-43C512,251.299,479.701,219,440,219z
				 M472,334c0,17.645-14.355,32-32,32c-17.645,0-32-14.355-32-32v-43c0-17.645,14.355-32,32-32c17.645,0,32,14.355,32,32V334z"/>
		</g>
	</g>
</g>
<g>
</g>
<g>
</g>
<g>
</g>
<g>
</g>
<g>
</g>
<g>
</g>
<g>
</g>
<g>
</g>
<g>
</g>
<g>
</g>
<g>
</g>
<g>
</g>
<g>
</g>
<g>
</g>
<g>
</g>
</svg>
