<svg id="Capa_1" enable-background="new 0 0 512 512" height="512" viewBox="0 0 512 512" width="512" xmlns="http://www.w3.org/2000/svg"><g><path d="m512 256c0 78.62-35.44 148.96-91.22 195.92-29.28 24.65-64.16 42.86-102.46 52.43-6.61 1.66-13.33 3.05-20.13 4.18-13.73 2.29-27.82 3.47-42.19 3.47-7.22 0-14.36-.3-21.43-.89-29.52-2.44-57.62-9.9-83.45-21.52-6.48-2.92-12.83-6.1-19.01-9.52-6.91-3.83-13.63-7.97-20.13-12.4-67.6-46.08-111.98-123.69-111.98-211.67 0-21.02 2.53-41.45 7.31-60.99 1.42-5.82 3.05-11.56 4.86-17.22 3.15-9.82 6.87-19.39 11.14-28.65 10.34-22.5 23.86-43.23 39.97-61.64 13.09-14.97 27.9-28.4 44.12-39.98 7.54-5.38 15.38-10.37 23.5-14.92 15.56-8.74 32.14-15.89 49.5-21.25 23.89-7.38 49.28-11.35 75.6-11.35 101.25 0 188.77 58.78 230.29 144.08 7.29 14.95 13.16 30.72 17.43 47.13 5.41 20.69 8.28 42.41 8.28 64.79z" fill="#bc95e2"/><g><g><path d="m317.73 122.88-16.97 16.97c-13.35 13.35-25.02 28.18-34.83 44.16-9.8 15.99-17.72 33.11-23.56 51.06-5.17 15.88-7.8 32.49-7.8 49.19v226.85c-29.52-2.44-57.62-9.9-83.45-21.52-6.48-2.92-12.83-6.1-19.01-9.52-6.91-3.83-13.63-7.97-20.13-12.4v-187.35c0-6.78-3.44-13.02-8.99-16.92-.02-.02-.05-.04-.08-.06h-.01l-91.27-64.54c-1.6-1.13-3.04-2.41-4.32-3.79-8.42-9.09-9.83-22.98-2.85-33.68.18-.29.4-.6.6-.88 4.48-6.34 11.14-10.21 18.25-11.31 6.81-1.06 14.02.43 20.1 4.72l46.81 33.11c-.07-.73-.13-1.48-.23-2.22-.41-4.35-.95-8.69-1.61-13.01-2.47-16.34-6.52-32.44-12.13-48.08l-12.97-36.16-9.83-27.39c-1.49-4.18-1.92-8.48-1.42-12.62 1.23-9.99 7.91-18.94 18.03-22.57 8.37-3 17.23-1.71 24.17 2.75 4.94 3.17 8.89 7.92 11.02 13.86l2.15 5.99 23.5 65.49v-85.5c0-3.16.53-6.2 1.52-9.02 3.48-10.07 12.65-17.47 23.66-18.39.52-.05 1.06-.07 1.62-.09.05-.01.12 0 .19-.01.57 0 1.13.01 1.69.02 8.49.38 16.01 4.78 20.82 11.33 1.34 1.83 2.48 3.83 3.36 5.96 1.41 3.35 2.18 7.02 2.18 10.83v86.74l25.95-80.97c1.29-4.01 3.42-7.52 6.12-10.41 6.52-6.93 16.39-10.22 26.1-8.02.7.15 1.4.34 2.1.55.11.03.2.06.29.1 2.46.79 4.73 1.88 6.78 3.24 7.8 5.15 12.46 13.98 12.35 23.3-.03 2.67-.46 5.38-1.32 8.06l-22.55 70.27 37.05-37.04c10.76-10.75 28.16-10.75 38.91.01 10.76 10.73 10.76 28.16.01 38.91z" fill="#ffcbbe"/><g fill="#eaac9d"><path d="m317.725 83.957c-7.323-7.323-33.334 19.348-49.466 37.457-7.111 7.982-19.644 7.792-26.497-.412l37.045-37.045c10.753-10.743 28.175-10.743 38.918 0z"/><path d="m246.221 16.038c-10.922-2.647-29.682 58.694-38.686 90.717-2.616 9.305-13.499 13.402-21.604 8.136l25.965-80.969c4.613-14.377 19.94-22.334 34.325-17.884z"/><path d="m130.898 113.007v-85.495c0-14.962 11.935-27.137 26.801-27.502-8.155.95-8.881 66.735-8.715 100.467.045 9.369-9.327 15.859-18.086 12.53z"/><path d="m177.101 201.688c-18.924-24.181-42.042-31.049-58.116-32.554-2.354-.22-4.624-.331-6.796-.364-13.352-35.104-51.792-138.761-42.129-143.853-14.309 5.131-21.737 20.891-16.605 35.2l22.794 63.547c7.332 20.459 12.021 41.734 13.972 63.307 0 0 .553-.282 1.583-.731 7.036-3.071 14.694-4.452 22.364-4.094 15.248.71 35.764 6.363 52.48 27.721 1.31 1.673 3.257 2.549 5.231 2.549 1.434 0 2.877-.46 4.089-1.407 2.885-2.267 3.39-6.436 1.133-9.321z"/><path d="m132.11 302.5v177.57c-6.91-3.83-13.63-7.97-20.13-12.4v-187.35c0-6.78-3.44-13.02-8.99-16.92-.02-.02-.05-.04-.08-.06h-.01l-91.27-64.54c-1.6-1.13-3.04-2.41-4.32-3.79-8.42-9.09-9.83-22.98-2.85-33.68.18-.29.4-.6.6-.88-2.17 3.8.88 10 7.11 17.34 17.77 20.93 61.38 51.14 83.38 61.29 29.7 13.7 36.56 31.42 36.56 63.42z"/></g></g></g><path d="m234.57 342.77v168.34c-45.22-3.74-87.11-19.25-122.59-43.44v-124.9z" fill="#f93d6e"/><path d="m151.12 342.77v146.82c-13.73-6.17-26.82-13.52-39.14-21.92v-124.9z" fill="#e41753"/><g><g><path d="m503.94 190.99-.22.22-16.76 16.75c-13.35 13.35-25.01 28.18-34.82 44.16-9.8 15.99-17.72 33.11-23.56 51.06-5.17 15.88-7.8 32.49-7.8 49.19v99.55c-34.33 28.91-76.37 48.95-122.59 56.61v-160.1c0-6.78-3.44-13.02-8.99-16.92-.02-.02-.05-.04-.08-.06h-.01l-91.27-64.54c-12.12-8.58-15.21-25.14-7.18-37.47.19-.29.4-.6.6-.88 8.78-12.42 25.94-15.36 38.36-6.59l46.81 33.11c-.07-.73-.13-1.48-.23-2.22-.41-4.35-.96-8.69-1.61-13.01-2.47-16.34-6.52-32.44-12.13-48.08l-22.8-63.55c-1.49-4.18-1.92-8.48-1.42-12.62 1.23-9.99 7.91-18.94 18.03-22.57 8.36-3 17.23-1.71 24.17 2.75 4.93 3.17 8.89 7.92 11.01 13.86l25.66 71.48v-85.5c0-3.16.52-6.2 1.52-9.02 3.48-10.07 12.64-17.47 23.65-18.39.53-.05 1.07-.07 1.63-.09.05-.01.12 0 .19-.01.57 0 1.13.01 1.69.02 10.87.48 20.14 7.57 24.18 17.29 1.4 3.35 2.17 7.02 2.17 10.83v86.74l25.96-80.97c1.29-4.01 3.42-7.52 6.12-10.41 6.52-6.93 16.39-10.22 26.09-8.02.71.15 1.41.34 2.11.55.11.03.19.06.29.1 2.46.79 4.73 1.88 6.78 3.24 7.8 5.15 12.46 13.98 12.34 23.3-.02 2.67-.45 5.38-1.31 8.06l-22.55 70.27 37.05-37.04c5.84-5.84 13.64-8.5 21.27-7.99 6.42.41 12.72 3.08 17.64 8 10.76 10.73 10.07 28.85.01 38.91z" fill="#c18678"/><g fill="#b46e59"><path d="m503.933 152.067c-7.323-7.323-33.334 19.348-49.466 37.457-7.111 7.982-19.644 7.792-26.497-.412l37.045-37.045c10.753-10.743 28.175-10.743 38.918 0z"/><path d="m432.429 84.147c-10.922-2.647-29.682 58.694-38.686 90.717-2.616 9.305-13.499 13.402-21.604 8.136l25.965-80.969c4.613-14.376 19.94-22.333 34.325-17.884z"/><path d="m317.106 181.117v-85.495c0-14.962 11.935-27.137 26.801-27.502-8.155.95-8.881 66.735-8.715 100.467.045 9.369-9.327 15.858-18.086 12.53z"/><path d="m363.309 269.798c-18.924-24.181-42.042-31.049-58.116-32.554-2.354-.22-4.624-.331-6.796-.364-13.352-35.104-51.792-138.76-42.129-143.853-14.309 5.131-21.737 20.891-16.605 35.2l22.794 63.547c7.332 20.459 12.021 41.734 13.972 63.307 0 0 .553-.282 1.583-.731 7.036-3.071 14.694-4.452 22.364-4.094 15.248.71 35.764 6.363 52.48 27.721 1.31 1.673 3.257 2.549 5.231 2.549 1.434 0 2.877-.46 4.089-1.407 2.885-2.267 3.39-6.436 1.133-9.321z"/><path d="m318.32 370.61v133.74c-6.61 1.66-13.33 3.05-20.13 4.18v-160.1c0-6.78-3.44-13.02-8.99-16.92-.02-.02-.05-.04-.08-.06h-.01l-91.27-64.54c-12.12-8.58-15.21-25.14-7.18-37.47.19-.29.4-.6.6-.88-8.36 14.62 60.77 64.92 90.49 78.63 29.71 13.7 36.57 31.42 36.57 63.42z"/></g></g></g><path d="m232.789 410.162h-118.083c-7.418 0-13.432-6.014-13.432-13.432v-71.503c0-7.418 6.014-13.432 13.432-13.432h118.083c7.418 0 13.432 6.014 13.432 13.432v71.503c0 7.418-6.013 13.432-13.432 13.432z" fill="#f6f1f1"/><path d="m161.954 410.16h-47.24c-7.42 0-13.44-6.01-13.44-13.43v-71.5c0-7.42 6.02-13.44 13.44-13.44h47.24c-7.42 0-13.43 6.02-13.43 13.44v71.5c0 7.42 6.01 13.43 13.43 13.43z" fill="#dfeaef"/></g></svg>