<?xml version="1.0" encoding="iso-8859-1"?>
<!-- Generator: Adobe Illustrator 19.0.0, SVG Export Plug-In . SVG Version: 6.00 Build 0)  -->
<svg version="1.1" id="Capa_1" xmlns="http://www.w3.org/2000/svg" xmlns:xlink="http://www.w3.org/1999/xlink" x="0px" y="0px"
	 viewBox="0 0 512 512" style="enable-background:new 0 0 512 512;" xml:space="preserve">
<g>
	<g>
		<g>
			<path d="M247,233c-50.729,0-92,41.271-92,92c0,27.346,11.998,51.939,31,68.805v98.177c0,6.711,3.365,12.975,8.962,16.678
				c5.599,3.706,12.678,4.354,18.854,1.731l32.18-13.662l32.181,13.677c2.512,1.067,5.172,1.594,7.821,1.594
				c3.869,0,7.715-1.122,11.037-3.319C302.633,504.977,306,498.712,306,492v-96.469c20.158-16.89,33-42.237,33-70.531
				C339,274.271,297.729,233,247,233z M266,461.769l-12.177-5.175c-4.996-2.123-10.64-2.125-15.64-0.003L226,461.764v-47.185
				c6.748,1.582,13.777,2.421,21,2.421c6.512,0,12.867-0.685,19-1.978V461.769z M247,377c-28.673,0-52-23.327-52-52
				c0-28.673,23.327-52,52-52c28.673,0,52,23.327,52,52C299,353.673,275.673,377,247,377z"/>
			<path d="M492,304.111h-70V64.263C422,28.828,393.172,0,357.737,0H80C35.888,0,0,35.888,0,80v40.889c0,11.046,8.954,20,20,20h50
				V369c0,32.448,19.362,61.457,49.328,73.903c2.509,1.042,5.106,1.535,7.664,1.535c7.841,0,15.282-4.641,18.478-12.333
				c4.237-10.2-0.597-21.905-10.798-26.142C119.685,399.738,110,385.229,110,369V140.889h202c11.046,0,20-8.954,20-20V64.263
				C332,50.884,342.884,40,356.263,40h1.475C371.116,40,382,50.884,382,64.263v320.475c0,8.583,1.704,16.771,4.771,24.263H366
				c-11.046,0-20,8.954-20,20c0,11.046,8.954,20,20,20h82c0.09,0,0.176-0.012,0.266-0.013C483.457,448.7,512,419.995,512,384.737
				v-60.626C512,313.065,503.046,304.111,492,304.111z M292,64.263v36.626H40V80c0-22.056,17.944-40,40-40h216.755
				C293.69,47.489,292,55.683,292,64.263z M472,384.737C472,398.116,461.116,409,447.737,409h-1.475
				C432.884,409,422,398.116,422,384.737v-40.626h50V384.737z"/>
		</g>
	</g>
</g>
<g>
</g>
<g>
</g>
<g>
</g>
<g>
</g>
<g>
</g>
<g>
</g>
<g>
</g>
<g>
</g>
<g>
</g>
<g>
</g>
<g>
</g>
<g>
</g>
<g>
</g>
<g>
</g>
<g>
</g>
</svg>
