<?xml version="1.0" encoding="iso-8859-1"?>
<!-- Generator: Adobe Illustrator 19.0.0, SVG Export Plug-In . SVG Version: 6.00 Build 0)  -->
<svg version="1.1" id="Capa_1" xmlns="http://www.w3.org/2000/svg" xmlns:xlink="http://www.w3.org/1999/xlink" x="0px" y="0px"
	 viewBox="0 0 512 512" style="enable-background:new 0 0 512 512;" xml:space="preserve">
<g>
	<g>
		<path d="M136,0c-33.084,0-60,26.916-60,60s26.916,60,60,60s60-26.916,60-60S169.084,0,136,0z M136,80c-11.028,0-20-8.972-20-20
			s8.972-20,20-20s20,8.972,20,20S147.028,80,136,80z"/>
	</g>
</g>
<g>
	<g>
		<path d="M492,352c11.046,0,20-8.954,20-20v-74c0-11.046-8.954-20-20-20H306.223c7.996-2.618,13.777-10.129,13.777-19
			c0-11.046-8.954-20-20-20h-75.197l-72.608-55.853C148.698,140.458,144.411,139,140,139c-33.084,0-60,26.916-60,60v118
			c0,7.011,1.22,13.74,3.44,20H40V192c0-11.046-8.954-20-20-20s-20,8.954-20,20v300c0,11.046,8.954,20,20,20s20-8.954,20-20V377h88
			c11.028,0,20,8.972,20,20v95c0,11.046,8.954,20,20,20s20-8.954,20-20v-95c0-7.011-1.22-13.74-3.44-20h40.116
			c1.486,0,2.93-0.174,4.324-0.482V432c0,44.112,35.888,80,80,80h123c44.112,0,80-35.888,80-80c0-11.046-8.954-20-20-20
			c-11.046,0-20,8.954-20,20c0,22.056-17.944,40-40,40H309c-22.056,0-40-17.944-40-40V278h203v54C472,343.046,480.954,352,492,352z
			 M229,258v79.482c-1.394-0.308-2.838-0.482-4.324-0.482H140c-11.028,0-20-8.972-20-20V199c0-9.041,6.031-16.7,14.28-19.167
			l71.525,55.02C209.302,237.542,213.589,239,218,239h24.777C234.781,241.618,229,249.129,229,258z"/>
	</g>
</g>
<g>
</g>
<g>
</g>
<g>
</g>
<g>
</g>
<g>
</g>
<g>
</g>
<g>
</g>
<g>
</g>
<g>
</g>
<g>
</g>
<g>
</g>
<g>
</g>
<g>
</g>
<g>
</g>
<g>
</g>
</svg>
