<svg id="Capa_1" enable-background="new 0 0 512 512" height="512" viewBox="0 0 512 512" width="512" xmlns="http://www.w3.org/2000/svg"><g><circle cx="256" cy="256" fill="#78727c" r="256"/><g><g><path d="m512 256c0 37.414-8.021 72.952-22.459 104.983-7.681 17.089-17.198 33.186-28.292 48.046-24.852 33.281-57.617 60.322-95.494 78.309-16.885 8.021-34.777 14.248-53.443 18.435-18.123 4.079-36.966 6.227-56.312 6.227s-38.176-2.134-56.271-6.213c-4.758-1.06-9.462-2.257-14.112-3.576-107.158-30.589-185.617-129.237-185.617-246.211 0-79.098 35.878-149.834 92.258-196.779 10.074-8.388 20.801-16.029 32.099-22.799 38.474-23.126 83.502-36.422 131.643-36.422 42.146 0 81.912 10.183 116.974 28.224 17.28 8.891 33.417 19.7 48.127 32.126 55.592 46.958 90.899 117.191 90.899 195.65z" fill="#b9e4ef"/><path d="m309.579 505.787c.449.095.884.204 1.332.299-17.687 3.875-36.068 5.914-54.911 5.914-19.346 0-38.176-2.134-56.271-6.213-4.758-1.06-9.462-2.257-14.112-3.576-107.158-30.589-185.617-129.237-185.617-246.211 0-79.098 35.878-149.834 92.258-196.779 10.074-8.388 20.801-16.029 32.099-22.799 38.474-23.126 83.502-36.422 131.643-36.422 18.87 0 37.251 2.039 54.952 5.914-27.49 6.009-53.334 16.437-76.746 30.508-11.298 6.77-22.024 14.411-32.099 22.799-56.379 46.945-92.257 117.681-92.257 196.779 0 116.974 78.459 215.622 185.617 246.211 4.65 1.319 9.354 2.516 14.112 3.576z" fill="#93cbd3"/><path d="m312.312 505.773c-18.123 4.079-36.966 6.227-56.312 6.227s-38.176-2.134-56.271-6.213c18.109-4.079 36.939-6.227 56.271-6.227 19.346 0 38.189 2.148 56.312 6.213z" fill="#d3cfcf"/><path d="m0 256c0 116.974 78.459 215.622 185.617 246.211 24.458-31.963-65.23-61.192-65.23-118.66 0-59.344-82.399-68.289-87.403-95.222-4.961-26.706 11.446-27.245 43.993-59.792 9.769-9.769 22.649-13.673 36.466-15.469 7.189-42.571 24.882-81.575 50.331-114.241-19.819-18.512-45.294-33.557-71.515-39.606-56.381 46.945-92.259 117.681-92.259 196.779z" fill="#66b49d"/><path d="m511.995 256c0 37.414-8.019 72.951-22.451 104.98-19.865-64.896-111.711-65.239-129.592-100.964-20.053-40.107 119.553-35.844 95.024-71.498-24.506-35.666-74.958 51.445-106.16 20.243-13.133-13.133-9.684-40.863 3.354-69.408 8.846-19.333 22.073-39.044 37.556-54.846 9.743-9.968 20.396-18.377 31.379-24.152 25.51 21.542 46.732 47.984 62.239 77.864 13.511 26.017 22.687 54.645 26.561 84.926 1.381 10.758 2.09 21.718 2.09 32.855z" fill="#80e29d"/><path d="m461.249 409.029c-24.852 33.281-57.617 60.322-95.494 78.309 9.979-60.499 60.472-67.297 95.494-78.309z" fill="#80e29d"/><path d="m372.974 28.224c0 .014-.014.014-.014.014-76.079 42.431-223.113 33.662-248.604 8.184 38.475-23.126 83.503-36.422 131.644-36.422 42.146 0 81.912 10.183 116.974 28.224z" fill="#f6f1f1"/><path d="m256 0c-48.141 0-93.169 13.296-131.644 36.422 10.548 10.543 41.917 18.219 80.45 20.595 9.287-7.524 19.103-14.425 29.4-20.595 23.403-14.066 49.238-24.491 76.717-30.501-17.694-3.869-36.068-5.921-54.923-5.921z" fill="#dfeaef"/><path d="m509.904 223.145c-9.472-23.396-16.061-11.468-32.147-27.565-16.097-16.097 5.586-43.98 5.586-57.361 13.511 26.017 22.688 54.644 26.561 84.926z" fill="#b9e4ef"/><ellipse cx="312.809" cy="106.431" fill="#80e29d" rx="27.099" ry="14.924" transform="matrix(.411 -.912 .912 .411 87.192 347.83)"/></g></g><g><path d="m344.478 88.622v150.204c0 21.183-13.552 39.926-33.604 46.747-65.637 22.313-136.874 22.313-202.511 0-20.053-6.821-33.604-25.564-33.604-46.747v-150.204z" fill="#bc95e2"/><g fill="#9373b9"><path d="m166.198 88.618h-91.439v150.211c0 21.179 13.549 39.926 33.602 46.742 18.904 6.425 38.272 10.989 57.837 13.714z"/><path d="m344.478 102.894v86.795l-127.523 51.471c-4.708 1.9-9.965 1.9-14.673 0l-127.524-51.471v-86.795l35.365-14.272h198.99z"/><path d="m419.236 123.261v-11.97h-4.008c-2.003-2.61-4.751-4.788-8.256-6.203l-190.019-76.692c-4.706-1.899-9.965-1.899-14.671 0l-190.018 76.692c-3.505 1.415-6.253 3.593-8.256 6.203h-4.008v11.972c0 7.437 4.088 14.875 12.264 18.175l190.019 76.692c4.706 1.899 9.965 1.899 14.671 0l190.019-76.692c8.176-3.301 12.264-10.739 12.263-18.177z"/></g><path d="m406.972 93.116-190.019-76.692c-4.706-1.899-9.965-1.899-14.671 0l-190.018 76.692c-16.352 6.6-16.352 29.75 0 36.349l190.019 76.692c4.706 1.899 9.965 1.899 14.671 0l190.019-76.692c16.351-6.599 16.351-29.749-.001-36.349z" fill="#bc95e2"/><ellipse cx="209.618" cy="111.291" fill="#ecc32e" rx="28.873" ry="16.558"/><path d="m334.891 242.585h-14.739v-76.183l-113.423-48.331 5.778-13.56 122.384 52.151z" fill="#ecc32e"/><path d="m358.059 306.202c0-16.866-13.672-45.275-30.538-45.275s-30.538 28.409-30.538 45.275 13.672 15.801 30.538 15.801 30.538 1.065 30.538-15.801z" fill="#ecc32e"/><path d="m316.783 306.199c0 14.256 3.439 15.705 8.074 15.811-15.615.057-27.873.164-27.873-15.811 0-16.859 13.674-45.273 30.534-45.273-5.929.001-10.735 28.414-10.735 45.273z" fill="#e7a52e"/><circle cx="327.522" cy="242.585" fill="#ecc32e" r="23.032"/><path d="m335.302 264.267c-2.432.876-5.052 1.351-7.779 1.351-12.725 0-23.034-10.317-23.034-23.034 0-12.724 10.309-23.033 23.034-23.033 2.727 0 5.347.475 7.779 1.351-8.892 3.185-15.247 11.693-15.247 21.682.001 9.991 6.355 18.49 15.247 21.683z" fill="#e7a52e"/></g></g></svg>