<?xml version="1.0" encoding="iso-8859-1"?>
<!-- Generator: Adobe Illustrator 19.0.0, SVG Export Plug-In . SVG Version: 6.00 Build 0)  -->
<svg version="1.1" id="Capa_1" xmlns="http://www.w3.org/2000/svg" xmlns:xlink="http://www.w3.org/1999/xlink" x="0px" y="0px"
	 viewBox="0 0 512 512" style="enable-background:new 0 0 512 512;" xml:space="preserve">
<g>
	<g>
		<g>
			<path d="M425,354c-11.046,0-20,8.954-20,20v18H134V100c0-11.046-8.954-20-20-20s-20,8.954-20,20v292H74
				c-7.011,0-13.74,1.22-20,3.44V60c0-11.028,8.972-20,20-20h331v18c0,11.046,8.954,20,20,20c11.046,0,20-8.954,20-20V20
				c0-11.046-8.954-20-20-20H74C40.916,0,14,26.916,14,60v392c0,33.084,26.916,60,60,60h351c11.046,0,20-8.954,20-20
				c0-11.046-8.954-20-20-20H74c-11.028,0-20-8.972-20-20s8.972-20,20-20h351c11.046,0,20-8.954,20-20v-38
				C445,362.954,436.046,354,425,354z"/>
			<path d="M285,314c11.046,0,20-8.954,20-20V183.187l18.822,18.918c3.908,3.929,9.042,5.895,14.179,5.895
				c5.101,0,10.203-1.939,14.105-5.821c7.831-7.791,7.863-20.454,0.073-28.284l-47.419-47.664c-5.27-5.308-12.287-8.23-19.759-8.23
				c-7.472,0-14.489,2.923-19.746,8.217l-47.433,47.678c-7.791,7.83-7.758,20.493,0.073,28.284
				c7.83,7.789,20.494,7.758,28.284-0.073L265,183.187V294C265,305.046,273.954,314,285,314z"/>
			<path d="M492.106,230.821c-7.831-7.79-20.494-7.76-28.284,0.073L445,249.813V138c0-11.046-8.954-20-20-20
				c-11.046,0-20,8.954-20,20v111.813l-18.822-18.918c-7.789-7.83-20.453-7.863-28.284-0.073
				c-7.831,7.791-7.863,20.454-0.073,28.284l47.419,47.664c5.27,5.308,12.287,8.23,19.759,8.23c7.472,0,14.489-2.923,19.746-8.217
				l47.433-47.678C499.969,251.275,499.936,238.612,492.106,230.821z"/>
		</g>
	</g>
</g>
<g>
</g>
<g>
</g>
<g>
</g>
<g>
</g>
<g>
</g>
<g>
</g>
<g>
</g>
<g>
</g>
<g>
</g>
<g>
</g>
<g>
</g>
<g>
</g>
<g>
</g>
<g>
</g>
<g>
</g>
</svg>
