<svg id="Capa_1" enable-background="new 0 0 512 512" height="512" viewBox="0 0 512 512" width="512" xmlns="http://www.w3.org/2000/svg"><g><path d="m512 256c0 2.1-.03 4.19-.08 6.27v.01c-.6 25.35-4.9 49.78-12.37 72.78-7.91 24.38-19.37 47.15-33.77 67.7-30.57 43.62-74.4 77.26-125.64 95.08h-.01c-26.35 9.18-54.65 14.16-84.13 14.16-141.38 0-256-114.62-256-256s114.62-256 256-256 256 114.62 256 256z" fill="#bc95e2"/><g><path d="m388.944 194.472c0 5.112-.198 10.179-.585 15.193-2.773 35.841-15.254 68.954-34.83 96.719-5.948 8.447-12.557 16.401-19.751 23.785-32.02 32.863-75.571 54.437-124.113 58.19-5.014.387-10.081.585-15.193.585s-10.179-.198-15.193-.585c-48.542-3.753-92.093-25.327-124.113-58.19-7.194-7.384-13.803-15.337-19.751-23.785-19.576-27.765-32.058-60.879-34.83-96.719-.387-5.014-.585-10.081-.585-15.193s.198-10.179.585-15.193c2.773-35.84 15.254-68.954 34.83-96.719 5.948-8.447 12.557-16.401 19.751-23.785 32.02-32.863 75.571-54.437 124.113-58.19 5.013-.387 10.08-.585 15.193-.585 5.112 0 10.179.198 15.193.585 48.542 3.753 92.093 25.327 124.113 58.19 7.194 7.384 13.803 15.338 19.751 23.785 19.576 27.765 32.058 60.879 34.83 96.719.387 5.013.585 10.08.585 15.193z" fill="#e7a52e"/><path d="m243.477 382.715c-10.931 2.841-22.228 4.748-33.812 5.644-5.014.387-10.081.585-15.193.585s-10.179-.198-15.193-.585c-48.542-3.753-92.093-25.327-124.112-58.19-7.194-7.384-13.803-15.337-19.751-23.785-19.576-27.765-32.058-60.879-34.83-96.719-.388-5.014-.586-10.081-.586-15.193s.198-10.179.585-15.193c2.773-35.84 15.254-68.954 34.83-96.719 5.948-8.447 12.557-16.401 19.751-23.785 32.019-32.863 75.571-54.437 124.112-58.19 5.015-.387 10.081-.585 15.194-.585 5.112 0 10.179.198 15.193.585 11.585.896 22.881 2.803 33.812 5.644-34.861 9.048-65.923 27.522-90.3 52.545-7.194 7.384-13.803 15.338-19.751 23.785-19.576 27.765-32.058 60.879-34.83 96.719-.387 5.014-.585 10.081-.585 15.193s.198 10.179.585 15.193c2.773 35.841 15.254 68.954 34.83 96.719 5.948 8.447 12.557 16.401 19.751 23.785 24.377 25.024 55.44 43.499 90.3 52.547z" fill="#e28424"/><path d="m388.944 194.472c0-5.112-.198-10.179-.585-15.193h-73.375c2.963-35.544 16.295-68.969 38.545-96.719-5.948-8.447-12.557-16.401-19.751-23.785-28.981 34.017-46.111 75.882-49.286 120.504h-74.826v-178.694c-5.015-.387-10.082-.585-15.194-.585s-10.179.198-15.193.585v178.694h-74.826c-3.175-44.622-20.306-86.487-49.286-120.504-7.194 7.384-13.803 15.338-19.751 23.785 22.25 27.75 35.582 61.175 38.545 96.719h-73.376c-.387 5.013-.585 10.08-.585 15.193 0 5.112.198 10.179.585 15.193h73.375c-2.963 35.544-16.295 68.969-38.545 96.719 5.948 8.447 12.557 16.401 19.751 23.785 28.981-34.017 46.111-75.882 49.286-120.504h74.826v178.694c5.014.387 10.081.585 15.193.585s10.179-.198 15.193-.585v-178.694h74.826c3.175 44.622 20.306 86.487 49.286 120.504 7.194-7.384 13.803-15.337 19.751-23.785-22.25-27.75-35.582-61.175-38.545-96.719h73.375c.389-5.014.587-10.081.587-15.193z" fill="#2f373b"/></g><g><path d="m511.92 262.27c-1.25 52.2-18.14 100.53-46.14 140.49-30.57 43.62-74.4 77.26-125.64 95.08-.01.01-.01 0-.01 0-56.29-1.37-107.66-22.04-147.37-55.46-9.96-8.38-19.19-17.56-27.57-27.44-4.18-4.92-8.14-10.02-11.88-15.27-11.58-16.24-21.05-34.02-28.02-52.94 7.25-19.7 17.2-38.14 29.42-54.9 3.33-4.57 6.83-9.01 10.49-13.31 8.38-9.89 17.6-19.07 27.56-27.45 41.11-34.61 94.74-55.54 153.39-55.55 58.66 0 112.29 20.94 153.4 55.55 4.26 3.58 8.39 7.31 12.37 11.2z" fill="#d9723e"/><path d="m465.78 402.76c-30.57 43.62-74.4 77.26-125.64 95.08-77.44-1.89-145.55-40.27-186.81-98.12-11.6-16.25-21.08-34.04-28.05-52.99 5.8 7.41 13.33 14.43 22.38 20.97 41.52 30.05 114.9 50.01 198.49 50.01 43.7 0 84.62-5.45 119.63-14.95z" fill="#bd5423"/><g fill="#f6f1f1"><path d="m192.759 251.07v191.312c-9.959-8.381-19.189-17.563-27.562-27.444v-136.425c8.381-9.88 17.603-19.062 27.562-27.443z"/><path d="m511.92 262.27v.01c-.6 25.35-4.9 49.78-12.37 72.78v-83.99c4.26 3.59 8.39 7.32 12.37 11.2z"/></g><path d="m165.197 378.756c8.381 4.639 17.603 8.944 27.562 12.877v50.748c-9.959-8.381-19.189-17.563-27.562-27.444z" fill="#dfeaef"/><g fill="#bd5423"><circle cx="234.459" cy="378.918" r="8.306"/><circle cx="258.45" cy="366.799" r="8.306"/><circle cx="256.109" cy="390.697" r="8.306"/><circle cx="474.237" cy="374.085" r="8.306"/><circle cx="482.741" cy="347.449" r="8.306"/><circle cx="459.422" cy="352.843" r="8.306"/><path d="m240.051 305.804c-16.721 0-30.324-13.603-30.324-30.324s13.603-30.324 30.324-30.324h212.208c16.721 0 30.324 13.603 30.324 30.324s-13.603 30.324-30.324 30.324z"/></g><path d="m467.517 275.48c0-8.427-6.831-15.258-15.258-15.258h-212.209c-8.427 0-15.258 6.831-15.258 15.258 0 8.427 6.831 15.258 15.258 15.258h212.208c8.427 0 15.259-6.831 15.259-15.258z" fill="#181e21"/><g><g fill="#efe7e4"><path d="m257.03 324.525c-4.951 0-8.965-4.014-8.965-8.965v-80.16c0-4.951 4.014-8.965 8.965-8.965 4.951 0 8.965 4.014 8.965 8.965v80.16c0 4.951-4.014 8.965-8.965 8.965z"/><path d="m301.592 324.525c-4.951 0-8.965-4.014-8.965-8.965v-80.16c0-4.951 4.014-8.965 8.965-8.965 4.951 0 8.965 4.014 8.965 8.965v80.16c0 4.951-4.014 8.965-8.965 8.965z"/><path d="m346.155 324.525c-4.951 0-8.965-4.014-8.965-8.965v-80.16c0-4.951 4.014-8.965 8.965-8.965 4.951 0 8.965 4.014 8.965 8.965v80.16c0 4.951-4.014 8.965-8.965 8.965z"/><path d="m390.717 324.525c-4.951 0-8.965-4.014-8.965-8.965v-80.16c0-4.951 4.014-8.965 8.965-8.965 4.951 0 8.965 4.014 8.965 8.965v80.16c0 4.951-4.014 8.965-8.965 8.965z"/><path d="m435.28 324.525c-4.951 0-8.965-4.014-8.965-8.965v-80.16c0-4.951 4.014-8.965 8.965-8.965 4.951 0 8.965 4.014 8.965 8.965v80.16c0 4.951-4.014 8.965-8.965 8.965z"/></g><g fill="#dfeaef"><path d="m265.996 295.837v19.728c0 4.948-4.012 8.96-8.968 8.96-4.948 0-8.96-4.012-8.96-8.96v-19.728c0 4.948 4.012 8.96 8.96 8.96 4.956 0 8.968-4.012 8.968-8.96z"/><path d="m310.559 295.837v19.728c0 4.948-4.012 8.96-8.968 8.96-4.948 0-8.96-4.012-8.96-8.96v-19.728c0 4.948 4.012 8.96 8.96 8.96 4.956 0 8.968-4.012 8.968-8.96z"/><path d="m355.122 295.837v19.728c0 4.948-4.012 8.96-8.968 8.96-4.948 0-8.96-4.012-8.96-8.96v-19.728c0 4.948 4.012 8.96 8.96 8.96 4.955 0 8.968-4.012 8.968-8.96z"/><path d="m399.685 295.837v19.728c0 4.948-4.012 8.96-8.968 8.96-4.948 0-8.96-4.012-8.96-8.96v-19.728c0 4.948 4.012 8.96 8.96 8.96 4.955 0 8.968-4.012 8.968-8.96z"/><path d="m444.248 295.837v19.728c0 4.948-4.012 8.96-8.968 8.96-4.948 0-8.96-4.012-8.96-8.96v-19.728c0 4.948 4.012 8.96 8.96 8.96 4.955 0 8.968-4.012 8.968-8.96z"/></g></g></g></g></svg>