<svg id="Capa_1" enable-background="new 0 0 512 512" height="512" viewBox="0 0 512 512" width="512" xmlns="http://www.w3.org/2000/svg"><g><circle cx="256" cy="256" fill="#90d8f9" r="256"/><g><path d="m420.7 150.139v183.44c0 25.87-16.55 48.76-41.04 57.09-80.16 27.25-167.16 27.25-247.32 0-24.49-8.33-41.04-31.22-41.04-57.09v-183.44z" fill="#bc95e2"/><g fill="#9373b9"><path d="m202.972 150.135h-111.671v183.448c0 25.866 16.547 48.761 41.037 57.085 23.086 7.847 46.741 13.421 70.634 16.748z"/><path d="m420.7 167.569v106l-155.74 62.86c-5.75 2.32-12.17 2.32-17.92 0l-155.74-62.86v-106l43.19-17.43h243.02z"/><path d="m512 192.443v-14.619h-4.895c-2.446-3.187-5.802-5.848-10.083-7.575l-232.064-93.661c-5.747-2.319-12.17-2.319-17.917 0l-232.064 93.661c-4.281 1.728-7.637 4.388-10.082 7.575h-4.895v14.621c0 9.083 4.993 18.166 14.977 22.196l232.064 93.661c5.747 2.32 12.17 2.32 17.917 0l232.064-93.661c9.986-4.03 14.978-13.114 14.978-22.198z"/></g><path d="m497.023 155.628-232.065-93.661c-5.747-2.32-12.17-2.32-17.917 0l-232.064 93.661c-19.97 8.06-19.97 36.332 0 44.392l232.064 93.661c5.747 2.319 12.17 2.319 17.917 0l232.064-93.661c19.97-8.06 19.97-36.332.001-44.392z" fill="#bc95e2"/><ellipse cx="256" cy="177.824" fill="#ecc32e" rx="35.262" ry="20.221"/><path d="m408.992 338.169h-18v-93.039l-138.52-59.026 7.056-16.559 149.464 63.689z" fill="#ecc32e"/><path d="m437.287 415.863c0-20.597-16.698-55.292-37.295-55.292s-37.295 34.695-37.295 55.292 16.698 19.297 37.295 19.297 37.295 1.3 37.295-19.297z" fill="#ecc32e"/><path d="m386.877 415.86c0 17.41 4.2 19.18 9.86 19.31-19.07.07-34.04.2-34.04-19.31 0-20.59 16.7-55.29 37.29-55.29-7.24 0-13.11 34.7-13.11 55.29z" fill="#e7a52e"/><circle cx="399.992" cy="338.169" fill="#ecc32e" r="28.128"/><path d="m409.494 364.649c-2.97 1.07-6.17 1.65-9.5 1.65-15.54 0-28.13-12.6-28.13-28.13 0-15.54 12.59-28.13 28.13-28.13 3.33 0 6.53.58 9.5 1.65-10.86 3.89-18.62 14.28-18.62 26.48 0 12.201 7.76 22.581 18.62 26.48z" fill="#e7a52e"/></g></g></svg>