<svg id="Capa_1" enable-background="new 0 0 512 512" height="512" viewBox="0 0 512 512" width="512" xmlns="http://www.w3.org/2000/svg"><g><path d="m512 256c0 44.62-11.42 86.57-31.49 123.09-7.51 13.68-16.23 26.59-26.03 38.6-1.76 2.15-3.55 4.28-5.38 6.37-5.86 6.74-12.08 13.16-18.61 19.25l-.01.01c-5.08 4.75-10.35 9.28-15.81 13.59-43.62 34.5-98.74 55.09-158.67 55.09s-115.05-20.59-158.67-55.09c-14.65-11.59-28.01-24.75-39.81-39.22-35.95-44.08-57.52-100.37-57.52-161.69 0-66.88 25.65-127.77 67.64-173.37 46.79-50.8 113.86-82.63 188.36-82.63s141.57 31.83 188.35 82.63c4.82 5.23 9.42 10.66 13.79 16.28 33.75 43.37 53.86 97.88 53.86 157.09z" fill="#f93d6e"/><path d="m454.48 417.69c-46.94 57.56-118.42 94.31-198.48 94.31s-151.54-36.75-198.48-94.31z" fill="#bfbbb6"/><path d="m484.427 64.346h-456.854c-15.228 0-27.573 12.345-27.573 27.573v30.068c0 15.228 12.345 27.573 27.573 27.573h456.853c15.228 0 27.573-12.345 27.573-27.573v-30.068c.001-15.228-12.344-27.573-27.572-27.573z" fill="#bc95e2"/><path d="m216.279 64.346h79.442v116.583h-79.442z" fill="#9373b9"/><path d="m256 131.29v380.71c0-30.43-24.67-55.09-55.09-55.09h-103.58c-14.65-11.59-28.01-24.75-39.81-39.22-35.95-44.08-57.52-100.37-57.52-161.69v-159.838c0-7.474 6.058-13.532 13.532-13.532h193.808c26.874 0 48.66 21.786 48.66 48.66z" fill="#f6f1f1"/><path d="m498.468 82.63c7.473 0 13.532 6.058 13.532 13.532v159.838c0 61.32-21.57 117.61-57.52 161.69-11.8 14.47-25.16 27.63-39.81 39.22h-103.58c-30.42 0-55.09 24.66-55.09 55.09v-380.72c0-26.869 21.781-48.65 48.65-48.65z" fill="#dfeaef"/><path d="m512 98.91v157.09c0 61.32-21.57 117.61-57.52 161.69-11.8 14.47-25.16 27.63-39.81 39.22h-106.47v-329.27c0-15.87 12.86-28.73 28.73-28.73z" fill="#f6f1f1"/><g fill="#404a4a"><g><path d="m198.498 144.561h-169.412c-5.848 0-10.588-4.74-10.588-10.588 0-5.848 4.74-10.588 10.588-10.588h169.411c5.848 0 10.588 4.74 10.588 10.588.001 5.847-4.739 10.588-10.587 10.588z"/><path d="m198.498 187.565h-169.412c-5.848 0-10.588-4.74-10.588-10.588 0-5.848 4.74-10.588 10.588-10.588h169.411c5.848 0 10.588 4.74 10.588 10.588.001 5.848-4.739 10.588-10.587 10.588z"/><path d="m198.498 230.57h-169.412c-5.848 0-10.588-4.74-10.588-10.588 0-5.848 4.74-10.588 10.588-10.588h169.411c5.848 0 10.588 4.74 10.588 10.588.001 5.847-4.739 10.588-10.587 10.588z"/><path d="m137.746 273.574h-108.66c-5.848 0-10.588-4.741-10.588-10.588 0-5.848 4.74-10.588 10.588-10.588h108.66c5.848 0 10.588 4.741 10.588 10.588 0 5.848-4.74 10.588-10.588 10.588z"/><path d="m198.498 316.579h-169.412c-5.848 0-10.588-4.74-10.588-10.588 0-5.848 4.74-10.588 10.588-10.588h169.411c5.848 0 10.588 4.741 10.588 10.588.001 5.847-4.739 10.588-10.587 10.588z"/><path d="m99.11 359.583h-70.024c-5.848 0-10.588-4.741-10.588-10.588 0-5.848 4.74-10.588 10.588-10.588h70.024c5.848 0 10.588 4.74 10.588 10.588 0 5.847-4.74 10.588-10.588 10.588z"/></g><g><path d="m482.914 144.561h-169.412c-5.848 0-10.588-4.74-10.588-10.588 0-5.848 4.74-10.588 10.588-10.588h169.411c5.848 0 10.588 4.74 10.588 10.588.001 5.847-4.74 10.588-10.587 10.588z"/><path d="m482.914 187.565h-169.412c-5.848 0-10.588-4.74-10.588-10.588 0-5.848 4.74-10.588 10.588-10.588h169.411c5.848 0 10.588 4.74 10.588 10.588.001 5.848-4.74 10.588-10.587 10.588z"/><path d="m482.914 230.57h-169.412c-5.848 0-10.588-4.74-10.588-10.588 0-5.848 4.74-10.588 10.588-10.588h169.411c5.848 0 10.588 4.74 10.588 10.588.001 5.847-4.74 10.588-10.587 10.588z"/><path d="m482.914 273.574h-169.412c-5.848 0-10.588-4.741-10.588-10.588 0-5.848 4.74-10.588 10.588-10.588h169.411c5.848 0 10.588 4.741 10.588 10.588.001 5.848-4.74 10.588-10.587 10.588z"/><path d="m482.914 316.579h-169.412c-5.848 0-10.588-4.74-10.588-10.588 0-5.848 4.74-10.588 10.588-10.588h169.411c5.848 0 10.588 4.741 10.588 10.588.001 5.847-4.74 10.588-10.587 10.588z"/><path d="m373.412 359.583h-59.91c-5.848 0-10.588-4.741-10.588-10.588 0-5.848 4.74-10.588 10.588-10.588h59.91c5.848 0 10.588 4.74 10.588 10.588 0 5.847-4.741 10.588-10.588 10.588z"/></g></g><g><circle cx="321.345" cy="275.748" fill="#b9e4ef" r="114.719"/><path d="m402.466 194.633c44.796 44.796 44.796 117.431-.006 162.233-5.156 5.156-10.676 9.719-16.491 13.683 30.532-44.657 25.969-106.108-13.671-145.747-39.646-39.646-101.097-44.209-145.754-13.677 3.964-5.816 8.527-11.335 13.683-16.491 44.802-44.803 117.437-44.803 162.239-.001z" fill="#fff"/><path d="m417.592 371.996c-53.071 53.071-139.425 53.071-192.496 0s-53.071-139.425 0-192.496 139.425-53.071 192.496 0 53.072 139.425 0 192.496zm-162.236-162.237c-36.386 36.386-36.386 95.591 0 131.977s95.591 36.386 131.977 0 36.386-95.591 0-131.977-95.591-36.386-131.977 0z" fill="#d9723e"/><g fill="#bd5423"><path d="m393.519 334.909c2.352-1.93 4.632-3.99 6.827-6.186 36.386-36.386 36.386-95.591 0-131.977s-95.591-36.386-131.977 0c-2.195 2.195-4.255 4.476-6.186 6.827 36.622-30.065 90.959-28.005 125.15 6.186s36.251 88.528 6.186 125.15z"/><path d="m238.109 358.983c-50.884-50.884-52.972-132.359-6.282-185.765-2.295 2.007-4.544 4.095-6.731 6.282-53.071 53.071-53.071 139.425 0 192.496s139.425 53.071 192.496 0c2.187-2.187 4.275-4.436 6.282-6.731-53.406 46.69-134.88 44.602-185.765-6.282z"/></g><path d="m480.51 379.09c-7.51 13.68-16.23 26.59-26.03 38.6-7.41 9.08-15.43 17.65-24 25.63-5.35-7.27-9.83-14.55-13.38-21.61-9.35-18.62-12.17-35.7-6.85-46.88 1.06-2.25 2.45-4.25 4.19-5.99 1.73-1.73 3.74-3.12 5.99-4.19 11.17-5.31 28.25-2.49 46.87 6.86 4.34 2.18 8.76 4.71 13.21 7.58z" fill="#ecc32e"/><path d="m449.1 424.06c-5.86 6.74-12.08 13.16-18.61 19.25-22.27-30.28-29.69-60.83-16.05-74.47-4.79 4.79 9.98 27.68 34.66 55.22z" fill="#e7a52e"/><path d="m467.299 371.511-50.194 50.194c-9.356-18.616-12.17-35.7-6.857-46.872l10.179-10.179c11.172-5.313 28.257-2.499 46.872 6.857z" fill="#e7a52e"/><path d="m440.631 327.669-67.365 67.365c-7.418 7.418-7.418 19.446 0 26.864 7.418 7.418 19.446 7.418 26.864 0l67.365-67.365c7.418-7.418 7.418-19.446 0-26.864-7.418-7.419-19.446-7.419-26.864 0z" fill="#ecc32e"/><path d="m416.851 397.304c4.86.006 9.719-1.852 13.429-5.562l-30.15 30.15c-3.71 3.71-8.569 5.568-13.435 5.568-4.854 0-9.719-1.852-13.429-5.562-7.42-7.42-7.42-19.451 0-26.87l30.15-30.15c-7.42 7.42-7.414 19.445.006 26.864 3.71 3.71 8.569 5.568 13.429 5.562z" fill="#e7a52e"/></g></g></svg>