<?xml version="1.0" encoding="iso-8859-1"?>
<!-- Generator: Adobe Illustrator 19.0.0, SVG Export Plug-In . SVG Version: 6.00 Build 0)  -->
<svg version="1.1" id="Capa_1" xmlns="http://www.w3.org/2000/svg" xmlns:xlink="http://www.w3.org/1999/xlink" x="0px" y="0px"
	 viewBox="0 0 512 512" style="enable-background:new 0 0 512 512;" xml:space="preserve">
<g>
	<g>
		<g>
			<rect x="311" y="398" width="40" height="40"/>
			<rect x="311" y="318" width="40" height="40"/>
			<path d="M492,372c11.046,0,20-8.954,20-20v-56c0-33.084-26.916-60-60-60h-88v-40c3.598,2.698,7.809,4.001,11.985,4.001
				c6.08,0,12.086-2.763,16.015-8.001c6.627-8.837,4.836-21.373-4-28l-90.72-68.04c-6.522-4.891-13.742-8.457-21.28-10.723V73.351
				l39.863-14.566c7.853-2.869,13.092-10.32,13.136-18.68c0.045-8.36-5.116-15.866-12.938-18.817l-53-20
				c-6.143-2.318-13.035-1.473-18.436,2.262C239.224,7.284,236,13.434,236,20v65.237c-7.538,2.266-14.758,5.832-21.28,10.723
				L124,164c-8.836,6.627-10.627,19.163-4,28c6.627,8.837,19.163,10.626,28,4v40H60c-33.084,0-60,26.916-60,60v156
				c0,33.084,26.916,60,60,60h392c33.084,0,60-26.916,60-60c0-11.046-8.954-20-20-20c-11.046,0-20,8.954-20,20
				c0,11.028-8.972,20-20,20H275v-54c0-11.046-8.954-20-20-20s-20,8.954-20,20v54H60c-11.028,0-20-8.972-20-20V296
				c0-11.028,8.972-20,20-20h108c11.046,0,20-8.954,20-20v-90l50.72-38.04c10.175-7.631,24.386-7.631,34.56,0L324,166v90
				c0,11.046,8.954,20,20,20h108c11.028,0,20,8.972,20,20v56C472,363.046,480.954,372,492,372z"/>
			<circle cx="256" cy="207" r="30"/>
			<rect x="392" y="398" width="40" height="40"/>
			<rect x="392" y="318" width="40" height="40"/>
			<rect x="80" y="398" width="40" height="40"/>
			<rect x="80" y="318" width="40" height="40"/>
			<rect x="236" y="318" width="40" height="40"/>
			<rect x="160" y="398" width="40" height="40"/>
			<rect x="160" y="318" width="40" height="40"/>
		</g>
	</g>
</g>
<g>
</g>
<g>
</g>
<g>
</g>
<g>
</g>
<g>
</g>
<g>
</g>
<g>
</g>
<g>
</g>
<g>
</g>
<g>
</g>
<g>
</g>
<g>
</g>
<g>
</g>
<g>
</g>
<g>
</g>
</svg>
