<svg id="Capa_1" enable-background="new 0 0 512 512" height="512" viewBox="0 0 512 512" width="512" xmlns="http://www.w3.org/2000/svg"><g><path d="m512 256c0 17.69-1.79 34.96-5.21 51.64-4.34 21.2-11.31 41.44-20.54 60.37-41.54 85.25-129.04 143.99-230.25 143.99-141.38 0-256-114.62-256-256s114.62-256 256-256c88.66 0 166.8 45.08 212.74 113.56 18.15 27.06 31.28 57.77 38.05 90.8 3.42 16.68 5.21 33.95 5.21 51.64z" fill="#80e29d"/><path d="m258.959 15.009h-206.487c-23.428 0-42.42 18.992-42.42 42.42v175.9c0 23.428 18.992 42.42 42.42 42.42h6.849l27.834 41.168c5.823 8.613 18.507 8.613 24.33 0l27.834-41.168h119.641c23.428 0 42.42-18.992 42.42-42.42v-175.9c-.001-23.428-18.993-42.42-42.421-42.42z" fill="#ecc32e"/><path d="m109.503 319.268c-6.36 6.17-17.12 5.38-22.35-2.35l-27.84-41.17h-6.84c-23.43 0-42.42-18.99-42.42-42.42v-175.9c0-23.43 18.99-42.42 42.42-42.42h20.36c-23.43 0-42.42 18.99-42.42 42.42v175.9c0 23.43 18.99 42.42 42.42 42.42h6.85l27.83 41.17c.6.88 1.26 1.67 1.99 2.35z" fill="#e7a52e"/><g fill="#434c54"><path d="m212.933 221.233c-3.839 0-7.678-1.464-10.606-4.394l-36.468-36.468c-5.858-5.858-5.858-15.355 0-21.213 5.857-5.858 15.355-5.858 21.213 0l36.468 36.468c5.858 5.858 5.858 15.355 0 21.213-2.93 2.93-6.769 4.394-10.607 4.394z"/><path d="m155.496 221.693c-39.699 0-71.997-32.297-71.997-71.996s32.297-71.997 71.997-71.997c39.699 0 71.996 32.297 71.996 71.997 0 39.699-32.297 71.996-71.996 71.996zm0-113.993c-23.157 0-41.997 18.839-41.997 41.997 0 23.157 18.839 41.996 41.997 41.996 23.157 0 41.996-18.839 41.996-41.996s-18.839-41.997-41.996-41.997z"/></g><path d="m506.79 155.76v151.88c-4.34 21.2-11.31 41.44-20.54 60.37-6.39 3.85-13.88 6.07-21.88 6.07h-6.85l-27.83 41.17c-5.83 8.61-18.51 8.61-24.33 0l-27.84-41.17h-116.9c-23.43 0-42.42-18.99-42.42-42.42v-175.9c0-23.43 18.99-42.42 42.42-42.42h203.75c1.47 0 2.93.08 4.37.22 21.38 2.19 38.05 20.24 38.05 42.2z" fill="#f6f1f1"/><path d="m280.93 374.08h-20.31c-23.43 0-42.42-18.99-42.42-42.42v-175.9c0-23.43 18.99-42.42 42.42-42.42h20.31c-23.43 0-42.42 18.99-42.42 42.42v175.9c0 23.43 18.99 42.42 42.42 42.42z" fill="#dfeaef"/><path d="m421.529 291.167-42.415-112.393c-.052-.137-.105-.274-.162-.41-2.723-6.62-9.104-10.895-16.261-10.895-.006 0-.013 0-.018 0-7.164.007-13.546 4.296-16.258 10.927-.046.112-.091.226-.134.339l-42.804 112.388c-2.949 7.742.937 16.408 8.679 19.356 1.757.669 3.561.986 5.336.986 6.044 0 11.741-3.681 14.021-9.665l6.981-18.33h48.066l6.901 18.287c2.925 7.751 11.579 11.664 19.33 8.737 7.751-2.922 11.663-11.577 8.738-19.327zm-71.609-37.695 12.717-33.391 12.601 33.391z" fill="#f93d6e"/></g></svg>