<?xml version="1.0" encoding="iso-8859-1"?>
<!-- Generator: Adobe Illustrator 19.0.0, SVG Export Plug-In . SVG Version: 6.00 Build 0)  -->
<svg version="1.1" id="Capa_1" xmlns="http://www.w3.org/2000/svg" xmlns:xlink="http://www.w3.org/1999/xlink" x="0px" y="0px"
	 viewBox="0 0 512.001 512.001" style="enable-background:new 0 0 512.001 512.001;" xml:space="preserve">
<g>
	<g>
		<g>
			<path d="M506.617,46.371C502.833,42.308,497.531,40,491.979,40h-81.152c0.129-6.524,0.193-13.188,0.193-20
				c0-11.046-8.954-20-20-20h-270c-11.046,0-20,8.954-20,20c0,6.812,0.064,13.476,0.193,20H20.021
				c-5.552,0-10.854,2.308-14.637,6.371c-3.783,4.063-5.708,9.516-5.312,15.054c0.114,1.599,3.091,39.716,28.72,88.743
				c14.855,28.419,34.368,54.938,57.994,78.819c28.755,29.065,63.71,54.25,103.9,74.904c18.457,21.856,35.811,42.68,45.333,69.916
				l0.001,32.513c-10.341,2.857-24.442,7.336-38.639,13.662c-51.542,22.964-62.36,51.839-62.36,72.019c0,11.046,8.954,20,20,20h200
				c11.046,0,20-8.954,20-20c0-19.663-10.602-48.002-61.11-71.343c-13.925-6.435-27.755-11.074-37.89-14.059l-0.001-34.313
				c9.388-26.689,26.528-46.895,44.735-68.097c53.546-27.425,97.406-62.582,130.374-104.529c6.826-8.685,5.318-21.258-3.366-28.083
				c-8.686-6.826-21.258-5.318-28.083,3.366c-12.011,15.283-25.702,29.582-40.996,42.843C395.469,179.744,405.225,135.43,409.082,80
				h58.831c-1.128,4.366-2.554,9.287-4.35,14.66c-3.502,10.476,2.151,21.807,12.627,25.309c2.104,0.703,4.241,1.038,6.343,1.038
				c8.367-0.001,16.167-5.293,18.966-13.665c8.838-26.438,10.293-44.001,10.43-45.917C512.324,55.887,510.4,50.435,506.617,46.371z
				 M65.216,133.486C53.918,112.279,47.6,93.469,44.109,80h58.85c3.866,55.563,13.661,99.953,30.522,138.057
				C104.887,193.352,82.05,165.087,65.216,133.486z M322.276,472h-134.81c8.52-7.008,19.373-12.416,25.657-15.24
				c17.333-7.791,35.083-12.433,42.807-14.253C276.216,447.486,305.628,458.545,322.276,472z M323.309,236.295
				c-9.55,14.645-20.464,27.353-32.019,40.806c-12.358,14.388-24.966,29.067-35.638,46.139
				c-10.649-17.032-23.143-31.823-35.391-46.324c-11.369-13.46-22.106-26.172-31.528-40.621
				C157.565,188.501,143.052,129.072,141.22,40h229.601C368.989,129.072,354.476,188.501,323.309,236.295z"/>
			<path d="M236.021,139.322V195c0,11.046,8.954,20,20,20c11.046,0,20-8.954,20-20v-94c0-7.457-4.149-14.296-10.763-17.739
				c-6.616-3.445-14.597-2.921-20.706,1.354l-30,21c-9.049,6.333-11.25,18.804-4.916,27.854
				C215.634,142.036,227.133,144.465,236.021,139.322z"/>
		</g>
	</g>
</g>
<g>
</g>
<g>
</g>
<g>
</g>
<g>
</g>
<g>
</g>
<g>
</g>
<g>
</g>
<g>
</g>
<g>
</g>
<g>
</g>
<g>
</g>
<g>
</g>
<g>
</g>
<g>
</g>
<g>
</g>
</svg>
