<svg id="Capa_1" enable-background="new 0 0 512 512" height="512" viewBox="0 0 512 512" width="512" xmlns="http://www.w3.org/2000/svg"><g><path d="m512 256c0 27.26-4.26 53.53-12.16 78.17-2.34 7.33-5.01 14.51-7.99 21.53-14.14 33.42-35.18 63.22-61.34 87.61-8.31 7.74-17.13 14.93-26.42 21.53-41.8 29.7-92.91 47.16-148.09 47.16s-106.29-17.46-148.09-47.16c-9.29-6.6-18.11-13.79-26.42-21.53-26.16-24.39-47.2-54.19-61.34-87.61-2.98-7.02-5.65-14.2-7.99-21.53-7.9-24.64-12.16-50.91-12.16-78.17 0-3.16.06-6.3.17-9.44.26-7.26.83-14.44 1.69-21.54 3.77-31.29 13.19-60.84 27.21-87.6 3.87-7.4 8.1-14.59 12.65-21.54 45.72-69.78 124.62-115.88 214.28-115.88s168.56 46.1 214.28 115.88c4.55 6.95 8.78 14.14 12.65 21.54 14.02 26.76 23.44 56.31 27.21 87.6.86 7.1 1.43 14.28 1.69 21.54.11 3.14.17 6.28.17 9.44z" fill="#d9723e"/><path d="m430.51 443.31c-8.31 7.74-17.13 14.93-26.42 21.53h-296.18c-9.29-6.6-18.11-13.79-26.42-21.53z" fill="#bd5423"/><path d="m499.84 334.17c-2.34 7.33-5.01 14.51-7.99 21.53h-471.7c-2.98-7.02-5.65-14.2-7.99-21.53z" fill="#bd5423"/><path d="m511.83 246.56h-511.66c.26-7.26.83-14.44 1.69-21.54h508.28c.86 7.1 1.43 14.28 1.69 21.54z" fill="#bd5423"/><path d="m482.93 137.42h-453.86c3.87-7.4 8.1-14.59 12.65-21.54h428.56c4.55 6.95 8.78 14.14 12.65 21.54z" fill="#bd5423"/><circle cx="256" cy="228.455" fill="#90d8f9" r="228.455"/><path d="m265.475 456.715c-3.14.14-6.3.2-9.48.2-126.17 0-228.45-102.28-228.45-228.46 0-126.17 102.28-228.45 228.45-228.45 3.18 0 6.34.06 9.48.2-121.78 4.96-218.98 105.26-218.98 228.25 0 123 97.2 223.3 218.98 228.26z" fill="#61a2f9"/><circle cx="256" cy="228.455" fill="#b9e4ef" r="174.2"/><path d="m430.2 228.45c0 96.21-77.99 174.21-174.2 174.21-5.05 0-10.04-.21-14.98-.64 89.19-7.6 159.21-82.41 159.21-173.57 0-91.15-70.02-165.96-159.21-173.56 4.94-.43 9.93-.64 14.98-.64 96.21 0 174.2 78 174.2 174.2z" fill="#fff"/><path d="m256 415.655c-103.223 0-187.2-83.978-187.2-187.2s83.978-187.2 187.2-187.2 187.2 83.978 187.2 187.2-83.977 187.2-187.2 187.2zm0-348.4c-88.886 0-161.2 72.314-161.2 161.2s72.314 161.2 161.2 161.2 161.2-72.314 161.2-161.2-72.314-161.2-161.2-161.2z" fill="#61a2f9"/><g fill="#434c54"><circle cx="256" cy="355.939" r="20.706"/><circle cx="256" cy="100.971" r="20.706"/></g><g fill="#434c54"><circle cx="128.516" cy="228.455" r="20.706"/><circle cx="383.484" cy="228.455" r="20.706"/></g><path d="m256 107.7c-7.731 0-13.998 6.267-13.998 13.998v131.827c0 7.731 6.267 13.998 13.998 13.998 7.731 0 13.998-6.267 13.998-13.998v-131.827c0-7.731-6.267-13.998-13.998-13.998z" fill="#ecc32e"/><path d="m259.742 267.006c-1.19.33-2.44.51-3.74.51-7.73 0-14-6.26-14-13.99v-131.83c0-7.73 6.27-14 14-14 1.3 0 2.55.18 3.74.51-5.91 1.64-10.25 7.06-10.25 13.49v131.83c0 6.43 4.34 11.85 10.25 13.48z" fill="#e7a52e"/><path d="m326.7 228.455c0-7.731-6.267-13.998-13.998-13.998h-81.632c-7.731 0-13.998 6.267-13.998 13.998 0 7.731 6.267 13.998 13.998 13.998h81.632c7.731 0 13.998-6.267 13.998-13.998z" fill="#f93d6e"/><path d="m326.702 228.453c0 7.74-6.27 14-14 14h-81.63c-3.86 0-7.36-1.57-9.9-4.1-2.53-2.53-4.1-6.03-4.1-9.9 0-1.28.17-2.52.49-3.69.65 2.39 1.92 4.52 3.61 6.21 2.54 2.53 6.04 4.1 9.9 4.1h81.63c6.45 0 11.89-4.37 13.51-10.31.32 1.17.49 2.41.49 3.69z" fill="#e41753"/><g fill="#434c54"><circle cx="192.258" cy="118.051" r="8.597"/><circle cx="319.742" cy="338.859" r="8.597"/><circle cx="145.596" cy="164.713" r="8.597"/><circle cx="366.404" cy="292.197" r="8.597"/><circle cx="145.596" cy="292.197" r="8.597"/><circle cx="366.404" cy="164.713" r="8.597"/><circle cx="192.258" cy="338.859" r="8.597"/><circle cx="319.742" cy="118.051" r="8.597"/><circle cx="256" cy="228.455" r="22.796"/></g><circle cx="256" cy="228.455" fill="#181e21" r="11.014"/></g></svg>