<?xml version="1.0" encoding="iso-8859-1"?>
<!-- Generator: Adobe Illustrator 19.0.0, SVG Export Plug-In . SVG Version: 6.00 Build 0)  -->
<svg version="1.1" id="Capa_1" xmlns="http://www.w3.org/2000/svg" xmlns:xlink="http://www.w3.org/1999/xlink" x="0px" y="0px"
	 viewBox="0 0 512 512" style="enable-background:new 0 0 512 512;" xml:space="preserve">
<g>
	<g>
		<g>
			<path d="M512,211v-81c0-11.046-8.954-20-20-20c-11.046,0-20,8.954-20,20v70.061l-24,15.375V67c0-2.063-0.319-4.115-0.947-6.081
				c-1.478-4.63-8.515-20.857-37.031-35.269C376.343,8.63,324.859,0,257,0S137.657,8.63,103.979,25.65
				C75.462,40.062,68.425,56.289,66.947,60.919C66.319,62.885,66,64.937,66,67v149.03l-26-16.151V130c0-11.046-8.954-20-20-20
				s-20,8.954-20,20v81c0,6.915,3.572,13.34,9.446,16.989L64.195,262H60c-33.084,0-60,26.916-60,60v170c0,11.046,8.954,20,20,20h80
				c11.046,0,20-8.954,20-20v-50h272v50c0,11.046,8.954,20,20,20h80c11.046,0,20-8.954,20-20v-70c0-11.046-8.954-20-20-20H356v-66
				c0-11.046-8.954-20-20-20H176c-11.046,0-20,8.954-20,20v66H40v-80c0-11.028,8.972-20,20-20h26c11.046,0,20-8.954,20-20
				c0-11.028,8.972-20,20-20h262c11.028,0,20,8.972,20,20c0,11.046,8.954,20,20,20h24c11.028,0,20,8.972,20,20
				c0,11.046,8.954,20,20,20c11.046,0,20-8.954,20-20c0-33.084-26.916-60-60-60h-2.534l53.322-34.159
				C508.528,224.164,512,217.816,512,211z M432,442h40v30h-40V442z M196,356h120v46H196V356z M80,442v30H40v-30H80z M237,222H126
				c-7.011,0-13.74,1.219-20,3.438V123v-8h131V222z M408,225.438c-6.26-2.219-12.989-3.438-20-3.438H277V115h131V225.438z M408,75
				H106v-2.336C112.664,65.213,143.618,40,257,40s144.336,25.213,151,32.664V75z"/>
			<circle cx="412" cy="352" r="20"/>
			<circle cx="100" cy="352" r="20"/>
		</g>
	</g>
</g>
<g>
</g>
<g>
</g>
<g>
</g>
<g>
</g>
<g>
</g>
<g>
</g>
<g>
</g>
<g>
</g>
<g>
</g>
<g>
</g>
<g>
</g>
<g>
</g>
<g>
</g>
<g>
</g>
<g>
</g>
</svg>
