<svg id="Capa_1" enable-background="new 0 0 512 512" height="512" viewBox="0 0 512 512" width="512" xmlns="http://www.w3.org/2000/svg"><g><path d="m512 256c0 68.05-26.56 129.89-69.86 175.75-11.28 11.94-23.69 22.79-37.06 32.38-6 4.31-12.18 8.35-18.55 12.13-38.22 22.7-82.85 35.74-130.53 35.74s-92.31-13.04-130.53-35.74c-13.16-7.81-25.56-16.77-37.06-26.74-6.48-5.61-12.67-11.55-18.55-17.77-43.3-45.86-69.86-107.7-69.86-175.75 0-141.38 114.62-256 256-256 102.32 0 190.63 60.04 231.6 146.81 14.66 31.01 23.26 65.44 24.29 101.76.07 2.47.11 4.95.11 7.43z" fill="#bc95e2"/><path d="m461.14 214.46-56.06 19.15 22.87 88.5-222.39 12.06-38.93-134.08 123.64-132.84 197.33 79.56c14.66 31.01 23.26 65.44 24.29 101.76z" fill="#ddc8f1"/><g><path d="m146.175 110.205c-.006 0-.018.006-.042.018-.772.374-12.542 6.168-25.868 17.872-17.854 15.677-30.053 34.111-36.245 54.787-11.432 38.169-1.815 82.892 28.587 132.945l-2.388 1.453c-4.112-2.122-8.122-4.432-12.011-6.904-6.108-3.889-11.927-8.195-17.408-12.88-2.84-2.412-5.584-4.938-8.237-7.549-4.384-4.323-8.508-8.906-12.349-13.724 0 0-.006 0-.006-.006-12.795-36.667-14.472-70.959-4.938-102.416 19.012-62.722 75.716-89.778 78.122-90.899l6.367 13.658.199.422z" fill="#f6f1f1"/><path d="m67.299 173.801c-11.354 37.469-6.808 78.954 13.501 123.695-2.84-2.412-5.584-4.938-8.237-7.549-4.384-4.323-8.508-8.906-12.349-13.724-12.801-36.673-14.478-70.959-4.944-102.422 19.012-62.722 75.716-89.778 78.122-90.899l2.454 5.258c-17.505 10.63-54.021 37.728-68.547 85.641z" fill="#dfeaef"/><circle cx="231.759" cy="143.007" fill="#ecc32e" r="46.279"/><g><path d="m211.939 52.172-71.016 71.016-9.556-9.556-11.007-11-16.726-16.719-.173-.18c-9.807-9.808-14.707-22.654-14.707-35.501 0-12.861 4.9-25.708 14.707-35.515 19.622-19.622 51.416-19.622 71.023 0l27.899 27.899z" fill="#80e29d"/><g fill="#66b49d"><path d="m138.533 84.457-16.723-16.722-.176-.177c-9.805-9.805-14.708-22.654-14.708-35.503 0-8.739 2.271-17.472 6.8-25.249-3.667 2.136-7.125 4.769-10.267 7.912-9.806 9.805-14.709 22.654-14.709 35.512 0 12.849 4.903 25.697 14.708 35.503l.177.177 16.723 16.723 20.566 20.556 18.175-18.175z"/><path d="m211.939 52.172-25.067 43.163-45.949 27.853-9.557-9.556 71.017-71.016z"/></g></g><path d="m306.461 67.243-67.024 79.221-83.451 71.244c-19.818-27.837-24.835-62.976-15.061-94.521l71.016-71.016c31.544-9.774 66.683-4.757 94.52 15.072z" fill="#80e29d"/><g fill="#66b49d"><path d="m182.143 191.55c-19.818-27.837-24.835-62.976-15.061-94.521l-26.159 26.158c-9.774 31.545-4.757 66.684 15.061 94.521z"/><path d="m322.153 63.099c4.523 3.775 4.86 10.607.694 14.772l-47.156 47.156-61.909 61.921-47.154 47.154c-4.166 4.166-10.998 3.828-14.773-.695-.047-.056-.093-.112-.14-.168-3.296-3.963-3.004-9.794.64-13.439l156.203-156.191c3.645-3.645 9.477-3.936 13.439-.639.052.043.104.086.156.129z"/></g></g><path d="m167.307 273.687h-115.017c-8.194 0-14.836 6.642-14.836 14.836v20.349h144.69v-20.349c-.001-8.193-6.643-14.836-14.837-14.836z" fill="#80e29d"/><path d="m87.813 273.693c-8.19 0-14.84 6.64-14.84 14.83v20.35h-35.52v-20.35c0-8.19 6.64-14.83 14.83-14.83z" fill="#66b49d"/><g><path d="m125.47 342.46v133.8c-13.16-7.81-25.56-16.77-37.06-26.74-6.48-5.61-12.67-11.55-18.55-17.77v-89.29z" fill="#d9723e"/><path d="m442.14 342.46v89.29c-11.28 11.94-23.69 22.79-37.06 32.38-6 4.31-12.18 8.35-18.55 12.13v-133.8z" fill="#d9723e"/><g fill="#bd5423"><path d="m386.527 342.458h55.616v55.616h-55.616z"/><path d="m405.08 342.46v121.67c-6 4.31-12.18 8.35-18.55 12.13v-133.8z"/><path d="m69.858 342.458h55.616v55.616h-55.616z"/><path d="m88.41 342.46v107.06c-6.48-5.61-12.67-11.55-18.55-17.77v-89.29z"/></g><path d="m469.463 295.795h-426.926c-11.267 0-20.401 9.134-20.401 20.401v27.872c0 11.267 9.134 20.401 20.401 20.401h426.925c11.267 0 20.401-9.134 20.401-20.401v-27.872c.001-11.267-9.133-20.401-20.4-20.401z" fill="#d9723e"/><path d="m82.066 364.469h-39.53c-11.27 0-20.4-9.14-20.4-20.4v-27.88c0-11.26 9.13-20.4 20.4-20.4h39.53c-11.27 0-20.4 9.14-20.4 20.4v27.88c0 11.26 9.13 20.4 20.4 20.4z" fill="#bd5423"/></g><g><path d="m264.9 217.333h175.348c19.387 0 35.103 15.716 35.103 35.103 0 19.387-15.716 35.103-35.103 35.103h-175.348" fill="#efe7e4"/><path d="m264.9 295.795h175.348c23.908 0 43.359-19.451 43.359-43.359s-19.451-43.359-43.359-43.359h-175.348c-4.559 0-8.256 3.696-8.256 8.256 0 4.559 3.696 8.256 8.256 8.256h175.348c14.804 0 26.848 12.044 26.848 26.847 0 14.804-12.044 26.848-26.848 26.848h-175.348c-4.559 0-8.256 3.696-8.256 8.256s3.697 8.255 8.256 8.255z" fill="#f93d6e"/><g fill="#dad0cb"><path d="m437.882 256.805h-172.982v10.31h172.982c2.847 0 5.155-2.308 5.155-5.155 0-2.847-2.308-5.155-5.155-5.155z"/><path d="m437.882 237.759h-172.982v10.31h172.982c2.847 0 5.155-2.308 5.155-5.155 0-2.847-2.308-5.155-5.155-5.155z"/></g></g></g></svg>