<svg id="Capa_1" enable-background="new 0 0 512 512" height="512" viewBox="0 0 512 512" width="512" xmlns="http://www.w3.org/2000/svg"><g><path d="m512 256c0 46.86-12.59 90.77-34.58 128.55-4.77 8.21-9.99 16.13-15.62 23.73-4.9 6.62-10.12 12.99-15.62 19.09-46.86 51.96-114.71 84.63-190.18 84.63-141.38 0-256-114.62-256-256s114.62-256 256-256c76.74 0 145.59 33.77 192.5 87.25 4.66 5.3 9.09 10.79 13.3 16.47 5.63 7.6 10.85 15.52 15.62 23.73 21.99 37.78 34.58 81.69 34.58 128.55z" fill="#90d8f9"/><g><path d="m398.41 468.76c-12.34 8.28-25.44 15.52-39.18 21.57-10.65 4.7-21.68 8.7-33.03 11.92-2.07.59-4.16 1.15-6.25 1.68-20.43 5.27-41.86 8.07-63.95 8.07-8.24 0-16.39-.39-24.43-1.16-15.71-1.48-31.01-4.39-45.77-8.58-7.24-2.06-14.36-4.44-21.33-7.12-.43-.16-.86-.32-1.29-.49-3.51-1.36-6.98-2.81-10.41-4.32-13.74-6.06-26.84-13.29-39.19-21.58 10.39-14.37 23.76-26.43 39.19-35.32 10.2-5.87 21.3-10.34 33.03-13.15 1.81-.44 3.64-.84 5.48-1.19 3.47-.68 7-1.2 10.57-1.57 1.03-.11 2.05-.21 3.09-.29 3.38-.28 6.8-.42 10.26-.42h81.59c4.52 0 8.97.24 13.35.7 3.57.37 7.09.9 10.57 1.56 1.39.27 2.77.56 4.14.87.45.12.91.21 1.35.33 3.14.75 6.24 1.63 9.28 2.62 8.33 2.69 16.28 6.24 23.75 10.54 4.12 2.38 8.09 4.98 11.89 7.79 10.46 7.71 19.67 17.01 27.29 27.54z" fill="#bc95e2"/><path d="m215.2 416.81c-29.36 0-49.26 42.43-50.73 78.33-.43-.16-.86-.32-1.29-.49-3.51-1.36-6.98-2.81-10.41-4.32-13.74-6.06-26.84-13.29-39.19-21.58 10.39-14.37 23.76-26.43 39.19-35.32 10.2-5.87 21.3-10.34 33.03-13.15 1.81-.44 3.64-.84 5.48-1.19 3.47-.68 7-1.2 10.57-1.57 1.03-.11 2.05-.21 3.09-.29 3.38-.28 6.8-.42 10.26-.42z" fill="#9373b9"/><path d="m255.987 468.111-52.994 29.451-16.121-79.986 32.929-14.393" fill="#f6f1f1"/><path d="m255.987 468.111 52.994 29.451 16.121-79.986-32.928-14.393" fill="#f6f1f1"/><path d="m300.706 368.538v54.869c0 20.088-13.245 37.067-31.489 42.707-4.176 1.296-8.627 1.997-13.23 1.997-24.691 0-44.703-20.012-44.703-44.703v-54.869h89.422z" fill="#eaac9d"/><path d="m300.706 419.932v3.475c0 20.088-13.245 37.067-31.489 42.707-16.461-5.06-28.837-19.372-31.123-36.884 2.987.183 5.99.274 9.008.274 8.459 0 16.75-.671 24.828-1.997 9.953-1.6 19.57-4.161 28.776-7.575z" fill="#ffcbbe"/><g><path d="m132.54 278.153c0 20.497-14.973 37.492-34.579 40.646-2.143.347-4.347.528-6.596.528-22.746 0-41.175-18.429-41.175-41.175s18.429-41.175 41.175-41.175c2.249 0 4.453.181 6.596.528 19.606 3.156 34.579 20.152 34.579 40.648z" fill="#ffcbbe"/><path d="m132.54 278.153c0 20.497-14.973 37.492-34.579 40.646-3.562-12.95-5.464-26.579-5.464-40.646s1.902-27.696 5.464-40.646c19.606 3.154 34.579 20.15 34.579 40.646z" fill="#eaac9d"/><circle cx="91.365" cy="278.153" fill="#eaac9d" r="14.716"/><path d="m379.449 278.153c0 20.497 14.973 37.492 34.579 40.646 2.143.347 4.347.528 6.596.528 22.746 0 41.175-18.429 41.175-41.175s-18.429-41.175-41.175-41.175c-2.249 0-4.453.181-6.596.528-19.606 3.156-34.579 20.152-34.579 40.648z" fill="#ffcbbe"/><g fill="#eaac9d"><path d="m379.449 278.153c0 20.497 14.973 37.492 34.579 40.646 3.562-12.95 5.464-26.579 5.464-40.646s-1.902-27.696-5.464-40.646c-19.606 3.154-34.579 20.15-34.579 40.646z"/><circle cx="420.624" cy="278.153" r="14.716"/></g></g><path d="m410.696 256.511c0 76.985-56.241 140.847-129.873 152.705-8.078 1.326-16.369 1.997-24.828 1.997-85.444 0-154.701-69.257-154.701-154.701v-157.5h309.403v157.499z" fill="#ffcbbe"/><path d="m283.243 408.81c-.8.14-1.61.28-2.42.41-8.08 1.32-16.37 1.99-24.83 1.99-85.44 0-154.7-69.25-154.7-154.7v-157.5h54.55v157.5c0 76.14 54.98 139.41 127.4 152.3z" fill="#eaac9d"/><path d="m172.696 29.264c20.306 0 36.767 16.461 36.767 36.767v29.483c0 23.907-19.38 43.287-43.287 43.287h-64.884v-38.134c.001-39.435 31.97-71.403 71.404-71.403z" fill="#bd5423"/><path d="m128.324 270.487h-27.031v-131.686l30.356-15.297 12.637 15.297z" fill="#bd5423"/><path d="m383.666 270.487h27.03v-199.524l-44.036 59.224z" fill="#d9723e"/><path d="m450.223 0h-191.374c-27.275 0-49.386 22.111-49.386 49.386v48.072c0 22.833 18.51 41.343 41.343 41.343h86.623c62.294 0 112.794-50.499 112.794-112.794z" fill="#d9723e"/><path d="m295.704 138.8h-44.89c-22.84 0-41.35-18.51-41.35-41.34v-48.07c0-27.28 22.11-49.39 49.39-49.39h44.89c-27.27 0-49.38 22.11-49.38 49.39v48.07c0 22.83 18.51 41.34 41.34 41.34z" fill="#bd5423"/><path d="m255.995 337.93c-12.954 0-25.908-3.246-37.716-9.737-3.331-1.831-4.546-6.015-2.715-9.346s6.016-4.545 9.346-2.715c19.465 10.701 42.707 10.7 62.17 0 3.329-1.831 7.514-.616 9.346 2.715 1.831 3.331.616 7.515-2.715 9.346-11.808 6.492-24.762 9.737-37.716 9.737z" fill="#df9380"/><g fill="#f6f1f1"><path d="m220.665 211.101h-77.68c-8.777 0-15.893 7.115-15.893 15.893v40.757c0 8.777 7.115 15.893 15.893 15.893h77.68c8.777 0 15.893-7.115 15.893-15.893v-40.757c0-8.777-7.115-15.893-15.893-15.893z"/><path d="m369.004 211.101h-77.68c-8.777 0-15.893 7.115-15.893 15.893v40.757c0 8.777 7.115 15.893 15.893 15.893h77.68c8.777 0 15.893-7.115 15.893-15.893v-40.757c0-8.777-7.115-15.893-15.893-15.893z"/></g><path d="m273.544 291.694h-35.098c-4.181 0-7.57-3.389-7.57-7.57 0-4.181 3.389-7.57 7.57-7.57h35.098c4.181 0 7.57 3.389 7.57 7.57 0 4.18-3.389 7.57-7.57 7.57z" fill="#eaac9d"/><g><path d="m281.34 249.161c0 17.165 13.915 31.08 31.08 31.08s31.08-13.915 31.08-31.08" fill="#dfeaef"/><circle cx="312.42" cy="249.161" fill="#2f373b" r="22.287"/><circle cx="321.708" cy="245.228" fill="#fff" r="9.55"/><path d="m168.49 249.161c0 17.165 13.915 31.08 31.08 31.08s31.08-13.915 31.08-31.08" fill="#dfeaef"/><circle cx="199.57" cy="249.161" fill="#2f373b" r="22.287"/><path d="m204.782 270.831c-1.67.41-3.42.62-5.21.62-12.31 0-22.29-9.98-22.29-22.29s9.98-22.29 22.29-22.29c1.79 0 3.54.21 5.21.62-9.8 2.34-17.07 11.16-17.07 21.67s7.27 19.33 17.07 21.67z" fill="#181e21"/><path d="m317.632 270.831c-1.67.41-3.42.62-5.21.62-12.31 0-22.29-9.98-22.29-22.29s9.98-22.29 22.29-22.29c1.79 0 3.54.21 5.21.62-9.8 2.34-17.07 11.16-17.07 21.67s7.27 19.33 17.07 21.67z" fill="#181e21"/><circle cx="208.858" cy="245.228" fill="#fff" r="9.55"/></g><path d="m418.252 216.994h-25.366c-3.92-9.326-13.148-15.893-23.882-15.893h-77.68c-14.277 0-25.893 11.615-25.893 25.893v7.061h-18.873v-7.061c0-14.277-11.615-25.893-25.893-25.893h-77.681c-10.734 0-19.962 6.566-23.882 15.893h-25.365v20h23.355v30.758c0 14.277 11.615 25.893 25.893 25.893h77.681c14.277 0 25.893-11.615 25.893-25.893v-13.697h18.873v13.697c0 14.277 11.616 25.893 25.893 25.893h77.68c14.277 0 25.893-11.615 25.893-25.893v-30.758h23.355v-20zm-191.694 50.757c0 3.249-2.644 5.893-5.893 5.893h-77.681c-3.249 0-5.893-2.643-5.893-5.893v-40.758c0-3.249 2.644-5.893 5.893-5.893h77.681c3.249 0 5.893 2.643 5.893 5.893zm148.339 0c0 3.249-2.644 5.893-5.893 5.893h-77.68c-3.25 0-5.893-2.643-5.893-5.893v-40.758c0-3.249 2.644-5.893 5.893-5.893h77.68c3.249 0 5.893 2.643 5.893 5.893z" fill="#181e21"/><path d="m255.995 303.254s-23.691-17.879-47.529-8.939c-13.192 4.947-22.248 16.738-31.257 26.283-5.773 6.117-1.324 16.152 7.084 15.923 24.297-.663 56.477-6.965 71.702-33.267z" fill="#bd5423"/><path d="m255.995 303.254s23.691-17.879 47.529-8.939c13.192 4.947 22.248 16.738 31.257 26.283 5.773 6.117 1.324 16.152-7.084 15.923-24.297-.663-56.477-6.965-71.702-33.267z" fill="#d9723e"/><path d="m504.7 261.78-150.07 230.52c-13.94 5.83-28.51 10.46-43.58 13.76l182.28-252.08c2.19-3.03 6.4-3.76 9.49-1.65 1.57 1.08 2.55 2.69 2.88 4.43.31 1.68 0 3.48-1 5.02z" fill="#f9bd5d"/><path d="m502.82 252.33c-.58-.4-2.75 1.73-4.89 4.81l-169.48 244.46c-5.71 1.68-11.51 3.17-17.38 4.46l182.26-252.08c2.19-3.03 6.4-3.77 9.49-1.65z" fill="#ffa31d"/></g></g></svg>