<?xml version="1.0" encoding="iso-8859-1"?>
<!-- Generator: Adobe Illustrator 19.0.0, SVG Export Plug-In . SVG Version: 6.00 Build 0)  -->
<svg version="1.1" id="Capa_1" xmlns="http://www.w3.org/2000/svg" xmlns:xlink="http://www.w3.org/1999/xlink" x="0px" y="0px"
	 viewBox="0 0 512 512" style="enable-background:new 0 0 512 512;" xml:space="preserve">
<g>
	<g>
		<path d="M512,400c0-79.759-6.688-154.031-19.88-220.754c-12.741-64.448-27.273-100.188-32.931-112.562
			C439.816,24.306,408.766,0,374,0c-33.084,0-60,26.916-60,60c0,11.046,8.954,20,20,20c11.046,0,20-8.954,20-20
			c0-11.028,8.972-20,20-20c18.436,0,36.227,15.788,48.811,43.315c4.277,9.355,36.773,84.702,46.465,231.719
			C450.664,300.604,427.319,292,402,292c-45.037,0-83.832,27.209-100.828,66.05C289.82,353.061,274.574,349,255,349
			c-18.869,0-33.448,3.794-44.371,8.598C193.531,318.999,154.862,292,110,292c-25.178,0-48.401,8.509-66.961,22.793
			C51.385,197.236,75.046,116.441,90.19,83.315C102.773,55.788,120.564,40,139,40c11.028,0,20,8.972,20,20c0,11.046,8.954,20,20,20
			s20-8.954,20-20c0-33.084-26.916-60-60-60c-34.766,0-65.816,24.306-85.189,66.685c-4.457,9.749-20.037,46.745-33.421,113.51
			C6.86,247.689,0,322.316,0,402c0,60.654,49.346,110,110,110s110-49.346,110-110c0-1.374-0.034-2.739-0.084-4.101
			C225.359,394.205,236.337,389,255,389c19.088,0,30.975,5.451,37.066,9.382C292.027,399.584,292,400.789,292,402
			c0,60.654,49.346,110,110,110c17.975,0,35.817-4.438,51.6-12.833c9.752-5.188,13.452-17.299,8.265-27.05
			c-5.188-9.752-17.297-13.452-27.05-8.265C424.651,469.259,413.611,472,402,472c-38.598,0-70-31.402-70-70
			c0-38.598,31.402-70,70-70c38.598,0,70,31.402,70,70c0,11.046,8.954,20,20,20c11.046,0,20-8.954,20-20
			c0-0.534-0.013-1.065-0.021-1.598C511.982,400.267,512,400.136,512,400z M110,472c-38.598,0-70-31.402-70-70
			c0-38.598,31.402-70,70-70s70,31.402,70,70C180,440.598,148.598,472,110,472z"/>
	</g>
</g>
<g>
</g>
<g>
</g>
<g>
</g>
<g>
</g>
<g>
</g>
<g>
</g>
<g>
</g>
<g>
</g>
<g>
</g>
<g>
</g>
<g>
</g>
<g>
</g>
<g>
</g>
<g>
</g>
<g>
</g>
</svg>
