<svg id="Capa_1" enable-background="new 0 0 512 512" height="512" viewBox="0 0 512 512" width="512" xmlns="http://www.w3.org/2000/svg"><g><path d="m512 256c0 1.11-.01 2.22-.02 3.33-.05 3.82-.18 7.62-.4 11.39-.56 9.91-1.68 19.67-3.34 29.25-1.33 7.7-3.01 15.27-5.01 22.71-3.15 11.71-7.11 23.09-11.83 34.07-1.15 2.72-2.37 5.42-3.63 8.1-.97 2.06-1.97 4.11-3 6.14-14.43 28.67-34.11 54.26-57.77 75.5-.26.24-.53.47-.79.71-3.86 3.45-7.82 6.77-11.89 9.97-2.02 1.59-4.06 3.15-6.12 4.68-42.54 31.51-95.2 50.15-152.2 50.15s-109.66-18.64-152.2-50.15c-2.06-1.53-4.1-3.09-6.12-4.68-4.18-3.29-8.25-6.71-12.2-10.26-.91-.8-1.81-1.62-2.7-2.44-22.67-20.83-41.56-45.7-55.55-73.48-1.03-2.03-2.03-4.07-2.99-6.14-1.38-2.94-2.71-5.91-3.99-8.92-4.55-10.71-8.39-21.8-11.46-33.2-2.01-7.46-3.69-15.05-5.02-22.76-1.66-9.58-2.79-19.34-3.35-29.25-.22-3.92-.35-7.87-.4-11.84-.01-.96-.02-1.92-.02-2.88 0-3.57.07-7.12.22-10.66 5.59-136.44 117.97-245.34 255.78-245.34s250.2 108.91 255.78 245.35c.15 3.53.22 7.08.22 10.65z" fill="#b9e4ef"/><path d="m511.98 259.33c-1.78 139.84-115.71 252.67-255.98 252.67-140.42 0-254.44-113.07-255.98-253.12l182.84-82.93h137.15z" fill="#ecc32e"/><g><g><g><path d="m62.78 308.34v56.51h-38.54c-6.33-13.44-11.52-27.52-15.45-42.12v-14.39c0-14.22 11.52-25.75 25.75-25.75h2.5c14.22 0 25.74 11.53 25.74 25.75z" fill="#4d4d4d"/><path d="m37.04 276.46h-2.5c-14.67 0-27.08 9.97-30.77 23.51 1.33 7.71 3.01 15.3 5.02 22.76 1.79 6.64 3.84 13.17 6.14 19.57v-33.95c0-10.82 8.79-19.64 19.61-19.64h2.5c10.81 0 19.61 8.82 19.61 19.64v50.36h-35.2c.91 2.06 1.83 4.11 2.79 6.14.96 2.07 1.96 4.11 2.99 6.14h41.67v-62.64c0-17.59-14.3-31.89-31.86-31.89z" fill="#e7a52e"/></g><g><path d="m139.799 308.336v56.515h-53.989v-56.515c0-14.221 11.524-25.745 25.745-25.745h2.501c14.22.001 25.743 11.525 25.743 25.745z" fill="#4d4d4d"/><path d="m114.056 276.458h-2.499c-17.566 0-31.888 14.298-31.888 31.888v62.646h66.251v-62.646c0-17.59-14.298-31.888-31.864-31.888zm19.609 82.255h-41.717v-50.367c0-10.814 8.795-19.633 19.608-19.633h2.499c10.813 0 19.609 8.819 19.609 19.633v50.367z" fill="#e7a52e"/></g></g><g><g><path d="m426.211 308.336v56.515h-53.99v-56.515c0-14.221 11.524-25.745 25.745-25.745h2.501c14.22.001 25.744 11.525 25.744 25.745z" fill="#4d4d4d"/><path d="m400.467 276.458h-2.499c-17.566 0-31.888 14.298-31.888 31.888v62.646h66.251v-62.646c0-17.59-14.298-31.888-31.864-31.888zm19.609 82.255h-41.716v-50.367c0-10.814 8.795-19.633 19.608-19.633h2.499c10.813 0 19.609 8.819 19.609 19.633z" fill="#e7a52e"/></g><g><path d="m503.23 308.34v14.34c-3.93 14.62-9.13 28.72-15.46 42.17h-38.53v-56.51c0-14.22 11.52-25.75 25.74-25.75h2.51c14.22 0 25.74 11.53 25.74 25.75z" fill="#4d4d4d"/><path d="m477.49 276.46h-2.5c-17.57 0-31.89 14.3-31.89 31.89v62.64h41.67c1.03-2.03 2.03-4.08 3-6.14.96-2.03 1.89-4.08 2.78-6.14h-35.17v-50.36c0-10.82 8.79-19.64 19.61-19.64h2.5c10.81 0 19.6 8.82 19.6 19.64v33.93c2.3-6.42 4.35-12.95 6.14-19.6 2-7.44 3.68-15.01 5.01-22.71-3.69-13.54-16.09-23.51-30.75-23.51z" fill="#e7a52e"/></g></g></g><g fill="#80e29d"><path d="m126.61 408.72c0 21.15-17.15 38.29-38.29 38.29-.95 0-1.9-.03-2.84-.1-.91-.8-1.81-1.62-2.7-2.44-22.67-20.83-41.56-45.7-55.55-73.48-1.03-2.03-2.03-4.07-2.99-6.14-1.38-2.94-2.71-5.91-3.99-8.92 3.97-1.11 8.15-1.7 12.47-1.7 15.94 0 30.01 8.04 38.36 20.3 5.18-2.62 11.04-4.1 17.24-4.1 21.14 0 38.29 17.14 38.29 38.29z"/><path d="m491.4 356.75c-1.15 2.72-2.37 5.42-3.63 8.1-.97 2.06-1.97 4.11-3 6.14-14.43 28.67-34.11 54.26-57.77 75.5-2.05.34-4.17.52-6.32.52-21.15 0-38.29-17.14-38.29-38.29s17.14-38.29 38.29-38.29c6.2 0 12.05 1.48 17.23 4.1 8.35-12.26 22.42-20.3 38.37-20.3 5.29 0 10.38.89 15.12 2.52z"/></g><path d="m137.083 137.181h234.827v281.484h-234.827z" fill="#bfbbb6"/><g fill="#e7a52e"><path d="m153.2 199.71v6.81l-152.78 64.2c-.22-3.92-.35-7.87-.4-11.84-.01-.96-.02-1.92-.02-2.88 0-3.57.07-7.12.22-10.66l152.96-64.27v18.64z"/><path d="m512 256c0 1.11-.01 2.22-.02 3.33-.05 3.82-.18 7.62-.4 11.39l-152.78-64.2v-6.81h.02v-18.64l152.96 64.28c.15 3.53.22 7.08.22 10.65z"/></g><g><path d="m122.127 171.443h35.933v247.222h-35.933z" fill="#f6f1f1"/><g fill="#dfeaef"><path d="m122.127 171.443h35.933v46.895h-35.933z"/><path d="m122.127 171.443h14.956v247.222h-14.956z"/></g></g><path d="m110.466 141.815h59.254v59.254h-59.254z" fill="#ecc32e"/><path d="m110.466 141.815h24.663v59.254h-24.663z" fill="#e7a52e"/><g><path d="m353.944 171.443h35.933v247.222h-35.933z" fill="#f6f1f1"/><g fill="#dfeaef"><path d="m353.944 171.443h35.933v46.895h-35.933z"/><path d="m353.944 171.443h14.956v247.222h-14.956z"/></g></g><path d="m342.283 141.815h59.254v59.254h-59.254z" fill="#ecc32e"/><path d="m342.283 141.815h24.663v59.254h-24.663z" fill="#e7a52e"/><path d="m413.75 115.53-145.44-111.36c-7.26-5.56-17.34-5.56-24.6 0l-145.46 111.36c-7.65 5.86-9.43 14.89-6.89 22.48 2.56 7.64 9.49 13.82 19.19 13.82h290.9c9.71 0 16.64-6.18 19.2-13.82 2.53-7.59.75-16.62-6.9-22.48z" fill="#f6f1f1"/><path d="m269.28 22.12c-7.83-6-18.71-6-26.54 0l-151.38 115.89c2.56 7.64 9.49 13.82 19.19 13.82h22.15l110.04-84.24c7.83-5.99 18.71-5.99 26.54.01l110.02 84.23h22.15c9.71 0 16.64-6.18 19.2-13.82z" fill="#dfeaef"/><path d="m426.239 124.669-156.956-120.169c-7.834-6-18.712-6-26.546 0l-156.966 120.169c-1.917 1.468-3.492 3.119-4.747 4.893-11.756 16.622 9.844 36.668 26.01 24.292l135.703-103.891c7.834-5.989 18.712-5.989 26.546.011l135.694 103.89c16.162 12.374 37.746-7.65 26.016-24.285-1.255-1.781-2.833-3.438-4.754-4.91z" fill="#ecc32e"/><circle cx="256.002" cy="96.68" fill="#404a4a" r="29.43"/><g><g><path d="m242.992 201.693v56.515h-53.99v-56.515c0-14.221 11.524-25.745 25.745-25.745h2.501c14.221.001 25.744 11.524 25.744 25.745z" fill="#4d4d4d"/><path d="m217.249 169.815h-2.499c-17.566 0-31.888 14.298-31.888 31.888v62.646h66.251v-62.646c0-17.59-14.298-31.888-31.864-31.888zm19.609 82.255h-41.716v-50.367c0-10.814 8.795-19.633 19.608-19.633h2.499c10.814 0 19.609 8.819 19.609 19.633z" fill="#dfeaef"/></g><g><path d="m320.011 201.693v56.515h-53.99v-56.515c0-14.221 11.524-25.745 25.745-25.745h2.501c14.22.001 25.744 11.524 25.744 25.745z" fill="#4d4d4d"/><path d="m294.268 169.815h-2.499c-17.566 0-31.888 14.298-31.888 31.888v62.646h66.251v-62.646c-.001-17.59-14.298-31.888-31.864-31.888zm19.609 82.255h-41.717v-50.367c0-10.814 8.795-19.633 19.608-19.633h2.499c10.814 0 19.609 8.819 19.609 19.633v50.367z" fill="#dfeaef"/></g></g><g><g><path d="m242.992 308.336v92.283h-53.99v-92.283c0-14.221 11.524-25.745 25.745-25.745h2.501c14.221.001 25.744 11.525 25.744 25.745z" fill="#4d4d4d"/><path d="m217.249 276.458h-2.499c-17.566 0-31.888 14.298-31.888 31.888v92.273h66.251v-92.273c0-17.59-14.298-31.888-31.864-31.888zm19.609 124.162h-41.716v-92.273c0-10.814 8.795-19.633 19.608-19.633h2.499c10.814 0 19.609 8.819 19.609 19.633z" fill="#dfeaef"/></g><g><path d="m320.011 308.336v92.283h-53.99v-92.283c0-14.221 11.524-25.745 25.745-25.745h2.501c14.22.001 25.744 11.525 25.744 25.745z" fill="#4d4d4d"/><path d="m294.268 276.458h-2.499c-17.566 0-31.888 14.298-31.888 31.888v92.273h66.251v-92.273c-.001-17.59-14.298-31.888-31.864-31.888zm19.609 124.162h-41.717v-92.273c0-10.814 8.795-19.633 19.608-19.633h2.499c10.814 0 19.609 8.819 19.609 19.633v92.273z" fill="#dfeaef"/></g></g><path d="m105.447 398.073h298.099v38.184h-298.099z" fill="#dfeaef"/><path d="m426.21 423.66v23.54c-3.86 3.45-7.82 6.77-11.89 9.97-2.02 1.59-4.06 3.15-6.12 4.68h-304.4c-2.06-1.53-4.1-3.09-6.12-4.68-5.13-4.04-10.1-8.28-14.9-12.7v-20.81z" fill="#f6f1f1"/><path d="m414.32 457.17c-43.56 34.34-98.55 54.83-158.32 54.83s-114.76-20.49-158.32-54.83z" fill="#dfeaef"/></g></svg>