<?xml version="1.0" encoding="iso-8859-1"?>
<!-- Generator: Adobe Illustrator 19.0.0, SVG Export Plug-In . SVG Version: 6.00 Build 0)  -->
<svg version="1.1" id="Capa_1" xmlns="http://www.w3.org/2000/svg" xmlns:xlink="http://www.w3.org/1999/xlink" x="0px" y="0px"
	 viewBox="0 0 511.999 511.999" style="enable-background:new 0 0 511.999 511.999;" xml:space="preserve">
<g>
	<g>
		<g>
			<path d="M466.716,119.735L414.143,30.82c-2.29-3.872-5.818-6.86-10.017-8.479C401.762,21.429,345.216,0,257.5,0
				c-87.506,0-147.259,21.29-149.76,22.197c-4.42,1.602-8.134,4.708-10.49,8.775l-52.055,89.839
				c-4.059,7.004-3.495,15.764,1.428,22.189l99.103,129.368c-21.94,25.416-35.226,58.5-35.226,94.631c0,79.953,65.047,145,145,145
				c20.594,0,40.501-4.235,59.169-12.588c10.082-4.512,14.599-16.342,10.087-26.425c-4.511-10.081-16.34-14.598-26.425-10.087
				c-13.494,6.038-27.904,9.1-42.831,9.1c-57.897,0-105-47.103-105-105c0-57.897,47.103-105,105-105s105,47.103,105,105
				c0,11.814-1.942,23.403-5.773,34.443c-3.621,10.435,1.902,21.83,12.338,25.451c10.438,3.62,21.829-1.902,25.451-12.338
				c5.298-15.267,7.984-31.268,7.984-47.557c0-35.317-12.698-67.721-33.761-92.899l98.783-132.215
				C470.353,135.42,470.824,126.684,466.716,119.735z M175.839,245.905L86.51,129.294l32.19-55.555l110.438,150.67
				C209.755,227.984,191.713,235.428,175.839,245.905z M213.015,134.751c10.533-1.623,28.041-3.748,47.485-3.748
				c11.046,0,20-8.954,20-20s-8.954-20-20-20c-35.708,0-64.961,6.179-66.189,6.441c-2.432,0.521-4.65,1.482-6.624,2.753
				l-35.71-48.719C176.099,46.059,213.013,40,257.5,40c45.286,0,81.61,6.281,104.648,11.743l-103.65,145.06L213.015,134.751z
				 M336.97,247.113c-14.865-10.134-31.704-17.574-49.809-21.622L394.202,75.687l31.299,52.935L336.97,247.113z"/>
			<path d="M259.5,432.001c11.046,0,20-8.954,20-20v-90c0-8.089-4.873-15.382-12.347-18.478c-7.471-3.095-16.074-1.384-21.796,4.335
				l-28,28c-7.81,7.81-7.81,20.474,0,28.285c5.987,5.986,14.826,7.384,22.143,4.193V412C239.5,423.046,248.454,432,259.5,432.001z"
				/>
		</g>
	</g>
</g>
<g>
</g>
<g>
</g>
<g>
</g>
<g>
</g>
<g>
</g>
<g>
</g>
<g>
</g>
<g>
</g>
<g>
</g>
<g>
</g>
<g>
</g>
<g>
</g>
<g>
</g>
<g>
</g>
<g>
</g>
</svg>
