<svg id="Capa_1" enable-background="new 0 0 512 512" height="512" viewBox="0 0 512 512" width="512" xmlns="http://www.w3.org/2000/svg"><g><path d="m512 256c0 47.57-12.98 92.11-35.58 130.27-6.01 10.16-12.71 19.87-20.03 29.06-7.84 9.85-16.4 19.1-25.58 27.69-7.17 6.7-14.72 13-22.63 18.85-.43.32-.87.64-1.31.96-25.5 18.63-54.58 32.67-86.01 40.88-20.71 5.41-42.45 8.29-64.86 8.29-56.99 0-109.64-18.63-152.18-50.13-19.45-14.4-36.78-31.48-51.45-50.71-4.36-5.7-8.48-11.6-12.35-17.67-25.33-39.72-40.02-86.89-40.02-137.49s14.69-97.77 40.02-137.49c3.87-6.07 7.99-11.97 12.35-17.67 19.98-26.19 44.89-48.4 73.36-65.26 38.16-22.6 82.7-35.58 130.27-35.58 24.39 0 47.99 3.41 70.33 9.78 29.34 8.37 56.52 21.83 80.54 39.38 8.38 6.12 16.38 12.75 23.94 19.83 9.19 8.58 17.74 17.84 25.58 27.69 34.81 43.72 55.61 99.09 55.61 159.32z" fill="#ecc32e"/><path d="m109.51 19.36c-25.64-25.64-69.49-7.48-69.49 28.78v345.35c16.92 26.52 38.58 49.71 63.8 68.38h304.36c27.48-20.34 50.75-46.06 68.24-75.6zm20.51 352.51v-204.72l204.72 204.72z" fill="#d9723e"/><g><path d="m87.15 7.83c-18.51 2.85-34.78 18.22-34.78 40.31v363.02c-4.36-5.7-8.48-11.6-12.35-17.67v-345.35c0-26.93 24.19-43.87 47.13-40.31z" fill="#bd5423"/></g><g fill="#bd5423"><path d="m383.611 352.053 29.3-29.3 12.355 12.355-29.3 29.299c-3.412 3.412-8.943 3.412-12.355 0-3.412-3.411-3.412-8.942 0-12.354z"/><path d="m349.9 318.342 29.3-29.3 12.355 12.355-29.3 29.3c-3.412 3.412-8.943 3.412-12.355 0-3.411-3.412-3.411-8.943 0-12.355z"/><path d="m316.189 284.632 29.3-29.3 12.355 12.355-29.3 29.3c-3.412 3.412-8.943 3.412-12.355 0-3.411-3.412-3.411-8.944 0-12.355z"/><path d="m282.479 250.921 29.299-29.3 12.355 12.355-29.3 29.3c-3.412 3.412-8.943 3.412-12.355 0-3.411-3.412-3.411-8.943.001-12.355z"/><path d="m248.768 217.21 29.3-29.3 12.355 12.355-29.3 29.3c-3.412 3.412-8.943 3.412-12.355 0-3.412-3.412-3.412-8.943 0-12.355z"/><path d="m215.057 183.5 29.3-29.3 12.355 12.355-29.3 29.3c-3.412 3.412-8.943 3.412-12.355 0-3.411-3.412-3.411-8.944 0-12.355z"/><path d="m181.347 149.789 29.3-29.3 12.355 12.355-29.3 29.3c-3.412 3.412-8.943 3.412-12.355 0-3.412-3.412-3.412-8.943 0-12.355z"/><path d="m147.636 116.078 29.3-29.3 12.355 12.355-29.3 29.3c-3.412 3.412-8.943 3.412-12.355 0-3.412-3.412-3.412-8.943 0-12.355z"/><path d="m113.925 82.368 29.3-29.3 12.355 12.355-29.3 29.3c-3.412 3.412-8.943 3.412-12.355 0-3.411-3.412-3.411-8.944 0-12.355z"/><path d="m80.215 48.657 29.3-29.3 12.355 12.355-29.3 29.3c-3.412 3.412-8.943 3.412-12.355 0-3.412-3.412-3.412-8.943 0-12.355z"/></g><path d="m456.39 25.58v389.75c-13.96 17.53-30.18 33.19-48.21 46.54-25.81 19.11-55.35 33.49-87.32 41.84v-478.13c0-5.96 2.04-11.45 5.47-15.8 4.68-5.96 11.95-9.78 20.11-9.78h84.37c14.12 0 25.58 11.45 25.58 25.58z" fill="#b9e4ef"/><path d="m361.01 0c-8.16 0-15.43 3.82-20.11 9.78-3.43 4.35-5.47 9.84-5.47 15.8v473.85c-4.8 1.57-9.65 3-14.57 4.28v-478.13c0-5.96 2.04-11.45 5.47-15.8 4.68-5.96 11.95-9.78 20.11-9.78z" fill="#93cbd3"/><path d="m320.86 230.71v127.28l13.88 13.88h-13.88v90h87.32c7.91-5.85 15.46-12.15 22.63-18.85 9.18-8.59 17.74-17.84 25.58-27.69v-49.09z" fill="#93cbd3"/><g fill="#90d8f9"><path d="m430.81 0v443.02c-7.17 6.7-14.72 13-22.63 18.85-.43.32-.87.64-1.31.96v-462.83z"/><g><path d="m362.294 60.203h-41.436v-17.473h41.436c4.825 0 8.736 3.911 8.736 8.736 0 4.825-3.912 8.737-8.736 8.737z"/><path d="m362.294 107.877h-41.436v-17.472h41.436c4.825 0 8.736 3.911 8.736 8.736 0 4.824-3.912 8.736-8.736 8.736z"/><path d="m362.294 155.551h-41.436v-17.472h41.436c4.825 0 8.736 3.911 8.736 8.736 0 4.825-3.912 8.736-8.736 8.736z"/><path d="m362.294 203.225h-41.436v-17.472h41.436c4.825 0 8.736 3.911 8.736 8.736 0 4.825-3.912 8.736-8.736 8.736z"/><path d="m362.294 250.899h-41.436v-17.472h41.436c4.825 0 8.736 3.911 8.736 8.736 0 4.825-3.912 8.736-8.736 8.736z"/><path d="m362.294 298.573h-41.436v-17.472h41.436c4.825 0 8.736 3.911 8.736 8.736 0 4.825-3.912 8.736-8.736 8.736z"/><path d="m362.294 346.247h-41.436v-17.472h41.436c4.825 0 8.736 3.911 8.736 8.736 0 4.825-3.912 8.736-8.736 8.736z"/><path d="m362.294 393.921h-41.436v-17.472h41.436c4.825 0 8.736 3.911 8.736 8.736 0 4.825-3.912 8.736-8.736 8.736z"/><path d="m362.294 441.595h-41.436v-17.472h41.436c4.825 0 8.736 3.911 8.736 8.736 0 4.825-3.912 8.736-8.736 8.736z"/><path d="m362.294 489.27h-41.436v-17.472h41.436c4.825 0 8.736 3.911 8.736 8.736 0 4.824-3.912 8.736-8.736 8.736z"/></g></g></g></svg>