<?xml version="1.0" encoding="iso-8859-1"?>
<!-- Generator: Adobe Illustrator 19.0.0, SVG Export Plug-In . SVG Version: 6.00 Build 0)  -->
<svg version="1.1" id="Capa_1" xmlns="http://www.w3.org/2000/svg" xmlns:xlink="http://www.w3.org/1999/xlink" x="0px" y="0px"
	 viewBox="0 0 512.001 512.001" style="enable-background:new 0 0 512.001 512.001;" xml:space="preserve">
<g>
	<g>
		<g>
			<path d="M255,394c11.046,0,20-8.954,20-20V210c0-7.633-4.344-14.6-11.197-17.959c-6.855-3.36-15.022-2.525-21.054,2.15l-40,31
				c-8.732,6.767-10.324,19.33-3.558,28.06c6.768,8.733,19.331,10.324,28.06,3.558l7.749-6.006V374C235,385.046,243.954,394,255,394
				z"/>
			<path d="M492,250c11.046,0,20-8.954,20-20V120c0-44.112-35.888-80-80-80h-26V20c0-11.046-8.954-20-20-20
				c-11.046,0-20,8.954-20,20v20h-91V20c0-11.046-8.954-20-20-20c-11.046,0-20,8.954-20,20v20h-90V20c0-11.046-8.954-20-20-20
				s-20,8.954-20,20v20H80C35.888,40,0,75.888,0,120v312c0,44.112,35.888,80,80,80h252c0.68,0,1.352-0.035,2.015-0.102
				c0.66,0.066,1.321,0.103,1.981,0.103c5.332,0,10.564-2.135,14.41-6.128l156-162c5.563-5.777,7.138-14.32,3.998-21.701
				C507.266,314.792,500.021,310,492,310h-96c-44.112,0-80,35.888-80,80v82H80c-22.056,0-40-17.944-40-40V120
				c0-22.056,17.944-40,40-40h25v20c0,11.046,8.954,20,20,20s20-8.954,20-20V80h90v20c0,11.046,8.954,20,20,20
				c11.046,0,20-8.954,20-20V80h91v20c0,11.046,8.954,20,20,20c11.046,0,20-8.954,20-20V80h26c22.056,0,40,17.944,40,40v110
				C472,241.046,480.954,250,492,250z M356,390c0-22.056,17.944-40,40-40h48.976L356,442.397V390z"/>
		</g>
	</g>
</g>
<g>
</g>
<g>
</g>
<g>
</g>
<g>
</g>
<g>
</g>
<g>
</g>
<g>
</g>
<g>
</g>
<g>
</g>
<g>
</g>
<g>
</g>
<g>
</g>
<g>
</g>
<g>
</g>
<g>
</g>
</svg>
