<svg id="Capa_1" enable-background="new 0 0 512 512" height="512" viewBox="0 0 512 512" width="512" xmlns="http://www.w3.org/2000/svg"><g><path d="m512 256c0 44.41-11.31 86.17-31.2 122.57-10.9 19.95-24.39 38.3-40 54.58-23.99 25.02-53.02 45.18-85.46 58.85-30.54 12.88-64.11 20-99.34 20s-68.8-7.12-99.34-20c-32.44-13.67-61.47-33.83-85.46-58.85-6.18-6.45-12.04-13.23-17.52-20.3-8.37-10.77-15.9-22.24-22.48-34.28-19.89-36.4-31.2-78.16-31.2-122.57s11.31-86.17 31.2-122.57c6.59-12.05 14.12-23.52 22.48-34.3 28.22-36.35 66.03-64.88 109.61-81.82 28.75-11.18 60.01-17.31 92.71-17.31s63.96 6.13 92.71 17.31c56.51 21.96 103.3 63.42 132.09 116.12 19.89 36.4 31.2 78.16 31.2 122.57z" fill="#f93d6e"/><path d="m480.8 64.15v314.42c-43.44 79.5-127.83 133.43-224.8 133.43s-181.36-53.93-224.8-133.43v-314.42c0-25.87 20.98-46.84 46.85-46.84h355.9c25.87 0 46.85 20.97 46.85 46.84z" fill="#90d8f9"/><g fill="#61a2f9"><path d="m100.52 17.31c-25.87 0-46.84 20.97-46.84 46.84v348.7c-8.37-10.77-15.9-22.24-22.48-34.28v-314.42c0-25.87 20.97-46.84 46.84-46.84z"/><path d="m315.131 252.902h88.286c20.644 0 37.38-16.735 37.38-37.38v-120.836c0-20.644-16.735-37.38-37.38-37.38h-88.286c-20.644 0-37.38 16.735-37.38 37.38v120.836c0 20.645 16.735 37.38 37.38 37.38z"/><path d="m234.249 215.523v-120.837c0-20.644-16.735-37.38-37.38-37.38h-88.286c-20.644 0-37.38 16.735-37.38 37.38v120.836c0 20.644 16.735 37.38 37.38 37.38h88.286c20.645 0 37.38-16.735 37.38-37.379z"/><path d="m440.8 333.78v99.37c-23.99 25.02-53.02 45.18-85.46 58.85h-40.21c-20.64 0-37.38-16.74-37.38-37.38v-120.84c0-20.64 16.74-37.38 37.38-37.38h88.29c20.64 0 37.38 16.74 37.38 37.38z"/><path d="m234.25 333.78v120.84c0 20.64-16.74 37.38-37.38 37.38h-40.21c-32.44-13.67-61.47-33.83-85.46-58.85v-99.37c0-20.64 16.74-37.38 37.38-37.38h88.29c20.64 0 37.38 16.74 37.38 37.38z"/></g><g><circle cx="198.534" cy="155.104" fill="#ecc32e" r="25.243"/><circle cx="198.534" cy="155.104" fill="#e7a52e" r="12.045"/></g><g><circle cx="405.267" cy="155.104" fill="#ecc32e" r="25.243"/><circle cx="405.267" cy="155.104" fill="#e7a52e" r="12.045"/></g><g><circle cx="198.534" cy="394.202" fill="#ecc32e" r="25.243"/><circle cx="198.534" cy="394.202" fill="#e7a52e" r="12.045"/></g><g><circle cx="405.267" cy="394.202" fill="#ecc32e" r="25.243"/><circle cx="405.267" cy="394.202" fill="#e7a52e" r="12.045"/></g></g></svg>