<?xml version="1.0" encoding="iso-8859-1"?>
<!-- Generator: Adobe Illustrator 19.0.0, SVG Export Plug-In . SVG Version: 6.00 Build 0)  -->
<svg version="1.1" id="Capa_1" xmlns="http://www.w3.org/2000/svg" xmlns:xlink="http://www.w3.org/1999/xlink" x="0px" y="0px"
	 viewBox="0 0 512 512" style="enable-background:new 0 0 512 512;" xml:space="preserve">
<g>
	<g>
		<g>
			<path d="M181,150H90c-11.046,0-20,8.954-20,20s8.954,20,20,20h91c11.046,0,20-8.954,20-20S192.046,150,181,150z"/>
			<path d="M90,251c-11.046,0-20,8.954-20,20v61c0,11.046,8.954,20,20,20s20-8.954,20-20v-61C110,259.954,101.046,251,90,251z"/>
			<path d="M181,80H90c-11.046,0-20,8.954-20,20s8.954,20,20,20h91c11.046,0,20-8.954,20-20S192.046,80,181,80z"/>
			<path d="M422,80h-96c-11.046,0-20,8.954-20,20s8.954,20,20,20h96c11.046,0,20-8.954,20-20S433.046,80,422,80z"/>
			<path d="M306,273v71c0,11.046,8.954,20,20,20c11.046,0,20-8.954,20-20v-71c0-11.046-8.954-20-20-20
				C314.954,253,306,261.954,306,273z"/>
			<path d="M442,170c0-11.046-8.954-20-20-20h-96c-11.046,0-20,8.954-20,20s8.954,20,20,20h96C433.046,190,442,181.046,442,170z"/>
			<path d="M492,352c11.046,0,20-8.954,20-20V80c0-44.112-35.888-80-80-80H316c-23.877,0-45.329,10.528-60,27.169
				C241.329,10.528,219.877,0,196,0H80C35.888,0,0,35.888,0,80v352c0,44.112,35.888,80,80,80h116c23.877,0,45.329-10.528,60-27.169
				C270.671,501.472,292.123,512,316,512h116c44.112,0,80-35.888,80-80c0-11.046-8.954-20-20-20c-11.046,0-20,8.954-20,20
				c0,22.056-17.944,40-40,40H316c-22.056,0-40-17.944-40-40V80c0-22.056,17.944-40,40-40h116c22.056,0,40,17.944,40,40v252
				C472,343.046,480.954,352,492,352z M236,432c0,22.056-17.944,40-40,40H80c-22.056,0-40-17.944-40-40V80c0-22.056,17.944-40,40-40
				h116c22.056,0,40,17.944,40,40V432z"/>
		</g>
	</g>
</g>
<g>
</g>
<g>
</g>
<g>
</g>
<g>
</g>
<g>
</g>
<g>
</g>
<g>
</g>
<g>
</g>
<g>
</g>
<g>
</g>
<g>
</g>
<g>
</g>
<g>
</g>
<g>
</g>
<g>
</g>
</svg>
