<svg id="Capa_1" enable-background="new 0 0 512 512" height="512" viewBox="0 0 512 512" width="512" xmlns="http://www.w3.org/2000/svg"><g><path d="m512 256c0 42.39-10.3 82.37-28.55 117.58-5.87 11.33-12.56 22.17-20 32.43-14.7 20.3-32.31 38.36-52.21 53.56-9.6 7.34-19.75 14-30.36 19.93-.15.09-.3.18-.45.26-5.77 3.22-11.67 6.22-17.71 8.99-6.53 3-13.2 5.73-20 8.18-1 .36-2.01.71-3.02 1.07-2.27.78-4.56 1.53-6.86 2.26-9.19 2.89-18.61 5.28-28.22 7.12-15.74 3.04-31.99 4.62-48.62 4.62-128.66 0-235.16-94.93-253.28-218.56-1.41-9.63-2.29-19.43-2.59-29.37-.09-2.68-.13-5.37-.13-8.07 0-31.71 5.77-62.08 16.31-90.1 3.91-10.39 8.47-20.46 13.64-30.15 43.05-80.77 128.13-135.75 226.05-135.75 56.25 0 108.27 18.15 150.51 48.9 1.93 1.41 3.84 2.84 5.73 4.3 60.68 46.81 99.76 120.24 99.76 202.8z" fill="#ecc32e"/><g fill="#e7a52e"><circle cx="422.693" cy="110.556" r="17.613"/><path d="m28.63 277.9c0 9.73-7.88 17.62-17.61 17.62-3 0-5.83-.75-8.3-2.08-1.41-9.63-2.29-19.43-2.59-29.37 2.99-2.37 6.78-3.78 10.89-3.78 9.73 0 17.61 7.89 17.61 17.61z"/><circle cx="220.398" cy="99.141" r="24.112"/></g><g><path d="m412.24 48.9v398.78c0 4.05-.34 8.02-1 11.89-9.74 7.44-20.04 14.19-30.81 20.19-5.77 3.22-11.67 6.22-17.71 8.99-6.53 3-13.2 5.73-20 8.18-12.29 4.43-25.02 7.94-38.1 10.45-19.88-12.43-33.11-34.52-33.11-59.7v-398.78z" fill="#b9e4ef"/><path d="m392.24 143.06v304.62c0 12.05-4.26 23.14-11.36 31.82-.15.09-.3.18-.45.26-5.77 3.22-11.67 6.22-17.71 8.99-6.53 3-13.2 5.73-20 8.18-1 .36-2.01.71-3.02 1.07-26.77-1.14-48.19-23.28-48.19-50.32v-304.62z" fill="#bc95e2"/><path d="m332.84 500.26c-9.19 2.89-18.61 5.28-28.22 7.12-19.88-12.43-33.11-34.52-33.11-59.7v-398.78h37.71v398.78c0 18.87 7.42 36 19.51 48.63 1.32 1.38 2.69 2.7 4.11 3.95z" fill="#93cbd3"/><path d="m328.73 496.31c-21.42-5.8-37.22-25.41-37.22-48.63v-304.62h17.71v304.62c0 18.87 7.42 36 19.51 48.63z" fill="#9373b9"/><path d="m353.63 374.92c0 56.24-28.13 105.91-71.09 135.72-.41.04-.81.08-1.22.12-8.32.82-16.77 1.24-25.32 1.24-46.62 0-90.34-12.47-127.99-34.25-45.33-26.22-81.89-65.95-104.13-113.68 3.67-56.79 36.09-105.76 82.83-132.5 9.12-5.22 14.74-14.92 14.74-25.42l-.01-62.3h134.25v62.29c0 10.6 5.78 20.28 14.97 25.56 49.57 28.48 82.97 81.94 82.97 143.22z" fill="#b9e4ef"/><path d="m150.54 231.57c-23.12 28.46-38.68 82.04-38.67 143.45.01 38.74 6.3 74.5 16.81 102.74-.14.04-.29.08-.43.12-.08-.04-.15-.09-.23-.13h-.01c-30.81-17.82-57.56-41.88-78.53-70.45l-.01-.01c-9.88-13.47-18.47-27.93-25.59-43.22l-.01-.01c.03-.41.06-.83.09-1.24 4.08-56.26 36.34-104.69 82.75-131.25 9.12-5.21 14.73-14.92 14.73-25.41v-62.3h35.93l.01 62.3c0 10.49-2.61 20.2-6.84 25.41z" fill="#93cbd3"/><path d="m331.39 374.92c0 38.15-14.85 74.01-41.83 100.99-16.29 16.29-35.83 28.16-57.15 35.01 0 0 0 0-.01 0-37.68-3.44-72.98-15.05-104.15-33.04-.08-.04-.15-.09-.23-.13h-.01c-30.81-17.82-57.56-41.88-78.53-70.45l-.01-.01c-2.43-10.38-3.72-21.19-3.72-32.29 0-6.8.48-13.54 1.43-20.17 1.85-12.89 5.44-25.37 10.59-37.13.01-.02.02-.04.04-.07.25-.6.52-1.19.79-1.77.01-.03.02-.05.03-.07 12.24-26.86 32.71-49.81 59.13-64.93 15.99-9.15 25.92-26.28 25.92-44.71v-70.45h89.78v70.44c0 18.4 10.01 35.59 26.13 44.83 33.98 19.53 58.08 52.03 67.47 89.15 1.22 4.83 2.19 9.74 2.9 14.71.94 6.61 1.43 13.32 1.43 20.09z" fill="#d4f2f9"/><path d="m150.54 231.57c-23.12 28.46-38.68 82.04-38.67 143.45.01 38.74 6.3 74.5 16.81 102.74-.14.04-.29.08-.43.12-.08-.04-.15-.09-.23-.13h-.01c-30.81-17.82-57.56-41.88-78.53-70.45l-.01-.01c-2.43-10.38-3.72-21.19-3.72-32.29-.01-20.02 4.22-39.49 12.02-57.3.01-.02.02-.04.04-.07.25-.6.52-1.19.79-1.77.01-.03.02-.05.03-.07 12.24-26.86 32.71-49.81 59.13-64.93 15.99-9.15 25.92-26.28 25.92-44.71v-62.29h13.69l.01 62.3c0 10.49-2.61 20.2-6.84 25.41z" fill="#b9e4ef"/><path d="m248.462 110.556h-119.782c-13.884 0-25.139 11.255-25.139 25.139 0 13.884 11.255 25.139 25.139 25.139h119.782c13.884 0 25.139-11.255 25.139-25.139 0-13.884-11.255-25.139-25.139-25.139z" fill="#b9e4ef"/><path d="m152.134 153.472c4.558 4.547 10.839 7.36 17.777 7.36h-41.234c-6.937 0-13.23-2.813-17.777-7.36s-7.36-10.828-7.36-17.777c0-13.886 11.251-25.148 25.136-25.148h41.234c-13.874 0-25.136 11.262-25.136 25.148.001 6.949 2.813 13.23 7.36 17.777z" fill="#93cbd3"/><path d="m271.51 48.9h140.73v39.8h-140.73z" fill="#93cbd3"/><path d="m414.335 23.764h-144.922c-13.884 0-25.139 11.255-25.139 25.139 0 13.884 11.255 25.139 25.139 25.139h144.922c13.884 0 25.139-11.255 25.139-25.139 0-13.884-11.255-25.139-25.139-25.139z" fill="#b9e4ef"/><path d="m292.868 66.68c4.558 4.547 10.839 7.36 17.777 7.36h-41.235c-6.937 0-13.23-2.813-17.777-7.36s-7.36-10.828-7.36-17.777c0-13.886 11.251-25.148 25.136-25.148h41.234c-13.874 0-25.136 11.262-25.136 25.148.001 6.949 2.814 13.23 7.361 17.777z" fill="#93cbd3"/><circle cx="210.923" cy="228.453" fill="#b9e4ef" r="13.309"/><circle cx="151.527" cy="277.903" fill="#b9e4ef" r="20.459"/><circle cx="245.66" cy="296.649" fill="#b9e4ef" r="15.763"/><path d="m331.39 374.92c0 38.15-14.85 74.01-41.83 100.99-16.29 16.29-35.83 28.16-57.15 35.01 0 0 0 0-.01 0-37.68-3.44-72.98-15.05-104.15-33.04-.08-.04-.15-.09-.23-.13h-.01c-30.81-17.82-57.56-41.88-78.53-70.45l-.01-.01c-2.43-10.38-3.72-21.19-3.72-32.29 0-6.8.48-13.54 1.43-20.17h282.78c.94 6.61 1.43 13.32 1.43 20.09z" fill="#f93d6e"/><g fill="#e41753"><path d="m128.68 477.76c-.14.04-.29.08-.43.12-.08-.04-.15-.09-.23-.13h-.01c-30.81-17.82-57.56-41.88-78.53-70.45l-.01-.01c-2.43-10.38-3.72-21.19-3.72-32.29 0-6.8.48-13.54 1.43-20.17h65.26c-.38 6.62-.57 13.36-.57 20.19.01 38.74 6.3 74.5 16.81 102.74z"/><circle cx="232.235" cy="424.357" r="23.765"/><circle cx="118.369" cy="385.764" r="16.805"/><circle cx="171.986" cy="448.123" r="16.805"/></g><g><path d="m483.45 146.96v226.62c-29.49 56.94-79.74 101.4-140.73 123.35v-349.97z" fill="#b9e4ef"/><path d="m463.45 305.31v100.7c-25.75 35.56-60.42 64.24-100.73 82.74v-183.44z" fill="#80e29d"/><path d="m380.43 146.96v332.8c-5.77 3.22-11.67 6.22-17.71 8.99-6.53 3-13.2 5.73-20 8.18v-349.97z" fill="#93cbd3"/><path d="m380.43 305.31v174.45c-5.77 3.22-11.67 6.22-17.71 8.99v-183.44z" fill="#66b49d"/><path d="m342.716 146.956h140.73v39.8h-140.73z" fill="#93cbd3"/><path d="m485.541 121.82h-144.922c-13.884 0-25.139 11.255-25.139 25.139 0 13.884 11.255 25.139 25.139 25.139h144.922c13.884 0 25.139-11.255 25.139-25.139 0-13.883-11.255-25.139-25.139-25.139z" fill="#b9e4ef"/><path d="m364.074 164.736c4.558 4.547 10.839 7.36 17.777 7.36h-41.234c-6.937 0-13.23-2.813-17.777-7.36s-7.36-10.828-7.36-17.777c0-13.886 11.251-25.148 25.136-25.148h41.234c-13.874 0-25.136 11.262-25.136 25.148 0 6.949 2.813 13.23 7.36 17.777z" fill="#93cbd3"/></g></g><circle cx="61.565" cy="190.968" fill="#e7a52e" r="24.112"/><path d="m46.25 153.31c0 9.73-7.89 17.62-17.62 17.62-4.8 0-9.14-1.92-12.32-5.03 3.91-10.39 8.47-20.46 13.64-30.15 9.11.67 16.3 8.28 16.3 17.56z" fill="#e7a52e"/><circle cx="182.143" cy="60.203" fill="#e7a52e" r="17.613"/></g></svg>