<?xml version="1.0" encoding="iso-8859-1"?>
<!-- Generator: Adobe Illustrator 19.0.0, SVG Export Plug-In . SVG Version: 6.00 Build 0)  -->
<svg version="1.1" id="Capa_1" xmlns="http://www.w3.org/2000/svg" xmlns:xlink="http://www.w3.org/1999/xlink" x="0px" y="0px"
	 viewBox="0 0 512 512" style="enable-background:new 0 0 512 512;" xml:space="preserve">
<g>
	<g>
		<path d="M510.802,127.545L469.345,13.184c-1.881-5.188-5.823-9.37-10.893-11.553c-5.07-2.183-10.815-2.175-15.878,0.024
			L12.036,188.653c-9.444,4.103-14.23,14.704-11.061,24.501l11,34c2.718,8.403,10.521,13.847,19.017,13.847
			c1.492,0,3.008-0.168,4.519-0.518l200.491-46.377v72.997h-30.77c-11.046,0-20,8.954-20,20c0,11.046,8.954,20,20,20h7.017
			L137.94,483.41c-4.743,9.976-0.5,21.907,9.476,26.649c2.772,1.318,5.695,1.942,8.573,1.942c7.479,0,14.652-4.214,18.076-11.418
			l61.937-130.281v121.694c0,11.046,8.954,20,20,20s20-8.954,20-20V371.783l61.975,128.88C341.42,507.823,348.568,512,356.016,512
			c2.906,0,5.859-0.637,8.653-1.98c9.955-4.787,14.144-16.737,9.357-26.691L298.9,327.103h6.332c11.046,0,20-8.954,20-20
			c0-11.046-8.954-20-20-20h-29.23v-82.249l79.506-18.391c10.762-2.489,17.467-13.231,14.978-23.992
			c-0.681-2.944-1.996-5.57-3.744-7.802c-0.113-0.379-0.211-0.759-0.348-1.135l-23.547-64.953l96.144-41.759l26.515,73.14
			l-22.014,5.093c-10.761,2.489-17.467,13.231-14.978,23.993c2.489,10.761,13.231,17.468,23.993,14.978l44-10.179
			c5.576-1.29,10.332-4.906,13.064-9.935C512.305,138.884,512.752,132.926,510.802,127.545z M48.518,216.419l108.108-46.956
			l7.341,20.25L48.518,216.419z M203.222,180.634l-9.837-27.136l112.704-48.951l17.49,48.247L203.222,180.634z"/>
	</g>
</g>
<g>
</g>
<g>
</g>
<g>
</g>
<g>
</g>
<g>
</g>
<g>
</g>
<g>
</g>
<g>
</g>
<g>
</g>
<g>
</g>
<g>
</g>
<g>
</g>
<g>
</g>
<g>
</g>
<g>
</g>
</svg>
