<svg id="Capa_1" enable-background="new 0 0 512 512" height="512" viewBox="0 0 512 512" width="512" xmlns="http://www.w3.org/2000/svg"><g><path d="m512 256c0 107.15-65.84 198.94-159.28 237.1-8.92 3.64-18.09 6.79-27.49 9.42-22.02 6.18-45.24 9.48-69.23 9.48-15.32 0-30.32-1.35-44.89-3.93-8.26-1.46-16.38-3.32-24.34-5.55-9.4-2.63-18.57-5.78-27.49-9.42-93.44-38.16-159.28-129.95-159.28-237.1 0-141.38 114.62-256 256-256s256 114.62 256 256z" fill="#bc95e2"/><path d="m241 114.176h30v333.42h-30z" fill="#66b49d"/><g><path d="m352.72 332.09v161.01c-8.92 3.64-18.09 6.79-27.49 9.42-22.02 6.18-45.24 9.48-69.23 9.48s-47.21-3.3-69.23-9.48c-9.4-2.63-18.57-5.78-27.49-9.42v-161.01z" fill="#b9e4ef"/><path d="m325.23 461.52v41c-22.02 6.18-45.24 9.48-69.23 9.48s-47.21-3.3-69.23-9.48v-41z" fill="#d9723e"/><path d="m211.11 332.09v175.98c-8.26-1.46-16.38-3.32-24.34-5.55-9.4-2.63-18.57-5.78-27.49-9.42v-161.01z" fill="#93cbd3"/><path d="m211.11 461.52v46.55c-8.26-1.46-16.38-3.32-24.34-5.55v-41z" fill="#bd5423"/><path d="m159.279 332.093h193.445v54.708h-193.445z" fill="#93cbd3"/><path d="m355.603 297.542h-199.206c-19.085 0-34.556 15.471-34.556 34.556 0 19.085 15.471 34.556 34.556 34.556h199.207c19.085 0 34.556-15.471 34.556-34.556-.001-19.085-15.472-34.556-34.557-34.556z" fill="#b9e4ef"/><path d="m188.637 356.534c6.266 6.25 14.9 10.116 24.435 10.116h-56.68c-9.536 0-18.185-3.866-24.435-10.116s-10.116-14.884-10.116-24.435c0-19.087 15.465-34.567 34.552-34.567h56.68c-19.072 0-34.552 15.481-34.552 34.567-.001 9.55 3.866 18.184 10.116 24.435z" fill="#93cbd3"/></g><path d="m382.39 0h-47.333c-51.946 0-94.057 42.111-94.057 94.057v47.333h47.333c51.946 0 94.057-42.111 94.057-94.057z" fill="#66b49d"/><g fill="#80e29d"><path d="m129.61 136.141h47.333c51.946 0 94.057 42.111 94.057 94.057v47.333h-47.333c-51.946 0-94.057-42.111-94.057-94.057z"/><path d="m341.695 146.956v23.667c0 25.973-21.055 47.028-47.028 47.028h-23.667v-23.667c0-25.973 21.055-47.028 47.028-47.028z"/></g></g></svg>