<?xml version="1.0" encoding="iso-8859-1"?>
<!-- Generator: Adobe Illustrator 19.0.0, SVG Export Plug-In . SVG Version: 6.00 Build 0)  -->
<svg version="1.1" id="Capa_1" xmlns="http://www.w3.org/2000/svg" xmlns:xlink="http://www.w3.org/1999/xlink" x="0px" y="0px"
	 viewBox="0 0 512.001 512.001" style="enable-background:new 0 0 512.001 512.001;" xml:space="preserve">
<g>
	<g>
		<path d="M471.498,431.995c11.046,0,20-8.954,20-20s-8.954-20-20-20h-15.704c-4.028-3.106-11.296-11.298-11.296-30
			c0-18.702,7.267-26.894,11.296-30h15.704c11.046,0,20-8.954,20-20s-8.954-20-20-20h-95.163c7.042-8.215,6.293-20.585-1.793-27.864
			c-8.209-7.391-20.855-6.727-28.245,1.483c-18.744,20.822-40.385,25.381-47.143,25.381c-0.084,0-0.166,0.011-0.25,0.013
			c-0.084-0.001-0.165-0.013-0.25-0.013c-13.649,0-18.185-1.941-26.42-5.466c-3.726-1.596-7.95-3.403-13.344-5.204l-6.894-2.302
			l-6.765,2.662c-3.885,1.529-7.148,2.95-10.027,4.204c-9.624,4.193-14.016,6.106-29.362,6.106c-7.656,0-26.743-4.65-44.186-22.251
			c-22.347-22.549-34.158-59.043-34.158-105.541c0-19.811,7.796-35.781,22.186-46c9.999,8.04,21.687,15.007,35.009,19.035
			c8.303,2.511,16.253,3.765,23.82,3.765c10.346,0,19.973-2.346,28.779-7.03c0.764-0.407,14.842-8.016,24.362-20.691
			c4.554-0.71,8.14-1.837,11.446-2.881c6.218-1.962,13.957-4.404,37.232-4.404c41.744,0,66.665,21.76,66.665,58.206
			c0,1.461,0.166,2.881,0.464,4.253c-0.136,8.746-0.69,17.18-1.658,25.121c-1.336,10.964,6.469,20.936,17.434,22.272
			c0.822,0.1,1.637,0.148,2.444,0.148c9.965,0,18.592-7.439,19.828-17.583c1.319-10.82,1.987-22.331,1.987-34.212
			c0-1.654-0.223-3.251-0.601-4.788c-2.27-56.084-44.513-93.418-106.561-93.418c-12.235,0-21.358,0.626-28.451,1.546
			c5.291-10.349,13.026-21.93,24.044-31.332c8.402-7.17,9.401-19.794,2.231-28.196s-19.794-9.401-28.196-2.231
			c-12.629,10.777-22.086,23.273-29.093,35.173c-7.99-7.936-18.513-13.921-31.491-17.845
			C170.731,7.402,118.248,37.135,115.504,38.72c-0.026,0.016-0.053,0.031-0.08,0.047c-9.533,5.561-12.783,17.807-7.233,27.346
			c0.07,0.12,0.14,0.238,0.212,0.355c1.812,3.449,6.428,11.731,13.672,21.537c-21.984,17.772-34.573,44.528-34.573,75.201
			c0,67.101,21.397,106.611,41.151,128.792h-58.15c-27.57,0-50,22.43-50,50v40c0,9.739,2.809,18.829,7.644,26.523
			c-4.801,6.599-7.644,14.71-7.644,23.477v30c0,27.57,22.43,49.999,50,49.999H447.79c0.035,0,0.071,0.005,0.106,0.005
			c0.044,0,0.087-0.005,0.13-0.005h23.472c11.046,0,20-8.954,20-20s-8.954-20-20-20h-17.66c-2.53-2.555-6.213-8.286-6.213-20
			c0-11.714,3.683-17.446,6.213-20.001H471.498z M207.801,60.401c13.879,4.197,17.138,10.368,18.209,12.396
			c2.601,4.924,2.626,10.62,2.646,15.198c0.002,0.526,0.005,1.046,0.011,1.562c-2.62,2.895-7.138,6.498-10.158,8.104
			c-2.08,1.107-8.409,4.474-22.234,0.293c-18.069-5.465-32.458-20.72-41.621-33.084C169.198,59.654,189.709,54.93,207.801,60.401z
			 M410.026,471.995H70.502c-5.514,0-10-4.486-10-10l-0.025-29.999c0,0,0.008-0.001,0.025-0.001c1.334,0,2.636-0.137,3.897-0.386
			c2.002,0.245,4.036,0.386,6.103,0.386H272.5c11.046,0,20-8.954,20-20s-8.954-20-20-20H70.502c-5.514,0-10-4.486-10-10v-40
			c0-5.514,4.486-10,10-10h338.759c-2.936,8.475-4.762,18.423-4.762,30s1.826,21.525,4.762,30h-36.762c-11.046,0-20,8.954-20,20
			s8.954,20,20,20h37.527c-1.508,5.925-2.4,12.568-2.4,20C407.626,459.427,408.519,466.07,410.026,471.995z"/>
	</g>
</g>
<g>
</g>
<g>
</g>
<g>
</g>
<g>
</g>
<g>
</g>
<g>
</g>
<g>
</g>
<g>
</g>
<g>
</g>
<g>
</g>
<g>
</g>
<g>
</g>
<g>
</g>
<g>
</g>
<g>
</g>
</svg>
