<svg id="Capa_1" enable-background="new 0 0 512 512" height="512" viewBox="0 0 512 512" width="512" xmlns="http://www.w3.org/2000/svg"><g><path d="m512 256c0 81.13-37.75 153.46-96.64 200.36-6.01 4.79-12.24 9.31-18.67 13.55-4.01 2.64-8.09 5.17-12.25 7.58h-.01c-26.33 15.31-55.64 26.05-86.84 31.14-7.46 1.22-15.03 2.12-22.69 2.68-4.74.34-9.51.56-14.32.64-1.52.04-3.05.05-4.58.05-23.76 0-46.77-3.24-68.6-9.3-7.33-2.03-14.52-4.38-21.56-7.05-4.49-1.68-8.93-3.49-13.3-5.43-89.85-39.73-152.54-129.66-152.54-234.22 0-141.38 114.62-256 256-256s256 114.62 256 256z" fill="#bc95e2"/><path d="m140.664 398.029 22.931-7.88c6.887-2.367 6.887-12.107 0-14.474l-22.931-7.88c-2.231-.767-3.983-2.519-4.75-4.75l-7.88-22.931c-2.367-6.887-12.107-6.887-14.474 0l-7.88 22.931c-.767 2.231-2.519 3.983-4.75 4.75l-22.931 7.88c-6.887 2.367-6.887 12.107 0 14.474l22.931 7.88c2.231.767 3.983 2.519 4.75 4.75l7.88 22.931c2.367 6.887 12.107 6.887 14.474 0l7.88-22.931c.767-2.231 2.52-3.984 4.75-4.75z" fill="#ecc32e"/><g><path d="m207.8 437.93c0 1.92-.3 3.88-.94 5.81l-19.46 58.96c-12-3.33-23.64-7.51-34.86-12.48l19.18-58.09c3.2-9.7 13.67-14.97 23.37-11.77 7.78 2.57 12.71 9.8 12.71 17.57z" fill="#90d8f9"/><path d="m201.45 423.97c-7.21.57-13.72 5.36-16.13 12.65l-19.48 59.03c-4.49-1.68-8.93-3.49-13.3-5.43l19.18-58.09c3.2-9.7 13.67-14.97 23.37-11.77 2.41.79 4.55 2.04 6.36 3.61z" fill="#61a2f9"/><path d="m181.41 461.797c-12.354-4.079-19.063-17.402-14.983-29.756l32.172-97.433c4.079-12.354 17.402-19.063 29.756-14.983 12.354 4.079 19.063 17.402 14.983 29.756l-32.172 97.433c-4.079 12.355-17.402 19.063-29.756 14.983z" fill="#f6f1f1"/><path d="m189.29 462.981c-2.605.057-5.265-.324-7.876-1.186-12.358-4.08-19.066-17.403-14.989-29.751l32.173-97.435c4.081-12.358 17.403-19.066 29.761-14.986 2.611.862 4.974 2.14 7.033 3.737-9.694.203-18.657 6.428-21.875 16.175l-32.173 97.435c-3.215 9.737.279 20.075 7.946 26.011z" fill="#dfeaef"/></g><g><path d="m415.36 456.36c-6.01 4.79-12.24 9.31-18.67 13.55-4.01 2.64-8.09 5.17-12.25 7.58h-.01l-15.4-32.17c-.31-.64-.58-1.29-.81-1.95 0-.01 0-.01 0-.01-1.13-3.26-1.29-6.66-.61-9.86.27-1.25.66-2.47 1.17-3.64.17-.39.36-.77.55-1.14 1.8-3.41 4.66-6.29 8.39-8.08.32-.16.65-.3.97-.43.28-.12.56-.23.85-.33.2-.07.4-.14.6-.19.1-.04.2-.07.3-.1.19-.06.38-.11.58-.16.11-.03.22-.06.33-.09.2-.05.41-.09.62-.14.43-.09.87-.16 1.3-.21.19-.04.38-.06.58-.07.28-.04.56-.06.84-.07.04 0 .07-.01.1 0 .31-.02.61-.03.91-.03 6.9 0 13.53 3.88 16.71 10.51z" fill="#90d8f9"/><path d="m384.43 477.49-15.41-32.17c-.31-.64-.58-1.29-.8-1.95 0-.01 0-.01 0-.01-1.13-3.26-1.29-6.66-.61-9.86.27-1.25.66-2.47 1.17-3.64.17-.39.36-.77.55-1.14 1.8-3.41 4.66-6.29 8.39-8.08.32-.16.65-.3.97-.43.28-.12.56-.23.85-.33.2-.07.4-.14.6-.19.1-.04.2-.07.3-.1.19-.06.38-.11.58-.16.11-.03.22-.06.33-.09.2-.05.41-.09.62-.14.43-.09.87-.16 1.3-.21.19-.04.38-.06.58-.07.28-.04.56-.06.84-.07.04-.01.07-.01.11-.01l-.01.01c-4.79 5.4-6.16 13.36-2.85 20.28l14.75 30.78c-4.01 2.64-8.09 5.17-12.25 7.58" fill="#61a2f9"/><path d="m396.574 459.991c-11.734 5.621-25.802.665-31.423-11.069l-44.326-92.538c-5.621-11.734-.665-25.802 11.069-31.423 11.734-5.621 25.802-.665 31.423 11.069l44.326 92.538c5.621 11.734.665 25.802-11.069 31.423z" fill="#f6f1f1"/><path d="m403.075 455.383c-1.839 1.846-4.02 3.415-6.5 4.603-11.737 5.622-25.806.666-31.423-11.061l-44.327-92.541c-5.622-11.737-.666-25.806 11.071-31.428 2.48-1.188 5.069-1.904 7.66-2.18-6.848 6.864-8.996 17.564-4.562 26.821l44.327 92.541c4.43 9.247 14.114 14.279 23.754 13.245z" fill="#dfeaef"/></g><path d="m339.41 236.06v75.07c0 33.32-27.01 60.33-60.33 60.33-33.31 0-60.32-27.01-60.32-60.33v-75.07z" fill="#90d8f9"/><path d="m339.41 236.06v29.95l-104.32 52.42v-82.37z" fill="#61a2f9"/><path d="m299.875 367.781c-6.48 2.38-13.48 3.68-20.79 3.68-33.32 0-60.33-27.01-60.33-60.33v-75.07h41.58v75.07c0 26.01 16.46 48.18 39.54 56.65z" fill="#61a2f9"/><g><path d="m27.472 257.411h170.86v52.283h-170.86z" fill="#f6f1f1" transform="matrix(.878 -.479 .479 .878 -121.963 88.649)"/><path d="m91.402 241.115h102.776v52.283h-102.776z" fill="#dfeaef" transform="matrix(.878 -.479 .479 .878 -110.514 100.968)"/><path d="m35.367 288.382h170.86v19.3h-170.86z" fill="#dfeaef" transform="matrix(.878 -.479 .479 .878 -127.931 94.195)"/><path d="m246.461 159.797 42.816 78.526-142.469 77.68c-9.64 5.256-21.715 1.703-26.971-7.937l-23.787-43.627c-5.251-9.631-1.698-21.706 7.942-26.962z" fill="#f6f1f1"/><path d="m274.547 211.304 14.729 27.014-142.473 77.683c-9.635 5.253-21.706 1.696-26.959-7.939l-14.729-27.014c5.257 9.641 17.324 13.192 26.959 7.939z" fill="#dfeaef"/><path d="m246.461 159.797 42.816 78.526-65.558 35.745c-1.793-1.847-3.363-3.975-4.656-6.346l-35.353-64.838c-1.292-2.37-2.226-4.834-2.807-7.342z" fill="#dfeaef"/><path d="m271.504 272.774 211.746-115.454-63.631-116.702-211.747 115.454c-14.323 7.809-19.603 25.751-11.793 40.074l35.351 64.835c7.81 14.323 25.751 19.603 40.074 11.793z" fill="#f6f1f1"/><path d="m461.362 117.169 21.891 40.15-211.749 115.455c-14.32 7.808-32.26 2.521-40.068-11.799l-21.892-40.15c7.813 14.329 25.748 19.607 40.068 11.799z" fill="#dfeaef"/><path d="m483.896 182.077 11.196-6.105c6.423-3.502 8.791-11.548 5.289-17.971l-72.055-132.152c-3.502-6.423-11.548-8.791-17.971-5.289l-11.196 6.105c-6.423 3.502-8.791 11.548-5.289 17.971l72.055 132.152c3.502 6.423 11.548 8.791 17.971 5.289z" fill="#90d8f9"/><path d="m471.11 104.33 29.268 53.679c3.499 6.418 1.132 14.463-5.286 17.962l-11.203 6.108c-6.418 3.499-14.463 1.132-17.962-5.286l-29.268-53.679c3.499 6.418 11.544 8.786 17.962 5.286l11.203-6.108c6.418-3.499 8.786-11.544 5.286-17.962z" fill="#61a2f9"/><path d="m58.733 355.39-4.684 2.554c-7.081 3.861-15.95 1.25-19.811-5.83l-21.578-39.575c-3.861-7.081-1.25-15.95 5.83-19.811l4.684-2.554c7.081-3.861 15.95-1.25 19.811 5.83l21.578 39.575c3.861 7.081 1.251 15.951-5.83 19.811z" fill="#2f373b"/><path d="m50.062 308.978 14.505 26.602c3.858 7.077 1.247 15.949-5.838 19.812l-4.68 2.552c-7.085 3.863-15.949 1.247-19.808-5.829l-14.505-26.602c3.858 7.076 12.722 9.692 19.808 5.829l4.68-2.552c7.085-3.863 9.696-12.736 5.838-19.812z" fill="#181e21"/></g><g><path d="m297.59 462.95v45.68c-12.07 1.98-24.43 3.11-37.01 3.32v-49c0-10.22 8.28-18.5 18.5-18.5 5.11 0 9.74 2.07 13.09 5.42s5.42 7.97 5.42 13.08z" fill="#90d8f9"/><path d="m286.25 445.88c-6.67 2.8-11.35 9.4-11.35 17.07v48.36c-4.74.34-9.51.56-14.32.64v-49c0-10.21 8.29-18.51 18.5-18.51 2.54 0 4.96.52 7.17 1.44z" fill="#61a2f9"/><path d="m279.085 488.083c-13.011 0-23.558-10.547-23.558-23.558v-102.606c0-13.011 10.547-23.558 23.558-23.558 13.011 0 23.558 10.547 23.558 23.558v102.607c0 13.01-10.547 23.557-23.558 23.557z" fill="#f6f1f1"/><path d="m286.939 486.736c-2.456.871-5.101 1.343-7.85 1.343-13.014 0-23.561-10.548-23.561-23.551v-102.61c0-13.014 10.547-23.561 23.561-23.561 2.75 0 5.394.472 7.85 1.343-9.141 3.233-15.701 11.954-15.701 22.218v102.61c0 10.254 6.56 18.975 15.701 22.208z" fill="#dfeaef"/></g><g fill="#ecc32e"><path d="m134.181 126.95 22.931-7.88c6.887-2.367 6.887-12.107 0-14.474l-22.931-7.88c-2.231-.767-3.983-2.519-4.75-4.75l-7.88-22.931c-2.367-6.887-12.107-6.887-14.474 0l-7.88 22.931c-.767 2.231-2.519 3.983-4.75 4.75l-22.931 7.88c-6.887 2.367-6.887 12.107 0 14.474l22.931 7.88c2.231.767 3.983 2.519 4.75 4.75l7.88 22.931c2.367 6.887 12.107 6.887 14.474 0l7.88-22.931c.766-2.231 2.519-3.983 4.75-4.75z"/><path d="m456.526 305.514 22.931-7.88c6.887-2.367 6.887-12.107 0-14.474l-22.931-7.88c-2.231-.767-3.983-2.519-4.75-4.75l-7.88-22.931c-2.367-6.887-12.107-6.887-14.474 0l-7.88 22.931c-.767 2.231-2.519 3.983-4.75 4.75l-22.931 7.88c-6.887 2.367-6.887 12.107 0 14.474l22.931 7.88c2.231.767 3.983 2.519 4.75 4.75l7.88 22.931c2.367 6.887 12.107 6.887 14.474 0l7.88-22.931c.766-2.231 2.519-3.983 4.75-4.75z"/></g></g></svg>