<svg id="Capa_1" enable-background="new 0 0 512 512" height="512" viewBox="0 0 512 512" width="512" xmlns="http://www.w3.org/2000/svg"><g><path d="m512 256c0 115.03-75.88 212.35-180.32 244.62-23.92 7.4-49.33 11.38-75.68 11.38-8.09 0-16.09-.38-23.98-1.11-130.14-12.09-232.02-121.6-232.02-254.89 0-141.38 114.62-256 256-256s256 114.62 256 256z" fill="#f93d6e"/><g><path d="m350.881 207.823h42.956v33.93h-42.956z" fill="#9373b9"/><path d="m409.972 325.268h-163.613c-5.621 0-10.179 4.557-10.179 10.179v10.063h183.97v-10.063c.001-5.622-4.556-10.179-10.178-10.179z" fill="#f93d6e"/><g><g><path d="m278.715 303.35-8.855-4.982c-3.625-2.04-4.911-6.632-2.871-10.258l18.618-33.091 21.984 12.369-18.618 33.091c-2.04 3.626-6.633 4.911-10.258 2.871z" fill="#bc95e2"/><path d="m278.464 303.206-8.597-4.837c-3.633-2.044-4.918-6.635-2.879-10.259l18.619-33.093 8.597 4.837-18.619 33.093c-2.038 3.623-.753 8.215 2.879 10.259z" fill="#9373b9"/></g><g><path d="m346.901 300.272-9.435 3.771c-3.863 1.544-8.246-.336-9.79-4.199l-14.093-35.257 23.423-9.362 14.093 35.257c1.544 3.863-.335 8.246-4.198 9.79z" fill="#bc95e2"/><path d="m346.631 300.376-9.159 3.661c-3.87 1.547-8.253-.332-9.796-4.193l-14.093-35.259 9.159-3.661 14.093 35.259c1.544 3.861 5.926 5.74 9.796 4.193z" fill="#9373b9"/></g></g><path d="m286.432 29.717h49.183v49.169h-49.183z" fill="#bc95e2"/><path d="m286.437 29.714h20.548v49.171h-20.548z" fill="#9373b9"/><path d="m286.432 29.717h49.183v12.647h-49.183z" fill="#9373b9"/><path d="m344.169.611c-21.638 6.377-44.656 6.377-66.293 0-9.333-2.751-18.688 4.245-18.688 13.975 0 11.915 9.659 21.573 21.573 21.573h60.522c11.915 0 21.573-9.659 21.573-21.573.001-9.73-9.354-16.726-18.687-13.975z" fill="#bc95e2"/><path d="m315.133 36.162h-34.368c-5.958 0-11.356-2.412-15.26-6.316s-6.316-9.303-6.316-15.26c0-8.284 6.775-14.586 14.556-14.586 1.364 0 2.742.201 4.135.603 6.446 1.895 13.021 3.244 19.639 4.005-2.44 2.57-3.962 6.058-3.962 9.977 0 5.958 2.412 11.356 6.316 15.26 3.905 3.906 9.303 6.317 15.26 6.317z" fill="#9373b9"/><path d="m418.191 334.231h-184.856c-9.28 0-16.803 7.523-16.803 16.803v23.308c0 9.28 7.523 16.803 16.803 16.803h184.857c9.28 0 16.803-7.523 16.803-16.803v-23.308c0-9.28-7.523-16.803-16.804-16.803z" fill="#b9e4ef"/><path d="m294.018 391.149h-60.68c-9.278 0-16.806-7.528-16.806-16.806v-23.309c0-9.278 7.528-16.796 16.806-16.796h60.68c-9.278 0-16.806 7.518-16.806 16.796v23.309c0 9.278 7.528 16.806 16.806 16.806z" fill="#93cbd3"/><path d="m338.828 272.637h-59.997c-17.59 0-31.85-14.26-31.85-31.85v-154.735c0-17.59 14.26-31.85 31.85-31.85h59.997c17.59 0 31.85 14.26 31.85 31.85v154.735c0 17.59-14.26 31.85-31.85 31.85z" fill="#f6f1f1"/><path d="m321.211 272.647h-42.38c-17.589 0-31.85-14.261-31.85-31.85v-154.745c0-17.589 14.261-31.85 31.85-31.85h42.38c-17.589 0-31.85 14.261-31.85 31.85v154.745c0 17.589 14.26 31.85 31.85 31.85z" fill="#dfeaef"/><path d="m248.324 495.567c-99.768 0-180.935-81.167-180.935-180.935s81.167-180.935 180.935-180.935v81.743c-54.694 0-99.192 44.497-99.192 99.192s44.498 99.192 99.192 99.192z" fill="#f6f1f1"/><path d="m227.614 448.608c0 13.605-13.177 23.238-26.184 19.25-65.542-20.098-113.33-81.186-113.33-153.227s47.789-133.129 113.331-153.226c13.007-3.988 26.184 5.645 26.184 19.25v.001c0 8.93-5.901 16.707-14.438 19.33-49.017 15.059-84.754 60.758-84.754 114.646 0 53.889 35.736 99.588 84.754 114.647 8.536 2.622 14.437 10.399 14.437 19.329z" fill="#dfeaef"/><circle cx="250.135" cy="173.411" fill="#bc95e2" r="65.239"/><circle cx="250.135" cy="173.411" fill="#9373b9" r="45.79"/><path d="m331.68 392.44v108.18c-23.92 7.4-49.33 11.38-75.68 11.38-8.09 0-16.09-.38-23.98-1.11v-118.45c0-27.53 22.3-49.84 49.83-49.84 27.52 0 49.83 22.31 49.83 49.84z" fill="#bc95e2"/><circle cx="281.85" cy="392.435" fill="#9373b9" r="23.938"/><path d="m396.76 259.36h-5.845c-5.093 0-9.222-4.129-9.222-9.222v-50.698c0-5.093 4.129-9.222 9.222-9.222h5.845c5.093 0 9.222 4.129 9.222 9.222v50.698c0 5.093-4.129 9.222-9.222 9.222z" fill="#bc95e2"/><path d="m405.986 224.774v25.37c0 5.084-4.132 9.216-9.226 9.216h-5.84c-5.095 0-9.226-4.131-9.226-9.216v-25.37c0 5.095 4.132 9.226 9.226 9.226h5.84c5.094.001 9.226-4.131 9.226-9.226z" fill="#9373b9"/></g></g></svg>