<?xml version="1.0" encoding="iso-8859-1"?>
<!-- Generator: Adobe Illustrator 19.0.0, SVG Export Plug-In . SVG Version: 6.00 Build 0)  -->
<svg version="1.1" id="Capa_1" xmlns="http://www.w3.org/2000/svg" xmlns:xlink="http://www.w3.org/1999/xlink" x="0px" y="0px"
	 viewBox="0 0 512.003 512.003" style="enable-background:new 0 0 512.003 512.003;" xml:space="preserve">
<g>
	<g>
		<g>
			<path d="M274.495,151.575c-23.394,23.395-23.394,61.459,0,84.854c11.697,11.696,27.062,17.545,42.426,17.545
				c15.364,0,30.73-5.849,42.427-17.546c23.394-23.394,23.394-61.458,0-84.853C335.954,128.182,297.888,128.181,274.495,151.575z
				 M331.063,208.143c-7.798,7.799-20.487,7.799-28.285,0c-7.798-7.798-7.798-20.485,0-28.283c3.899-3.9,9.02-5.849,14.143-5.849
				c5.121,0,10.243,1.949,14.142,5.848C338.861,187.658,338.861,200.345,331.063,208.143z"/>
			<path d="M495.611,17.196C483.418,4.715,466.479-1.452,449.152,0.29c-24.887,2.492-62.863,8.393-102.455,22.348
				c-45.092,15.895-83.079,38.773-112.903,68.002c-0.066,0.064-0.132,0.13-0.197,0.196l-4.06,4.091L13.842,164.743
				c-6.625,2.145-11.659,7.582-13.287,14.354c-1.628,6.772,0.384,13.902,5.311,18.824l97.628,97.531
				c-20.49,3.015-40.216,12.387-55.952,28.124c-16.068,16.068-28.463,48.558-37.894,99.326c-6.55,35.264-9.145,66.156-9.252,67.454
				c-0.484,5.857,1.634,11.632,5.79,15.789c3.766,3.766,8.859,5.857,14.141,5.857c0.547,0,1.098-0.022,1.648-0.068
				c1.298-0.106,32.19-2.701,67.454-9.252c50.769-9.431,83.258-21.825,99.326-37.894c15.761-15.761,25.14-35.524,28.139-56.049
				l97.51,97.413c3.796,3.792,8.899,5.852,14.136,5.851c1.607,0,3.228-0.193,4.825-0.591c6.806-1.692,12.228-6.825,14.29-13.527
				l66.462-216c3.248-10.558-2.677-21.749-13.234-24.997c-0.335-0.103-0.672-0.171-1.008-0.256
				c-7.333-3.139-16.147-1.707-22.095,4.308L252.435,387.702L123.331,258.727l129.705-130.695c1.301-1.028,2.468-2.194,3.462-3.489
				l5.388-5.43C321.171,61.09,407.15,44.697,453.139,40.09c7.066-0.71,11.72,2.866,13.863,5.06
				c3.753,3.842,5.524,9.136,4.857,14.525c-3.868,31.289-13.07,77.944-34.947,122.514c-4.867,9.915-0.774,21.899,9.141,26.767
				c9.917,4.865,21.899,0.772,26.766-9.142c24.328-49.562,34.494-100.896,38.738-135.232
				C513.723,47.056,507.911,29.784,495.611,17.196z M353.719,342.163l-34.531,112.226l-38.453-38.415L353.719,342.163z
				 M138.724,351.791c2.906-2.87,6.751-4.449,10.839-4.449c2.995,0,5.855,0.858,8.316,2.44l4.664,4.659
				c1.587,2.463,2.447,5.327,2.447,8.328c0,4.083-1.576,7.924-4.44,10.829c-3.627,3.014-16.258,6.588-31.231,9.239
				C132.058,367.935,135.699,355.382,138.724,351.791z M138.71,421.772c17.704-3.233,29.169-7.064,36.866-10.787
				c-2.718,9.349-7.75,18.161-15.107,25.518c-15.115,15.118-71.521,27.22-117.665,33.023c5.803-46.146,17.905-102.55,33.022-117.666
				c7.221-7.221,15.966-12.358,25.505-15.136c-3.732,7.656-7.597,19.047-10.915,36.611c-3.051,16.15-4.291,30.358-4.342,30.956
				c-0.503,5.856,1.596,11.638,5.739,15.808c3.769,3.793,8.882,5.903,14.186,5.903c0.526,0,1.055-0.021,1.584-0.063
				C108.183,425.891,122.475,424.737,138.71,421.772z M95.033,230.457L57.268,192.73l110.797-35.863L95.033,230.457z"/>
			<circle cx="395.001" cy="117.002" r="20"/>
		</g>
	</g>
</g>
<g>
</g>
<g>
</g>
<g>
</g>
<g>
</g>
<g>
</g>
<g>
</g>
<g>
</g>
<g>
</g>
<g>
</g>
<g>
</g>
<g>
</g>
<g>
</g>
<g>
</g>
<g>
</g>
<g>
</g>
</svg>
