<?xml version="1.0" encoding="iso-8859-1"?>
<!-- Generator: Adobe Illustrator 19.0.0, SVG Export Plug-In . SVG Version: 6.00 Build 0)  -->
<svg version="1.1" id="Capa_1" xmlns="http://www.w3.org/2000/svg" xmlns:xlink="http://www.w3.org/1999/xlink" x="0px" y="0px"
	 viewBox="0 0 512 512" style="enable-background:new 0 0 512 512;" xml:space="preserve">
<g>
	<g>
		<g>
			<path d="M20,394h74c11.046,0,20-8.954,20-20c0-11.046-8.954-20-20-20H20c-11.046,0-20,8.954-20,20C0,385.046,8.954,394,20,394z"
				/>
			<path d="M20,158h82c11.046,0,20-8.954,20-20c0-11.046-8.954-20-20-20H20c-11.046,0-20,8.954-20,20S8.954,158,20,158z"/>
			<path d="M20,276h38c11.046,0,20-8.954,20-20c0-11.046-8.954-20-20-20H20c-11.046,0-20,8.954-20,20S8.954,276,20,276z"/>
			<path d="M491,472H339c-11.046,0-20,8.954-20,20c0,11.046,8.954,20,20,20h152c11.046,0,20-8.954,20-20
				C511,480.954,502.046,472,491,472z"/>
			<path d="M20,40h175c11.046,0,20-8.954,20-20s-8.954-20-20-20H20C8.954,0,0,8.954,0,20S8.954,40,20,40z"/>
			<path d="M403,40h89c11.046,0,20-8.954,20-20s-8.954-20-20-20h-89c-11.046,0-20,8.954-20,20S391.954,40,403,40z"/>
			<path d="M396.2,288.912c0-58.618-47.614-106.325-106.2-106.471v-61.042c6.766-3.448,13.572-6.866,20.356-10.271
				c15.125-6.668,39.86-26.267,39.86-59.128c0-19.596-7.944-31.544-14.608-38.115C326.397,4.801,313.882,0,299.414,0
				c-0.235,0-0.469,0.004-0.755,0.01C275.224,0.409,250,17.476,250,54v43.117c-27.299,14.563-53.634,30.299-75.968,48.863
				C132.964,180.118,113,218.033,113,261.888c0,79.406,59.97,145.066,137,154.061V452c0,10.841-9.517,20-20.783,20
				C218.069,472,209,463.028,209,452c0-11.046-8.954-20-20-20s-20,8.954-20,20c0,33.084,27.013,60,60.217,60
				C262.732,512,290,485.084,290,452v-36.871C350.235,404.712,396.2,352.077,396.2,288.912z M250,291.491
				c-5.762-4.71-9.448-11.869-9.448-19.874c0-10.814,3.51-20.825,9.448-28.953V291.491z M250,191.788
				c-29.289,14.635-49.448,44.922-49.448,79.829c0,30.612,21.058,56.395,49.448,63.634v40.326c-54.9-8.712-97-56.376-97-113.689
				c0-52.699,43.276-88.426,97-119.116V191.788z M290,54c0-13.837,6.786-13.952,9.284-13.995L299.527,40
				c6.772,0.021,10.69,2.019,10.69,12c0,14.607-14.657,21.886-16.226,22.622c-0.465,0.187-0.582,0.256-1.075,0.504
				c-0.972,0.487-1.943,0.976-2.916,1.464V54z M290,374.248V222.441c36.53,0.145,66.2,29.907,66.2,66.47
				C356.2,329.93,328.018,364.49,290,374.248z"/>
			<path d="M492,354h-64c-11.046,0-20,8.954-20,20c0,11.046,8.954,20,20,20h64c11.046,0,20-8.954,20-20
				C512,362.954,503.046,354,492,354z"/>
			<path d="M492,236h-40c-11.046,0-20,8.954-20,20s8.954,20,20,20h40c11.046,0,20-8.954,20-20C512,244.954,503.046,236,492,236z"/>
			<path d="M492,118H349c-11.046,0-20,8.954-20,20c0,11.046,8.954,20,20,20h143c11.046,0,20-8.954,20-20S503.046,118,492,118z"/>
			<path d="M120,472H20c-11.046,0-20,8.954-20,20c0,11.046,8.954,20,20,20h100c11.046,0,20-8.954,20-20
				C140,480.954,131.046,472,120,472z"/>
		</g>
	</g>
</g>
<g>
</g>
<g>
</g>
<g>
</g>
<g>
</g>
<g>
</g>
<g>
</g>
<g>
</g>
<g>
</g>
<g>
</g>
<g>
</g>
<g>
</g>
<g>
</g>
<g>
</g>
<g>
</g>
<g>
</g>
</svg>
