<svg id="Capa_1" enable-background="new 0 0 512 512" height="512" viewBox="0 0 512 512" width="512" xmlns="http://www.w3.org/2000/svg"><g><path d="m512 256c0 96.77-53.69 180.99-132.91 224.51-36.52 20.07-78.48 31.49-123.09 31.49-16.43 0-32.51-1.55-48.09-4.52-26.7-5.07-51.94-14.3-75-26.97-79.22-43.52-132.91-127.74-132.91-224.51 0-141.38 114.62-256 256-256s256 114.62 256 256z" fill="#b9e4ef"/><g><path d="m145.543 352.738c-16.573.001-35.692-3.157-56.388-12.263-43.04-18.937-59.437-83.609-64.488-110.535-8.622-45.954-7.809-101.835 13.441-123.085 20.542-20.543 52.682-15.08 76.025-6.88 22.719 7.981 41.283 19.717 42.062 20.212 6.442 4.098 8.342 12.643 4.243 19.086-4.097 6.439-12.634 8.34-19.076 4.25-20.133-12.761-67.083-33.735-83.703-17.116-9.875 9.875-14.568 51.785-5.816 98.435 8.705 46.396 27.269 81.007 48.448 90.325 52.623 23.153 91.742-1.536 92.131-1.788 6.409-4.152 14.969-2.324 19.12 4.083 4.152 6.408 2.324 14.968-4.084 19.12-1.443.935-25.537 16.154-61.915 16.156z" fill="#e7a52e"/><path d="m487.33 229.94c-5.05 26.93-21.44 91.6-64.48 110.54-20.7 9.1-39.82 12.26-56.39 12.26-36.38 0-60.48-15.22-61.92-16.16-6.41-4.15-8.23-12.71-4.08-19.12s12.71-8.23 19.12-4.08c.3.2 24.22 15.29 59.73 10.88h.02c9.97-1.24 20.85-4.02 32.38-9.09 21.18-9.32 39.74-43.93 48.45-90.33 8.75-46.65 4.06-88.56-5.82-98.43-4.24-4.24-10.43-6.03-17.65-6.14h-.17c-.19-.01-.38-.01-.57-.01-21.09 0-50.48 13.86-65.31 23.26-6.44 4.09-14.98 2.19-19.08-4.25s-2.2-14.98 4.25-19.08c.78-.5 19.34-12.23 42.06-20.21 23.34-8.2 55.48-13.67 76.02 6.88 21.25 21.25 22.07 77.13 13.44 123.08z" fill="#ecc32e"/><path d="m410.71 257.77c-7.2 53.19-127.16 59.19-127.16 109.63v70.91h-55.11v-70.91c0-50.44-119.95-56.44-127.15-109.63-7.22-53.19 7.2-134.14 28.37-171.37l5.04-1.41 126.62-35.66 121.02 37.07c3.22 5.69 6.3 12.38 9.16 19.85 15.9 41.44 25.32 106.45 19.21 151.52z" fill="#ecc32e"/><path d="m391.501 106.245h-234.287c-12.019 0-21.849-9.402-22.515-21.259l126.621-35.657 121.016 37.075c3.227 5.681 6.3 12.38 9.165 19.841z" fill="#e7a52e"/><path d="m196.682 257.77c2.76 53.185 48.751 59.19 48.751 109.635v70.904h-16.986v-70.904c0-50.445-119.96-56.449-127.164-109.635-7.204-53.185 7.204-134.139 28.377-171.366l126.336-35.571-48.437 35.571c-8.118 37.227-13.637 118.18-10.877 171.366z" fill="#e7a52e"/><path d="m258.898 50.014-2.903.819 2.046-1.504z" fill="#eab14d"/><path d="m382.339 86.401h-252.678c-12.454 0-22.551-10.096-22.551-22.551v-21.237c0-12.454 10.096-22.551 22.551-22.551h252.678c12.454 0 22.551 10.096 22.551 22.551v21.238c0 12.454-10.097 22.55-22.551 22.55z" fill="#ecc32e"/><path d="m211.521 86.404h-81.857c-12.457 0-22.553-10.097-22.553-22.553v-21.24c0-12.457 10.097-22.553 22.553-22.553h81.857c-12.457 0-22.553 10.097-22.553 22.553v21.24c0 12.457 10.096 22.553 22.553 22.553z" fill="#e7a52e"/><path d="m228.44 393.87h55.11v44.44h-55.11z" fill="#e7a52e"/><path d="m325.068 404.038h-138.136c-15.834 0-28.67 12.836-28.67 28.67 0 15.834 12.836 28.67 28.67 28.67h138.136c15.834 0 28.67-12.836 28.67-28.67-.001-15.834-12.837-28.67-28.67-28.67z" fill="#ecc32e"/><path d="m226.892 452.977c5.19 5.18 12.35 8.39 20.27 8.39h-60.23c-7.91 0-15.08-3.21-20.27-8.39-5.19-5.19-8.4-12.36-8.4-20.27 0-15.84 12.84-28.67 28.67-28.67h60.23c-15.83 0-28.67 12.83-28.67 28.67 0 7.91 3.21 15.081 8.4 20.27z" fill="#e7a52e"/><path d="m379.09 480.51c-36.52 20.07-78.48 31.49-123.09 31.49s-86.57-11.42-123.09-31.49c6.43-11.42 18.66-19.13 32.7-19.13h180.78c10.36 0 19.74 4.2 26.53 10.99 2.41 2.41 4.49 5.15 6.17 8.14z" fill="#ecc32e"/><g fill="#e7a52e"><path d="m206.92 498.9c0 2.95.34 5.83.99 8.58-26.7-5.07-51.94-14.3-75-26.97 6.43-11.42 18.67-19.13 32.7-19.13h78.82c-20.71 0-37.51 16.79-37.51 37.52z"/><path d="m471.72 226.16c-18.06 102.54-90.89 98.2-92.39 98.1 9.97-1.24 20.85-4.02 32.38-9.09 21.18-9.32 39.74-43.93 48.45-90.33 8.75-46.65 4.06-88.56-5.82-98.43-4.24-4.24-10.43-6.03-17.65-6.14 27.96.01 53.23 2.49 35.03 105.89z"/></g></g><g fill="#e7a52e"><circle cx="293.235" cy="182.5" r="60.696"/><path d="m341.29 163.604h-78.19s-2.563-67.18-4.202-77.202c9.525-21.187 9.525-66.344 9.525-66.344h72.867z"/><path d="m258.1 92.632h78.19v70.972h-78.19z"/></g><path d="m268.422 20.058h78.19v143.546h-78.19z" fill="#90d8f9"/><path d="m279.716 20.058h55.602v143.546h-55.602z" fill="#bc95e2"/><path d="m292.682 20.058h29.671v143.546h-29.671z" fill="#90d8f9"/><circle cx="307.517" cy="182.5" fill="#f6f1f1" r="60.696"/><circle cx="307.517" cy="182.5" fill="#dfeaef" r="42.289"/><path d="m322.734 167.948c2.872 0 5.2-2.328 5.2-5.2v-3.935c0-2.872-2.328-5.2-5.2-5.2h-30.433c-2.872 0-5.2 2.328-5.2 5.2v3.935c0 2.872 2.328 5.2 5.2 5.2h7.18v29.104h-7.18c-2.872 0-5.2 2.328-5.2 5.2v3.935c0 2.872 2.328 5.2 5.2 5.2h30.433c2.872 0 5.2-2.328 5.2-5.2v-3.935c0-2.872-2.328-5.2-5.2-5.2h-7.18v-29.104z" fill="#f6f1f1"/></g></svg>