<svg id="Capa_1" enable-background="new 0 0 512 512" height="512" viewBox="0 0 512 512" width="512" xmlns="http://www.w3.org/2000/svg"><g><path d="m512 256c0 99.77-57.08 186.22-140.37 228.45-6.66 3.38-13.48 6.48-20.46 9.27-6.68 2.68-13.5 5.08-20.45 7.2-23.64 7.2-48.73 11.08-74.72 11.08s-51.08-3.88-74.72-11.08c-6.95-2.12-13.77-4.52-20.45-7.2-6.98-2.79-13.8-5.89-20.46-9.27-83.29-42.23-140.37-128.68-140.37-228.45 0-141.38 114.62-256 256-256s256 114.62 256 256z" fill="#80e29d"/><path d="m101.565 398.725h-24.27c-16.705 0-30.295-13.59-30.295-30.295v-105.729h20v105.728c0 5.677 4.618 10.295 10.295 10.295h24.27z" fill="#f6f1f1"/><g><g><g><path d="m140.368 163.604h40.917v219.509h-40.917z" fill="#f6f1f1"/><g fill="#dfeaef"><path d="m140.368 163.604h40.917v68.727h-40.917z"/><path d="m140.368 163.604h20.459v219.509h-20.459z"/></g></g><g><path d="m330.715 163.604h40.917v219.509h-40.917z" fill="#f6f1f1"/><g fill="#dfeaef"><path d="m330.715 163.604h40.917v68.727h-40.917z"/><path d="m330.715 163.604h20.459v219.509h-20.459z"/></g></g></g><g><g><path d="m181.28 374.68v126.24c-6.95-2.12-13.77-4.52-20.45-7.2-6.98-2.79-13.8-5.89-20.46-9.27v-109.77z" fill="#f6f1f1"/><g fill="#dfeaef"><path d="m140.368 374.676h40.917v68.727h-40.917z"/><path d="m160.83 374.68v119.04c-6.98-2.79-13.8-5.89-20.46-9.27v-109.77z"/></g></g><g><path d="m371.63 374.68v109.77c-6.66 3.38-13.48 6.48-20.46 9.27-6.68 2.68-13.5 5.08-20.45 7.2v-126.24z" fill="#f6f1f1"/><g fill="#dfeaef"><path d="m330.715 374.676h40.917v68.727h-40.917z"/><path d="m351.17 374.68v119.04c-6.68 2.68-13.5 5.08-20.45 7.2v-126.24z"/></g></g></g><path d="m140.368 383.112h231.265v78.267h-231.265z" fill="#e7a52e"/><path d="m361.457 214.479h-210.914c-31.363 0-56.787-25.424-56.787-56.787v-95.98c0-31.363 25.424-56.787 56.787-56.787h210.914c31.363 0 56.787 25.424 56.787 56.787v95.98c0 31.362-25.424 56.787-56.787 56.787z" fill="#ecc32e"/><path d="m169.856 214.481h-19.31c-31.36 0-56.79-25.43-56.79-56.79v-95.98c0-31.36 25.43-56.79 56.79-56.79h19.31c-31.36 0-56.78 25.43-56.78 56.79v95.98c0 31.36 25.42 56.79 56.78 56.79z" fill="#e7a52e"/><path d="m405.009 416.09h-298.018c-12.437 0-22.52-10.082-22.52-22.52v-9.692c0-12.437 10.082-22.52 22.52-22.52h298.019c12.437 0 22.52 10.082 22.52 22.52v9.692c-.001 12.438-10.083 22.52-22.521 22.52z" fill="#ecc32e"/><path d="m150.001 416.089h-43.01c-12.43 0-22.52-10.08-22.52-22.52v-9.69c0-12.44 10.09-22.52 22.52-22.52h43.01c-12.44 0-22.52 10.08-22.52 22.52v9.69c0 12.44 10.08 22.52 22.52 22.52z" fill="#e7a52e"/></g><path d="m235.636 239.479h-193.073c-12.047 0-21.813 9.766-21.813 21.813v2.82c0 12.047 9.766 21.813 21.813 21.813h193.073c12.047 0 21.813-9.766 21.813-21.813v-2.82c-.001-12.048-9.767-21.813-21.813-21.813z" fill="#ecc32e"/><path d="m105.553 285.924h-62.99c-12.04 0-21.81-9.76-21.81-21.81v-2.82c0-12.05 9.77-21.81 21.81-21.81h62.99c-12.05 0-21.82 9.76-21.82 21.81v2.82c0 12.05 9.77 21.81 21.82 21.81z" fill="#e7a52e"/><g><path d="m7.889 149.674c.418 3.087 3.259 5.251 6.346 4.833l15.021-2.033-1.513-11.179-15.021 2.033c-3.087.418-5.25 3.259-4.833 6.346z" fill="#ecc32e"/><path d="m183.991 120.876 1.319 9.747c.633 4.674-2.644 8.976-7.318 9.609l-32.64 4.418-3.61-26.673 32.64-4.418c4.674-.633 8.976 2.643 9.609 7.317z" fill="#f6f1f1"/><path d="m184.107 121.716c.633 4.675-2.645 8.973-7.32 9.606l-32.639 4.418 1.206 8.91 32.639-4.418c4.675-.633 7.952-4.936 7.32-9.611z" fill="#dfeaef"/><path d="m8.063 147.344c-.212.733-.28 1.523-.171 2.327.418 3.088 3.255 5.254 6.343 4.836l15.022-2.033-.612-4.52-15.022 2.033c-2.283.31-4.431-.797-5.56-2.643z" fill="#e7a52e"/><path d="m99.094 110.437c-28.497 3.857-54.584 14.024-77.05 28.899-1.146.758-1.747 2.114-1.563 3.475l1.371 10.129c.184 1.361 1.124 2.508 2.43 2.934 25.613 8.373 53.464 11.239 81.961 7.382 16.963-2.296 33.066-6.828 48.072-13.26 4.876-2.096 7.743-7.206 7.032-12.466l-2.293-16.942c-.712-5.259-4.836-9.429-10.092-10.148-16.177-2.211-32.905-2.299-49.868-.003z" fill="#bc95e2"/><path d="m21.369 149.378.482 3.56c.184 1.362 1.125 2.506 2.428 2.936 25.613 8.369 53.468 11.238 81.963 7.381 16.963-2.296 33.066-6.828 48.072-13.26 4.876-2.096 7.743-7.206 7.032-12.466l-.807-5.962c.211 1.56-3.098 3.411-8.108 4.515-15.418 3.386-31.741 6.294-48.704 8.59-28.495 3.857-55.729 5.577-80.235 5.384-1.246-.01-2.068-.276-2.123-.678z" fill="#9373b9"/><path d="m92.973 94.663c-2.224 1.72-4.037 3.893-5.29 6.296 0 0 .001.005-.004.011-.851 1.622-1.448 3.341-1.745 5.095-.254 1.514-.28 3.013-.086 4.45.298 2.203 1.119 4.276 2.43 6.053 1.626 2.209 4.847 5.076 10.955 6.199 11.488 2.108 21.799-5.975 30.895-13.108 7.305-5.728 14.199-11.137 19.708-10.092 11.475 2.176 10.703 26.275 10.692 26.522l3.258.154 5.021.232c.061-1.28 1.282-31.511-17.432-35.054-9.201-1.746-17.927 5.096-26.362 11.713-8.1 6.348-16.47 12.913-24.286 11.476-3.465-.634-7.426-2.391-6.618-7.151.35-2.056 1.642-4.366 3.674-6.05 1.189 3.661 4.855 6.063 8.801 5.529 3.801-.514 6.629-3.578 6.997-7.236.063-.62.054-1.257-.033-1.901-.466-3.442-3.028-6.076-6.224-6.817l-.001-.005c-.011.001-.022-.002-.033-.001-.665-.156-1.358-.231-2.064-.206-4.41-.201-8.699 1.144-12.253 3.891z" fill="#f6f1f1"/><g fill="#dfeaef"><path d="m87.679 100.97c-.851 1.622-1.448 3.341-1.745 5.095-.254 1.514-.28 3.013-.086 4.45.298 2.203 1.119 4.276 2.43 6.053 1.626 2.209 4.847 5.076 10.955 6.199 11.488 2.108 21.799-5.975 30.895-13.108 7.305-5.728 14.199-11.137 19.708-10.092 6.342 1.2 8.939 9.092 9.994 15.959l2.52-.341c-2.402-11.249-7.439-20.236-13.417-19.427-14.325 1.939-24.911 20.978-44.474 23.626-19.3 2.613-16.846-17.859-16.78-18.414z"/><path d="m98.806 98.628c-2.48 1.4-4.004 1.961-4.696 8.83.35-2.056 1.642-4.366 3.674-6.05 1.189 3.661 4.855 6.063 8.801 5.529 3.801-.514 6.629-3.578 6.997-7.236-3.925-5.642-12.297-2.478-14.776-1.073z"/></g></g><g><path d="m213.054 170.827h-153.424c-16.963 0-30.714 13.751-30.714 30.714 0 16.963 13.751 30.714 30.714 30.714h153.424" fill="#efe7e4"/><path d="m213.054 239.479h-153.424c-20.919 0-37.937-17.019-37.937-37.937 0-20.919 17.019-37.937 37.937-37.937h153.423c3.989 0 7.223 3.234 7.223 7.223s-3.234 7.223-7.223 7.223h-153.423c-12.953 0-23.491 10.538-23.491 23.49 0 12.953 10.538 23.491 23.491 23.491h153.423c3.989 0 7.223 3.234 7.223 7.223.001 3.989-3.233 7.224-7.222 7.224z" fill="#f93d6e"/><g fill="#dad0cb"><path d="m61.701 205.363h151.353v9.02h-151.353c-2.491 0-4.51-2.019-4.51-4.51 0-2.49 2.019-4.51 4.51-4.51z"/><path d="m61.701 188.699h151.353v9.02h-151.353c-2.491 0-4.51-2.019-4.51-4.51 0-2.491 2.019-4.51 4.51-4.51z"/></g></g></g></svg>