<svg id="Capa_1" enable-background="new 0 0 512 512" height="512" viewBox="0 0 512 512" width="512" xmlns="http://www.w3.org/2000/svg"><g><circle cx="256" cy="256" fill="#80e29d" r="256"/><g><g><path d="m469.736 160.068c0 10.52 7.684 19.242 17.747 20.861 1.1.178 2.231.271 3.385.271 11.674 0 21.132-9.458 21.132-21.132s-9.458-21.132-21.132-21.132c-1.154 0-2.285.093-3.385.271-10.063 1.619-17.747 10.341-17.747 20.861z" fill="#ffcbbe"/><g fill="#eaac9d"><path d="m469.736 160.068c0 10.52 7.684 19.242 17.747 20.861 1.828-6.646 2.804-13.641 2.804-20.861s-.976-14.215-2.804-20.861c-10.063 1.619-17.747 10.341-17.747 20.861z"/><circle cx="490.868" cy="160.068" r="7.553"/></g></g><path d="m485.773 148.96c0 39.511-28.865 72.287-66.655 78.373-4.146.681-8.401 1.025-12.743 1.025-43.853 0-79.398-35.545-79.398-79.398v-80.833h158.796z" fill="#ffcbbe"/><g fill="#eaac9d"><path d="m420.36 227.125c-.411.072-.826.144-1.242.21-4.147.677-8.402 1.021-12.744 1.021-43.851 0-79.397-35.541-79.397-79.397v-80.834h27.997v80.834c0 39.078 28.217 71.55 65.386 78.166z"/><path d="m406.375 190.747c-6.648 0-13.297-1.666-19.357-4.997-1.709-.94-2.333-3.087-1.393-4.797s3.088-2.333 4.797-1.394c9.99 5.492 21.919 5.492 31.908 0 1.708-.94 3.857-.316 4.797 1.394.94 1.709.316 3.857-1.393 4.797-6.063 3.331-12.711 4.997-19.359 4.997z"/><path d="m415.381 167.017h-18.013c-2.146 0-3.885-1.739-3.885-3.885 0-2.146 1.739-3.885 3.885-3.885h18.013c2.146 0 3.885 1.739 3.885 3.885.001 2.145-1.739 3.885-3.885 3.885z"/></g><g><path d="m419.383 145.188c0 8.81 7.142 15.951 15.951 15.951s15.951-7.142 15.951-15.951" fill="#eaac9d"/><circle cx="435.334" cy="145.188" fill="#2f373b" r="11.439"/><circle cx="440.101" cy="143.169" fill="#fff" r="4.901"/><path d="m361.464 145.188c0 8.81 7.142 15.951 15.951 15.951s15.951-7.142 15.951-15.951" fill="#eaac9d"/><circle cx="377.416" cy="145.188" fill="#2f373b" r="11.439"/><path d="m380.091 156.309c-.857.21-1.755.318-2.674.318-6.318 0-11.44-5.122-11.44-11.44s5.122-11.44 11.44-11.44c.919 0 1.817.108 2.674.318-5.03 1.201-8.761 5.728-8.761 11.122 0 5.395 3.731 9.921 8.761 11.122z" fill="#181e21"/><path d="m438.009 156.309c-.857.21-1.755.318-2.674.318-6.318 0-11.44-5.122-11.44-11.44s5.122-11.44 11.44-11.44c.919 0 1.817.108 2.674.318-5.03 1.201-8.761 5.728-8.761 11.122 0 5.395 3.731 9.921 8.761 11.122z" fill="#181e21"/><circle cx="382.182" cy="143.169" fill="#fff" r="4.901"/></g><path d="m485.771 129.002c-10.414-10.414-16.844-38.665-16.844-38.665s-25.584 18.195-62.554 18.195c-10.879 0-20.777-1.573-29.324-3.805-20.484-5.328-33.222-14.39-33.222-14.39s-6.437 28.251-16.851 38.665c0 0-33.766-64.828-8.74-83.023 6.251-4.549 14.891-8.676 24.325-12.302 18.896-7.26 38.758-11.179 58.699-11.744.243-.014.486-.021.729-.029.257 0 .508-.007.758-.014 22.859-.465 45.774 3.469 67.439 11.787 9.441 3.626 18.074 7.753 24.332 12.302 25.019 18.195-8.747 83.023-8.747 83.023z" fill="#d9723e"/><path d="m377.05 104.727c-20.484-5.328-33.222-14.39-33.222-14.39s-6.437 28.251-16.851 38.665c0 0-33.766-64.828-8.74-83.023 6.251-4.549 14.891-8.676 24.325-12.302 18.896-7.26 38.758-11.179 58.699-11.744-34.525 1.43-55.073 51.94-24.211 82.794z" fill="#bd5423"/></g><g><g><path d="m319.361 204.225c0 10.52 7.684 19.242 17.747 20.861 1.1.178 2.231.271 3.385.271 11.674 0 21.132-9.458 21.132-21.132s-9.458-21.132-21.132-21.132c-1.154 0-2.285.093-3.385.271-10.063 1.619-17.747 10.341-17.747 20.861z" fill="#ffcbbe"/><g fill="#eaac9d"><path d="m319.361 204.225c0 10.52 7.684 19.242 17.747 20.861 1.828-6.646 2.804-13.641 2.804-20.861s-.976-14.215-2.804-20.861c-10.063 1.619-17.747 10.341-17.747 20.861z"/><circle cx="340.493" cy="204.225" r="7.553"/></g></g><path d="m335.398 193.118c0 39.511-28.865 72.287-66.655 78.373-4.146.681-8.401 1.025-12.743 1.025-43.853 0-79.398-35.545-79.398-79.398v-80.834h158.796z" fill="#ffcbbe"/><g fill="#eaac9d"><path d="m269.985 271.282c-.411.072-.826.144-1.242.21-4.147.677-8.402 1.021-12.744 1.021-43.851 0-79.397-35.541-79.397-79.397v-80.834h27.997v80.834c0 39.078 28.218 71.551 65.386 78.166z"/><path d="m256 234.905c-6.648 0-13.297-1.666-19.357-4.997-1.709-.94-2.333-3.087-1.393-4.797s3.088-2.333 4.797-1.394c9.99 5.492 21.919 5.492 31.908 0 1.708-.94 3.857-.316 4.797 1.394.94 1.709.316 3.857-1.393 4.797-6.062 3.331-12.711 4.997-19.359 4.997z"/><path d="m265.007 211.174h-18.013c-2.146 0-3.885-1.739-3.885-3.885 0-2.146 1.739-3.885 3.885-3.885h18.013c2.146 0 3.885 1.739 3.885 3.885 0 2.146-1.74 3.885-3.885 3.885z"/></g><g><path d="m269.008 189.345c0 8.81 7.142 15.951 15.951 15.951s15.951-7.142 15.951-15.951" fill="#eaac9d"/><circle cx="284.959" cy="189.345" fill="#2f373b" r="11.439"/><circle cx="289.726" cy="187.326" fill="#fff" r="4.901"/><path d="m211.09 189.345c0 8.81 7.142 15.951 15.951 15.951s15.951-7.142 15.951-15.951" fill="#eaac9d"/><circle cx="227.041" cy="189.345" fill="#2f373b" r="11.439"/><path d="m229.716 200.467c-.857.21-1.755.318-2.674.318-6.318 0-11.44-5.122-11.44-11.44s5.122-11.44 11.44-11.44c.919 0 1.817.108 2.674.318-5.03 1.201-8.761 5.728-8.761 11.122s3.731 9.921 8.761 11.122z" fill="#181e21"/><path d="m287.634 200.467c-.857.21-1.755.318-2.674.318-6.318 0-11.44-5.122-11.44-11.44s5.122-11.44 11.44-11.44c.919 0 1.817.108 2.674.318-5.03 1.201-8.761 5.728-8.761 11.122.001 5.394 3.732 9.921 8.761 11.122z" fill="#181e21"/><circle cx="231.808" cy="187.326" fill="#fff" r="4.901"/></g><path d="m335.396 173.16c-10.414-10.414-16.844-38.665-16.844-38.665s-25.584 18.195-62.554 18.195c-10.879 0-20.777-1.573-29.324-3.805-20.484-5.328-33.222-14.39-33.222-14.39s-6.437 28.251-16.851 38.665c0 0-33.766-64.828-8.74-83.023 6.251-4.549 14.891-8.676 24.325-12.302 18.896-7.26 38.758-11.179 58.699-11.744.243-.014.486-.021.73-.029.257 0 .508-.007.758-.014 22.859-.465 45.774 3.469 67.439 11.787 9.441 3.626 18.074 7.753 24.332 12.302 25.018 18.194-8.748 83.023-8.748 83.023z" fill="#2f373b"/><path d="m226.675 148.885c-20.484-5.328-33.222-14.39-33.222-14.39s-6.437 28.251-16.851 38.665c0 0-33.766-64.828-8.74-83.023 6.251-4.549 14.891-8.676 24.325-12.302 18.896-7.26 38.758-11.179 58.699-11.744-34.525 1.43-55.073 51.939-24.211 82.794z" fill="#181e21"/></g><g><g><path d="m42.264 248.383c0 10.52-7.684 19.242-17.747 20.861-1.1.178-2.231.271-3.385.271-11.674 0-21.132-9.459-21.132-21.132s9.458-21.132 21.132-21.132c1.154 0 2.285.093 3.385.271 10.063 1.618 17.747 10.341 17.747 20.861z" fill="#ffcbbe"/><path d="m42.264 248.383c0 10.52-7.684 19.242-17.747 20.861-1.828-6.646-2.804-13.641-2.804-20.861s.976-14.215 2.804-20.861c10.063 1.618 17.747 10.341 17.747 20.861z" fill="#eaac9d"/><circle cx="21.132" cy="248.383" fill="#eaac9d" r="7.553"/><path d="m168.986 248.383c0 10.52 7.684 19.242 17.747 20.861 1.1.178 2.231.271 3.385.271 11.674 0 21.132-9.458 21.132-21.132s-9.458-21.132-21.132-21.132c-1.154 0-2.285.093-3.385.271-10.062 1.618-17.747 10.341-17.747 20.861z" fill="#ffcbbe"/><g fill="#eaac9d"><path d="m168.986 248.383c0 10.52 7.684 19.242 17.747 20.861 1.828-6.646 2.804-13.641 2.804-20.861s-.976-14.215-2.804-20.861c-10.062 1.618-17.747 10.341-17.747 20.861z"/><circle cx="190.118" cy="248.383" r="7.553"/></g></g><path d="m185.023 237.275c0 39.511-28.865 72.287-66.655 78.373-4.146.681-8.401 1.025-12.743 1.025-43.853 0-79.398-35.545-79.398-79.398v-80.834h158.796z" fill="#ffcbbe"/><g fill="#eaac9d"><path d="m119.61 315.44c-.411.072-.826.144-1.242.21-4.147.677-8.402 1.021-12.744 1.021-43.851 0-79.397-35.541-79.397-79.397v-80.834h27.997v80.834c0 39.078 28.218 71.55 65.386 78.166z"/><path d="m105.626 279.062c-6.648 0-13.297-1.666-19.357-4.997-1.709-.94-2.333-3.087-1.393-4.797s3.088-2.333 4.797-1.394c9.99 5.492 21.919 5.492 31.908 0 1.708-.94 3.857-.316 4.797 1.394.94 1.709.316 3.857-1.393 4.797-6.063 3.331-12.711 4.997-19.359 4.997z"/><path d="m114.632 255.332h-18.013c-2.146 0-3.885-1.739-3.885-3.885 0-2.146 1.739-3.885 3.885-3.885h18.013c2.146 0 3.885 1.739 3.885 3.885 0 2.145-1.739 3.885-3.885 3.885z"/></g><g><path d="m118.633 233.502c0 8.81 7.142 15.951 15.951 15.951 8.81 0 15.951-7.142 15.951-15.951" fill="#eaac9d"/><circle cx="134.584" cy="233.502" fill="#2f373b" r="11.439"/><circle cx="139.351" cy="231.484" fill="#fff" r="4.901"/><path d="m60.715 233.502c0 8.81 7.142 15.951 15.951 15.951s15.951-7.142 15.951-15.951" fill="#eaac9d"/><circle cx="76.666" cy="233.502" fill="#2f373b" r="11.439"/><path d="m79.341 244.624c-.857.21-1.755.318-2.674.318-6.318 0-11.44-5.122-11.44-11.44s5.122-11.44 11.44-11.44c.919 0 1.817.108 2.674.318-5.03 1.201-8.761 5.728-8.761 11.122 0 5.395 3.732 9.921 8.761 11.122z" fill="#181e21"/><path d="m137.26 244.624c-.857.21-1.755.318-2.674.318-6.318 0-11.44-5.122-11.44-11.44s5.122-11.44 11.44-11.44c.919 0 1.817.108 2.674.318-5.03 1.201-8.761 5.728-8.761 11.122 0 5.395 3.731 9.921 8.761 11.122z" fill="#181e21"/><circle cx="81.433" cy="231.484" fill="#fff" r="4.901"/></g><path d="m185.022 217.317c-10.414-10.414-16.844-38.665-16.844-38.665s-25.584 18.195-62.554 18.195c-10.879 0-20.777-1.573-29.324-3.805-20.484-5.328-33.222-14.39-33.222-14.39s-6.437 28.251-16.851 38.665c0 0-33.766-64.828-8.74-83.023 6.251-4.549 14.891-8.676 24.325-12.302 18.896-7.26 38.758-11.179 58.699-11.744.243-.014.486-.021.729-.029.257 0 .508-.007.758-.014 22.859-.465 45.774 3.469 67.439 11.787 9.441 3.626 18.074 7.753 24.332 12.302 25.018 18.195-8.747 83.023-8.747 83.023z" fill="#d9723e"/><path d="m76.3 193.042c-20.484-5.328-33.222-14.39-33.222-14.39s-6.437 28.251-16.851 38.665c0 0-33.766-64.828-8.74-83.023 6.251-4.549 14.891-8.676 24.325-12.302 18.896-7.26 38.758-11.179 58.699-11.744-34.524 1.43-55.073 51.939-24.211 82.794z" fill="#bd5423"/></g><g><path d="m428.03 284.02v161.55c-45.45 41.28-105.81 66.43-172.03 66.43-42.42 0-82.43-10.32-117.66-28.59-14.41-7.47-28.02-16.27-40.67-26.24v-173.15z" fill="#181e21"/><path d="m464.87 404.04c-10.75 15.15-23.12 29.07-36.84 41.53-29.62 26.9-65.57 46.95-105.34 57.65v-45.04c0-39.09 31.69-70.78 70.78-70.78h25.81c17.36 0 33.27 6.25 45.59 16.64z" fill="#f93d6e"/><path d="m418.88 387.4c-39.09 0-70.78 31.69-70.78 70.78v36.74c-2.79 1.08-5.61 2.11-8.45 3.09-5.57 1.93-11.22 3.67-16.96 5.21v-45.04c0-39.09 31.69-70.78 70.78-70.78z" fill="#e41753"/><path d="m442.21 387.721c-2.26 15.61-14.49 27.98-30.02 30.48-1.89.31-3.83.47-5.81.47-18.21 0-33.29-13.44-35.84-30.95 7.19-2.47 14.91-3.81 22.94-3.81h25.8c8.03 0 15.74 1.34 22.93 3.81z" fill="#eaac9d"/><path d="m339.65 498.01c-5.57 1.93-11.22 3.67-16.96 5.21-21.26 5.73-43.62 8.78-66.69 8.78-29.29 0-57.43-4.92-83.65-13.98.91-30.11 20.63-55.49 47.81-64.79 7.19-2.47 14.91-3.81 22.94-3.81h25.8c8.03 0 15.74 1.34 22.93 3.81 27.18 9.29 46.9 34.67 47.82 64.78z" fill="#ecc32e"/><path d="m268.51 429.42c-39.09 0-70.78 31.69-70.78 70.78v5.14c-8.64-2.01-17.1-4.46-25.38-7.32 1.15-38.08 32.39-68.6 70.75-68.6z" fill="#e7a52e"/><path d="m291.83 433.23c-2.26 15.61-14.49 27.98-30.02 30.48-1.89.31-3.83.47-5.81.47-18.21 0-33.29-13.44-35.84-30.95 7.19-2.47 14.91-3.81 22.94-3.81h25.8c8.03 0 15.74 1.34 22.93 3.81z" fill="#eaac9d"/><g><path d="m504.51 317.7c-3.17 12.82-7.3 25.25-12.33 37.22-.43.04-.87.05-1.31.05-1.16 0-2.29-.09-3.39-.27-10.06-1.62-17.74-10.34-17.74-20.86s7.68-19.25 17.74-20.86c1.1-.18 2.23-.28 3.39-.28 5.2 0 9.96 1.87 13.64 5z" fill="#ffcbbe"/><g fill="#eaac9d"><path d="m469.736 333.837c0 10.52 7.684 19.242 17.747 20.861 1.828-6.646 2.804-13.641 2.804-20.861s-.976-14.215-2.804-20.861c-10.063 1.619-17.747 10.341-17.747 20.861z"/><circle cx="490.868" cy="333.837" r="7.553"/></g></g><path d="m485.773 322.729c0 39.511-28.865 72.287-66.655 78.373-4.146.681-8.401 1.025-12.743 1.025-43.853 0-79.398-35.545-79.398-79.398v-80.834h158.796z" fill="#ffcbbe"/><g fill="#eaac9d"><path d="m420.36 400.894c-.411.072-.826.144-1.242.21-4.147.677-8.402 1.021-12.744 1.021-43.851 0-79.397-35.541-79.397-79.397v-80.834h27.997v80.834c0 39.078 28.217 71.55 65.386 78.166z"/><path d="m406.375 364.516c-6.648 0-13.297-1.666-19.357-4.997-1.709-.94-2.333-3.087-1.393-4.797s3.088-2.333 4.797-1.394c9.99 5.492 21.919 5.492 31.908 0 1.708-.94 3.857-.316 4.797 1.394.94 1.709.316 3.857-1.393 4.797-6.063 3.331-12.711 4.997-19.359 4.997z"/><path d="m415.381 340.786h-18.013c-2.146 0-3.885-1.739-3.885-3.885 0-2.146 1.739-3.885 3.885-3.885h18.013c2.146 0 3.885 1.739 3.885 3.885.001 2.146-1.739 3.885-3.885 3.885z"/></g><g><path d="m419.383 318.957c0 8.81 7.142 15.951 15.951 15.951s15.951-7.142 15.951-15.951" fill="#eaac9d"/><circle cx="435.334" cy="318.957" fill="#2f373b" r="11.439"/><circle cx="440.101" cy="316.938" fill="#fff" r="4.901"/><path d="m361.464 318.957c0 8.81 7.142 15.951 15.951 15.951s15.951-7.142 15.951-15.951" fill="#eaac9d"/><circle cx="377.416" cy="318.957" fill="#2f373b" r="11.439"/><path d="m380.091 330.078c-.857.21-1.755.318-2.674.318-6.318 0-11.44-5.122-11.44-11.44s5.122-11.44 11.44-11.44c.919 0 1.817.108 2.674.318-5.03 1.201-8.761 5.728-8.761 11.122s3.731 9.921 8.761 11.122z" fill="#181e21"/><path d="m438.009 330.078c-.857.21-1.755.318-2.674.318-6.318 0-11.44-5.122-11.44-11.44s5.122-11.44 11.44-11.44c.919 0 1.817.108 2.674.318-5.03 1.201-8.761 5.728-8.761 11.122s3.731 9.921 8.761 11.122z" fill="#181e21"/><circle cx="382.182" cy="316.938" fill="#fff" r="4.901"/></g><path d="m485.771 302.771c-10.414-10.414-16.844-38.665-16.844-38.665s-25.584 18.195-62.554 18.195c-10.879 0-20.777-1.573-29.324-3.805-20.484-5.328-33.222-14.39-33.222-14.39s-6.437 28.251-16.851 38.665c0 0-33.766-64.828-8.74-83.023 6.251-4.549 14.891-8.676 24.325-12.302 18.896-7.26 38.758-11.179 58.699-11.744.243-.014.486-.021.729-.029.257 0 .508-.007.758-.014 22.859-.465 45.774 3.469 67.439 11.787 9.441 3.626 18.074 7.753 24.332 12.302 25.019 18.195-8.747 83.023-8.747 83.023z" fill="#ecc32e"/><path d="m377.05 278.496c-20.484-5.328-33.222-14.39-33.222-14.39s-6.437 28.251-16.851 38.665c0 0-33.766-64.828-8.74-83.023 6.251-4.549 14.891-8.676 24.325-12.302 18.896-7.26 38.758-11.179 58.699-11.744-34.525 1.43-55.073 51.94-24.211 82.794z" fill="#e7a52e"/><g><path d="m319.361 377.994c0 10.52 7.684 19.242 17.747 20.861 1.1.178 2.231.271 3.385.271 11.674 0 21.132-9.458 21.132-21.132s-9.458-21.132-21.132-21.132c-1.154 0-2.285.093-3.385.271-10.063 1.619-17.747 10.342-17.747 20.861z" fill="#ffcbbe"/><g fill="#eaac9d"><path d="m319.361 377.994c0 10.52 7.684 19.242 17.747 20.861 1.828-6.646 2.804-13.641 2.804-20.861s-.976-14.215-2.804-20.861c-10.063 1.619-17.747 10.342-17.747 20.861z"/><circle cx="340.493" cy="377.994" r="7.553"/></g></g><path d="m335.398 366.887c0 39.511-28.865 72.287-66.655 78.373-4.146.681-8.401 1.025-12.743 1.025-43.853 0-79.398-35.545-79.398-79.398v-80.834h158.796z" fill="#ffcbbe"/><path d="m269.985 445.051c-.411.072-.826.144-1.242.21-4.147.677-8.402 1.021-12.744 1.021-43.851 0-79.397-35.541-79.397-79.397v-80.834h27.997v80.834c0 39.079 28.218 71.551 65.386 78.166z" fill="#eaac9d"/><path d="m256 408.674c-6.648 0-13.297-1.666-19.357-4.997-1.709-.94-2.333-3.087-1.393-4.797s3.088-2.333 4.797-1.394c9.99 5.492 21.919 5.492 31.908 0 1.708-.94 3.857-.316 4.797 1.394.94 1.709.316 3.857-1.393 4.797-6.062 3.331-12.711 4.997-19.359 4.997z" fill="#eaac9d"/><path d="m265.007 384.943h-18.013c-2.146 0-3.885-1.739-3.885-3.885 0-2.146 1.739-3.885 3.885-3.885h18.013c2.146 0 3.885 1.739 3.885 3.885 0 2.146-1.74 3.885-3.885 3.885z" fill="#eaac9d"/><g><path d="m269.008 363.114c0 8.81 7.142 15.951 15.951 15.951s15.951-7.142 15.951-15.951" fill="#eaac9d"/><circle cx="284.959" cy="363.114" fill="#2f373b" r="11.439"/><circle cx="289.726" cy="361.096" fill="#fff" r="4.901"/><path d="m211.09 363.114c0 8.81 7.142 15.951 15.951 15.951s15.951-7.142 15.951-15.951" fill="#eaac9d"/><circle cx="227.041" cy="363.114" fill="#2f373b" r="11.439"/><path d="m229.716 374.236c-.857.21-1.755.318-2.674.318-6.318 0-11.44-5.122-11.44-11.44s5.122-11.44 11.44-11.44c.919 0 1.817.108 2.674.318-5.03 1.201-8.761 5.728-8.761 11.122s3.731 9.921 8.761 11.122z" fill="#181e21"/><path d="m287.634 374.236c-.857.21-1.755.318-2.674.318-6.318 0-11.44-5.122-11.44-11.44s5.122-11.44 11.44-11.44c.919 0 1.817.108 2.674.318-5.03 1.201-8.761 5.728-8.761 11.122s3.732 9.921 8.761 11.122z" fill="#181e21"/><circle cx="231.808" cy="361.096" fill="#fff" r="4.901"/></g><path d="m335.396 346.929c-10.414-10.414-16.844-38.665-16.844-38.665s-25.584 18.195-62.554 18.195c-10.879 0-20.777-1.573-29.324-3.805-20.484-5.328-33.222-14.39-33.222-14.39s-6.437 28.251-16.851 38.665c0 0-33.766-64.828-8.74-83.023 6.251-4.549 14.891-8.676 24.325-12.302 18.896-7.26 38.758-11.179 58.699-11.744.243-.014.486-.021.73-.029.257 0 .508-.007.758-.014 22.859-.465 45.774 3.469 67.439 11.787 9.441 3.626 18.074 7.753 24.332 12.302 25.018 18.195-8.748 83.023-8.748 83.023z" fill="#90d8f9"/><path d="m226.675 322.654c-20.484-5.328-33.222-14.39-33.222-14.39s-6.437 28.251-16.851 38.665c0 0-33.766-64.828-8.74-83.023 6.251-4.549 14.891-8.676 24.325-12.302 18.896-7.26 38.758-11.179 58.699-11.744-34.525 1.43-55.073 51.939-24.211 82.794z" fill="#61a2f9"/><g><g><path d="m168.986 422.152c0 10.52 7.684 19.242 17.747 20.861 1.1.178 2.231.271 3.385.271 11.674 0 21.132-9.458 21.132-21.132s-9.458-21.132-21.132-21.132c-1.154 0-2.285.093-3.385.271-10.062 1.618-17.747 10.341-17.747 20.861z" fill="#ffcbbe"/><g fill="#eaac9d"><path d="m168.986 422.152c0 10.52 7.684 19.242 17.747 20.861 1.828-6.646 2.804-13.641 2.804-20.861s-.976-14.215-2.804-20.861c-10.062 1.618-17.747 10.341-17.747 20.861z"/><circle cx="190.118" cy="422.152" r="7.553"/></g></g><path d="m185.02 330.21v80.83c0 32.19-19.15 59.9-46.68 72.37-48.5-25.14-87.94-65.35-112.11-114.42v-38.78z" fill="#ffcbbe"/><g fill="#eaac9d"><path d="m54.26 413.6c-10.8-13.8-20.21-28.74-28.03-44.61v-38.78h27.99v80.83c0 .86.01 1.71.04 2.56z"/><path d="m105.626 452.831c-6.648 0-13.297-1.666-19.357-4.997-1.709-.94-2.333-3.087-1.393-4.797s3.088-2.333 4.797-1.394c9.99 5.492 21.919 5.492 31.908 0 1.708-.94 3.857-.316 4.797 1.394.94 1.709.316 3.857-1.393 4.797-6.063 3.331-12.711 4.997-19.359 4.997z"/><path d="m114.632 429.101h-18.013c-2.146 0-3.885-1.739-3.885-3.885 0-2.146 1.739-3.885 3.885-3.885h18.013c2.146 0 3.885 1.74 3.885 3.885 0 2.145-1.739 3.885-3.885 3.885z"/></g><g><path d="m118.633 407.272c0 8.81 7.142 15.951 15.951 15.951 8.81 0 15.951-7.142 15.951-15.951" fill="#eaac9d"/><circle cx="134.584" cy="407.272" fill="#2f373b" r="11.439"/><circle cx="139.351" cy="405.253" fill="#fff" r="4.901"/><path d="m60.715 407.272c0 8.81 7.142 15.951 15.951 15.951s15.951-7.142 15.951-15.951" fill="#eaac9d"/><circle cx="76.666" cy="407.272" fill="#2f373b" r="11.439"/><path d="m79.341 418.393c-.857.21-1.755.318-2.674.318-6.318 0-11.44-5.122-11.44-11.44s5.122-11.44 11.44-11.44c.919 0 1.817.108 2.674.318-5.03 1.201-8.761 5.728-8.761 11.122 0 5.395 3.732 9.921 8.761 11.122z" fill="#181e21"/><path d="m137.26 418.393c-.857.21-1.755.318-2.674.318-6.318 0-11.44-5.122-11.44-11.44s5.122-11.44 11.44-11.44c.919 0 1.817.108 2.674.318-5.03 1.201-8.761 5.728-8.761 11.122 0 5.395 3.731 9.921 8.761 11.122z" fill="#181e21"/><circle cx="81.433" cy="405.253" fill="#fff" r="4.901"/></g><path d="m185.02 391.09c-10.41-10.42-16.84-38.67-16.84-38.67s-25.59 18.2-62.56 18.2c-10.87 0-20.77-1.58-29.32-3.81-20.48-5.33-33.22-14.39-33.22-14.39s-3.79 16.62-10.25 29.07c-2.31-4.1-4.51-8.271-6.6-12.5-7.18-14.57-13.02-29.93-17.34-45.9 1.1-6.22 3.75-11.5 8.6-15.03 6.25-4.55 14.89-8.67 24.32-12.3 18.9-7.26 38.76-11.18 58.7-11.74.24-.02.49-.02.73-.03.26 0 .51-.01.76-.02 22.86-.46 45.77 3.47 67.44 11.79 9.44 3.63 18.07 7.75 24.33 12.3 25.02 18.2-8.75 83.03-8.75 83.03z" fill="#2f373b"/><path d="m76.3 366.81c-20.48-5.33-33.22-14.39-33.22-14.39s-3.79 16.62-10.25 29.07c-2.31-4.1-4.51-8.271-6.6-12.5-7.18-14.57-13.02-29.93-17.34-45.9 1.1-6.22 3.75-11.5 8.6-15.03 6.25-4.55 14.89-8.67 24.32-12.3 18.9-7.26 38.76-11.18 58.7-11.74-34.52 1.43-55.07 51.94-24.21 82.79z" fill="#181e21"/></g></g></g></svg>