<?xml version="1.0" encoding="iso-8859-1"?>
<!-- Generator: Adobe Illustrator 19.0.0, SVG Export Plug-In . SVG Version: 6.00 Build 0)  -->
<svg version="1.1" id="Capa_1" xmlns="http://www.w3.org/2000/svg" xmlns:xlink="http://www.w3.org/1999/xlink" x="0px" y="0px"
	 viewBox="0 0 512 512" style="enable-background:new 0 0 512 512;" xml:space="preserve">
<g>
	<g>
		<g>
			<path d="M492.001,332.079c-11.046,0-20,8.954-20,20c0,22.056-17.944,40-40,40h-352c-22.056,0-40-17.944-40-40v-200
				c0-5.823,1.217-11.428,3.617-16.657c4.607-10.039,0.205-21.913-9.834-26.52c-10.041-4.61-21.913-0.204-26.52,9.834
				C2.444,129.236,0,140.455,0,152.079v200c0,44.112,35.888,80,80,80h156v39.878h-70c-11.046,0-20,8.954-20,20
				c0,11.046,8.954,20,20,20h180c11.046,0,20-8.954,20-20c0-11.046-8.954-20-20-20h-70v-39.878h156c44.112,0,80-35.888,80-80
				C512,341.034,503.047,332.079,492.001,332.079z"/>
			<path d="M504.737,118.736c-4.608-10.038-16.482-14.44-26.52-9.834c-10.039,4.608-14.441,16.482-9.834,26.52
				c2.4,5.229,3.617,10.834,3.617,16.657v100c0,11.046,8.954,20,20,20c11.046,0,20-8.954,20-20v-100
				C512,140.455,509.556,129.237,504.737,118.736z"/>
			<path d="M93,189.079c11.046,0,20-8.954,20-20v-45.954l32.767,11.671C141.993,146.029,134,177.028,134,238.079
				c0,10.294,7.813,18.906,18.058,19.905c0.466,0.046,46.218,4.785,92.894,32.449c3.626,3.029,8.195,4.649,12.841,4.649
				c0.069,0,0.139-0.006,0.208-0.007c0.069,0,0.139,0.007,0.208,0.007c4.644,0,9.212-1.619,12.838-4.647
				c46.311-27.433,92.466-32.407,92.896-32.451c10.244-0.999,18.058-9.611,18.058-19.905c0-60.862-7.943-91.856-11.731-103.176
				l46.384-16.641C432.904,112.434,443,99.453,443,84.386s-10.096-28.049-26.263-33.848L295.209,6.328
				c-23.365-8.382-50.169-8.383-73.577,0.015L99.348,50.508c-12.433,4.459-21.256,13.106-24.719,23.668
				C73.584,76.602,73,79.271,73,82.079v87C73,180.125,81.954,189.079,93,189.079z M258,251.824
				c-33.009-18.195-64.675-26.798-83.769-30.688c1.24-44.15,7.114-66.265,9.235-72.912l38.206,13.608
				c11.684,4.191,24.226,6.287,36.768,6.287c12.543,0,25.085-2.096,36.769-6.287h0.001l37.386-13.412
				c2.175,6.891,7.945,29.014,9.173,72.716C322.675,225.026,291.009,233.628,258,251.824z M259.783,62.079h-74.721l50.117-18.101
				c14.565-5.225,31.959-5.226,46.439-0.03L392.702,84.36l-110.999,39.821c-14.565,5.224-31.957,5.226-46.567-0.016l-62.01-22.086
				h86.657c11.046,0,20-8.954,20-20C279.783,71.033,270.829,62.079,259.783,62.079z"/>
		</g>
	</g>
</g>
<g>
</g>
<g>
</g>
<g>
</g>
<g>
</g>
<g>
</g>
<g>
</g>
<g>
</g>
<g>
</g>
<g>
</g>
<g>
</g>
<g>
</g>
<g>
</g>
<g>
</g>
<g>
</g>
<g>
</g>
</svg>
