<svg id="Capa_1" enable-background="new 0 0 512 512" height="512" viewBox="0 0 512 512" width="512" xmlns="http://www.w3.org/2000/svg"><g><circle cx="256" cy="256" fill="#90d8f9" r="256"/><path d="m512 246.23-.18.09-67.65 34.64-10.64 5.45-33.22-78.19v259.25c-41.09 28.1-90.78 44.53-144.31 44.53-21.09 0-41.58-2.55-61.19-7.36 0-.01-.01-.01-.01-.01-30.15-7.39-58.21-20.13-83.11-37.16v-259.25l-16.46 38.73v.01l-6.68 15.72-10.08 23.73-52.05-26.65-26.24-13.44-.18-.09.23-1.13 5.83-28.34 10.72-52.09 5.77-28.06c4.31-20.98 14.66-39.68 29.16-54.22 12.43-12.46 27.92-21.86 45.3-27.04 2.9-.87 5.85-1.62 8.85-2.24 10.03-2.09 20.1-3.96 30.19-5.62 7.31-1.21 14.65-2.31 21.99-3.29 32.51-4.37 65.23-6.55 97.96-6.55s65.45 2.18 97.96 6.55c7.34.98 14.68 2.08 21.99 3.29 10.09 1.66 20.16 3.53 30.19 5.62 3 .62 5.95 1.37 8.85 2.24 37.65 11.22 66.45 42.3 74.46 81.26l5.77 28.06 16.55 80.43z" fill="#f93d6e"/><path d="m444.17 280.96-10.64 5.45-33.22-78.19s25.88 3.11 43.26 43.26c6.21 14.34 4.88 23.56.6 29.48z" fill="#e41753"/><path d="m136.05 47.49c-37.16 18.9-83.86 31.91-104.77 183.31-1.51 10.95-3.14 20.56-4.86 28.96l-26.24-13.44-.18-.09.23-1.13 5.83-28.34 10.72-52.09 5.77-28.06c4.31-20.98 14.66-39.68 29.16-54.22 12.43-12.46 27.92-21.86 45.3-27.04 2.9-.87 5.85-1.62 8.85-2.24 10.03-2.09 20.1-3.96 30.19-5.62z" fill="#e41753"/><g fill="#ecc32e"><path d="m88.55 262.676-10.08 23.73-78.47-40.18 6.06-29.47z"/><path d="m423.45 262.676 10.08 23.73 78.47-40.18-6.06-29.47z"/><path d="m354.18 44.226c12.579 1.684 20.206 14.81 15.491 26.593-16.964 42.396-61.46 72.658-113.671 72.658s-96.707-30.262-113.671-72.658c-4.715-11.783 2.912-24.909 15.491-26.593.073-.01.147-.02.22-.029 32.51-4.37 65.23-6.55 97.96-6.55s65.45 2.18 97.96 6.55c.073.009.147.019.22.029z"/></g><path d="m327.663 41.143c15.266 1.494 24.195 18.113 16.902 31.607-16.125 29.835-49.725 50.347-88.565 50.347s-72.441-20.512-88.565-50.347c-7.293-13.494 1.636-30.113 16.902-31.607 23.83-2.332 47.744-3.497 71.663-3.497s47.833 1.165 71.663 3.497z" fill="#e41753"/><path d="m194.8 504.63c-30.15-7.39-58.21-20.13-83.11-37.16v-259.25l16.46-38.74s-23.57 282.63 66.65 335.15z" fill="#e41753"/><path d="m348.705 194.479h-61.382c-7.283 0-13.187 5.904-13.187 13.187v33.627c0 7.283 5.904 13.187 13.187 13.187h1.382v41.941c0 18.298-14.974 33.663-33.269 33.352-17.774-.302-32.141-14.856-32.141-32.701v-42.592h1.382c7.283 0 13.187-5.904 13.187-13.187v-33.627c0-7.283-5.904-13.187-13.187-13.187h-61.382c-7.283 0-13.187 5.904-13.187 13.187v33.627c0 7.283 5.904 13.187 13.187 13.187v41.411c0 51.039 40.755 93.388 91.791 93.883 51.535.499 93.619-41.279 93.619-92.701v-42.592c7.283 0 13.187-5.904 13.187-13.187v-33.627c0-7.285-5.904-13.188-13.187-13.188z" fill="#ecc32e"/><path d="m255.279 369.773c-39.692-.384-71.984-33.528-71.984-73.884v-61.411h-13.187v-20h47.755v20h-14.568v62.592c0 28.572 23.237 52.212 51.801 52.698.295.005.885.008.887.008 29.071-.002 52.723-23.938 52.723-53.356v-61.941h-14.568v-20h47.755v20h-13.187v62.592c0 19.383-7.573 37.631-21.324 51.383-13.749 13.75-31.993 21.322-51.372 21.322-.004 0-.731-.003-.731-.003z" fill="#e7a52e"/><path d="m275.296 80.371h-38.591c-3.648 0-6.605-2.957-6.605-6.605v-15.63c0-3.648 2.957-6.605 6.605-6.605h38.591c3.648 0 6.605 2.957 6.605 6.605v15.63c-.001 3.648-2.958 6.605-6.605 6.605z" fill="#ecc32e"/></g></svg>