<?xml version="1.0" encoding="iso-8859-1"?>
<!-- Generator: Adobe Illustrator 19.0.0, SVG Export Plug-In . SVG Version: 6.00 Build 0)  -->
<svg version="1.1" id="Capa_1" xmlns="http://www.w3.org/2000/svg" xmlns:xlink="http://www.w3.org/1999/xlink" x="0px" y="0px"
	 viewBox="0 0 512 512" style="enable-background:new 0 0 512 512;" xml:space="preserve">
<g>
	<g>
		<path d="M492,286c11.046,0,20-8.954,20-20V150c0-44.112-35.888-80-80-80H140.889V20c0-11.046-8.954-20-20-20H80
			C35.888,0,0,35.888,0,80v291c0,44.112,35.888,80,80,80h72v41c0,11.046,8.954,20,20,20h320c11.046,0,20-8.954,20-20V366
			c0-11.046-8.954-20-20-20H172c-11.046,0-20,8.954-20,20v45H80c-22.056,0-40-17.944-40-40v-2c0-22.056,17.944-40,40-40h40.889
			c11.046,0,20-8.954,20-20V110H432c22.056,0,40,17.944,40,40v116C472,277.046,480.954,286,492,286z M192,386h40v36
			c0,11.046,8.954,20,20,20s20-8.954,20-20v-36h40v36c0,11.046,8.954,20,20,20c11.046,0,20-8.954,20-20v-36h40v36
			c0,11.046,8.954,20,20,20c11.046,0,20-8.954,20-20v-36h40v86H192V386z M100.889,289H80c-14.561,0-28.227,3.911-40,10.736V80
			c0-22.056,17.944-40,40-40h20.889V289z"/>
	</g>
</g>
<g>
</g>
<g>
</g>
<g>
</g>
<g>
</g>
<g>
</g>
<g>
</g>
<g>
</g>
<g>
</g>
<g>
</g>
<g>
</g>
<g>
</g>
<g>
</g>
<g>
</g>
<g>
</g>
<g>
</g>
</svg>
