<svg id="Capa_1" enable-background="new 0 0 512 512" height="512" viewBox="0 0 512 512" width="512" xmlns="http://www.w3.org/2000/svg"><g><path d="m512 256c0 109.28-68.48 202.57-164.87 239.3-13.52 5.16-27.6 9.2-42.11 12.01-15.87 3.08-32.25 4.69-49.02 4.69s-33.15-1.61-49.02-4.69c-14.51-2.81-28.59-6.85-42.11-12.01-96.39-36.73-164.87-130.02-164.87-239.3 0-141.38 114.62-256 256-256s256 114.62 256 256z" fill="#bc95e2"/><g><path d="m321.801 497.56h-131.602l9.563-34.256h112.476z" fill="#e7a52e"/><path d="m225.7 423.7-5.27 23.51-1.26 5.61-8.22 36.75-3.97 17.74c-14.51-2.81-28.59-6.85-42.11-12.01l9.73-43.46 1.04-4.63 5.26-23.51z" fill="#ecc32e"/><path d="m347.13 495.3c-13.52 5.16-27.6 9.2-42.11 12.01l-3.97-17.74-8.22-36.75-1.26-5.61-5.27-23.51h44.8l5.26 23.51 1.04 4.63z" fill="#ecc32e"/><g fill="#e7a52e"><path d="m180.9 423.697h44.8l-5.27 23.51-1.26 5.61c-14.86-.2-29.71-.53-44.57-.98l1.04-4.63z"/><path d="m337.4 451.837c-14.86.45-29.71.78-44.57.98l-1.26-5.61-5.27-23.51h44.8l5.26 23.51z"/></g></g><path d="m490.57 81.69v276.99c-8.24 18.8-18.67 36.41-30.98 52.53-5.7 7.48-11.81 14.62-18.28 21.41-1.46.13-2.94.19-4.44.19h-361.74c-1.5 0-2.98-.06-4.44-.19-6.47-6.79-12.58-13.93-18.28-21.41-12.31-16.12-22.74-33.73-30.98-52.53v-276.99c0-29.66 24.04-53.7 53.7-53.7h361.74c29.66 0 53.7 24.04 53.7 53.7z" fill="#ecc32e"/><path d="m39.67 379.11c0 6.8 1.26 13.31 3.57 19.29-8.39-12.51-15.7-25.79-21.81-39.72v-276.99c0-29.66 24.04-53.7 53.69-53.7h18.25c-29.66 0-53.7 24.04-53.7 53.7z" fill="#e7a52e"/><path d="m75.125 392.81c-7.551 0-13.694-6.144-13.694-13.695v-297.43c0-7.552 6.144-13.695 13.694-13.695h361.75c7.551 0 13.694 6.144 13.694 13.695v297.43c0 7.552-6.144 13.695-13.694 13.695z" fill="#e7a52e"/><path d="m75.125 380.81c-.918 0-1.694-.776-1.694-1.695v-297.43c0-.919.776-1.695 1.694-1.695h361.75c.918 0 1.694.776 1.694 1.695v297.43c0 .919-.776 1.695-1.694 1.695z" fill="#2f373b"/><path d="m254.453 324.851c-2.761 0-5-2.239-5-5v-129.872h-112.033c-2.761 0-5-2.239-5-5s2.239-5 5-5h122.032v139.872c.001 2.761-2.238 5-4.999 5z" fill="#dfeaef"/><g fill="#f6f1f1"><path d="m398.176 302.833h-244.119v-187.891c0-8.802-7.161-15.963-15.963-15.963s-15.963 7.161-15.963 15.963v187.891h-16.14c-8.802 0-15.963 7.161-15.963 15.963s7.161 15.963 15.963 15.963h16.14v14.134c0 8.802 7.161 15.963 15.963 15.963s15.963-7.161 15.963-15.963v-14.134h244.119c8.802 0 15.963-7.161 15.963-15.963s-7.161-15.963-15.963-15.963z"/><path d="m375.899 275.979c-92.216 0-113.314-47.806-130.267-86.219-13.779-31.223-23.735-53.781-64.729-53.781-5.523 0-10-4.477-10-10s4.477-10 10-10c24.226 0 42.78 6.917 56.724 21.148 12.078 12.326 19.31 28.711 26.303 44.558 8.043 18.225 16.36 37.07 32.163 50.917 17.951 15.73 44.056 23.376 79.807 23.376 5.523 0 10 4.477 10 10s-4.478 10.001-10.001 10.001z"/><path d="m336.801 159.059h-28.08c-1.83 0-3.513-1-4.39-2.605-.876-1.606-.805-3.563.186-5.102l18.08-28.079c1.496-2.321 4.589-2.992 6.911-1.497s2.992 4.589 1.497 6.911l-13.118 20.372h18.914c2.761 0 5 2.239 5 5s-2.238 5-5 5z"/><path d="m371.134 140.159h-.689c.046-7.957.072-16.548-.026-17.727-.212-2.54-1.732-4.609-3.873-5.272-2.121-.657-4.383.172-6.051 2.218-1.862 2.284-10.507 17.869-13.112 22.591-.598 1.084-.579 2.404.051 3.47.629 1.066 1.775 1.721 3.014 1.721h12.95c-.016 2.193-.033 4.298-.049 6.192-.017 1.933 1.537 3.514 3.47 3.53h.031c1.919 0 3.483-1.547 3.5-3.47.01-1.159.029-3.435.05-6.253h.736c1.933 0 3.5-1.567 3.5-3.5s-1.569-3.5-3.502-3.5zm-7.69 0h-7.049c2.658-4.758 5.258-9.329 7.093-12.446.001 3.238-.017 7.757-.044 12.446z"/><path d="m401.317 134.258c1.376-1.769 2.203-3.984 2.203-6.394 0-5.759-4.686-10.445-10.445-10.445s-10.445 4.686-10.445 10.445c0 2.409.828 4.625 2.203 6.394-2.918 2.391-4.785 6.019-4.785 10.077 0 7.183 5.844 13.026 13.026 13.026s13.026-5.843 13.026-13.026c.001-4.058-1.865-7.686-4.783-10.077zm-11.687-6.394c0-1.899 1.545-3.445 3.445-3.445s3.445 1.545 3.445 3.445-1.545 3.445-3.445 3.445-3.445-1.545-3.445-3.445zm3.445 22.497c-3.323 0-6.026-2.703-6.026-6.026s2.704-6.026 6.026-6.026 6.026 2.703 6.026 6.026-2.703 6.026-6.026 6.026z"/><circle cx="410.12" cy="115.513" r="4.019"/><circle cx="185.268" cy="354.187" r="10.668"/><circle cx="253.51" cy="354.187" r="10.668"/><circle cx="321.752" cy="354.187" r="10.668"/><circle cx="389.994" cy="354.187" r="10.668"/><circle cx="96.696" cy="139.496" r="10.668"/><circle cx="96.696" cy="207.738" r="10.668"/><circle cx="96.696" cy="275.979" r="10.668"/></g></g></svg>