<?xml version="1.0" encoding="iso-8859-1"?>
<!-- Generator: Adobe Illustrator 19.0.0, SVG Export Plug-In . SVG Version: 6.00 Build 0)  -->
<svg version="1.1" id="Capa_1" xmlns="http://www.w3.org/2000/svg" xmlns:xlink="http://www.w3.org/1999/xlink" x="0px" y="0px"
	 viewBox="0 0 512 512" style="enable-background:new 0 0 512 512;" xml:space="preserve">
<g>
	<g>
		<g>
			<path d="M401.5,294c-49.626,0-90,40.374-90,90c0,16.807,4.636,32.55,12.689,46.025l-47.832,47.832
				c-7.81,7.81-7.81,20.474,0,28.285c3.906,3.904,9.024,5.857,14.143,5.857s10.238-1.953,14.143-5.857l47.152-47.152
				C366.047,468.468,383.138,474,401.5,474c49.626,0,90-40.374,90-90C491.5,334.374,451.126,294,401.5,294z M401.5,434
				c-27.57,0-50-22.43-50-50s22.43-50,50-50s50,22.43,50,50S429.07,434,401.5,434z"/>
			<path d="M245.5,392h-105V100c0-11.046-8.954-20-20-20s-20,8.954-20,20v292h-20c-7.011,0-13.74,1.22-20,3.44V60
				c0-11.028,8.972-20,20-20h331v188c0,11.046,8.954,20,20,20c11.046,0,20-8.954,20-20V20c0-11.046-8.954-20-20-20h-351
				c-33.084,0-60,26.916-60,60v392c0,33.084,26.916,60,60,60h121c11.046,0,20-8.954,20-20c0-11.046-8.954-20-20-20h-121
				c-11.028,0-20-8.972-20-20s8.972-20,20-20h165c11.046,0,20-8.954,20-20C265.5,400.954,256.546,392,245.5,392z"/>
		</g>
	</g>
</g>
<g>
</g>
<g>
</g>
<g>
</g>
<g>
</g>
<g>
</g>
<g>
</g>
<g>
</g>
<g>
</g>
<g>
</g>
<g>
</g>
<g>
</g>
<g>
</g>
<g>
</g>
<g>
</g>
<g>
</g>
</svg>
