<svg id="Capa_1" enable-background="new 0 0 512 512" height="512" viewBox="0 0 512 512" width="512" xmlns="http://www.w3.org/2000/svg"><g><circle cx="256" cy="256" fill="#ecc32e" r="256"/><path d="m459.623 62.44 1.66 346.55c-46.67 62.52-121.25 103.01-205.27 103.01s-158.6-40.49-205.27-103.01v-346.55z" fill="#80e29d"/><path d="m121.593 62.44v411.46c-27.52-17.01-51.57-39.08-70.85-64.91v-346.55z" fill="#66b49d"/><path d="m459.623 97.071-366.19 9.719c-24.493 0-40.68-19.766-40.68-44.26 0-24.493 16.187-44.438 40.68-44.438l366.19 9.897z" fill="#66b49d"/><path d="m92.498 86.79c-12.911 0-23.414-10.923-23.414-24.349s10.503-24.349 23.414-24.349h352.125v48.698z" fill="#f6f1f1"/><path d="m106.545 51.928h338.078v-13.835h-338.078c-3.82 0-6.917 3.097-6.917 6.917-.001 3.821 3.096 6.918 6.917 6.918z" fill="#dfeaef"/><path d="m106.545 74.516h338.078v-13.835h-338.078c-3.82 0-6.917 3.097-6.917 6.917-.001 3.821 3.096 6.918 6.917 6.918z" fill="#dfeaef"/><path d="m444.623 112.071h-343.509c-27.127 0-49.848-21.461-50.363-48.583-.526-27.753 21.897-50.498 49.532-50.498h344.34c8.284 0 15 6.716 15 15 0 8.284-6.716 15-15 15h-343.86c-10.582 0-19.607 8.213-20.006 18.787-.42 11.117 8.502 20.294 19.526 20.294h344.34c8.284 0 15 6.716 15 15 0 8.285-6.716 15-15 15z" fill="#80e29d"/><path d="m377.868 432.81h-194.6c-22.443 0-40.636-18.194-40.636-40.636v-171.558c0-22.443 18.194-40.636 40.636-40.636h194.599c22.443 0 40.636 18.194 40.636 40.636v171.558c.001 22.442-18.193 40.636-40.635 40.636z" fill="#66b49d"/><path d="m398.503 220.62v171.55c0 11.38-9.26 20.64-20.64 20.64h-194.59c-3.54 0-6.87-.89-9.77-2.48-2.76-1.47-5.14-3.58-6.96-6.11-2.46-3.39-3.91-7.56-3.91-12.05v-171.55c0-11.38 9.26-20.64 20.64-20.64h194.59c11.38 0 20.64 9.26 20.64 20.64z" fill="#bc95e2"/><circle cx="336.738" cy="318.826" fill="#f93d6e" r="33.968"/><circle cx="216.896" cy="244.784" fill="#f93d6e" r="33.968"/><path d="m344.943 351.794c-2.628.654-5.377.999-8.206.999-18.759 0-33.967-15.207-33.967-33.967s15.207-33.972 33.967-33.972c2.829 0 5.578.344 8.206.999-14.794 3.673-25.76 17.044-25.76 32.974s10.966 29.294 25.76 32.967z" fill="#e41753"/><path d="m292.211 348.191c-4.278 0-8.336-2.533-10.076-6.731-2.306-5.563.334-11.942 5.897-14.247l24.76-10.263c5.563-2.305 11.941.334 14.247 5.897s-.334 11.941-5.897 14.247l-24.76 10.263c-1.365.566-2.78.834-4.171.834z" fill="#f6f1f1"/><path d="m225.101 277.752c-2.628.654-5.377.999-8.206.999-18.759 0-33.967-15.207-33.967-33.967s15.207-33.972 33.967-33.972c2.829 0 5.578.344 8.206.999-14.794 3.673-25.76 17.044-25.76 32.974s10.966 29.294 25.76 32.967z" fill="#e41753"/><path d="m334.743 412.81h-29.32l-35.48-39.49 3.91-3.51 12.31-11.07z" fill="#f6f1f1"/><path d="m254.723 341.334c-4.187 0-8.18-2.425-9.98-6.501l-26.877-60.861c-2.432-5.509.061-11.946 5.57-14.379 5.509-2.432 11.946.061 14.379 5.569l26.877 60.861c2.432 5.509-.061 11.946-5.57 14.379-1.432.633-2.928.932-4.399.932z" fill="#f6f1f1"/><path d="m260.803 339.477c-.522.356-1.085.666-1.681.93-1.435.631-2.927.93-4.402.93-4.183 0-8.177-2.427-9.979-6.502l-26.874-60.863c-2.433-5.503.057-11.942 5.566-14.375 2.456-1.085 5.102-1.194 7.495-.488-4.31 2.887-6.06 8.539-3.891 13.451l26.88 60.863c1.342 3.047 3.919 5.176 6.886 6.054z" fill="#dfeaef"/><path d="m318.823 412.81h-13.4l-35.48-39.49 3.91-3.51 5.64-.98z" fill="#dfeaef"/><path d="m360.233 412.81h-66.07c3.57-14.94 17-26.05 33.03-26.05s29.47 11.11 33.04 26.05z" fill="#f93d6e"/><path d="m325.048 319.717c-3.006-3.325-7.88-4.582-12.257-2.768l-24.76 10.263c-4.062 1.684-6.555 5.541-6.712 9.664z" fill="#dfeaef"/><path d="m335.403 387.76c-12.27 3.04-21.89 12.75-24.82 25.05h-16.42c3.57-14.94 17-26.05 33.03-26.05 2.83 0 5.58.34 8.21 1z" fill="#e41753"/><circle cx="263.077" cy="349.168" fill="#f93d6e" r="33.968"/><path d="m271.282 382.136c-2.628.654-5.377.999-8.206.999-18.759 0-33.967-15.207-33.967-33.967s15.207-33.972 33.967-33.972c2.829 0 5.578.344 8.206.999-14.794 3.673-25.76 17.044-25.76 32.974 0 15.929 10.966 29.295 25.76 32.967z" fill="#e41753"/><path d="m249.473 372.32-57.29 40.49h-8.91c-6.89 0-13-3.39-16.73-8.59l70.35-49.71c4.91-3.47 11.72-2.31 15.19 2.61 3.48 4.92 2.31 11.72-2.61 15.2z" fill="#f6f1f1"/><path d="m249.843 354.79c-.14.08-.27.17-.4.26l-72.47 51.21c-1.53 1.09-2.7 2.49-3.47 4.07-2.76-1.47-5.14-3.58-6.96-6.11l70.35-49.71c4-2.83 9.26-2.58 12.95.28z" fill="#dfeaef"/><path d="m204.643 412.81h-21.37c-11.38 0-20.64-9.26-20.64-20.64v-10.54c2.59-.64 5.3-.97 8.08-.97 18.15 0 32.98 14.23 33.93 32.15z" fill="#f93d6e"/><path d="m178.923 381.65c-6.32 1.56-11.93 4.9-16.29 9.45v-9.48c2.59-.64 5.29-.97 8.08-.97 2.83 0 5.58.34 8.21 1z" fill="#e41753"/><path d="m365.759 163.332h-170.382c-7.164 0-12.971-5.807-12.971-12.971 0-7.164 5.807-12.971 12.971-12.971h170.382c7.164 0 12.971 5.807 12.971 12.971 0 7.164-5.807 12.971-12.971 12.971z" fill="#66b49d"/></g></svg>