<?xml version="1.0" encoding="iso-8859-1"?>
<!-- Generator: Adobe Illustrator 19.0.0, SVG Export Plug-In . SVG Version: 6.00 Build 0)  -->
<svg version="1.1" id="Capa_1" xmlns="http://www.w3.org/2000/svg" xmlns:xlink="http://www.w3.org/1999/xlink" x="0px" y="0px"
	 viewBox="0 0 512 512" style="enable-background:new 0 0 512 512;" xml:space="preserve">
<g>
	<g>
		<g>
			<path d="M511.433,142.874c-5.522-51.601-34.546-81.534-65.09-106.192c-42.93-34.659-97.487-36.598-99.788-36.664
				c-7.236-0.188-13.985,3.495-17.707,9.682c-3.722,6.188-3.821,13.899-0.258,20.179c14.932,26.319,7.981,45.652-0.821,70.13
				c-6.672,18.555-14.233,39.586-10.98,64.083c3.524,26.522,16.608,50.006,36.843,66.122c0.445,0.354,0.903,0.686,1.352,1.031v60.23
				c-27.258,1.593-47.946,7.215-62.923,17.062c-18.365,12.076-28.073,30.562-28.073,53.459c0,16.314,4.907,29.635,9.237,41.387
				c4.165,11.307,7.763,21.073,7.763,33.61c0,5.465-0.95,15.808-7.309,23.682c-6.066,7.509-16.39,11.316-30.69,11.316
				c-115.724,0-202.991-92.855-202.991-215.991c0-119.098,96.893-215.991,215.991-215.991c4.572,0,9.199,0.145,13.753,0.43
				c11.022,0.684,20.519-7.688,21.209-18.711c0.69-11.023-7.687-20.519-18.71-21.209c-5.383-0.337-10.851-0.508-16.252-0.508
				c-68.377,0-132.661,26.628-181.011,74.977C26.628,123.339,0,187.623,0,256c0,68.946,24.124,133.028,67.93,180.441
				c45.01,48.718,107.181,75.548,175.06,75.548c33.605,0,52.159-14.239,61.806-26.184c10.441-12.925,16.19-30.262,16.19-48.813
				c0-19.669-5.435-34.421-10.228-47.435c-3.783-10.27-6.771-18.38-6.771-27.562c0-9.539,2.912-15.344,10.051-20.038
				c6.211-4.084,18.18-8.808,40.947-10.402v118.005c-0.65,15.645,4.886,30.777,15.62,42.663
				c10.732,11.88,25.448,18.873,41.438,19.687c1.043,0.053,2.082,0.079,3.118,0.079c14.858,0,28.998-5.428,40.105-15.459
				c11.881-10.731,18.874-25.447,19.687-41.437c0.561-11.031-7.927-20.428-18.957-20.99c-11.039-0.56-20.428,7.928-20.99,18.957
				c-0.27,5.32-2.597,10.217-6.55,13.787c-3.953,3.57-9.051,5.393-14.381,5.116c-5.32-0.271-10.217-2.597-13.786-6.55
				c-2.145-2.374-5.688-7.399-5.333-14.38l0.026-0.508V249.309c6.154,1.204,12.453,1.835,18.836,1.835
				c3.533,0,7.094-0.187,10.661-0.567c3.554-0.377,7.056-0.947,10.501-1.691v110.109c0,11.045,8.954,19.999,19.999,19.999
				s19.999-8.954,19.999-19.999V229.963c5.579-4.444,10.711-9.531,15.299-15.214C506.702,194.406,514.215,168.882,511.433,142.874z
				 M459.157,189.623c-9.709,12.024-23.524,19.547-38.9,21.18c-15.245,1.617-30.055-2.599-41.702-11.877
				c-12.105-9.641-19.959-23.883-22.114-40.102c-1.973-14.851,3.097-28.954,8.969-45.282c6.901-19.19,14.989-41.688,10.755-68.113
				c14.008,3.949,30.635,10.736,45.053,22.376c28.352,22.89,46.68,44.144,50.444,79.327
				C473.307,162.507,468.866,177.597,459.157,189.623z"/>
			<path d="M223.99,110.006c0,16.541,13.457,29.999,29.999,29.999c16.541,0,29.999-13.457,29.999-29.999
				c0-16.541-13.457-29.999-29.999-29.999C237.448,80.008,223.99,93.465,223.99,110.006z"/>
			<path d="M169.218,179.226c11.701-11.702,11.701-30.743,0-42.444l-0.001-0.001c-11.703-11.701-30.744-11.701-42.446,0.001
				c-11.701,11.702-11.701,30.743,0.001,42.445c5.851,5.851,13.536,8.776,21.222,8.776S163.366,185.077,169.218,179.226z"/>
			<path d="M79.997,263c0,16.541,13.457,29.999,29.999,29.999c16.541,0,29.999-13.457,29.999-29.999s-13.457-29.999-29.999-29.999
				C93.454,233.001,79.997,246.459,79.997,263z"/>
			<path d="M150.994,391.994c8.013,0,15.545-3.121,21.212-8.789c5.666-5.667,8.786-13.202,8.786-21.218
				c0-8.015-3.12-15.55-8.787-21.219c-11.698-11.698-30.728-11.696-42.423,0l-0.001,0.001c-5.666,5.667-8.786,13.202-8.786,21.218
				c0,8.016,3.12,15.55,8.786,21.218C135.447,388.873,142.98,391.994,150.994,391.994z"/>
		</g>
	</g>
</g>
<g>
</g>
<g>
</g>
<g>
</g>
<g>
</g>
<g>
</g>
<g>
</g>
<g>
</g>
<g>
</g>
<g>
</g>
<g>
</g>
<g>
</g>
<g>
</g>
<g>
</g>
<g>
</g>
<g>
</g>
</svg>
