<svg id="Capa_1" enable-background="new 0 0 512 512" height="512" viewBox="0 0 512 512" width="512" xmlns="http://www.w3.org/2000/svg"><g><path d="m512 256c0 54.96-17.32 105.87-46.8 147.58-46.35 65.59-122.78 108.42-209.2 108.42-64.25 0-122.98-23.68-167.93-62.78-14.36-12.48-27.31-26.54-38.58-41.91-31.11-42.39-49.49-94.7-49.49-151.31 0-141.38 114.62-256 256-256s256 114.62 256 256z" fill="#80e29d"/><path d="m465.2 179.98v223.6c-46.35 65.59-122.78 108.42-209.2 108.42-64.25 0-122.98-23.68-167.93-62.78-14.36-12.48-27.31-26.54-38.58-41.91v-227.33z" fill="#d9723e"/><path d="m88.07 179.98v269.24c-14.36-12.48-27.31-26.54-38.58-41.91v-227.33z" fill="#bd5423"/><path d="m465.2 179.98v151.89c-2.59.56-5.28.86-8.05.86h-402.3c-1.82 0-3.61-.13-5.36-.38v-152.37z" fill="#bd5423"/><path d="m170.672 420.057h-40.78c-10.359 0-18.757-8.398-18.757-18.757v-149.528c0-10.359 8.398-18.757 18.757-18.757h40.78c10.359 0 18.757 8.398 18.757 18.757v149.528c0 10.359-8.397 18.757-18.757 18.757z" fill="#404a4a"/><path d="m399.48 420.057h-40.78c-10.359 0-18.757-8.398-18.757-18.757v-149.528c0-10.359 8.398-18.757 18.757-18.757h40.78c10.359 0 18.757 8.398 18.757 18.757v149.528c0 10.359-8.398 18.757-18.757 18.757z" fill="#404a4a"/><g><path d="m412.266 324.675h-66.352c-8.127 0-14.715 6.588-14.715 14.715v38.986c0 8.127 6.588 14.715 14.715 14.715h66.352c8.127 0 14.715-6.588 14.715-14.715v-38.986c0-8.127-6.588-14.715-14.715-14.715z" fill="#ecc32e"/><g fill="#e7a52e"><path d="m354.659 393.09h-8.75c-8.12 0-14.71-6.59-14.71-14.72v-38.98c0-8.13 6.59-14.72 14.71-14.72h8.75c-8.13 0-14.72 6.59-14.72 14.72v38.98c0 8.13 6.59 14.72 14.72 14.72z"/><g><path d="m403.524 346.177h-48.869c-3.779 0-6.842-3.063-6.842-6.842 0-3.779 3.063-6.842 6.842-6.842h48.869c3.779 0 6.842 3.063 6.842 6.842 0 3.779-3.063 6.842-6.842 6.842z"/><path d="m403.524 365.725h-48.869c-3.779 0-6.842-3.063-6.842-6.842 0-3.779 3.063-6.842 6.842-6.842h48.869c3.779 0 6.842 3.063 6.842 6.842 0 3.778-3.063 6.842-6.842 6.842z"/><path d="m403.524 385.272h-48.869c-3.779 0-6.842-3.063-6.842-6.842 0-3.779 3.063-6.842 6.842-6.842h48.869c3.779 0 6.842 3.063 6.842 6.842 0 3.779-3.063 6.842-6.842 6.842z"/></g></g></g><path d="m376.252 118.698h-240.504v-77.668c0-22.624 18.406-41.03 41.031-41.03h158.443c22.624 0 41.03 18.406 41.03 41.03zm-210.504-30h180.504v-47.668c0-6.082-4.948-11.03-11.03-11.03h-158.443c-6.083 0-11.031 4.948-11.031 11.03z" fill="#404a4a"/><g><path d="m183.458 324.675h-66.352c-8.127 0-14.715 6.588-14.715 14.715v38.986c0 8.127 6.588 14.715 14.715 14.715h66.352c8.127 0 14.715-6.588 14.715-14.715v-38.986c0-8.127-6.588-14.715-14.715-14.715z" fill="#ecc32e"/><g fill="#e7a52e"><path d="m125.851 393.09h-8.75c-8.12 0-14.71-6.59-14.71-14.72v-38.98c0-8.13 6.59-14.72 14.71-14.72h8.75c-8.13 0-14.72 6.59-14.72 14.72v38.98c0 8.13 6.59 14.72 14.72 14.72z"/><g><path d="m174.716 346.177h-48.869c-3.779 0-6.842-3.063-6.842-6.842 0-3.779 3.063-6.842 6.842-6.842h48.869c3.779 0 6.842 3.063 6.842 6.842 0 3.779-3.063 6.842-6.842 6.842z"/><path d="m174.716 365.725h-48.869c-3.779 0-6.842-3.063-6.842-6.842 0-3.779 3.063-6.842 6.842-6.842h48.869c3.779 0 6.842 3.063 6.842 6.842 0 3.778-3.063 6.842-6.842 6.842z"/><path d="m174.716 385.272h-48.869c-3.779 0-6.842-3.063-6.842-6.842 0-3.779 3.063-6.842 6.842-6.842h48.869c3.779 0 6.842 3.063 6.842 6.842 0 3.779-3.063 6.842-6.842 6.842z"/></g></g></g><path d="m458.265 306.39h-404.53c-22.766 0-40.376-19.961-37.538-42.549l21.299-169.517c2.377-18.922 18.467-33.117 37.538-33.117h361.933c19.071 0 35.16 14.194 37.538 33.117l21.298 169.517c2.838 22.589-14.772 42.549-37.538 42.549z" fill="#d9723e"/><path d="m91.159 306.395h-37.416c-22.775 0-40.382-19.96-37.546-42.554l21.307-169.521c2.373-18.914 18.461-33.112 37.536-33.112h37.415c-19.065 0-35.163 14.198-37.536 33.112l-21.296 169.521c-2.836 22.594 14.771 42.554 37.536 42.554z" fill="#bd5423"/></g></svg>