<?xml version="1.0" encoding="iso-8859-1"?>
<!-- Generator: Adobe Illustrator 19.0.0, SVG Export Plug-In . SVG Version: 6.00 Build 0)  -->
<svg version="1.1" id="Capa_1" xmlns="http://www.w3.org/2000/svg" xmlns:xlink="http://www.w3.org/1999/xlink" x="0px" y="0px"
	 viewBox="0 0 512 512" style="enable-background:new 0 0 512 512;" xml:space="preserve">
<g>
	<g>
		<g>
			<path d="M313.382,277h-46.317l36.597-59h-70.987l-46.083,82.167C179.063,313.591,188.837,330,204.311,330h40.177l-26.875,74.491
				c-0.419,0.914-0.61,1.752-0.613,2.509c-0.015,3.146,2.714,5.014,6.21,5c2.456-0.01,5.05-0.996,6.761-2.699l94.412-108.011
				C332.58,291.814,325.962,277,313.382,277z"/>
			<path d="M479.559,158.401c-10.691-30.418-27.23-57.94-49.156-81.804c-21.927-23.863-47.955-42.667-77.361-55.889
				C322.48,6.968,289.83,0,256,0c-33.83,0-66.48,6.968-97.042,20.709c-29.407,13.222-55.435,32.025-77.361,55.889
				c-21.926,23.863-38.465,51.387-49.156,81.804C21.329,190.016,17.143,223.137,20,256.846l20.071,236.843
				C40.948,504.043,49.609,512,60,512h81c5.461,0,10.685-2.233,14.458-6.181s5.768-9.267,5.521-14.723l-10.533-233
				c-0.012-0.262-0.029-0.524-0.051-0.786c-2.535-29.909,7.253-58.553,27.563-80.656C197.899,154.952,225.614,143,256,143
				s58.102,11.952,78.042,33.655c20.309,22.103,30.098,50.747,27.562,80.655c-0.02,0.233-0.035,0.467-0.047,0.701l-11.533,233
				c-0.271,5.469,1.713,10.81,5.488,14.776C359.287,509.755,364.524,512,370,512h82c10.391,0,19.051-7.957,19.929-18.312l6.78-80
				c0.473-5.577-1.414-11.099-5.202-15.221c-3.788-4.122-9.13-6.467-14.727-6.467h-63.806l6.517-131.673
				c3.383-41.066-10.103-80.38-37.995-110.735C335.891,119.547,297.715,103,256,103c-41.715,0-79.891,16.547-107.496,46.591
				c-27.882,30.345-41.368,69.639-38,110.689L116.459,392H71.597l-11.74-138.531c-4.708-55.553,13.473-108.755,51.193-149.808
				C148.772,62.608,200.249,40,256,40c55.751,0,107.228,22.608,144.948,63.661c37.72,41.053,55.902,94.255,51.194,149.807
				l-4.648,54.843c-0.933,11.007,7.233,20.686,18.24,21.618c11.013,0.933,20.685-7.234,21.618-18.239L492,256.846
				C494.857,223.137,490.671,190.015,479.559,158.401z M392.994,432h44.019l-3.39,40h-42.608L392.994,432z M118.267,432l1.808,40
				H78.377l-3.39-40H118.267z"/>
		</g>
	</g>
</g>
<g>
</g>
<g>
</g>
<g>
</g>
<g>
</g>
<g>
</g>
<g>
</g>
<g>
</g>
<g>
</g>
<g>
</g>
<g>
</g>
<g>
</g>
<g>
</g>
<g>
</g>
<g>
</g>
<g>
</g>
</svg>
