<svg id="Capa_1" enable-background="new 0 0 512 512" height="512" viewBox="0 0 512 512" width="512" xmlns="http://www.w3.org/2000/svg"><g><path d="m512 256c0 47.06-12.7 91.16-34.87 129.05-15.04 25.73-34.45 48.6-57.22 67.59-10.89 9.09-22.55 17.3-34.86 24.5h-.01c-37.89 22.16-81.98 34.86-129.04 34.86-141.38 0-256-114.62-256-256s114.62-256 256-256 256 114.62 256 256z" fill="#90d8f9"/><g><circle cx="207.399" cy="207.4" fill="#b9e4ef" r="174.879"/><path d="m331.062 83.746c68.288 68.288 68.288 179.014-.009 247.311-7.86 7.86-16.274 14.816-25.14 20.859 46.543-68.076 39.587-161.752-20.841-222.18-60.437-60.437-154.114-67.393-222.189-20.85 6.043-8.866 12.999-17.28 20.859-25.14 68.297-68.298 179.023-68.298 247.32 0z" fill="#fff"/><path d="m354.122 354.122c-80.903 80.903-212.542 80.903-293.444 0s-80.903-212.542 0-293.444 212.542-80.903 293.444 0 80.902 212.541 0 293.444zm-247.317-247.317c-55.468 55.468-55.468 145.72 0 201.188s145.72 55.468 201.188 0 55.468-145.72 0-201.188-145.72-55.468-201.188 0z" fill="#d9723e"/><g fill="#bd5423"><path d="m317.423 297.586c3.585-2.943 7.061-6.083 10.408-9.43 55.468-55.468 55.468-145.72 0-201.188s-145.72-55.468-201.188 0c-3.347 3.347-6.487 6.823-9.43 10.408 55.828-45.832 138.66-42.692 190.781 9.43s55.261 134.953 9.429 190.78z"/><path d="m80.514 334.285c-77.569-77.569-80.751-201.771-9.576-283.184-3.499 3.059-6.927 6.242-10.261 9.576-80.903 80.903-80.903 212.542 0 293.444s212.542 80.903 293.444 0c3.334-3.334 6.517-6.762 9.576-10.261-81.413 71.176-205.614 67.993-283.183-9.575z"/></g><path d="m477.13 385.05c-22.24 38.05-54.04 69.84-92.09 92.09-13.24-15.73-23.92-31.83-31.66-47.24-14.26-28.38-18.55-54.42-10.45-71.45 1.62-3.43 3.73-6.49 6.38-9.14 2.65-2.64 5.7-4.76 9.13-6.38 17.03-8.1 43.08-3.81 71.46 10.45 15.4 7.74 31.5 18.43 47.23 31.67z" fill="#ecc32e"/><path d="m419.91 452.64c-10.89 9.09-22.55 17.3-34.86 24.5h-.01c-42.51-50.53-58.68-104.88-35.73-127.83-8.38 8.39 22.58 53.21 70.6 103.33z" fill="#e7a52e"/><path d="m429.895 353.383-76.517 76.517c-14.263-28.378-18.553-54.422-10.453-71.452l15.517-15.517c17.031-8.101 43.075-3.811 71.453 10.452z" fill="#e7a52e"/><path d="m389.241 286.548-102.693 102.693c-11.309 11.309-11.309 29.644 0 40.952 11.309 11.309 29.644 11.309 40.952 0l102.693-102.693c11.309-11.309 11.309-29.644 0-40.952-11.308-11.309-29.643-11.309-40.952 0z" fill="#ecc32e"/><path d="m352.991 392.701c7.408.009 14.816-2.823 20.472-8.478l-45.962 45.962c-5.655 5.655-13.063 8.488-20.481 8.488-7.399 0-14.816-2.823-20.472-8.478-11.311-11.311-11.311-29.651 0-40.962l45.962-45.962c-11.311 11.311-11.301 29.642.009 40.952 5.656 5.655 13.064 8.487 20.472 8.478z" fill="#e7a52e"/></g></g></svg>