<?xml version="1.0" encoding="iso-8859-1"?>
<!-- Generator: Adobe Illustrator 19.0.0, SVG Export Plug-In . SVG Version: 6.00 Build 0)  -->
<svg version="1.1" id="Capa_1" xmlns="http://www.w3.org/2000/svg" xmlns:xlink="http://www.w3.org/1999/xlink" x="0px" y="0px"
	 viewBox="0 0 512 512" style="enable-background:new 0 0 512 512;" xml:space="preserve">
<g>
	<g>
		<path d="M492,432c11.046,0,20-8.954,20-20v-91c0-33.084-26.916-60-60-60H190v-49h130c11.046,0,20-8.954,20-20V20
			c0-11.046-8.954-20-20-20H20C8.954,0,0,8.954,0,20v172c0,11.046,8.954,20,20,20h130v49H60c-33.084,0-60,26.916-60,60v171
			c0,11.046,8.954,20,20,20s20-8.954,20-20V321c0-11.028,8.972-20,20-20h252v191c0,11.046,8.954,20,20,20h160
			c11.046,0,20-8.954,20-20c0-11.046-8.954-20-20-20H352v-65h39v9c0,11.046,8.954,20,20,20c11.046,0,20-8.954,20-20v-9h41v5
			C472,423.046,480.954,432,492,432z M40,172V40h260v132H40z M352,367v-66h39v8c0,11.046,8.954,20,20,20c11.046,0,20-8.954,20-20v-8
			h21c11.028,0,20,8.972,20,20v46H352z"/>
	</g>
</g>
<g>
</g>
<g>
</g>
<g>
</g>
<g>
</g>
<g>
</g>
<g>
</g>
<g>
</g>
<g>
</g>
<g>
</g>
<g>
</g>
<g>
</g>
<g>
</g>
<g>
</g>
<g>
</g>
<g>
</g>
</svg>
