<svg id="Capa_1" enable-background="new 0 0 512 512" height="512" viewBox="0 0 512 512" width="512" xmlns="http://www.w3.org/2000/svg"><g><circle cx="256" cy="256" fill="#f93d6e" r="256"/><g><path d="m398.41 468.76c-12.34 8.28-25.44 15.52-39.18 21.57-10.65 4.7-21.68 8.7-33.03 11.92-22.3 6.35-45.85 9.75-70.2 9.75-24.34 0-47.89-3.4-70.2-9.74-7.24-2.06-14.36-4.44-21.33-7.12-.43-.16-.86-.32-1.29-.49-3.51-1.36-6.98-2.81-10.41-4.32-13.74-6.06-26.84-13.29-39.19-21.58 10.39-14.37 23.76-26.43 39.19-35.32 10.2-5.87 21.3-10.34 33.03-13.15 1.81-.44 3.64-.84 5.48-1.19 3.47-.68 7-1.2 10.57-1.57 1.03-.11 2.05-.21 3.09-.29 3.38-.28 6.8-.42 10.26-.42h81.59c4.52 0 8.97.24 13.35.7 3.57.37 7.09.9 10.57 1.56 1.39.27 2.77.56 4.14.87.45.12.91.21 1.35.33 11.74 2.82 22.83 7.29 33.03 13.16 15.43 8.9 28.79 20.96 39.18 35.33z" fill="#bc95e2"/><path d="m215.2 416.81c-29.36 0-49.26 42.43-50.73 78.33-.43-.16-.86-.32-1.29-.49-3.51-1.36-6.98-2.81-10.41-4.32-13.74-6.06-26.84-13.29-39.19-21.58 10.39-14.37 23.76-26.43 39.19-35.32 10.2-5.87 21.3-10.34 33.03-13.15 1.81-.44 3.64-.84 5.48-1.19 3.47-.68 7-1.2 10.57-1.57 1.03-.11 2.05-.21 3.09-.29 3.38-.28 6.8-.42 10.26-.42z" fill="#9373b9"/><path d="m255.987 468.111-52.994 29.451-16.121-79.986 32.929-14.393" fill="#90d8f9"/><path d="m255.987 468.111 52.994 29.451 16.121-79.986-32.928-14.393" fill="#90d8f9"/><path d="m300.706 368.538v54.869c0 20.088-13.245 37.067-31.489 42.707-4.176 1.296-8.627 1.997-13.23 1.997-24.691 0-44.703-20.012-44.703-44.703v-54.869h89.422z" fill="#eaac9d"/><path d="m300.706 419.932v3.475c0 20.088-13.245 37.067-31.489 42.707-16.461-5.06-28.837-19.372-31.123-36.884 2.987.183 5.99.274 9.008.274 8.459 0 16.75-.671 24.828-1.997 9.953-1.6 19.57-4.161 28.776-7.575z" fill="#ffcbbe"/><g><path d="m132.54 278.153c0 20.497-14.973 37.492-34.579 40.646-2.143.347-4.347.528-6.596.528-22.746 0-41.175-18.429-41.175-41.175s18.429-41.175 41.175-41.175c2.249 0 4.453.181 6.596.528 19.606 3.156 34.579 20.152 34.579 40.648z" fill="#ffcbbe"/><path d="m132.54 278.153c0 20.497-14.973 37.492-34.579 40.646-3.562-12.95-5.464-26.579-5.464-40.646s1.902-27.696 5.464-40.646c19.606 3.154 34.579 20.15 34.579 40.646z" fill="#eaac9d"/><circle cx="91.365" cy="278.153" fill="#eaac9d" r="14.716"/><path d="m379.449 278.153c0 20.497 14.973 37.492 34.579 40.646 2.143.347 4.347.528 6.596.528 22.746 0 41.175-18.429 41.175-41.175s-18.429-41.175-41.175-41.175c-2.249 0-4.453.181-6.596.528-19.606 3.156-34.579 20.152-34.579 40.648z" fill="#ffcbbe"/><g fill="#eaac9d"><path d="m379.449 278.153c0 20.497 14.973 37.492 34.579 40.646 3.562-12.95 5.464-26.579 5.464-40.646s-1.902-27.696-5.464-40.646c-19.606 3.154-34.579 20.15-34.579 40.646z"/><circle cx="420.624" cy="278.153" r="14.716"/></g></g><path d="m410.696 256.511c0 76.985-56.241 140.847-129.873 152.705-8.078 1.326-16.369 1.997-24.828 1.997-85.444 0-154.701-69.257-154.701-154.701v-157.5h309.403v157.499z" fill="#ffcbbe"/><path d="m283.243 408.81c-.8.14-1.61.28-2.42.41-8.08 1.32-16.37 1.99-24.83 1.99-85.44 0-154.7-69.25-154.7-154.7v-157.5h54.55v157.5c0 76.14 54.98 139.41 127.4 152.3z" fill="#eaac9d"/><path d="m255.995 337.93c-12.954 0-25.908-3.246-37.716-9.737-3.331-1.831-4.546-6.015-2.715-9.346s6.016-4.545 9.346-2.715c19.465 10.701 42.707 10.7 62.17 0 3.329-1.831 7.514-.616 9.346 2.715 1.831 3.331.616 7.515-2.715 9.346-11.808 6.492-24.762 9.737-37.716 9.737z" fill="#df9380"/><path d="m273.544 291.694h-35.098c-4.181 0-7.57-3.389-7.57-7.57 0-4.181 3.389-7.57 7.57-7.57h35.098c4.181 0 7.57 3.389 7.57 7.57 0 4.18-3.389 7.57-7.57 7.57z" fill="#eaac9d"/><g><path d="m281.34 249.161c0 17.165 13.915 31.08 31.08 31.08s31.08-13.915 31.08-31.08" fill="#eaac9d"/><circle cx="312.42" cy="249.161" fill="#2f373b" r="22.287"/><circle cx="321.708" cy="245.228" fill="#fff" r="9.55"/><path d="m168.49 249.161c0 17.165 13.915 31.08 31.08 31.08s31.08-13.915 31.08-31.08" fill="#eaac9d"/><circle cx="199.57" cy="249.161" fill="#2f373b" r="22.287"/><path d="m204.782 270.831c-1.67.41-3.42.62-5.21.62-12.31 0-22.29-9.98-22.29-22.29s9.98-22.29 22.29-22.29c1.79 0 3.54.21 5.21.62-9.8 2.34-17.07 11.16-17.07 21.67s7.27 19.33 17.07 21.67z" fill="#181e21"/><path d="m317.632 270.831c-1.67.41-3.42.62-5.21.62-12.31 0-22.29-9.98-22.29-22.29s9.98-22.29 22.29-22.29c1.79 0 3.54.21 5.21.62-9.8 2.34-17.07 11.16-17.07 21.67s7.27 19.33 17.07 21.67z" fill="#181e21"/><circle cx="208.858" cy="245.228" fill="#fff" r="9.55"/></g></g><path d="m91.367 167.049c-9.264 24.264-19.299 81.968 14.714 82.111s40.367-69.886 93.226-82.111-86.283-37.637-86.283-37.637z" fill="#bd5423"/><g fill="#d9723e"><path d="m176.506 160.999c-6.544 17.139-13.633 57.9 10.394 58.002s28.514-49.366 65.853-58.002-60.948-26.586-60.948-26.586z"/><path d="m420.624 167.049c9.264 24.264 19.299 81.968-14.714 82.111s-40.367-69.886-93.226-82.111 86.283-37.637 86.283-37.637z"/><path d="m238.958 142.315c-6.544 17.139-13.633 57.9 10.394 58.002 24.026.101 28.514-49.366 65.853-58.002s-60.948-26.586-60.948-26.586z"/></g><path d="m91.367 69.793h329.257v97.256h-329.257z" fill="#bc95e2"/><path d="m91.367 69.793h58.049v97.256h-58.049z" fill="#9373b9"/><path d="m91.367 69.793h329.257v34.208h-329.257z" fill="#9373b9"/><path d="m490.97 36.562h-469.95c-11.336 0-20.525 9.189-20.525 20.525 0 11.336 9.189 20.525 20.525 20.525h469.95c11.336 0 20.525-9.189 20.525-20.525 0-11.335-9.19-20.525-20.525-20.525z" fill="#bc95e2"/><path d="m98.515 71.607c3.71 3.71 8.85 6.01 14.51 6.01h-92c-5.67 0-10.8-2.3-14.52-6.01-3.71-3.72-6.01-8.85-6.01-14.52 0-11.33 9.19-20.52 20.53-20.52h92c-11.33 0-20.52 9.19-20.52 20.52 0 5.67 2.3 10.8 6.01 14.52z" fill="#9373b9"/><path d="m505.454 214.127c0-20.597-16.698-55.292-37.295-55.292s-37.295 34.695-37.295 55.292 16.698 19.297 37.295 19.297 37.295 1.301 37.295-19.297z" fill="#ecc32e"/><path d="m455.044 214.124c0 17.41 4.2 19.18 9.86 19.31-19.07.07-34.04.2-34.04-19.31 0-20.59 16.7-55.29 37.29-55.29-7.24 0-13.11 34.7-13.11 55.29z" fill="#e7a52e"/><circle cx="468.159" cy="136.434" fill="#ecc32e" r="28.128"/><path d="m468.159 143.934c-4.142 0-7.5-3.358-7.5-7.5v-85.984c0-7.824-6.365-14.189-14.189-14.189h-190.47c-4.142 0-7.5-3.358-7.5-7.5s3.358-7.5 7.5-7.5h190.47c16.095 0 29.189 13.094 29.189 29.189v85.984c0 4.142-3.358 7.5-7.5 7.5z" fill="#ecc32e"/><path d="m477.662 162.914c-2.97 1.07-6.17 1.65-9.5 1.65-15.54 0-28.13-12.6-28.13-28.13 0-15.54 12.59-28.13 28.13-28.13 3.33 0 6.53.58 9.5 1.65-10.86 3.89-18.62 14.28-18.62 26.48-.001 12.2 7.759 22.58 18.62 26.48z" fill="#e7a52e"/></g></svg>