<?xml version="1.0" encoding="utf-8"?>
<!-- Generator: Adobe Illustrator 24.1.1, SVG Export Plug-In . SVG Version: 6.00 Build 0)  -->
<svg version="1.1" id="Capa_1" xmlns="http://www.w3.org/2000/svg" xmlns:xlink="http://www.w3.org/1999/xlink" x="0px" y="0px"
	 viewBox="0 0 512 512" style="enable-background:new 0 0 512 512;" xml:space="preserve">
<path fill="#1976D2"  d="M309.3,42.7h-32v102c-0.2,4.6-3.1,8.6-7.4,10.2l-56.3,11.5c-12.9,4.5-21.6,16.7-21.7,30.3v272.6h117.3
	c29.5,0,53.3-23.9,53.3-53.3V96C362.7,66.5,338.8,42.7,309.3,42.7z"/>
<path fill="#CFD8DC" d="M480,106.7H202.7c-5.9,0-10.7,4.8-10.7,10.7V416c0,5.9,4.8,10.7,10.7,10.7H480c17.7,0,32-14.3,32-32v-256
	C512,121,497.7,106.7,480,106.7z"/>
<path fill="#2196F3" d="M245.3,0c-29.4,0-58.6,4.2-86.7,12.6L38.1,55.3C15.4,62,0,82.9,0,106.5v301.2C-0.1,430,13.8,450,34.7,457.8
	l101.6,46.1c14.4,5.4,29.7,8.1,45.1,8.1c17.7,0,32-14.3,32-32V196.7c0.1-4.5,2.9-8.6,7.2-10.1l35.2-11.6
	c12.9-4.5,21.6-16.6,21.7-30.3V32C277.3,14.3,263,0,245.3,0z"/>
</svg>
