<svg id="Capa_1" enable-background="new 0 0 512 512" height="512" viewBox="0 0 512 512" width="512" xmlns="http://www.w3.org/2000/svg"><g><circle cx="256" cy="256" fill="#bc95e2" r="256"/><g><path d="m373.9 86.56c-29.97-54.95-71.02-85.59-115.77-86.54-.71-.01-1.42-.02-2.13-.02s-1.42.01-2.13.02c-44.75.95-85.8 31.59-115.77 86.54-28.34 51.93-43.95 120.53-43.95 193.17s15.61 141.24 43.95 193.18c2.78 5.09 5.65 9.97 8.62 14.64 23.94 11.33 49.92 19.05 77.23 22.45-18.35-10.38-35.57-29.59-50.26-56.51-25.15-46.08-38.99-107.79-38.99-173.76s13.84-127.68 38.99-173.76c23.02-42.19 52.25-65.43 82.31-65.43s59.29 23.24 82.31 65.43c25.15 46.08 38.99 107.79 38.99 173.76s-13.84 127.68-38.99 173.76c-14.69 26.92-31.91 46.13-50.26 56.51 27.31-3.4 53.29-11.12 77.23-22.45 2.97-4.67 5.84-9.55 8.62-14.64 28.34-51.94 43.95-120.54 43.95-193.18s-15.61-141.24-43.95-193.17z" fill="#ecc32e"/><path d="m498.25 139.87c-8.89-15.39-21.54-27.96-37.44-37.48-24.87-14.88-57.68-22.29-96.47-21.35-59.14 1.42-126.36 22.21-189.26 58.53-62.91 36.32-114.52 84.14-145.33 134.64-9.49 15.56-16.73 30.91-21.68 45.81 17.39 67.54 61.65 124.29 120.71 158.17 4.06.21 8.19.31 12.4.31 2.14 0 4.3-.02 6.48-.07 59.14-1.43 126.36-22.22 189.26-58.54 62.91-36.32 114.52-84.13 145.33-134.64 13.89-22.76 22.95-45.07 27.1-66.2 5.77-29.25 2.13-56.27-11.1-79.18zm-50.61 124.27c-27.34 44.81-73.86 87.66-130.99 120.64-57.13 32.99-117.49 51.85-169.97 53.12-48.04 1.16-82.8-12.54-97.83-38.57-15.02-26.03-9.52-62.97 15.51-104.01 27.34-44.81 73.86-87.66 130.99-120.64 57.13-32.99 117.49-51.85 169.97-53.11 1.88-.05 3.74-.07 5.58-.07 45.16 0 77.8 13.62 92.25 38.64 15.02 26.03 9.52 62.96-15.51 104z" fill="#80e29d"/><path d="m482.25 274.21c-30.81-50.5-82.42-98.32-145.33-134.64-62.9-36.32-130.12-57.11-189.26-58.53-38.78-.93-71.59 6.47-96.46 21.35-15.91 9.51-28.56 22.08-37.45 37.48-13.23 22.91-16.87 49.93-11.1 79.18 4.15 21.13 13.21 43.44 27.1 66.2 30.81 50.51 82.42 98.32 145.33 134.64 62.9 36.32 130.12 57.11 189.26 58.54 2.18.05 4.34.07 6.48.07 4.21 0 8.34-.1 12.4-.31 59.06-33.88 103.32-90.63 120.71-158.17-4.95-14.9-12.19-30.25-21.68-45.81zm-19.1 125.12c-14.45 25.01-47.08 38.64-92.25 38.63-1.84 0-3.7-.02-5.58-.06-52.48-1.27-112.84-20.13-169.97-53.12-57.13-32.98-103.65-75.83-130.99-120.64-25.03-41.04-30.53-77.97-15.51-104 14.45-25.02 47.08-38.64 92.25-38.64 1.84 0 3.7.02 5.58.07 52.48 1.26 112.84 20.12 169.97 53.11 57.13 32.98 103.65 75.83 130.99 120.64 25.03 41.04 30.53 77.98 15.51 104.01z" fill="#f93d6e"/><path d="m175.08 139.57c-2.247 1.297-4.475 2.613-6.693 3.939l24.928 32.363c.679-.397 1.352-.799 2.034-1.192 43.545-25.145 88.963-42.07 131.342-49.26l-26.101-36.111c-41.371 9.393-84.365 26.503-125.51 50.261z" fill="#80e29d"/><path d="m377.3 279.73c0 50.147-8.005 97.824-22.888 138.054l52.259-34.469c7.333-32.508 11.179-67.548 11.179-103.586 0-48.94-7.096-96.037-20.386-137.447l-43.554-1.951c15.205 40.511 23.39 88.692 23.39 139.399z" fill="#ecc32e"/></g><g><circle cx="154.746" cy="377.244" fill="#80e29d" r="40.539"/><path d="m167.686 415.674c-4.06 1.37-8.41 2.11-12.94 2.11-22.39 0-40.54-18.15-40.54-40.54s18.15-40.54 40.54-40.54c4.53 0 8.88.74 12.94 2.11-16.05 5.4-27.6 20.57-27.6 38.43s11.55 33.03 27.6 38.43z" fill="#66b49d"/></g><g><circle cx="395.662" cy="331.736" fill="#f93d6e" r="40.539"/><path d="m408.603 370.166c-4.06 1.37-8.41 2.11-12.94 2.11-22.39 0-40.54-18.15-40.54-40.54s18.15-40.54 40.54-40.54c4.53 0 8.88.74 12.94 2.11-16.05 5.4-27.6 20.57-27.6 38.43s11.55 33.03 27.6 38.43z" fill="#e41753"/></g><g><circle cx="40.541" cy="132.591" fill="#ecc32e" r="40.539"/><path d="m53.482 171.021c-4.06 1.37-8.41 2.11-12.94 2.11-22.39 0-40.54-18.15-40.54-40.54s18.15-40.54 40.54-40.54c4.53 0 8.88.74 12.94 2.11-16.05 5.4-27.6 20.57-27.6 38.43s11.55 33.03 27.6 38.43z" fill="#e7a52e"/></g></g></svg>