<?xml version="1.0" encoding="iso-8859-1"?>
<!-- Generator: Adobe Illustrator 19.0.0, SVG Export Plug-In . SVG Version: 6.00 Build 0)  -->
<svg version="1.1" id="Capa_1" xmlns="http://www.w3.org/2000/svg" xmlns:xlink="http://www.w3.org/1999/xlink" x="0px" y="0px"
	 viewBox="0 0 512 512" style="enable-background:new 0 0 512 512;" xml:space="preserve">
<g>
	<g>
		<path d="M492,214H286.288c1.797-27.882,12.001-53.693,30.401-76.85c10.808-13.6,21.801-22.746,27.641-27.15h67.98
			c8.711,5.82,30.108,22.107,44.644,49.906c5.119,9.79,17.204,13.574,26.991,8.456c9.788-5.119,13.574-17.203,8.456-26.991
			C475.458,108.97,451.583,88.761,438,79.125V60c0-33.084-26.916-60-60-60c-30.199,0-55.247,22.43-59.388,51.504
			C281.455,30.728,216.596,0,158,0c-26.559,0-65.152,4.475-98.189,25.792c-18.396,11.87-32.81,27.595-42.843,46.739
			C5.709,94.016,0,119.878,0,149.398C0,243.462,72.099,341.574,115.381,392H80c-44.112,0-80,35.888-80,80v20
			c0,11.046,8.954,20,20,20h297c11.046,0,20-8.954,20-20v-20c0-44.112-35.888-80-80-80h-5v-20c0-11.046-8.954-20-20-20
			s-20,8.954-20,20v20h-42.587C143.961,365.402,40,250.546,40,149.398C40,58.979,104.169,40,158,40
			c52.956,0,115.687,31.765,147.705,50.248C281.561,112.658,246,156.886,246,223v11c0,11.046,8.954,20,20,20h226
			c11.046,0,20-8.954,20-20S503.046,214,492,214z M358,60c0-11.028,8.972-20,20-20s20,8.972,20,20v10h-40V60z M257,432
			c22.056,0,40,17.944,40,40H40c0-22.056,17.944-40,40-40H257z"/>
	</g>
</g>
<g>
</g>
<g>
</g>
<g>
</g>
<g>
</g>
<g>
</g>
<g>
</g>
<g>
</g>
<g>
</g>
<g>
</g>
<g>
</g>
<g>
</g>
<g>
</g>
<g>
</g>
<g>
</g>
<g>
</g>
</svg>
