<?xml version="1.0" encoding="iso-8859-1"?>
<!-- Generator: Adobe Illustrator 19.0.0, SVG Export Plug-In . SVG Version: 6.00 Build 0)  -->
<svg version="1.1" id="Capa_1" xmlns="http://www.w3.org/2000/svg" xmlns:xlink="http://www.w3.org/1999/xlink" x="0px" y="0px"
	 viewBox="0 0 511.999 511.999" style="enable-background:new 0 0 511.999 511.999;" xml:space="preserve">
<g>
	<g>
		<g>
			<circle cx="130.99" cy="341.994" r="19.999"/>
			<circle cx="208.984" cy="300.996" r="19.999"/>
			<circle cx="147.989" cy="259.999" r="19.999"/>
			<path d="M503.468,395.819c-4.228-6.957-12.02-10.399-19.605-9.443c-1.261-0.249-2.563-0.386-3.897-0.386H337.79
				c4.077-14.791,6.185-30.228,6.185-45.997c0-30.754-8.41-60.112-23.307-85.603c0.189-1.104,0.309-2.233,0.309-3.391V99.01h40.997
				v151.989c0,3.977,1.186,7.862,3.405,11.162l53.139,78.994c3.861,5.741,10.178,8.838,16.612,8.838
				c3.839,0,7.719-1.104,11.144-3.407c9.164-6.165,11.596-18.592,5.432-27.756l-49.733-73.932V98.96
				c10.577-0.524,18.999-9.24,18.999-19.948c0-11.045-8.953-19.999-19.999-19.999h-18.999h-80.994H281.98
				c-11.045,0-19.999,8.953-19.999,19.999c0,10.707,8.421,19.424,18.999,19.948v108.842c-14.715-12.124-31.544-21.96-49.996-28.847
				V40.015h1c11.045,0,19.999-8.953,19.999-19.999s-8.953-19.999-19.999-19.999H107.992c-11.045,0-19.999,8.953-19.999,19.999
				s8.953,19.999,19.999,19.999h3v138.961C44.344,204.054-0.599,268.793,0.006,341.453c0.376,45.263,18.335,87.919,50.565,120.109
				c31.908,31.866,74.054,49.721,118.809,50.388c0.204,0.006,0.402,0.031,0.607,0.031h256.15c15.603,0,30.271-6.076,41.306-17.109
				l27.409-27.41C513.952,448.363,517.495,418.902,503.468,395.819z M171.992,471.986c-0.32,0-0.643-0.001-0.963-0.003
				C115.872,471.59,68.35,436.711,49.118,387.99h23.876c11.045,0,19.999-8.953,19.999-19.999s-8.953-19.999-19.999-19.999H40.24
				c-0.138-2.277-0.22-4.568-0.239-6.874c-0.498-59.789,39.106-112.574,96.309-128.364c8.671-2.394,14.678-10.282,14.678-19.278
				V40.015h39.997v153.464c0,8.995,6.007,16.884,14.678,19.278c57.886,15.978,98.314,68.3,98.314,127.238
				c0,2.681-0.089,5.347-0.247,7.999H189.986c-11.045,0-19.999,8.953-19.999,19.999c0,11.045,8.953,19.999,19.999,19.999H295.02
				c-6.602,16.938-16.737,32.464-30.035,45.667C240.071,458.396,207.081,471.986,171.992,471.986z M466.57,439.18l-27.409,27.41
				c-3.479,3.479-8.103,5.395-13.023,5.395H282.255c3.752-3.146,7.398-6.455,10.912-9.944
				c10.979-10.902,20.297-23.022,27.845-36.052h150.948C472.007,430.8,470.175,435.575,466.57,439.18z"/>
		</g>
	</g>
</g>
<g>
</g>
<g>
</g>
<g>
</g>
<g>
</g>
<g>
</g>
<g>
</g>
<g>
</g>
<g>
</g>
<g>
</g>
<g>
</g>
<g>
</g>
<g>
</g>
<g>
</g>
<g>
</g>
<g>
</g>
</svg>
