<svg id="Capa_1" enable-background="new 0 0 512 512" height="512" viewBox="0 0 512 512" width="512" xmlns="http://www.w3.org/2000/svg"><g><path d="m512 256c0 85.55-41.97 161.3-106.43 207.78-42.08 30.34-93.74 48.22-149.57 48.22-35.59 0-69.49-7.27-100.28-20.4-12.91-5.49-25.28-12.02-36.99-19.49-9.84-6.25-19.23-13.16-28.09-20.67 0 0-.01 0-.01-.01-55.44-46.96-90.63-117.09-90.63-195.43 0-141.38 114.62-256 256-256 20.65 0 40.74 2.45 59.97 7.07 112.45 26.99 196.03 128.2 196.03 248.93z" fill="#80e29d"/><g><path d="m188.15 319.63c0 62.64-11.8 121.36-32.43 171.97-23.76-10.11-45.67-23.72-65.09-40.17-11.88-40.6-18.44-85.11-18.44-131.8 0-28.59 2.47-56.36 7.11-82.92l56.83-20.95 44.92 20.95c4.64 26.56 7.1 54.33 7.1 82.92z" fill="#d9723e"/><path d="m118.73 472.11c-9.84-6.25-19.23-13.16-28.09-20.67 0 0-.01 0-.01-.01-11.88-40.6-18.44-85.11-18.44-131.8 0-28.59 2.46-56.36 7.1-82.92h33.19c-1.62 26.56-2.47 54.33-2.47 82.93 0 54.75 3.14 106.51 8.72 152.47z" fill="#bd5423"/><path d="m160.787 165.109-42.118 25.98-14.004-18.977-5.162-7.002c-11.996-11.996-21.122-29.576-25.118-49.72-6.823-34.328 1.251-76.089 35.453-110.3 6.939-6.929 18.788-2.092 19.072 7.717.494 16.906 4.216 37.019 18.525 41.603 7.664 2.46 15.676 9.126 22.016 18.536 0 .011.011.021.021.032 14.876 22.098 20.585 59.244-8.685 92.131z" fill="#2f373b"/><path d="m160.79 165.108h-61.283l-20.216 71.604h101.715z" fill="#f6f1f1"/><path d="m117.638 165.109-12.974 7.002-5.162-7.002c-11.996-11.996-21.122-29.576-25.118-49.72-6.823-34.328 1.251-76.089 35.453-110.3 6.939-6.929 18.788-2.092 19.072 7.717-49.352 58.068-18.462 133.063-11.271 152.303z" fill="#181e21"/><path d="m112.476 236.708 5.162-71.6h-18.131l-20.216 71.604z" fill="#dfeaef"/><path d="m130.171 96.464c-14.593-7.202-20.723-1.03-28.177 6.119-6.298 6.056-13.542 12.806-27.609 12.806-6.823-34.328 1.251-76.089 35.453-110.3 6.792-6.782 18.294-2.292 19.04 7.107.021.221.021.421.032.61.494 16.906 4.216 37.019 18.525 41.603 7.664 2.46 15.676 9.126 22.016 18.536 0 .011.011.021.021.032 8.799 18.441-12.396 36.756-39.301 23.487z" fill="#f93d6e"/><path d="m101.994 102.583c-6.298 6.056-13.542 12.806-27.609 12.806-6.823-34.328 1.251-76.089 35.453-110.3 6.792-6.782 18.294-2.292 19.04 7.107.021.221.021.421.032.61-24.404 28.713-29.187 61.579-26.916 89.777z" fill="#e41753"/></g><path d="m512 256c0 20.91-2.51 41.22-7.23 60.67-7.96-5.15-17.45-8.14-27.64-8.14-28.14 0-50.95 22.81-50.95 50.95 0 22.84 15.02 42.17 35.73 48.64-15.78 21.34-34.81 40.13-56.34 55.66 40.05-145.22-179.113-46.425-203.17-221.69-19.25-140.241 42.69-213.179 113.57-235.02 20.69 4.97 40.4 12.44 58.79 22.09 1.42.75 2.83 1.5 4.23 2.27 5.56 3.05 10.99 6.3 16.29 9.75 16.78 10.9 32.21 23.72 45.97 38.14.27.28.54.56.8.85 5.45 5.77 10.64 11.79 15.53 18.04 34.1 43.47 54.42 98.26 54.42 157.79z" fill="#f6f1f1"/><circle cx="322.515" cy="256" fill="#dfeaef" r="66.638"/><circle cx="322.515" cy="256" fill="#f93d6e" r="50.948"/><path d="m327.368 230.301c-.044-.044-.088-.088-.133-.132-3.983-3.943-.246-10.673 5.149-9.156 5.798 1.63 11.271 4.725 15.833 9.288 14.2 14.19 14.2 37.21 0 51.4-4.563 4.563-10.035 7.658-15.833 9.288-5.396 1.517-9.132-5.213-5.149-9.156.044-.044.089-.088.133-.132 14.2-14.19 14.2-37.21 0-51.4z" fill="#e41753"/><circle cx="322.515" cy="115.389" fill="#dfeaef" r="66.638"/><path d="m457.58 98.21c-5.22 1.32-10.7 2.02-16.33 2.02-36.8 0-66.64-29.83-66.64-66.63 0-1.49.05-2.97.15-4.44 1.42.75 2.83 1.5 4.23 2.27 5.56 3.05 10.99 6.3 16.29 9.75 16.78 10.9 32.21 23.72 45.97 38.14.27.28.54.56.8.85 5.45 5.77 10.64 11.79 15.53 18.04z" fill="#dfeaef"/><path d="m442.05 80.17c-.26.01-.53.01-.8.01-23.15 0-42.35-16.87-45.97-39 16.78 10.9 32.21 23.72 45.97 38.14.27.28.54.56.8.85z" fill="#ecc32e"/><circle cx="322.515" cy="115.389" fill="#90d8f9" r="50.948"/><path d="m327.368 89.69c-.044-.044-.088-.088-.133-.132-3.983-3.943-.246-10.673 5.149-9.156 5.798 1.63 11.271 4.725 15.833 9.288 14.2 14.19 14.2 37.21 0 51.4-4.563 4.563-10.035 7.658-15.833 9.288-5.396 1.517-9.132-5.213-5.149-9.156.044-.044.089-.088.133-.132 14.2-14.19 14.2-37.21 0-51.4z" fill="#61a2f9"/></g></svg>