<?xml version="1.0" encoding="iso-8859-1"?>
<!-- Generator: Adobe Illustrator 19.0.0, SVG Export Plug-In . SVG Version: 6.00 Build 0)  -->
<svg version="1.1" id="Capa_1" xmlns="http://www.w3.org/2000/svg" xmlns:xlink="http://www.w3.org/1999/xlink" x="0px" y="0px"
	 viewBox="0 0 512 512" style="enable-background:new 0 0 512 512;" xml:space="preserve">
<g>
	<g>
		<g>
			<path d="M178,375c11.046,0,20-8.954,20-20V214c0-11.046-8.954-20-20-20s-20,8.954-20,20v141C158,366.046,166.954,375,178,375z"/>
			<path d="M402,164v151c0,11.046,8.954,20,20,20c11.046,0,20-8.954,20-20V164c0-11.046-8.954-20-20-20
				C410.954,144,402,152.954,402,164z"/>
			<path d="M492,334c11.046,0,20-8.954,20-20V20c0-11.046-8.954-20-20-20H351c-11.046,0-20,8.954-20,20v60h-63V63
				c0-11.046-8.954-20-20-20H127V20c0-11.046-8.954-20-20-20H20C8.954,0,0,8.954,0,20v472c0,11.046,8.954,20,20,20h472
				c11.046,0,20-8.954,20-20v-80c0-11.046-8.954-20-20-20H371V40h101v274C472,325.046,480.954,334,492,334z M87,472H40v-40h47V472z
				 M87,392H40V120h47V392z M87,80H40V40h47V80z M228,472H127V83h101V472z M331,472h-63V200h63V472z M331,160h-63v-40h63V160z
				 M472,432v40H371v-40H472z"/>
		</g>
	</g>
</g>
<g>
</g>
<g>
</g>
<g>
</g>
<g>
</g>
<g>
</g>
<g>
</g>
<g>
</g>
<g>
</g>
<g>
</g>
<g>
</g>
<g>
</g>
<g>
</g>
<g>
</g>
<g>
</g>
<g>
</g>
</svg>
