<svg id="Capa_1" enable-background="new 0 0 512 512" height="512" viewBox="0 0 512 512" width="512" xmlns="http://www.w3.org/2000/svg"><g><path d="m512 256c0 55.06-17.39 106.06-46.96 147.81-36.53 51.58-91.68 89.04-155.65 102.61-17.22 3.66-35.08 5.58-53.39 5.58-2.06 0-4.12-.02-6.17-.08-27.45-.64-53.83-5.62-78.49-14.26-28.99-10.15-55.59-25.37-78.74-44.6-19.71-16.35-36.92-35.6-50.98-57.11-.11-.16-.22-.33-.33-.5-5.01-7.69-9.62-15.67-13.78-23.9-1.88-3.72-3.67-7.49-5.37-11.3-2.57-5.74-4.93-11.6-7.08-17.56-.44-1.23-.88-2.46-1.3-3.7-1.28-3.74-2.48-7.51-3.59-11.33v-.01c-1.84-6.31-3.44-12.73-4.78-19.24-3.2-15.32-5.02-31.14-5.34-47.33 0-.01 0-.01 0-.01-.03-1.69-.05-3.37-.05-5.07 0-141.38 114.62-256 256-256 77.07 0 146.19 34.06 193.12 87.95 11.48 13.18 21.63 27.54 30.24 42.88 20.79 37.01 32.64 79.71 32.64 125.17z" fill="#bc95e2"/><g><path d="m481.61 87.95-2.25 42.88-.08 1.53-7.47 142.39-5.84 111.29-.93 17.77c-36.53 51.58-91.68 89.04-155.65 102.61-17.22 3.66-35.08 5.58-53.39 5.58-2.06 0-4.12-.02-6.17-.08-27.45-.64-53.83-5.62-78.49-14.26l-21.5-409.71z" fill="#90d8f9"/><path d="m481.61 87.95-2.25 42.88-.08 1.53h-220.92c-15.45 0-27.75 12.96-26.94 28.39l18.41 351.17c-27.45-.64-53.83-5.62-78.49-14.26l-21.5-409.71z" fill="#61a2f9"/><path d="m459.16 80.23h-286.88c-7.37 0-13.09-6.44-12.21-13.76l3.58-30.12.2-1.68c.74-6.19 5.99-10.85 12.22-10.85h279.3c6.23 0 11.48 4.66 12.22 10.85l.2 1.68 3.59 30.12c.87 7.32-4.85 13.76-12.22 13.76z" fill="#f6f1f1"/><path d="m263.392 80.23h-91.111c-7.372 0-13.088-6.436-12.215-13.761l3.786-31.795c.736-6.188 5.988-10.847 12.223-10.847h91.111c-6.236 0-11.479 4.659-12.223 10.847l-3.786 31.795c-.873 7.325 4.843 13.761 12.215 13.761z" fill="#dfeaef"/><path d="m459.16 80.23h-286.88c-7.37 0-13.09-6.44-12.21-13.76l3.58-30.12h304.14l3.59 30.12c.87 7.32-4.85 13.76-12.22 13.76z" fill="#dfeaef"/><path d="m490.179 43.822h-348.913c-7.786 0-14.342 5.821-15.263 13.552l-4.734 39.725c-1.09 9.145 6.053 17.19 15.263 17.19h358.38c9.21 0 16.353-8.044 15.263-17.19l-4.734-39.725c-.921-7.731-7.477-13.552-15.262-13.552z" fill="#f6f1f1"/><path d="m250.349 114.289h-113.82c-9.21 0-16.35-8.04-15.26-17.19l4.73-39.72c.92-7.73 7.48-13.55 15.27-13.55h113.82c-7.79 0-14.34 5.82-15.27 13.55l-4.73 39.72c-1.09 9.15 6.05 17.19 15.26 17.19z" fill="#dfeaef"/></g><path d="m92.207 126.122 64.682 37.344 5.142-78.453-5.142-20.319-64.682 37.344c-9.269 5.353-9.269 18.733 0 24.084z" fill="#f93d6e"/><path d="m334.71 428.75v26.71c0 20.81-9.94 39.29-25.32 50.96-17.22 3.66-35.08 5.58-53.39 5.58-29.67 0-58.16-5.05-84.66-14.34-53.84-18.86-99.46-55.2-130.05-102.21h260.11c18.4 0 33.31 14.91 33.31 33.3z" fill="#ecc32e"/><g><path d="m334.71 364.83c0 17.19-13.94 31.12-31.12 31.12h-261.97c-.11-.16-.22-.33-.33-.5-11.37-17.46-20.66-36.4-27.53-56.46 4.96-3.34 10.93-5.28 17.36-5.28h272.47c8.59 0 16.37 3.48 22 9.11 5.63 5.64 9.12 13.42 9.12 22.01z" fill="#d9723e"/><path d="m107.83 386.83c5.64 5.63 13.42 9.12 22.01 9.12h-88.22c-.11-.16-.22-.33-.33-.5-11.37-17.46-20.66-36.4-27.53-56.46 4.96-3.33 10.93-5.28 17.36-5.28h98.72c-17.19 0-31.12 13.93-31.12 31.12 0 8.59 3.48 16.37 9.11 22z" fill="#bd5423"/></g><path d="m125.9 395.45c-18.39 0-33.3 14.91-33.3 33.3v24.31c-19.86-16.48-37.19-35.9-51.31-57.61z" fill="#e7a52e"/><path d="m328.19 364.8c-13.03 21.51-41.73-9.62-66.97 0-25.23 9.63-31.29 20.42-52.27 17.6-31.4-4.23-32.37-23.35-41.6-23.35s-10.19 19.12-41.59 23.35c-2.17.29-4.18.44-6.08.45h-.01c-16.36.14-23.57-9.42-46.18-18.05-15.5-5.91-32.3 3.55-45.98 6.75-1.88-3.72-3.67-7.49-5.37-11.3-2.57-5.74-4.93-11.6-7.08-17.56 10.85-6.93 25.99-10.45 25.99-10.45h252.6s47.57 11.06 34.54 32.56z" fill="#bd5423"/><path d="m251.515 349.991 27.015 24.773c4.687 4.298 12.08 3.522 15.772-1.655l19.113-26.799" fill="#ecc32e"/><path d="m125.59 349.991 27.015 24.773c4.687 4.298 12.08 3.522 15.772-1.655l19.113-26.799" fill="#ecc32e"/><path d="m338.59 354.03c-13.87 22.9-44.43-10.24-71.3 0-26.86 10.26-33.31 21.74-55.65 18.74-33.43-4.5-34.46-24.86-44.29-24.86s-10.85 20.36-44.28 24.86c-2.31.31-4.45.47-6.47.48h-.01c-17.42.15-25.1-10.03-49.17-19.22-15.14-5.77-31.45 2.23-45.28 6.22-3.1-6.93-5.9-14.02-8.38-21.26-1.28-3.74-2.48-7.51-3.59-11.33v-.01c10.71-5.49 22.71-8.28 22.71-8.28h268.94s50.65 11.77 36.77 34.66z" fill="#80e29d"/><path d="m123.22 330.98c-25.51 13.71-20.62 28.26-6.63 42.27-17.42.15-25.1-10.03-49.17-19.22-15.14-5.77-31.45 2.23-45.28 6.22-3.1-6.93-5.9-14.02-8.38-21.26-1.28-3.74-2.48-7.52-3.59-11.34 10.71-5.49 22.71-8.28 22.71-8.28h94.78c2.01 4.55 1.12 8.63-4.44 11.61z" fill="#66b49d"/><path d="m156.889 64.695h20.929v147.39h-20.929z" fill="#9373b9"/><path d="m334.71 263.54v26.71c0 18.39-14.91 33.3-33.31 33.3h-268.1c-11.69 0-21.98-6.03-27.91-15.14-3.2-15.32-5.02-31.14-5.34-47.33 0-.01 0-.01 0-.01 1.3-34.18 29.41-61.47 63.89-61.47h206.82c35.32 0 63.95 28.62 63.95 63.94z" fill="#ecc32e"/><path d="m125.9 323.55h-92.6c-11.69 0-21.98-6.03-27.91-15.14-3.2-15.32-5.02-31.14-5.34-47.33 1.28-34.18 29.39-61.49 63.89-61.49h92.6c-35.31 0-63.94 28.63-63.94 63.94v26.72c0 18.39 14.91 33.3 33.3 33.3z" fill="#e7a52e"/><g fill="#f6f1f1"><g><circle cx="73.485" cy="231.095" r="14.905"/><circle cx="136.064" cy="231.095" r="14.905"/><circle cx="198.643" cy="231.095" r="14.905"/><circle cx="261.222" cy="231.095" r="14.905"/></g><g><circle cx="104.775" cy="267.746" r="14.905"/><circle cx="167.354" cy="267.746" r="14.905"/><circle cx="229.933" cy="267.746" r="14.905"/></g><path d="m471.81 274.75-5.84 111.29c-11.98 24.27-30.78 39.89-51.9 39.89-36.21 0-65.57-45.91-65.57-102.55s29.36-102.55 65.57-102.55c24.96 0 46.67 21.82 57.74 53.92z"/></g></g></svg>