<?xml version="1.0" encoding="iso-8859-1"?>
<!-- Generator: Adobe Illustrator 19.0.0, SVG Export Plug-In . SVG Version: 6.00 Build 0)  -->
<svg version="1.1" id="Capa_1" xmlns="http://www.w3.org/2000/svg" xmlns:xlink="http://www.w3.org/1999/xlink" x="0px" y="0px"
	 viewBox="0 0 512 512" style="enable-background:new 0 0 512 512;" xml:space="preserve">
<g>
	<g>
		<g>
			<path d="M413.054,191.638c-34.503-34.361-80.132-53.658-128.838-54.593c-8.511-22.757-30.458-39.018-56.151-39.045
				c-0.022,0-0.043,0-0.065,0c-7.385,0-14.459,1.35-20.999,3.802V62c0-11.046-8.954-20-20-20h-20.04L167,20.036
				C167.021,8.991,158.082,0.02,147.036,0C136.013-0.039,127.022,8.918,127,19.964L126.96,42H107c-11.046,0-20,8.954-20,20v229.925
				c0,11.046,8.954,20,20,20h19.971l-0.036,20.039c-0.021,11.045,8.918,20.016,19.964,20.036c0.013,0,0.024,0,0.037,0
				c11.028,0,19.979-8.931,19.999-19.964l0.037-20.111H187c11.046,0,20-8.954,20-20v-77.724c6.521,2.444,13.573,3.792,20.936,3.8
				c0.022,0,0.043,0,0.065,0c26.412,0,48.884-17.167,56.874-40.93C364.191,179.385,428,244.403,428,324c0,11.046,8.954,20,20,20
				c11.046,0,20-8.954,20-20C468,273.932,448.486,226.925,413.054,191.638z M167,271.925h-40V82h40V271.925z M228,178
				c-0.007,0-0.015,0-0.021,0c-11.028-0.012-19.99-8.993-19.979-20.021c0.012-11.021,8.981-19.979,20-19.979
				c0.007,0,0.015,0,0.021,0c11.028,0.012,19.99,8.993,19.979,20.021C247.988,169.043,239.019,178.001,228,178z"/>
			<path d="M423,392l-359,0.034c-11.046,0-20,8.954-20,20c0,11.046,8.954,20,20,20h63V472H64c-11.046,0-20,8.954-20,20
				c0,11.046,8.954,20,20,20h216.5c32.627,0,64.726-8.527,92.825-24.659c27.171-15.598,50.242-38.033,66.72-64.879
				c3.796-6.183,3.944-13.937,0.39-20.262C436.893,395.899,430.227,392,423,392z M280.5,472H167v-39.966h214.251
				C354.327,457.515,318.672,472,280.5,472z"/>
		</g>
	</g>
</g>
<g>
</g>
<g>
</g>
<g>
</g>
<g>
</g>
<g>
</g>
<g>
</g>
<g>
</g>
<g>
</g>
<g>
</g>
<g>
</g>
<g>
</g>
<g>
</g>
<g>
</g>
<g>
</g>
<g>
</g>
</svg>
