<svg id="Capa_1" enable-background="new 0 0 512 512" height="512" viewBox="0 0 512 512" width="512" xmlns="http://www.w3.org/2000/svg"><g><path d="m512 256c0 79.99-36.69 151.41-94.15 198.35-44.11 36.03-100.46 57.65-161.85 57.65-52.44 0-101.2-15.77-141.79-42.82-6.93-4.62-13.63-9.57-20.06-14.83-57.46-46.94-94.15-118.36-94.15-198.35 0-141.38 114.62-256 256-256s256 114.62 256 256z" fill="#90d8f9"/><g><path d="m289.002 296.619h-66.375c-32.378 0-58.625 26.247-58.625 58.625v36.989h183.625v-36.989c0-32.378-26.248-58.625-58.625-58.625z" fill="#bc95e2"/><path d="m264.692 296.624c-32.38 0-58.62 26.25-58.62 58.62v36.99h-42.07v-36.99c0-32.37 26.25-58.62 58.63-58.62z" fill="#9373b9"/><path d="m255.99 323.281-36.598 20.339-11.134-55.238 22.741-9.941" fill="#f6f1f1"/><path d="m255.99 323.281 36.598 20.339 11.133-55.238-22.741-9.941" fill="#f6f1f1"/><path d="m286.873 254.515v37.893c0 13.873-9.147 25.599-21.747 29.494-2.884.895-5.958 1.379-9.136 1.379-17.052 0-30.873-13.82-30.873-30.872v-37.893h61.756z" fill="#eaac9d"/><path d="m286.873 290.008v2.4c0 13.873-9.147 25.599-21.747 29.494-11.368-3.495-19.915-13.378-21.494-25.473 2.063.126 4.137.189 6.221.189 5.842 0 11.568-.463 17.147-1.379 6.873-1.104 13.515-2.873 19.873-5.231z" fill="#ffcbbe"/><g><path d="m170.736 192.095c0 14.155-10.34 25.892-23.88 28.071-1.48.24-3.002.365-4.555.365-15.708 0-28.435-12.727-28.435-28.436s12.727-28.436 28.435-28.436c1.553 0 3.075.125 4.555.365 13.54 2.179 23.88 13.916 23.88 28.071z" fill="#ffcbbe"/><path d="m170.736 192.095c0 14.155-10.34 25.892-23.88 28.071-2.46-8.943-3.773-18.356-3.773-28.071s1.313-19.127 3.773-28.071c13.54 2.179 23.88 13.916 23.88 28.071z" fill="#eaac9d"/><circle cx="142.3" cy="192.095" fill="#eaac9d" r="10.163"/><path d="m341.253 192.095c0 14.155 10.34 25.892 23.88 28.071 1.48.24 3.002.365 4.555.365 15.708 0 28.436-12.727 28.436-28.436s-12.727-28.436-28.436-28.436c-1.553 0-3.075.125-4.555.365-13.539 2.179-23.88 13.916-23.88 28.071z" fill="#ffcbbe"/><g fill="#eaac9d"><path d="m341.253 192.095c0 14.155 10.34 25.892 23.88 28.071 2.46-8.943 3.773-18.356 3.773-28.071s-1.313-19.127-3.773-28.071c-13.539 2.179-23.88 13.916-23.88 28.071z"/><circle cx="369.689" cy="192.095" r="10.163"/></g></g><path d="m362.833 177.149c0 53.166-38.841 97.27-89.691 105.459-5.579.916-11.305 1.379-17.147 1.379-59.008 0-106.838-47.83-106.838-106.838v-108.77h213.676z" fill="#ffcbbe"/><path d="m274.813 282.327c-.553.097-1.112.193-1.671.283-5.58.912-11.305 1.374-17.148 1.374-59.006 0-106.837-47.825-106.837-106.837v-108.77h37.673v108.771c-.001 52.583 37.969 96.277 87.983 105.179z" fill="#eaac9d"/><path d="m198.468 20.21c14.024 0 25.392 11.368 25.392 25.392v20.361c0 16.51-13.384 29.894-29.894 29.894h-44.809v-26.336c0-27.234 22.077-49.311 49.311-49.311z" fill="#bd5423"/><path d="m167.824 186.801h-18.667v-90.944l20.964-10.564 8.727 10.564z" fill="#bd5423"/><path d="m344.165 186.801h18.668v-137.794l-30.412 40.901z" fill="#d9723e"/><path d="m390.131 0h-132.165c-18.836 0-34.106 15.27-34.106 34.106v33.199c0 15.769 12.783 28.552 28.552 28.552h59.823c43.021 0 77.896-34.875 77.896-77.896z" fill="#d9723e"/><path d="m283.418 95.856h-31.001c-15.773 0-28.557-12.783-28.557-28.55v-33.197c0-18.84 15.269-34.109 34.109-34.109h31.001c-18.833 0-34.102 15.269-34.102 34.109v33.197c0 15.767 12.784 28.55 28.55 28.55z" fill="#bd5423"/><path d="m255.995 233.377c-8.946 0-17.892-2.242-26.047-6.725-2.3-1.265-3.14-4.154-1.875-6.454s4.155-3.139 6.454-1.875c13.443 7.39 29.494 7.39 42.935 0 2.299-1.265 5.189-.425 6.454 1.875s.425 5.19-1.875 6.454c-8.154 4.484-17.1 6.725-26.046 6.725z" fill="#df9380"/><g fill="#f6f1f1"><path d="m231.596 145.788h-53.647c-6.062 0-10.976 4.914-10.976 10.976v28.147c0 6.062 4.914 10.976 10.976 10.976h53.647c6.062 0 10.976-4.914 10.976-10.976v-28.147c0-6.062-4.914-10.976-10.976-10.976z"/><path d="m334.04 145.788h-53.647c-6.062 0-10.976 4.914-10.976 10.976v28.147c0 6.062 4.914 10.976 10.976 10.976h53.647c6.062 0 10.976-4.914 10.976-10.976v-28.147c0-6.062-4.914-10.976-10.976-10.976z"/></g><path d="m268.114 201.446h-24.239c-2.887 0-5.228-2.341-5.228-5.228 0-2.887 2.341-5.228 5.228-5.228h24.239c2.887 0 5.228 2.341 5.228 5.228 0 2.887-2.34 5.228-5.228 5.228z" fill="#eaac9d"/><g><path d="m273.499 172.072c0 11.854 9.61 21.464 21.464 21.464s21.464-9.61 21.464-21.464" fill="#dfeaef"/><circle cx="294.962" cy="172.072" fill="#2f373b" r="15.392"/><circle cx="301.377" cy="169.356" fill="#fff" r="6.595"/><path d="m195.563 172.072c0 11.854 9.61 21.464 21.464 21.464s21.464-9.61 21.464-21.464" fill="#dfeaef"/><circle cx="217.027" cy="172.072" fill="#2f373b" r="15.392"/><path d="m220.627 187.038c-1.153.283-2.362.428-3.598.428-8.501 0-15.394-6.892-15.394-15.394 0-8.501 6.892-15.394 15.394-15.394 1.236 0 2.445.145 3.598.428-6.768 1.616-11.789 7.707-11.789 14.965 0 7.26 5.021 13.351 11.789 14.967z" fill="#181e21"/><path d="m298.562 187.038c-1.153.283-2.362.428-3.598.428-8.501 0-15.394-6.892-15.394-15.394 0-8.501 6.892-15.394 15.394-15.394 1.236 0 2.445.145 3.598.428-6.768 1.616-11.789 7.707-11.789 14.965 0 7.26 5.021 13.351 11.789 14.967z" fill="#181e21"/><circle cx="223.441" cy="169.356" fill="#fff" r="6.595"/></g><path d="m368.051 149.858h-17.518c-2.707-6.441-9.08-10.976-16.493-10.976h-53.647c-9.86 0-17.882 8.022-17.882 17.882v4.876h-13.034v-4.876c0-9.86-8.022-17.882-17.882-17.882h-53.647c-7.413 0-13.786 4.535-16.493 10.976h-17.518v13.812h16.129v21.241c0 9.86 8.022 17.882 17.882 17.882h53.647c9.86 0 17.882-8.022 17.882-17.882v-9.459h13.034v9.459c0 9.86 8.022 17.882 17.882 17.882h53.647c9.86 0 17.882-8.022 17.882-17.882v-21.241h16.129zm-132.385 35.053c0 2.244-1.826 4.069-4.069 4.069h-53.647c-2.244 0-4.069-1.826-4.069-4.069v-28.148c0-2.244 1.826-4.069 4.069-4.069h53.647c2.244 0 4.069 1.825 4.069 4.069zm102.444 0c0 2.244-1.826 4.069-4.069 4.069h-53.647c-2.244 0-4.07-1.826-4.07-4.069v-28.148c0-2.244 1.826-4.069 4.07-4.069h53.647c2.244 0 4.069 1.825 4.069 4.069z" fill="#181e21"/><path d="m255.995 209.43s-16.361-12.347-32.824-6.174c-9.11 3.416-15.365 11.559-21.587 18.151-3.987 4.224-.914 11.155 4.892 10.996 16.781-.457 39.004-4.809 49.519-22.973z" fill="#bd5423"/><path d="m255.995 209.43s16.361-12.347 32.824-6.174c9.11 3.416 15.365 11.559 21.587 18.151 3.987 4.224.914 11.155-4.892 10.996-16.781-.457-39.005-4.809-49.519-22.973z" fill="#d9723e"/></g><path d="m417.85 392.23v62.12c-44.11 36.03-100.46 57.65-161.85 57.65-52.44 0-101.2-15.77-141.79-42.82-6.93-4.62-13.63-9.57-20.06-14.83v-62.12z" fill="#ecc32e"/><path d="m114.21 392.23v76.95c-6.93-4.62-13.63-9.57-20.06-14.83v-62.12z" fill="#e7a52e"/><path d="m94.15 392.233h323.7v41.724h-323.7z" fill="#e7a52e"/><g><path d="m314.598 300.324h11.899v68.416h-11.899z" fill="#f93d6e"/><path d="m324.822 334.532h-8.548c-10.75 0-19.464-8.714-19.464-19.464v-28.507c0-10.75 8.714-19.464 19.464-19.464h8.548c10.75 0 19.464 8.714 19.464 19.464v28.507c0 10.75-8.714 19.464-19.464 19.464z" fill="#2f373b"/><path d="m328.54 334.171c-1.2.24-2.45.36-3.72.36h-8.54c-10.75 0-19.47-8.71-19.47-19.46v-28.51c0-10.75 8.72-19.46 19.47-19.46h8.54c1.27 0 2.52.12 3.72.36-8.98 1.729-15.76 9.62-15.76 19.1v28.51c0 9.48 6.78 17.37 15.76 19.1z" fill="#181e21"/></g><g><path d="m189.614 300.324h11.899v68.416h-11.899z" fill="#f93d6e"/><path d="m199.837 334.532h-8.548c-10.75 0-19.464-8.714-19.464-19.464v-28.507c0-10.75 8.714-19.464 19.464-19.464h8.548c10.75 0 19.464 8.714 19.464 19.464v28.507c.001 10.75-8.714 19.464-19.464 19.464z" fill="#2f373b"/><path d="m203.555 334.171c-1.2.24-2.45.36-3.72.36h-8.54c-10.75 0-19.47-8.71-19.47-19.46v-28.51c0-10.75 8.72-19.46 19.47-19.46h8.54c1.27 0 2.52.12 3.72.36-8.98 1.729-15.76 9.62-15.76 19.1v28.51c0 9.48 6.78 17.37 15.76 19.1z" fill="#181e21"/></g><path d="m434.529 411.78h-357.058c-12.72 0-23.032-10.312-23.032-23.032v-11.275c0-12.72 10.312-23.032 23.032-23.032h357.058c12.72 0 23.032 10.312 23.032 23.032v11.275c0 12.721-10.312 23.032-23.032 23.032z" fill="#ecc32e"/><path d="m128.589 411.778h-51.12c-12.72 0-23.03-10.31-23.03-23.03v-11.28c0-12.72 10.31-23.03 23.03-23.03h51.12c-12.72 0-23.03 10.31-23.03 23.03v11.28c0 12.72 10.31 23.03 23.03 23.03z" fill="#e7a52e"/><path d="m31.599 0h115.222c13.073 0 23.671 10.598 23.671 23.671v98.154c0 13.073-10.598 23.671-23.671 23.671h-3.822l-15.532 22.972c-3.249 4.806-10.327 4.806-13.576 0l-15.531-22.973h-66.761c-13.073 0-23.671-10.598-23.671-23.671v-98.153c0-13.073 10.598-23.671 23.671-23.671z" fill="#f6f1f1"/><g fill="#2f373b"><path d="m138.58 44.007h-98.74c-5.676 0-10.278-4.602-10.278-10.278 0-5.676 4.602-10.278 10.278-10.278h98.741c5.676 0 10.278 4.602 10.278 10.278-.001 5.677-4.602 10.278-10.279 10.278z"/><path d="m138.58 80.293h-98.74c-5.676 0-10.278-4.602-10.278-10.278 0-5.676 4.602-10.278 10.278-10.278h98.741c5.676 0 10.278 4.602 10.278 10.278-.001 5.676-4.602 10.278-10.279 10.278z"/><path d="m105.853 116.578h-66.013c-5.676 0-10.278-4.602-10.278-10.278 0-5.676 4.602-10.278 10.278-10.278h66.013c5.676 0 10.278 4.602 10.278 10.278 0 5.677-4.602 10.278-10.278 10.278z"/></g></g></svg>