<?xml version="1.0" encoding="iso-8859-1"?>
<!-- Generator: Adobe Illustrator 19.0.0, SVG Export Plug-In . SVG Version: 6.00 Build 0)  -->
<svg version="1.1" id="Capa_1" xmlns="http://www.w3.org/2000/svg" xmlns:xlink="http://www.w3.org/1999/xlink" x="0px" y="0px"
	 viewBox="0 0 512 512" style="enable-background:new 0 0 512 512;" xml:space="preserve">
<g>
	<g>
		<g>
			<path d="M438.945,352c11.046,0,20-8.954,20-20V80c0-44.112-35.888-80-80-80H133.056c-44.112,0-80,35.888-80,80v352
				c0,44.112,35.888,80,80,80h245.889c44.112,0,80-35.888,80-80c0-11.046-8.954-20-20-20c-11.046,0-20,8.954-20,20
				c0,22.056-17.944,40-40,40H133.056c-22.056,0-40-17.944-40-40V80c0-22.056,17.944-40,40-40h245.888c22.056,0,40,17.944,40,40v252
				C418.944,343.046,427.899,352,438.945,352z"/>
			<path d="M222.944,339c11.046,0,20-8.954,20-20v-85c0-33.084-26.916-60-60-60c-33.084,0-60,26.916-60,60v85
				c0,11.046,8.954,20,20,20c11.046,0,20-8.954,20-20v-29h40v29C202.944,330.046,211.898,339,222.944,339z M162.944,250v-16
				c0-11.028,8.972-20,20-20c11.028,0,20,8.972,20,20v16H162.944z"/>
			<path d="M328.944,316c11.046,0,20-8.954,20-20v-20h20c11.046,0,20-8.954,20-20c0-11.046-8.954-20-20-20h-20v-20
				c0-11.046-8.954-20-20-20c-11.046,0-20,8.954-20,20v20h-20c-11.046,0-20,8.954-20,20s8.954,20,20,20h20v20
				C308.944,307.046,317.898,316,328.944,316z"/>
		</g>
	</g>
</g>
<g>
</g>
<g>
</g>
<g>
</g>
<g>
</g>
<g>
</g>
<g>
</g>
<g>
</g>
<g>
</g>
<g>
</g>
<g>
</g>
<g>
</g>
<g>
</g>
<g>
</g>
<g>
</g>
<g>
</g>
</svg>
