<svg id="Capa_1" enable-background="new 0 0 512 512" height="512" viewBox="0 0 512 512" width="512" xmlns="http://www.w3.org/2000/svg"><g><path d="m512 256c0 36.18-7.51 70.61-21.05 101.81-9.81 22.6-22.78 43.51-38.36 62.17-7.52 9.01-15.65 17.49-24.32 25.38-17.62 16.04-37.49 29.65-59.07 40.31-34.13 16.86-72.56 26.33-113.2 26.33s-79.07-9.47-113.2-26.33c-21.58-10.66-41.45-24.27-59.07-40.31-8.67-7.89-16.8-16.37-24.32-25.38-15.58-18.66-28.55-39.57-38.36-62.17-13.54-31.2-21.05-65.63-21.05-101.81s7.51-70.61 21.05-101.81c22.06-50.84 60.13-93.12 107.86-120.46 37.45-21.46 80.84-33.73 127.09-33.73s89.64 12.27 127.09 33.73c47.73 27.34 85.8 69.62 107.86 120.46 13.54 31.2 21.05 65.63 21.05 101.81z" fill="#d9723e"/><path d="m490.95 66.06v291.75c-24.16 55.68-67.53 101.09-121.75 127.86h-226.4c-54.22-26.77-97.59-72.18-121.75-127.86v-291.75c0-17.86 14.47-32.33 32.33-32.33h405.24c17.86 0 32.33 14.47 32.33 32.33z" fill="#f6f1f1"/><path d="m490.95 66.06v79.73h-469.9v-79.73c0-17.86 14.47-32.33 32.33-32.33h405.24c17.86 0 32.33 14.47 32.33 32.33z" fill="#80e29d"/><g><g><path d="m305.25 196.218h-98.5c-7.009 0-12.69-5.682-12.69-12.69 0-7.009 5.682-12.69 12.69-12.69h98.5c7.009 0 12.69 5.682 12.69 12.69 0 7.008-5.681 12.69-12.69 12.69z" fill="#f93d6e"/><g fill="#2f373b"><path d="m305.25 236.657h-98.5c-7.009 0-12.69-5.682-12.69-12.69 0-7.009 5.682-12.69 12.69-12.69h98.5c7.009 0 12.69 5.682 12.69 12.69 0 7.008-5.681 12.69-12.69 12.69z"/><path d="m305.25 277.096h-98.5c-7.009 0-12.69-5.682-12.69-12.69 0-7.009 5.682-12.69 12.69-12.69h98.5c7.009 0 12.69 5.682 12.69 12.69 0 7.008-5.681 12.69-12.69 12.69z"/></g></g><g><path d="m154.727 196.218h-98.5c-7.009 0-12.69-5.682-12.69-12.69 0-7.009 5.682-12.69 12.69-12.69h98.5c7.009 0 12.69 5.682 12.69 12.69.001 7.008-5.681 12.69-12.69 12.69z" fill="#f93d6e"/><g fill="#2f373b"><path d="m154.727 236.657h-98.5c-7.009 0-12.69-5.682-12.69-12.69 0-7.009 5.682-12.69 12.69-12.69h98.5c7.009 0 12.69 5.682 12.69 12.69.001 7.008-5.681 12.69-12.69 12.69z"/><path d="m154.727 277.096h-98.5c-7.009 0-12.69-5.682-12.69-12.69 0-7.009 5.682-12.69 12.69-12.69h98.5c7.009 0 12.69 5.682 12.69 12.69.001 7.008-5.681 12.69-12.69 12.69z"/></g></g><g><path d="m455.773 196.218h-98.5c-7.009 0-12.69-5.682-12.69-12.69 0-7.009 5.682-12.69 12.69-12.69h98.5c7.009 0 12.69 5.682 12.69 12.69 0 7.008-5.682 12.69-12.69 12.69z" fill="#f93d6e"/><g fill="#2f373b"><path d="m455.773 236.657h-98.5c-7.009 0-12.69-5.682-12.69-12.69 0-7.009 5.682-12.69 12.69-12.69h98.5c7.009 0 12.69 5.682 12.69 12.69 0 7.008-5.682 12.69-12.69 12.69z"/><path d="m455.773 277.096h-98.5c-7.009 0-12.69-5.682-12.69-12.69 0-7.009 5.682-12.69 12.69-12.69h98.5c7.009 0 12.69 5.682 12.69 12.69 0 7.008-5.682 12.69-12.69 12.69z"/></g></g></g><g><g><path d="m305.25 364.481h-98.5c-7.009 0-12.69-5.682-12.69-12.69 0-7.009 5.682-12.69 12.69-12.69h98.5c7.009 0 12.69 5.682 12.69 12.69 0 7.009-5.681 12.69-12.69 12.69z" fill="#f93d6e"/><g fill="#2f373b"><path d="m305.25 404.92h-98.5c-7.009 0-12.69-5.682-12.69-12.69 0-7.009 5.682-12.69 12.69-12.69h98.5c7.009 0 12.69 5.682 12.69 12.69 0 7.009-5.681 12.69-12.69 12.69z"/><path d="m305.25 445.359h-98.5c-7.009 0-12.69-5.682-12.69-12.69 0-7.009 5.682-12.69 12.69-12.69h98.5c7.009 0 12.69 5.682 12.69 12.69 0 7.008-5.681 12.69-12.69 12.69z"/></g></g><g><path d="m154.727 364.481h-98.5c-7.009 0-12.69-5.682-12.69-12.69 0-7.009 5.682-12.69 12.69-12.69h98.5c7.009 0 12.69 5.682 12.69 12.69.001 7.009-5.681 12.69-12.69 12.69z" fill="#f93d6e"/><g fill="#2f373b"><path d="m154.727 404.92h-98.5c-7.009 0-12.69-5.682-12.69-12.69 0-7.009 5.682-12.69 12.69-12.69h98.5c7.009 0 12.69 5.682 12.69 12.69.001 7.009-5.681 12.69-12.69 12.69z"/><path d="m167.42 432.67c0 3.51-1.42 6.68-3.72 8.97-2.29 2.3-5.46 3.72-8.97 3.72h-71c-8.67-7.89-16.8-16.37-24.32-25.38h95.32c7.01 0 12.69 5.68 12.69 12.69z"/></g></g><g><path d="m455.773 364.481h-98.5c-7.009 0-12.69-5.682-12.69-12.69 0-7.009 5.682-12.69 12.69-12.69h98.5c7.009 0 12.69 5.682 12.69 12.69 0 7.009-5.682 12.69-12.69 12.69z" fill="#f93d6e"/><g fill="#2f373b"><path d="m455.773 404.92h-98.5c-7.009 0-12.69-5.682-12.69-12.69 0-7.009 5.682-12.69 12.69-12.69h98.5c7.009 0 12.69 5.682 12.69 12.69 0 7.009-5.682 12.69-12.69 12.69z"/><path d="m452.59 419.98c-7.52 9.01-15.65 17.49-24.32 25.38h-71c-7.01 0-12.69-5.68-12.69-12.69 0-3.51 1.42-6.68 3.72-8.97 2.29-2.3 5.46-3.72 8.97-3.72z"/></g></g></g><g fill="#bc95e2"><path d="m322.467 58.266c-.017-.046-.035-.091-.054-.137-.989-2.404-3.307-3.957-5.906-3.957-.002 0-.005 0-.007 0-2.602.003-4.92 1.561-5.905 3.969-.015.038-.03.075-.044.113l-22.97 60.311c-.983 2.581.312 5.47 2.893 6.452 2.582.984 5.469-.313 6.452-2.893l4.494-11.801h30.005l4.448 11.787c.755 2.002 2.658 3.236 4.679 3.236.586 0 1.183-.104 1.765-.324 2.583-.975 3.887-3.859 2.912-6.443zm-17.238 42.058 11.262-29.571 11.16 29.571z"/><path d="m150.499 58.266c-.017-.046-.035-.091-.054-.137-.989-2.404-3.307-3.957-5.906-3.957-.002 0-.005 0-.007 0-2.602.003-4.92 1.561-5.905 3.969-.015.038-.03.075-.044.113l-22.969 60.309c-.719-1.878-2.527-3.218-4.658-3.218h-20.541v-20.307h18.657c2.761 0 5-2.239 5-5s-2.239-5-5-5h-18.657v-20.307h20.541c2.761 0 5-2.239 5-5s-2.239-5-5-5h-25.541c-2.761 0-5 2.239-5 5v60.614c0 2.761 2.239 5 5 5h25.541c2.143 0 3.956-1.355 4.668-3.249.487 1.295 1.487 2.39 2.882 2.921 2.581.984 5.469-.313 6.452-2.893l4.494-11.801h30.005l4.448 11.787c.755 2.002 2.658 3.236 4.679 3.236.586 0 1.183-.104 1.765-.324 2.583-.975 3.887-3.859 2.912-6.443zm-17.238 42.058 11.262-29.571 11.16 29.571z"/><path d="m239.19 59.281c-.578-2.839-3.001-4.936-5.894-5.099-2.888-.157-5.537 1.647-6.43 4.403-.019.057-.036.114-.052.171l-13.459 47.214-13.945-47.268c-.018-.06-.036-.119-.056-.178-.923-2.747-3.59-4.518-6.477-4.335-2.89.194-5.292 2.316-5.85 5.218l-10.752 59.57c-.491 2.718 1.315 5.318 4.032 5.809 2.716.491 5.318-1.315 5.809-4.032l8.037-44.531 13.157 44.594c.017.059.036.118.056.177.875 2.605 3.303 4.35 6.049 4.35h.033c2.76-.014 5.186-1.787 6.038-4.412.019-.057.036-.114.053-.172l12.705-44.566 8.526 44.612c.519 2.712 3.134 4.49 5.85 3.973 2.712-.519 4.491-3.137 3.973-5.85z"/><path d="m432.367 115.294c-4.87.027-11.81.063-16.393.051v-56.172c0-2.761-2.239-5-5-5s-5 2.239-5 5v61.121c0 2.436 1.755 4.517 4.156 4.928.35.06.73.125 7.439.125 3.239 0 7.955-.015 14.853-.054 2.761-.016 4.987-2.267 4.972-5.028-.015-2.76-2.25-4.945-5.027-4.971z"/><path d="m476.681 115.345h-20.541v-20.307h18.657c2.761 0 5-2.239 5-5s-2.239-5-5-5h-18.657v-20.307h20.541c2.761 0 5-2.239 5-5s-2.239-5-5-5h-25.541c-2.761 0-5 2.239-5 5v60.614c0 2.761 2.239 5 5 5h25.541c2.761 0 5-2.239 5-5s-2.239-5-5-5z"/><path d="m387.916 85.636c2.859-3.336 4.598-7.659 4.598-12.387 0-10.519-8.557-19.076-19.076-19.076h-17.769c-2.761 0-5 2.239-5 5v28.168.045 32.959c0 1.33.53 2.605 1.472 3.543.938.933 2.206 1.457 3.528 1.457h.022c.001 0 16.345-.073 20.85-.073 11.836 0 21.466-9.629 21.466-21.466 0-7.655-4.042-14.369-10.091-18.17zm-14.478-21.463c5.004 0 9.076 4.072 9.076 9.076s-4.071 9.076-9.076 9.076c-1.31 0-3.779.007-6.47.017h-6.299v-18.169zm3.103 51.1c-2.895 0-10.667.03-15.872.051v-22.959c1.937-.008 4.193-.017 6.315-.024h9.557c6.322 0 11.466 5.144 11.466 11.466s-5.144 11.466-11.466 11.466z"/><path d="m69.102 54.173h-33.783c-2.761 0-5 2.239-5 5s2.239 5 5 5h11.823v56.173c0 2.761 2.239 5 5 5s5-2.239 5-5v-56.173h11.96c2.761 0 5-2.239 5-5s-2.239-5-5-5z"/><path d="m288.12 64.173c2.761 0 5-2.239 5-5s-2.239-5-5-5h-33.783c-2.761 0-5 2.239-5 5s2.239 5 5 5h11.823v56.173c0 2.761 2.239 5 5 5s5-2.239 5-5v-56.173z"/></g></g></svg>