<?xml version="1.0" encoding="iso-8859-1"?>
<!-- Generator: Adobe Illustrator 19.0.0, SVG Export Plug-In . SVG Version: 6.00 Build 0)  -->
<svg version="1.1" id="Capa_1" xmlns="http://www.w3.org/2000/svg" xmlns:xlink="http://www.w3.org/1999/xlink" x="0px" y="0px"
	 viewBox="0 0 512.001 512.001" style="enable-background:new 0 0 512.001 512.001;" xml:space="preserve">
<g>
	<g>
		<g>
			<path d="M492.245,377.007c-11.009-0.211-20.184,8.531-20.417,19.575c-0.004,0.193-0.671,19.863-10.122,39.103
				c-12.005,24.438-32.029,36.318-61.215,36.318c-14.747,0-25.734-4.3-33.591-13.146c-17.351-19.537-17.111-57.787-15.561-70.831
				c0.028-0.229,0.053-0.458,0.073-0.687c0.102-1.155,10.335-116.617,17.536-214.871c0.808-11.016-7.468-20.601-18.484-21.408
				c-11.016-0.813-20.601,7.468-21.408,18.484c-7.015,95.705-16.92,207.856-17.464,214.002c-0.306,2.724-1.77,17.432-0.048,35.585
				c2.644,27.873,11.164,50.128,25.323,66.145c15.455,17.485,37.456,26.727,63.623,26.727c24.553,0,45.887-6.207,63.411-18.448
				c14.084-9.838,25.424-23.375,33.706-40.234c13.463-27.407,14.187-54.746,14.211-55.896
				C512.052,386.381,503.288,377.24,492.245,377.007z"/>
			<path d="M469.756,77.424c18.535-12.323,32.598-29.638,40.669-50.073c4.058-10.273-0.982-21.89-11.255-25.948
				c-10.272-4.057-21.89,0.981-25.948,11.255c-10.24,25.927-36.38,43.347-65.046,43.347H146.826
				c-45.647,0-85.448,20.129-115.103,58.211C10.03,142.074,1.398,170.02,1.041,171.196c-3.207,10.57,2.752,21.768,13.322,24.976
				c1.942,0.589,3.902,0.87,5.831,0.87c8.569-0.001,16.488-5.543,19.106-14.171c0.07-0.227,7.252-22.973,24.728-45.025
				c22.001-27.764,49.859-41.841,82.799-41.841h36.378c-0.466,7.43-0.94,15.349-1.432,23.59
				c-3.966,66.409-9.398,157.362-24.761,232.27c-15.889,77.471-39.393,120.137-66.184,120.137c-11.046,0-20,8.954-20,20
				s8.954,20,20,20c28.422,0,52.323-16.671,71.039-49.55c13.988-24.572,25.217-58.115,34.33-102.551
				c15.937-77.706,21.467-170.307,25.506-237.922c0.546-9.141,1.069-17.898,1.582-25.974v-0.002h184.892
				C430.181,96.004,451.474,89.579,469.756,77.424z"/>
		</g>
	</g>
</g>
<g>
</g>
<g>
</g>
<g>
</g>
<g>
</g>
<g>
</g>
<g>
</g>
<g>
</g>
<g>
</g>
<g>
</g>
<g>
</g>
<g>
</g>
<g>
</g>
<g>
</g>
<g>
</g>
<g>
</g>
</svg>
