<svg id="Capa_1" enable-background="new 0 0 512 512" height="512" viewBox="0 0 512 512" width="512" xmlns="http://www.w3.org/2000/svg"><g><path d="m512 256c0 51-14.92 98.52-40.62 138.43-12.24 19-26.92 36.27-43.6 51.38-45.42 41.13-105.68 66.19-171.78 66.19-57.39 0-110.39-18.89-153.08-50.8-6.48-4.83-12.72-9.97-18.7-15.39-6.2-5.62-12.13-11.54-17.76-17.74-9.5-10.46-18.15-21.71-25.84-33.64-25.7-39.91-40.62-87.43-40.62-138.43 0-141.38 114.62-256 256-256s256 114.62 256 256z" fill="#ecc32e"/><g><path d="m290.976 11.794h-66.371c-23.802 0-43.17 19.368-43.17 43.183v49.876h152.712v-49.875c-.001-23.816-19.369-43.184-43.171-43.184zm20.463 70.352h-107.298v-27.168c0-11.287 9.176-20.476 20.463-20.476h66.371c11.287 0 20.463 9.19 20.463 20.476v27.168z" fill="#2f373b"/><g fill="#2f373b"><path d="m414.24 0h-30.633c-9.737 0-17.631 7.894-17.631 17.631v168.676c0 4.808 3.898 8.706 8.706 8.706h48.482c4.808 0 8.706-3.898 8.706-8.706v-168.676c.001-9.737-7.893-17.631-17.63-17.631z"/><path d="m128.398 0h-30.633c-9.737 0-17.631 7.894-17.631 17.631v168.676c0 4.808 3.898 8.706 8.706 8.706h48.482c4.808 0 8.706-3.898 8.706-8.706v-168.676c.001-9.737-7.893-17.631-17.63-17.631z"/></g><path d="m471.38 280.41v114.02c-12.24 19-26.92 36.27-43.6 51.38-45.42 41.13-105.68 66.19-171.78 66.19s-126.36-25.06-171.78-66.19c-16.68-15.11-31.36-32.38-43.6-51.38v-114.02c0-46.33 14.63-89.23 39.51-124.36 17.43-24.6 39.9-45.39 65.89-60.84 11.18-6.67 23.03-12.34 35.41-16.91 7.39-2.73 14.96-5.06 22.71-6.97 16.62-4.12 33.98-6.29 51.87-6.29 19.16 0 37.74 2.49 55.43 7.21 7.75 2.04 15.33 4.53 22.71 7.41 11.08 4.3 21.73 9.53 31.83 15.54 25.99 15.46 48.46 36.25 65.89 60.85 24.88 35.13 39.51 78.03 39.51 124.36z" fill="#90d8f9"/><path d="m268.82 65.42c-13.32.79-26.29 2.79-38.85 5.91-7.74 1.91-15.32 4.24-22.7 6.97-12.39 4.57-24.23 10.24-35.41 16.91-26 15.45-48.46 36.24-65.89 60.84-24.89 35.13-39.51 78.03-39.51 124.36v147.66c-9.5-10.46-18.15-21.71-25.84-33.64v-114.02c0-46.33 14.63-89.23 39.51-124.36 17.43-24.6 39.9-45.39 65.89-60.84 11.18-6.67 23.03-12.34 35.41-16.91 7.39-2.73 14.96-5.06 22.71-6.97 16.62-4.12 33.98-6.29 51.87-6.29 4.3 0 8.57.12 12.81.38z" fill="#61a2f9"/><path d="m427.78 286.9v158.91c-45.42 41.13-105.68 66.19-171.78 66.19s-126.36-25.06-171.78-66.19v-158.91c0-33.8 9.75-65.32 26.61-91.89 9.6-15.12 21.49-28.65 35.19-40.08 29.79-24.86 68.14-39.81 109.99-39.81 41.83 0 80.18 14.95 109.97 39.81 13.7 11.43 25.59 24.96 35.18 40.08 16.85 26.57 26.62 58.09 26.62 91.89z" fill="#f6f1f1"/><path d="m265.36 115.38c-38.19 2.06-73.08 16.56-100.64 39.55-13.7 11.43-25.59 24.96-35.19 40.08-16.86 26.57-26.61 58.09-26.61 91.89v174.3c-6.48-4.83-12.72-9.97-18.7-15.39v-158.91c0-33.8 9.75-65.32 26.61-91.89 9.6-15.12 21.49-28.65 35.19-40.08 29.79-24.86 68.14-39.81 109.99-39.81 3.14 0 6.25.1 9.35.26z" fill="#dfeaef"/><g><path d="m314.355 205.92-42.56-42.57c-8.72-8.72-22.86-8.72-31.58 0l-42.57 42.57c-8.72 8.72-8.72 22.86 0 31.58l42.57 42.57c8.72 8.72 22.86 8.72 31.58 0l42.56-42.57c8.72-8.72 8.72-22.86 0-31.58zm-67.5 36.2c0 2.52-1.03 4.81-2.68 6.47-1.66 1.65-3.95 2.68-6.47 2.68-5.06 0-9.15-4.1-9.15-9.15v-40.82c0-5.05 4.09-9.15 9.15-9.15 5.05 0 9.15 4.1 9.15 9.15zm36.6 0c0 2.52-1.03 4.81-2.68 6.47-1.66 1.65-3.95 2.68-6.47 2.68-5.05 0-9.15-4.1-9.15-9.15v-40.82c0-5.05 4.1-9.15 9.15-9.15s9.15 4.1 9.15 9.15z" fill="#90d8f9"/></g><path d="m369.715 367.1v92.91c0 15.77-12.79 28.55-28.56 28.55h-170.31c-15.77 0-28.56-12.78-28.56-28.55v-92.91c0-15.77 12.79-28.55 28.56-28.55h170.31c15.77 0 28.56 12.78 28.56 28.55z" fill="#90d8f9"/><path d="m205.685 488.56h-34.84c-15.77 0-28.56-12.78-28.56-28.55v-92.91c0-15.77 12.79-28.55 28.56-28.55h34.84c-15.77 0-28.56 12.78-28.56 28.55v92.91c0 15.77 12.79 28.55 28.56 28.55z" fill="#61a2f9"/><path d="m369.715 367.1v43.23c-3.29 1.84-7.09 2.89-11.13 2.89h-205.17c-4.04 0-7.84-1.05-11.13-2.89v-43.23c0-15.77 12.79-28.55 28.56-28.55h170.31c15.77 0 28.56 12.78 28.56 28.55z" fill="#61a2f9"/><path d="m358.584 400.93h-205.168c-12.643 0-22.892-10.249-22.892-22.892v-41.584c0-12.643 10.249-22.892 22.892-22.892h205.167c12.643 0 22.892 10.249 22.892 22.892v41.584c.001 12.643-10.248 22.892-22.891 22.892z" fill="#90d8f9"/><path d="m186.714 400.934h-33.3c-12.64 0-22.89-10.25-22.89-22.89v-41.59c0-12.64 10.25-22.89 22.89-22.89h33.3c-12.64 0-22.89 10.25-22.89 22.89v41.59c0 12.64 10.25 22.89 22.89 22.89z" fill="#61a2f9"/><path d="m262.504 464.786h-13.009c-7.297 0-13.213-5.916-13.213-13.213v-50.638h39.435v50.638c0 7.297-5.915 13.213-13.213 13.213z" fill="#2f373b"/></g></g></svg>