<svg id="Capa_1" enable-background="new 0 0 512.001 512.001" height="512" viewBox="0 0 512.001 512.001" width="512" xmlns="http://www.w3.org/2000/svg"><g><path d="m512.001 256.001c0 141.38-114.62 256-256 256-55.59 0-107.04-17.72-149.02-47.82-1.35-.97-2.7-1.95-4.03-2.95-8.26-6.17-16.13-12.83-23.59-19.93-2.48-2.37-4.92-4.79-7.31-7.26-44.6-46.08-72.05-108.86-72.05-178.04 0-113.4 73.74-209.58 175.88-243.21 17.04-5.61 34.87-9.48 53.28-11.4 8.82-.92 17.77-1.39 26.84-1.39 141.38 0 256 114.621 256 256z" fill="#f93d6e"/><g><path d="m281.161 80.332c-1.93 9.67-11.34 15.94-21.01 14.01s-15.94-11.34-14.01-21.01c2-10-.83-20.03-7.76-27.52s-16.71-11.08-26.84-9.86c-13.47 1.63-24.34 11.65-27.04 24.94l-81.55 400.34c-8.26-6.17-16.13-12.83-23.59-19.93-2.48-2.37-4.92-4.79-7.31-7.26l77.45-380.27c3.45-16.92 13.08-31.35 26.38-40.98 9.03-6.55 19.75-10.88 31.38-12.29 7.46-.9 14.83-.58 21.9.89 13.42 2.78 25.73 9.69 35.43 20.16 14.79 15.99 20.84 37.409 16.57 58.78z" fill="#e7a52e"/><path d="m473.78 97.384c-2.392 2.392-5.489 4.132-9.052 4.858l-403.833 82.256c-13.292 2.708-23.315 13.574-24.94 27.043-1.222 10.126 2.371 19.909 9.856 26.838 7.485 6.93 17.516 9.758 27.519 7.76 9.67-1.931 19.076 4.341 21.007 14.012s-4.343 19.077-14.011 21.007c-21.364 4.267-42.786-1.772-58.773-16.573-15.987-14.8-23.661-35.693-21.051-57.322 3.472-28.765 24.876-51.975 53.266-57.758l403.833-82.256c9.663-1.968 19.092 4.27 21.06 13.933 1.242 6.099-.786 12.106-4.881 16.202z" fill="#e7a52e"/><g fill="#f6f1f1"><path d="m303.549 374.91c-9.755 1.446-18.835-5.291-20.28-15.046l-4.671-31.526c-1.445-9.755 5.291-18.834 15.045-20.28 9.755-1.446 18.835 5.291 20.28 15.046l4.671 31.526c1.445 9.755-5.291 18.834-15.045 20.28z"/><path d="m374.91 303.548c1.446-9.755-5.291-18.835-15.046-20.28l-31.526-4.671c-9.755-1.445-18.834 5.291-20.28 15.045-1.446 9.755 5.291 18.835 15.046 20.28l31.526 4.671c9.755 1.446 18.835-5.29 20.28-15.045z"/></g><circle cx="178.165" cy="367.744" fill="#b9e4ef" r="98.038"/><circle cx="367.745" cy="178.165" fill="#b9e4ef" r="98.038"/><path d="m437.068 108.842c38.281 38.281 38.29 100.358 0 138.647-3.981 3.981-8.215 7.542-12.659 10.69 27.162-38.273 23.602-91.68-10.698-125.98-34.309-34.309-87.715-37.869-125.98-10.698 3.148-4.444 6.709-8.678 10.69-12.659 38.289-38.29 100.357-38.29 138.647 0z" fill="#fff"/><path d="m275.622 229.64c-12.282 0-23.829 4.783-32.514 13.468-8.684 8.684-13.467 20.231-13.467 32.513h-35.71c0-21.82 8.497-42.335 23.926-57.764 15.43-15.43 35.945-23.927 57.765-23.927z" fill="#e7a52e"/><path d="m247.488 298.421c38.281 38.281 38.29 100.358 0 138.647-3.981 3.981-8.215 7.542-12.659 10.69 27.162-38.273 23.602-91.68-10.698-125.98-34.309-34.309-87.715-37.869-125.98-10.698 3.148-4.444 6.709-8.678 10.69-12.659 38.29-38.289 100.357-38.29 138.647 0z" fill="#fff"/><g fill="#ecc32e"><path d="m260.114 449.693c-45.187 45.187-118.711 45.187-163.898 0s-45.187-118.711 0-163.898 118.711-45.187 163.898 0 45.187 118.711 0 163.898zm-138.646-138.646c-31.263 31.263-31.263 82.132 0 113.395s82.132 31.262 113.395 0 31.263-82.132 0-113.395-82.132-31.263-113.395 0z"/><path d="m449.693 260.114c-45.187 45.187-118.711 45.187-163.898 0s-45.187-118.711 0-163.898 118.711-45.187 163.898 0 45.187 118.71 0 163.898zm-138.646-138.646c-31.263 31.263-31.263 82.132 0 113.395s82.132 31.262 113.395 0 31.263-82.132 0-113.395c-31.263-31.264-82.132-31.263-113.395 0z"/><path d="m121.471 449.691-14.49 14.49c-9.74-6.98-18.96-14.63-27.62-22.88l16.86-16.86c6.97-6.97 18.27-6.97 25.25 0 6.97 6.971 6.97 18.28 0 25.25z"/><path d="m473.79 97.371-24.097 24.097c-6.973 6.973-18.279 6.973-25.251 0-6.973-6.973-6.973-18.279 0-25.251l24.097-24.097c6.973-6.973 18.279-6.973 25.251 0s6.973 18.278 0 25.251z"/></g><g fill="#e7a52e"><path d="m240.016 418.758c1.955-1.614 3.856-3.326 5.684-5.154 31.263-31.263 31.263-82.132 0-113.395s-82.132-31.263-113.395 0c-1.828 1.828-3.539 3.729-5.154 5.684 31.467-25.992 78.276-24.281 107.711 5.154 29.435 29.434 31.146 76.243 5.154 107.711z"/><path d="m107.054 438.856c-43.366-43.366-45.105-112.826-5.235-158.296-1.909 1.674-3.781 3.414-5.603 5.235-45.187 45.187-45.187 118.711 0 163.898s118.71 45.187 163.898 0c1.821-1.821 3.561-3.693 5.235-5.603-45.47 39.871-114.929 38.131-158.295-5.234z"/></g><g fill="#e7a52e"><path d="m429.596 229.178c1.955-1.614 3.856-3.326 5.684-5.154 31.263-31.263 31.263-82.132 0-113.395s-82.132-31.263-113.395 0c-1.828 1.828-3.539 3.729-5.154 5.684 31.467-25.992 78.276-24.281 107.711 5.154 29.434 29.435 31.145 76.244 5.154 107.711z"/><path d="m296.634 249.276c-43.366-43.366-45.106-112.826-5.235-158.295-1.909 1.674-3.781 3.414-5.603 5.235-45.187 45.187-45.187 118.711 0 163.898s118.71 45.187 163.898 0c1.821-1.821 3.561-3.693 5.235-5.603-45.47 39.87-114.93 38.131-158.295-5.235z"/></g></g></g></svg>