<svg id="Capa_1" enable-background="new 0 0 512 512" height="512" viewBox="0 0 512 512" width="512" xmlns="http://www.w3.org/2000/svg"><g><path d="m512 256c0 68.38-26.82 130.51-70.51 176.42-.75.79-1.51 1.57-2.28 2.35-7.88 8.1-16.31 15.66-25.22 22.66-2.73 2.15-5.51 4.24-8.33 6.28-2.74 1.98-5.53 3.91-8.36 5.79-1.3.86-2.62 1.71-3.94 2.55-4.6 2.94-9.31 5.73-14.11 8.36-5.41 2.99-10.95 5.78-16.59 8.37-7.9 3.63-16.03 6.87-24.34 9.69-12.02 4.09-24.44 7.3-37.19 9.56-2.77.49-5.55.94-8.34 1.34-2.77.4-5.56.76-8.36 1.06-9.33 1.04-18.82 1.57-28.43 1.57-9.6 0-19.08-.53-28.4-1.56-2.8-.31-5.59-.66-8.36-1.06-2.8-.4-5.59-.85-8.36-1.35-13.61-2.42-26.86-5.91-39.64-10.39-7.47-2.62-14.79-5.58-21.92-8.86-5.64-2.59-11.18-5.38-16.59-8.37-4.8-2.63-9.51-5.43-14.11-8.36-1.3-.83-2.59-1.67-3.88-2.52-2.83-1.88-5.62-3.81-8.37-5.79-2.83-2.05-5.62-4.15-8.36-6.3-9.05-7.1-17.6-14.8-25.58-23.03-.65-.66-1.29-1.32-1.92-1.98-43.69-45.92-70.51-108.04-70.51-176.43 0-141.38 114.62-256 256-256s256 114.62 256 256z" fill="#b9e4ef"/><path d="m441.49 169.15v263.27c-36.79 38.68-85.56 65.86-140.36 75.61-2.77.49-5.55.94-8.34 1.34-2.77.4-5.56.76-8.36 1.06-9.33 1.04-18.82 1.57-28.43 1.57-9.6 0-19.08-.53-28.4-1.56-2.8-.31-5.59-.66-8.36-1.06-2.8-.4-5.59-.85-8.36-1.35-54.81-9.74-103.58-36.93-140.37-75.6v-263.28z" fill="#f6f1f1"/><g><g><path d="m179.922 259.595v76.988h-73.548v-76.988c0-19.372 15.698-35.07 35.071-35.07h3.407c19.372 0 35.07 15.698 35.07 35.07z" fill="#4d4d4d"/><path d="m144.85 216.17h-3.4c-23.93 0-43.44 19.48-43.44 43.44v85.34h90.25v-85.34c0-23.96-19.48-43.44-43.41-43.44zm26.71 112.05h-56.82v-68.61c0-14.73 11.98-26.75 26.71-26.75h3.4c14.73 0 26.71 12.02 26.71 26.75z" fill="#dfeaef"/></g><g><path d="m405.657 259.595v76.988h-73.548v-76.988c0-19.372 15.698-35.07 35.071-35.07h3.407c19.371 0 35.07 15.698 35.07 35.07z" fill="#4d4d4d"/><path d="m370.59 216.17h-3.41c-23.93 0-43.44 19.48-43.44 43.44v85.34h90.25v-85.34c0-23.96-19.47-43.44-43.4-43.44zm26.71 112.05h-56.83v-68.61c0-14.73 11.98-26.75 26.71-26.75h3.41c14.73 0 26.71 12.02 26.71 26.75z" fill="#dfeaef"/></g><g><path d="m292.789 259.595v76.988h-73.548v-76.988c0-19.372 15.698-35.07 35.071-35.07h3.407c19.372 0 35.07 15.698 35.07 35.07z" fill="#4d4d4d"/><path d="m257.72 216.17h-3.4c-23.93 0-43.44 19.48-43.44 43.44v85.34h90.25v-85.34c0-23.96-19.48-43.44-43.41-43.44zm26.71 112.05h-56.83v-68.61c0-14.73 11.98-26.75 26.72-26.75h3.4c14.73 0 26.71 12.02 26.71 26.75z" fill="#dfeaef"/></g></g><g><g><path d="m179.92 403.42v76.99h-47.19c-4.8-2.63-9.51-5.43-14.11-8.36-1.3-.83-2.59-1.67-3.88-2.52-2.83-1.88-5.62-3.81-8.37-5.79v-60.32c0-19.37 15.7-35.07 35.07-35.07h3.41c19.37 0 35.07 15.7 35.07 35.07z" fill="#4d4d4d"/><path d="m144.85 360h-3.4c-23.93 0-43.44 19.47-43.44 43.44v54c5.4 4.24 10.99 8.28 16.73 12.09v-66.09c0-14.73 11.98-26.75 26.71-26.75h3.4c14.73 0 26.71 12.02 26.71 26.75v68.61h-52.94c9.79 6.24 20.05 11.84 30.7 16.73h38.94v-85.34c0-23.97-19.48-43.44-43.41-43.44z" fill="#dfeaef"/></g><g><path d="m405.66 403.42v60.29c-2.74 1.98-5.53 3.91-8.36 5.79-1.3.86-2.62 1.71-3.94 2.55-4.6 2.94-9.31 5.73-14.11 8.36h-47.14v-76.99c0-19.37 15.7-35.07 35.07-35.07h3.41c19.37 0 35.07 15.7 35.07 35.07z" fill="#4d4d4d"/><path d="m370.59 360h-3.41c-23.93 0-43.44 19.47-43.44 43.44v85.34h38.92c10.65-4.89 20.91-10.48 30.7-16.73h-52.89v-68.61c0-14.73 11.98-26.75 26.71-26.75h3.41c14.73 0 26.71 12.02 26.71 26.75v66.06c5.73-3.81 11.3-7.83 16.69-12.07v-53.99c0-23.97-19.47-43.44-43.4-43.44z" fill="#dfeaef"/></g><g><path d="m292.79 403.42v105.95c-12.01 1.73-24.3 2.63-36.79 2.63-12.48 0-24.76-.89-36.76-2.62v-105.96c0-19.37 15.7-35.07 35.07-35.07h3.41c19.37 0 35.07 15.7 35.07 35.07z" fill="#d9723e"/><path d="m257.72 360h-3.4c-23.93 0-43.44 19.47-43.44 43.44v104.59c2.77.5 5.56.95 8.36 1.35 2.77.4 5.56.75 8.36 1.06v-107c0-14.73 11.98-26.75 26.72-26.75h3.4c14.73 0 26.71 12.02 26.71 26.75v106.99c2.8-.3 5.59-.66 8.36-1.06 2.79-.4 5.57-.85 8.34-1.34v-104.59c0-23.97-19.48-43.44-43.41-43.44z" fill="#dfeaef"/></g></g><path d="m457.176 147.335-185.478-142.017c-9.259-7.091-22.114-7.091-31.372 0l-185.504 142.017c-9.756 7.473-12.026 18.989-8.787 28.668 3.265 9.743 12.103 17.624 24.473 17.624h370.982c12.383 0 21.221-7.881 24.486-17.624 3.226-9.679.956-21.195-8.8-28.668z" fill="#f6f1f1"/><path d="m272.935 28.21c-9.986-7.652-23.861-7.652-33.846 0l-193.054 147.793c3.265 9.743 12.103 17.624 24.473 17.624h28.248l140.333-107.43c9.986-7.639 23.861-7.639 33.846.013l140.307 107.418h28.248c12.383 0 21.221-7.881 24.486-17.624z" fill="#dfeaef"/><path d="m473.103 158.989-200.164-153.25c-9.991-7.651-23.863-7.651-33.854 0l-200.177 153.25c-2.444 1.872-4.453 3.978-6.053 6.24-14.993 21.198 12.555 46.763 33.171 30.979l173.06-132.492c9.991-7.638 23.863-7.638 33.854.014l173.049 132.49c20.611 15.78 48.138-9.756 33.178-30.97-1.602-2.27-3.614-4.384-6.064-6.261z" fill="#d9723e"/><path d="m286.872 198.944h-61.74c-4.045 0-7.691-2.437-9.239-6.173-1.547-3.736-.691-8.038 2.168-10.897l34.23-34.23-34.23-34.231c-2.859-2.86-3.715-7.161-2.168-10.897 1.548-3.737 5.194-6.173 9.239-6.173h61.74c5.522 0 10 4.477 10 10s-4.478 10-10 10h-37.599l24.23 24.231c3.905 3.905 3.905 10.237 0 14.142l-24.23 24.23h37.599c5.522 0 10 4.477 10 10s-4.478 9.998-10 9.998z" fill="#f93d6e"/><g fill="#80e29d"><path d="m172.34 488.51c0 3.15-.38 6.2-1.1 9.13-7.47-2.62-14.79-5.58-21.92-8.86-5.64-2.59-11.18-5.38-16.59-8.37-4.8-2.63-9.51-5.43-14.11-8.36-1.3-.83-2.59-1.67-3.88-2.52-2.83-1.88-5.62-3.81-8.37-5.79-2.83-2.05-5.62-4.15-8.36-6.3-9.05-7.1-17.6-14.8-25.58-23.03 1.97-.26 3.98-.39 6.02-.39 15.94 0 30.01 8.04 38.36 20.3 5.18-2.62 11.04-4.1 17.24-4.1 21.14 0 38.29 17.14 38.29 38.29z"/><path d="m439.21 434.77c-7.88 8.1-16.31 15.66-25.22 22.66-2.73 2.15-5.51 4.24-8.33 6.28-2.74 1.98-5.53 3.91-8.36 5.79-1.3.86-2.62 1.71-3.94 2.55-4.6 2.94-9.31 5.73-14.11 8.36-5.41 2.99-10.95 5.78-16.59 8.37-7.9 3.63-16.03 6.87-24.34 9.69-.85-3.18-1.31-6.52-1.31-9.96 0-21.15 17.14-38.29 38.29-38.29 6.2 0 12.05 1.48 17.23 4.1 8.35-12.26 22.42-20.3 38.37-20.3 2.83 0 5.61.26 8.31.75z"/></g><g fill="#dfeaef"><path d="m106.37 263.24h81.89v17.3h-81.89z"/><path d="m210.88 263.24h90.25v17.3h-90.25z"/><path d="m323.74 263.24h81.92v17.3h-81.92z"/><path d="m106.37 407.07h81.89v17.3h-81.89z"/><path d="m323.74 407.07h81.92v17.3h-81.92z"/></g></g></svg>