<?xml version="1.0" encoding="iso-8859-1"?>
<!-- Generator: Adobe Illustrator 19.0.0, SVG Export Plug-In . SVG Version: 6.00 Build 0)  -->
<svg version="1.1" id="Capa_1" xmlns="http://www.w3.org/2000/svg" xmlns:xlink="http://www.w3.org/1999/xlink" x="0px" y="0px"
	 viewBox="0 0 512 512" style="enable-background:new 0 0 512 512;" xml:space="preserve">
<g>
	<g>
		<g>
			<path d="M433,216.061c0-11.046-8.954-20-20-20H297c-11.046,0-20,8.954-20,20c0,11.046,8.954,20,20,20h116
				C424.046,236.061,433,227.107,433,216.061z"/>
			<path d="M297,276.061c-11.046,0-20,8.954-20,20c0,11.046,8.954,20,20,20h76c11.046,0,20-8.954,20-20c0-11.046-8.954-20-20-20H297
				z"/>
			<path d="M492,236.061c11.046,0,20-8.954,20-20v-100c0-44.112-35.888-80-80-80H80c-44.112,0-80,35.888-80,80v200
				c0,44.112,35.888,80,80,80h156v39.878h-70c-11.046,0-20,8.954-20,20c0,11.046,8.954,20,20,20h180c11.046,0,20-8.954,20-20
				c0-11.046-8.954-20-20-20h-70v-39.878h156c44.112,0,80-35.888,80-80c0-11.046-8.954-20-20-20c-11.046,0-20,8.954-20,20
				c0,22.056-17.944,40-40,40H80c-22.056,0-40-17.944-40-40v-200c0-22.056,17.944-40,40-40h352c22.056,0,40,17.944,40,40v100
				C472,227.107,480.954,236.061,492,236.061z"/>
			<path d="M215,196.061H99c-11.046,0-20,8.954-20,20c0,11.046,8.954,20,20,20h116c11.046,0,20-8.954,20-20
				C235,205.015,226.046,196.061,215,196.061z"/>
			<path d="M413,116.061H297c-11.046,0-20,8.954-20,20c0,11.046,8.954,20,20,20h116c11.046,0,20-8.954,20-20
				C433,125.015,424.046,116.061,413,116.061z"/>
			<path d="M215,116.061H99c-11.046,0-20,8.954-20,20c0,11.046,8.954,20,20,20h116c11.046,0,20-8.954,20-20
				C235,125.015,226.046,116.061,215,116.061z"/>
			<path d="M215,276.061H99c-11.046,0-20,8.954-20,20c0,11.046,8.954,20,20,20h116c11.046,0,20-8.954,20-20
				C235,285.015,226.046,276.061,215,276.061z"/>
		</g>
	</g>
</g>
<g>
</g>
<g>
</g>
<g>
</g>
<g>
</g>
<g>
</g>
<g>
</g>
<g>
</g>
<g>
</g>
<g>
</g>
<g>
</g>
<g>
</g>
<g>
</g>
<g>
</g>
<g>
</g>
<g>
</g>
</svg>
