<svg id="Capa_1" enable-background="new 0 0 512 512" height="512" viewBox="0 0 512 512" width="512" xmlns="http://www.w3.org/2000/svg"><g><circle cx="256" cy="256" fill="#90d8f9" r="256"/><path d="m14.225 22.93h483.551v43.755h-483.551z" fill="#d9723e"/><path d="m14.225 22.93h483.551v20h-483.551z" fill="#bd5423"/><path d="m404.072 398.587-159.253 95.437-159.252-95.437v-375.657h318.505z" fill="#dfeaef"/><path d="m105.567 387.256v-344.326h278.505v344.326l-139.253 83.452z" fill="#f6f1f1"/><path d="m327.745 288.58h-76.858l48.018-48.018c6.963-6.962 10.798-16.219 10.798-26.065s-3.834-19.103-10.797-26.065l-48.019-48.02h76.858c20.326 0 36.862-16.537 36.862-36.863s-16.536-36.863-36.862-36.863h-165.851c-14.963 0-28.332 8.933-34.059 22.758-5.723 13.822-2.586 29.59 7.992 40.17l84.882 84.882-84.882 84.882c-10.577 10.58-13.714 26.347-7.991 40.171 5.727 13.824 19.095 22.756 34.058 22.756h165.851c20.326 0 36.862-16.537 36.862-36.863s-16.536-36.862-36.862-36.862z" fill="#e41753"/><path d="m161.894 342.305c-6.845 0-12.961-4.086-15.581-10.411-2.617-6.321-1.182-13.536 3.657-18.376l99.023-99.022-99.024-99.024c-4.838-4.839-6.273-12.053-3.655-18.377 2.619-6.322 8.734-10.409 15.58-10.409h165.851c9.298 0 16.862 7.564 16.862 16.863s-7.564 16.863-16.862 16.863h-125.142l82.161 82.162c3.231 3.231 4.939 7.354 4.939 11.923s-1.708 8.691-4.939 11.922l-82.162 82.161h125.143c9.298 0 16.862 7.564 16.862 16.863s-7.564 16.863-16.862 16.863h-165.851z" fill="#f93d6e"/></g></svg>