<?xml version="1.0" encoding="iso-8859-1"?>
<!-- Generator: Adobe Illustrator 19.0.0, SVG Export Plug-In . SVG Version: 6.00 Build 0)  -->
<svg version="1.1" id="Capa_1" xmlns="http://www.w3.org/2000/svg" xmlns:xlink="http://www.w3.org/1999/xlink" x="0px" y="0px"
	 viewBox="0 0 512 512" style="enable-background:new 0 0 512 512;" xml:space="preserve">
<g>
	<g>
		<path d="M492,472h-46v-61c0-11.046-8.954-20-20-20H316V120h36v191c0,11.046,8.954,20,20,20c11.046,0,20-8.954,20-20V196.56
			c6.26,2.22,12.989,3.44,20,3.44c55.141,0,100-44.86,100-100S467.141,0,412,0H100C44.859,0,0,44.86,0,100s44.859,100,100,100
			c7.011,0,13.74-1.22,20-3.44V391H86c-11.046,0-20,8.954-20,20v61H20c-11.046,0-20,8.954-20,20c0,11.046,8.954,20,20,20h472
			c11.046,0,20-8.954,20-20C512,480.954,503.046,472,492,472z M100,160c-33.084,0-60-26.916-60-60s26.916-60,60-60h312
			c33.084,0,60,26.916,60,60s-26.916,60-60,60c-11.028,0-20-8.972-20-20s8.972-20,20-20c11.046,0,20-8.954,20-20s-8.954-20-20-20
			H100c-11.046,0-20,8.954-20,20s8.954,20,20,20c11.028,0,20,8.972,20,20S111.028,160,100,160z M276,120v271h-40V120H276z M196,120
			v271h-36V120H196z M406,472H106v-41h300V472z"/>
	</g>
</g>
<g>
</g>
<g>
</g>
<g>
</g>
<g>
</g>
<g>
</g>
<g>
</g>
<g>
</g>
<g>
</g>
<g>
</g>
<g>
</g>
<g>
</g>
<g>
</g>
<g>
</g>
<g>
</g>
<g>
</g>
</svg>
