<?xml version="1.0" encoding="iso-8859-1"?>
<!-- Generator: Adobe Illustrator 19.0.0, SVG Export Plug-In . SVG Version: 6.00 Build 0)  -->
<svg version="1.1" id="Capa_1" xmlns="http://www.w3.org/2000/svg" xmlns:xlink="http://www.w3.org/1999/xlink" x="0px" y="0px"
	 viewBox="0 0 512 512" style="enable-background:new 0 0 512 512;" xml:space="preserve">
<g>
	<g>
		<g>
			<path d="M491.998,219.998c11.046,0,20-8.954,20-20v-79.999C511.998,75.887,476.11,40,431.998,40H276V20c0-11.046-8.954-20-20-20
				c-11.046,0-20,8.954-20,20v20H80.002C35.89,40,0.003,75.887,0.003,119.999v179.998c0,44.112,35.888,79.999,79.999,79.999h33.82
				L68.67,484.032c-4.397,10.132,0.252,21.912,10.384,26.309c2.594,1.125,5.295,1.658,7.953,1.658
				c7.725,0,15.085-4.503,18.356-12.042l52.063-119.961h205.288l18.433,40.997H188.001c-11.046,0-20,8.954-20,20
				c0,11.046,8.954,20,20,20h211.131l17.626,39.204C420.09,507.608,427.378,512,435.01,512c2.741,0,5.527-0.567,8.189-1.764
				c10.074-4.529,14.569-16.368,10.04-26.442l-46.669-103.798h25.428c44.112,0,79.999-35.888,79.999-79.999c0-11.046-8.954-20-20-20
				s-20,8.954-20,20c0,22.056-17.944,40-40,40H80.002c-22.056,0-40-17.944-40-40V119.999c0-22.056,17.944-40,40-40h351.997
				c22.056,0,40,17.944,40,40v79.999C471.998,211.044,480.952,219.998,491.998,219.998z"/>
			<path d="M382.857,124.857l-98.905,98.906l-58.357-57.955c-7.776-7.724-20.321-7.748-28.127-0.058l-99.499,97.999
				c-7.87,7.751-7.966,20.414-0.215,28.283c3.914,3.974,9.08,5.966,14.25,5.966c5.067,0,10.138-1.914,14.033-5.751l85.406-84.119
				l58.465,58.061c7.817,7.764,20.443,7.743,28.235-0.049L411.141,153.14c7.81-7.811,7.81-20.474,0-28.284
				C403.331,117.046,390.667,117.046,382.857,124.857z"/>
		</g>
	</g>
</g>
<g>
</g>
<g>
</g>
<g>
</g>
<g>
</g>
<g>
</g>
<g>
</g>
<g>
</g>
<g>
</g>
<g>
</g>
<g>
</g>
<g>
</g>
<g>
</g>
<g>
</g>
<g>
</g>
<g>
</g>
</svg>
