<svg id="Capa_1" enable-background="new 0 0 512 512" height="512" viewBox="0 0 512 512" width="512" xmlns="http://www.w3.org/2000/svg"><g><path d="m512 256c0 32.9-6.21 64.35-17.52 93.25-14.05 35.92-35.98 67.88-63.67 93.77-45.76 42.78-107.23 68.98-174.81 68.98s-129.05-26.2-174.81-68.98c-27.69-25.89-49.62-57.85-63.67-93.77-11.31-28.9-17.52-60.35-17.52-93.25s6.21-64.35 17.52-93.25c10.44-26.69 25.24-51.2 43.52-72.66 46.95-55.13 116.87-90.09 194.96-90.09s148.01 34.96 194.96 90.09c18.28 21.46 33.08 45.97 43.52 72.66 11.31 28.9 17.52 60.35 17.52 93.25z" fill="#80e29d"/><path d="m349.522 119.931-5.414-19.253c67.078-18.864 91.56-43.731 91.648-55.844.062-8.456-13.277-13.334-19.016-15.039-29.695-8.823-93.267 4.954-127.67 35.294-15.69 13.836-22.384 28.501-19.896 43.588l-19.734 3.254c-3.632-22.023 5.497-43.408 26.401-61.842 36.854-32.5 106.729-51.311 146.595-39.466 29.146 8.66 33.385 25.243 33.318 34.358-.205 28.283-39.919 56.302-106.232 74.95z" fill="#2f373b"/><path d="m494.48 135.61v213.64c-14.05 35.92-35.98 67.88-63.67 93.77h-349.62c-27.69-25.89-49.62-57.85-63.67-93.77v-213.64c0-24.47 19.3-44.45 43.52-45.52.68-.03 1.36-.05 2.05-.05h385.82c.69 0 1.37.02 2.05.05 24.22 1.07 43.52 21.05 43.52 45.52z" fill="#ecc32e"/><path d="m245.883 138.689h-177.211c-10.773 0-19.507 8.733-19.507 19.507v216.676c0 10.773 8.733 19.507 19.507 19.507h177.211c10.773 0 19.507-8.733 19.507-19.507v-216.677c0-10.773-8.734-19.506-19.507-19.506z" fill="#f6f1f1"/><g><g><path d="m92.424 304.62c0 10.767-7.865 19.695-18.165 21.352-1.126.182-2.284.277-3.465.277-11.949 0-21.63-9.681-21.63-21.63s9.681-21.63 21.63-21.63c1.181 0 2.339.095 3.465.278 10.3 1.658 18.165 10.586 18.165 21.353z" fill="#ffcbbe"/><path d="m92.424 304.62c0 10.767-7.865 19.695-18.165 21.352-1.871-6.803-2.87-13.963-2.87-21.352s.999-14.549 2.87-21.352c10.3 1.657 18.165 10.585 18.165 21.352z" fill="#eaac9d"/><circle cx="70.795" cy="304.62" fill="#eaac9d" r="7.731"/><path d="m222.13 304.62c0 10.767 7.865 19.695 18.165 21.352 1.126.182 2.284.277 3.465.277 11.949 0 21.63-9.681 21.63-21.63s-9.681-21.63-21.63-21.63c-1.181 0-2.339.095-3.465.278-10.299 1.658-18.165 10.586-18.165 21.353z" fill="#ffcbbe"/><g fill="#eaac9d"><path d="m222.13 304.62c0 10.767 7.865 19.695 18.165 21.352 1.871-6.803 2.87-13.963 2.87-21.352s-.999-14.549-2.87-21.352c-10.299 1.657-18.165 10.585-18.165 21.352z"/><circle cx="243.76" cy="304.62" r="7.731"/></g></g><path d="m238.545 293.251c0 40.442-29.544 73.989-68.225 80.219-4.244.697-8.599 1.049-13.043 1.049-44.885 0-81.267-36.382-81.267-81.267v-82.737h162.535z" fill="#ffcbbe"/><path d="m171.591 373.256c-.42.074-.846.147-1.271.215-4.245.693-8.599 1.045-13.044 1.045-44.883 0-81.267-36.378-81.267-81.267v-82.738h28.656v82.738c.001 39.999 28.883 73.236 66.926 80.007z" fill="#eaac9d"/><path d="m113.519 173.874c10.667 0 19.315 8.647 19.315 19.314v15.488c0 12.559-10.181 22.739-22.739 22.739h-34.085v-20.033c0-20.715 16.793-37.508 37.509-37.508z" fill="#181e21"/><path d="m90.21 300.593h-14.2v-69.177l15.946-8.036 6.639 8.036z" fill="#181e21"/><path d="m224.345 300.593h14.2v-104.814l-23.134 31.112z" fill="#2f373b"/><path d="m259.309 158.501h-100.532c-14.328 0-25.943 11.615-25.943 25.943v25.253c0 11.995 9.724 21.718 21.718 21.718h45.505c32.724 0 59.253-26.528 59.253-59.253v-13.661z" fill="#2f373b"/><path d="m178.137 231.415h-23.581c-11.998 0-21.722-9.724-21.722-21.717v-25.252c0-14.331 11.615-25.946 25.945-25.946h23.581c-14.325 0-25.94 11.615-25.94 25.946v25.252c.001 11.994 9.724 21.717 21.717 21.717z" fill="#181e21"/><path d="m157.278 336.022c-6.805 0-13.61-1.705-19.813-5.115-1.75-.962-2.388-3.16-1.426-4.91s3.16-2.388 4.909-1.426c10.225 5.621 22.435 5.621 32.659 0 1.749-.962 3.947-.324 4.909 1.426s.323 3.948-1.426 4.91c-6.203 3.41-13.008 5.115-19.812 5.115z" fill="#df9380"/><path d="m166.496 311.733h-18.437c-2.196 0-3.977-1.78-3.977-3.977 0-2.196 1.78-3.977 3.977-3.977h18.437c2.196 0 3.977 1.78 3.977 3.977 0 2.197-1.781 3.977-3.977 3.977z" fill="#eaac9d"/><g><path d="m170.592 289.39c0 9.017 7.31 16.327 16.327 16.327s16.327-7.31 16.327-16.327" fill="#eaac9d"/><circle cx="186.918" cy="289.39" fill="#2f373b" r="11.708"/><circle cx="191.798" cy="287.324" fill="#fff" r="5.017"/><path d="m111.31 289.39c0 9.017 7.31 16.327 16.327 16.327s16.327-7.31 16.327-16.327" fill="#eaac9d"/><circle cx="127.636" cy="289.39" fill="#2f373b" r="11.708"/><path d="m130.374 300.773c-.877.215-1.797.326-2.737.326-6.467 0-11.709-5.243-11.709-11.709 0-6.467 5.243-11.709 11.709-11.709.94 0 1.86.11 2.737.326-5.148 1.229-8.967 5.863-8.967 11.384s3.819 10.153 8.967 11.382z" fill="#181e21"/><path d="m189.657 300.773c-.877.215-1.797.326-2.737.326-6.467 0-11.709-5.243-11.709-11.709 0-6.467 5.243-11.709 11.709-11.709.94 0 1.86.11 2.737.326-5.148 1.229-8.967 5.863-8.967 11.384s3.819 10.153 8.967 11.382z" fill="#181e21"/><circle cx="132.515" cy="287.324" fill="#fff" r="5.017"/></g></g><g fill="#2f373b"><path d="m453.523 162.695h-151.849c-6.629 0-12.003-5.374-12.003-12.003 0-6.629 5.374-12.003 12.003-12.003h151.849c6.629 0 12.003 5.374 12.003 12.003 0 6.629-5.374 12.003-12.003 12.003z"/><path d="m453.523 214.648h-151.849c-6.629 0-12.003-5.374-12.003-12.003 0-6.629 5.374-12.003 12.003-12.003h151.849c6.629 0 12.003 5.374 12.003 12.003 0 6.629-5.374 12.003-12.003 12.003z"/><path d="m391.956 266.601h-90.282c-6.629 0-12.003-5.374-12.003-12.003 0-6.629 5.374-12.003 12.003-12.003h90.282c6.629 0 12.003 5.374 12.003 12.003 0 6.629-5.374 12.003-12.003 12.003z"/><path d="m453.523 388.051h-151.849c-6.629 0-12.003-5.374-12.003-12.003 0-6.629 5.374-12.003 12.003-12.003h151.849c6.629 0 12.003 5.374 12.003 12.003 0 6.629-5.374 12.003-12.003 12.003z"/><path d="m289.071 65.09c-12.889 11.366-19.706 23.29-20.351 35.549-.249 4.734-3.623 8.712-8.301 9.483l-.166.027c-6.174 1.018-11.811-3.868-11.534-10.119.788-17.779 10.01-34.849 27.124-49.941"/></g></g></svg>