<?xml version="1.0" encoding="iso-8859-1"?>
<!-- Generator: Adobe Illustrator 19.0.0, SVG Export Plug-In . SVG Version: 6.00 Build 0)  -->
<svg version="1.1" id="Capa_1" xmlns="http://www.w3.org/2000/svg" xmlns:xlink="http://www.w3.org/1999/xlink" x="0px" y="0px"
	 viewBox="0 0 512 512" style="enable-background:new 0 0 512 512;" xml:space="preserve">
<g>
	<g>
		<path d="M437.02,74.98C388.667,26.629,324.38,0,256,0S123.333,26.629,74.98,74.98C26.629,123.333,0,187.62,0,256
			s26.629,132.667,74.98,181.02C123.333,485.371,187.62,512,256,512c46.812,0,92.616-12.757,132.462-36.893
			c9.447-5.723,12.467-18.021,6.744-27.468c-5.724-9.449-18.021-12.467-27.469-6.745c-27.898,16.899-59.275,27.175-91.737,30.176
			V276h71.863c2.117,27.55,8.618,54.315,19.418,79.803c3.23,7.624,10.634,12.202,18.424,12.202c2.602,0,5.248-0.511,7.794-1.59
			c10.171-4.31,14.922-16.048,10.612-26.218c-8.696-20.524-14.077-42.044-16.099-64.197h83.051
			c-3.33,35.495-15.498,69.683-35.689,99.885c-6.14,9.183-3.672,21.603,5.51,27.742c9.184,6.141,21.604,3.671,27.742-5.511
			C497.002,355.674,512,306.531,512,256C512,187.62,485.371,123.333,437.02,74.98z M40.935,276h83.037
			c-3.654,39.252-17.99,76.843-41.459,108.531C59.559,353.629,44.662,316.409,40.935,276z M236,471.066
			c-48.489-4.473-92.383-25.036-126.283-56.293c31.512-39.834,50.426-88.223,54.393-138.772H236V471.066z M236,236h-71.866
			c-2.087-27.154-8.433-53.554-18.958-78.718c-4.263-10.189-15.975-14.998-26.169-10.733c-10.19,4.262-14.995,15.979-10.733,26.168
			c8.47,20.249,13.723,41.462,15.715,63.282H40.935C50.453,132.827,132.828,50.453,236,40.934V236z M347.889,235.999H276V40.934
			c48.486,4.473,92.378,25.033,126.277,56.287C370.743,137.077,351.848,185.401,347.889,235.999z M388.024,236
			c3.646-39.286,17.986-76.824,41.469-108.523c22.952,30.901,37.845,68.118,41.573,108.523H388.024z"/>
	</g>
</g>
<g>
</g>
<g>
</g>
<g>
</g>
<g>
</g>
<g>
</g>
<g>
</g>
<g>
</g>
<g>
</g>
<g>
</g>
<g>
</g>
<g>
</g>
<g>
</g>
<g>
</g>
<g>
</g>
<g>
</g>
</svg>
