<svg id="Capa_1" enable-background="new 0 0 512 512" height="512" viewBox="0 0 512 512" width="512" xmlns="http://www.w3.org/2000/svg"><g><circle cx="256" cy="256" fill="#f93d6e" r="256"/><path d="m486.699 107.127v258.201h-459.409v-258.201c0-23.531 19.079-42.61 42.61-42.61h374.189c23.532 0 42.61 19.079 42.61 42.61z" fill="#2f373b"/><path d="m454.74 107.13v232.74h-395.49v-232.74c0-5.87 4.78-10.66 10.65-10.66h374.19c5.87 0 10.65 4.79 10.65 10.66z" fill="#80e29d"/><path d="m27.29 347.277h459.409v16.868h-459.409z" fill="#181e21"/><path d="m488.66 362.92c-12.4 26.95-29.34 51.37-49.85 72.29h-365.62c-20.46-20.87-37.37-45.22-49.76-72.09 1.52-.2 3.07-.3 4.65-.3h457.84c.92 0 1.84.03 2.74.1z" fill="#2f373b"/><g fill="#181e21"><path d="m442.92 346.794h-371.851c-10.353 0-18.746-8.393-18.746-18.746v-220.921c0-9.707 7.869-17.577 17.577-17.577h374.189c9.707 0 17.577 7.869 17.577 17.577v220.921c0 10.353-8.393 18.746-18.746 18.746zm-370.39-13.848h368.929c3.512 0 6.359-2.847 6.359-6.359v-219.46c0-2.059-1.669-3.728-3.728-3.728h-374.19c-2.059 0-3.728 1.669-3.728 3.728v219.46c-.001 3.512 2.846 6.359 6.358 6.359z"/><path d="m297.01 388.822h-80.02c-13.642 0-24.7-11.059-24.7-24.7v-1.303h129.421v1.303c0 13.641-11.059 24.7-24.701 24.7z"/><path d="m459.61 411.19c-6.44 8.44-13.39 16.46-20.8 24.02h-365.62c-7.42-7.56-14.37-15.59-20.8-24.02z"/></g><g><path d="m310.16 339.87h-179.54c6.75-24.92 29.52-43.25 56.58-43.25h66.38c27.05 0 49.83 18.33 56.58 43.25z" fill="#bc95e2"/><path d="m229.27 296.62c-27.06 0-49.83 18.33-56.58 43.25h-42.07c6.75-24.92 29.53-43.25 56.59-43.25z" fill="#9373b9"/><path d="m220.56 323.28-29.84 16.59h-7.51l-10.38-51.49 22.74-9.94z" fill="#f6f1f1"/><path d="m268.3 288.38-10.38 51.49h-7.51l-29.85-16.59 24.99-44.84z" fill="#f6f1f1"/><path d="m251.447 254.515v37.893c0 13.873-9.147 25.599-21.747 29.494-2.884.895-5.958 1.379-9.136 1.379-17.052 0-30.873-13.82-30.873-30.872v-37.893h61.756z" fill="#eaac9d"/><path d="m251.447 290.008v2.4c0 13.873-9.147 25.599-21.747 29.494-11.368-3.495-19.915-13.378-21.494-25.473 2.063.126 4.137.189 6.221.189 5.842 0 11.568-.463 17.147-1.379 6.873-1.104 13.515-2.873 19.873-5.231z" fill="#ffcbbe"/><g><path d="m135.31 192.095c0 14.155-10.34 25.892-23.88 28.071-1.48.24-3.002.365-4.555.365-15.708 0-28.436-12.727-28.436-28.436s12.727-28.436 28.436-28.436c1.553 0 3.075.125 4.555.365 13.54 2.179 23.88 13.916 23.88 28.071z" fill="#ffcbbe"/><path d="m135.31 192.095c0 14.155-10.34 25.892-23.88 28.071-2.46-8.943-3.773-18.356-3.773-28.071s1.313-19.127 3.773-28.071c13.54 2.179 23.88 13.916 23.88 28.071z" fill="#eaac9d"/><circle cx="106.875" cy="192.095" fill="#eaac9d" r="10.163"/><path d="m305.828 192.095c0 14.155 10.34 25.892 23.88 28.071 1.48.24 3.002.365 4.555.365 15.708 0 28.436-12.727 28.436-28.436s-12.727-28.436-28.436-28.436c-1.553 0-3.075.125-4.555.365-13.54 2.179-23.88 13.916-23.88 28.071z" fill="#ffcbbe"/><g fill="#eaac9d"><path d="m305.828 192.095c0 14.155 10.34 25.892 23.88 28.071 2.46-8.943 3.773-18.356 3.773-28.071s-1.313-19.127-3.773-28.071c-13.54 2.179-23.88 13.916-23.88 28.071z"/><circle cx="334.263" cy="192.095" r="10.163"/></g></g><path d="m327.407 177.149c0 53.166-38.841 97.27-89.691 105.459-5.579.916-11.305 1.379-17.147 1.379-59.008 0-106.838-47.83-106.838-106.838v-108.77h213.676z" fill="#ffcbbe"/><path d="m239.387 282.327c-.553.097-1.112.193-1.671.283-5.58.912-11.305 1.374-17.148 1.374-59.006 0-106.837-47.825-106.837-106.837v-108.77h37.673v108.771c0 52.583 37.969 96.277 87.983 105.179z" fill="#eaac9d"/><path d="m163.042 20.21c14.024 0 25.392 11.368 25.392 25.392v20.361c0 16.51-13.384 29.894-29.894 29.894h-44.809v-26.336c0-27.234 22.077-49.311 49.311-49.311z" fill="#e7a52e"/><path d="m132.398 186.801h-18.667v-90.944l20.964-10.564 8.727 10.564z" fill="#e7a52e"/><path d="m308.74 186.801h18.667v-137.794l-30.412 40.901z" fill="#ecc32e"/><path d="m354.705 0h-132.165c-18.836 0-34.106 15.27-34.106 34.106v33.199c0 15.769 12.783 28.552 28.552 28.552h59.823c43.021 0 77.896-34.875 77.896-77.896z" fill="#ecc32e"/><path d="m247.992 95.856h-31.001c-15.774 0-28.557-12.783-28.557-28.55v-33.197c0-18.84 15.27-34.109 34.109-34.109h31.001c-18.833 0-34.102 15.269-34.102 34.109v33.197c.001 15.767 12.784 28.55 28.55 28.55z" fill="#e7a52e"/><path d="m220.569 233.377c-8.946 0-17.892-2.242-26.047-6.725-2.3-1.265-3.14-4.154-1.875-6.454s4.155-3.139 6.454-1.875c13.443 7.39 29.494 7.39 42.935 0 2.299-1.265 5.189-.425 6.454 1.875s.425 5.19-1.875 6.454c-8.154 4.484-17.1 6.725-26.046 6.725z" fill="#df9380"/><g fill="#f6f1f1"><path d="m196.17 145.788h-53.647c-6.062 0-10.976 4.914-10.976 10.976v28.147c0 6.062 4.914 10.976 10.976 10.976h53.647c6.062 0 10.976-4.914 10.976-10.976v-28.147c0-6.062-4.914-10.976-10.976-10.976z"/><path d="m298.614 145.788h-53.647c-6.062 0-10.976 4.914-10.976 10.976v28.147c0 6.062 4.914 10.976 10.976 10.976h53.647c6.062 0 10.976-4.914 10.976-10.976v-28.147c0-6.062-4.914-10.976-10.976-10.976z"/></g><path d="m232.688 201.446h-24.238c-2.887 0-5.228-2.341-5.228-5.228 0-2.887 2.341-5.228 5.228-5.228h24.239c2.887 0 5.228 2.341 5.228 5.228-.001 2.887-2.341 5.228-5.229 5.228z" fill="#eaac9d"/><g><path d="m238.073 172.072c0 11.854 9.61 21.464 21.464 21.464s21.464-9.61 21.464-21.464" fill="#dfeaef"/><circle cx="259.537" cy="172.072" fill="#2f373b" r="15.392"/><circle cx="265.951" cy="169.356" fill="#fff" r="6.595"/><path d="m160.137 172.072c0 11.854 9.61 21.464 21.464 21.464s21.464-9.61 21.464-21.464" fill="#dfeaef"/><circle cx="181.601" cy="172.072" fill="#2f373b" r="15.392"/><path d="m185.201 187.038c-1.153.283-2.362.428-3.598.428-8.501 0-15.394-6.892-15.394-15.394 0-8.501 6.892-15.394 15.394-15.394 1.236 0 2.445.145 3.598.428-6.768 1.616-11.789 7.707-11.789 14.965s5.021 13.351 11.789 14.967z" fill="#181e21"/><path d="m263.136 187.038c-1.153.283-2.362.428-3.598.428-8.501 0-15.394-6.892-15.394-15.394 0-8.501 6.892-15.394 15.394-15.394 1.236 0 2.445.145 3.598.428-6.768 1.616-11.789 7.707-11.789 14.965s5.021 13.351 11.789 14.967z" fill="#181e21"/><circle cx="188.016" cy="169.356" fill="#fff" r="6.595"/></g><path d="m332.625 149.858h-17.518c-2.707-6.441-9.08-10.976-16.493-10.976h-53.647c-9.86 0-17.882 8.022-17.882 17.882v4.876h-13.034v-4.876c0-9.86-8.022-17.882-17.882-17.882h-53.647c-7.413 0-13.786 4.535-16.493 10.976h-17.518v13.812h16.129v21.241c0 9.86 8.022 17.882 17.882 17.882h53.647c9.86 0 17.882-8.022 17.882-17.882v-9.459h13.034v9.459c0 9.86 8.022 17.882 17.882 17.882h53.647c9.86 0 17.882-8.022 17.882-17.882v-21.241h16.129zm-132.385 35.053c0 2.244-1.826 4.069-4.069 4.069h-53.647c-2.244 0-4.069-1.826-4.069-4.069v-28.147c0-2.244 1.826-4.069 4.069-4.069h53.647c2.244 0 4.069 1.825 4.069 4.069zm102.444 0c0 2.244-1.826 4.069-4.069 4.069h-53.647c-2.244 0-4.07-1.826-4.07-4.069v-28.147c0-2.244 1.826-4.069 4.07-4.069h53.647c2.244 0 4.069 1.825 4.069 4.069z" fill="#181e21"/><g fill="#e7a52e"><path d="m220.569 209.43s-16.361-12.347-32.824-6.174c-9.11 3.416-15.365 11.559-21.587 18.151-3.987 4.224-.914 11.155 4.892 10.996 16.781-.457 39.004-4.809 49.519-22.973z"/><path d="m220.569 209.43s16.361-12.347 32.824-6.174c9.11 3.416 15.365 11.559 21.587 18.151 3.987 4.224.914 11.155-4.892 10.996-16.781-.457-39.004-4.809-49.519-22.973z"/></g></g><path d="m95.74 332.95v13.84h248.69v-13.84z" fill="#181e21"/><path d="m465.416 4.004h-115.222c-13.073 0-23.671 10.598-23.671 23.671v98.154c0 13.073 10.598 23.671 23.671 23.671h3.822l15.531 22.972c3.249 4.806 10.327 4.806 13.576 0l15.531-22.972h66.761c13.073 0 23.671-10.598 23.671-23.671v-98.155c.001-13.072-10.597-23.67-23.67-23.67z" fill="#f6f1f1"/><g fill="#2f373b"><path d="m358.435 48.011h98.741c5.676 0 10.278-4.602 10.278-10.278 0-5.676-4.602-10.278-10.278-10.278h-98.741c-5.676 0-10.278 4.602-10.278 10.278 0 5.677 4.602 10.278 10.278 10.278z"/><path d="m358.435 84.297h98.741c5.676 0 10.278-4.602 10.278-10.278 0-5.676-4.602-10.278-10.278-10.278h-98.741c-5.676 0-10.278 4.602-10.278 10.278 0 5.676 4.602 10.278 10.278 10.278z"/><path d="m391.162 120.582h66.013c5.676 0 10.278-4.602 10.278-10.278 0-5.676-4.602-10.278-10.278-10.278h-66.013c-5.676 0-10.278 4.602-10.278 10.278.001 5.677 4.602 10.278 10.278 10.278z"/></g></g></svg>