<?xml version="1.0" encoding="iso-8859-1"?>
<!-- Generator: Adobe Illustrator 19.0.0, SVG Export Plug-In . SVG Version: 6.00 Build 0)  -->
<svg version="1.1" id="Capa_1" xmlns="http://www.w3.org/2000/svg" xmlns:xlink="http://www.w3.org/1999/xlink" x="0px" y="0px"
	 viewBox="0 0 512.001 512.001" style="enable-background:new 0 0 512.001 512.001;" xml:space="preserve">
<g>
	<g>
		<path d="M426.96,114.177l79.258-80.11c7.769-7.852,7.7-20.515-0.151-28.284c-7.853-7.769-20.517-7.701-28.284,0.151L400.706,83.84
			c-13.415-33.894-37.191-61.068-71.025-81.058c-6.156-3.636-13.783-3.71-20.008-0.196c-23.4,13.214-41.701,34.551-52.104,59.24
			c-25.469,7.252-48.719,20.884-67.534,39.668L168.8,122.695c-18.867,18.835-37.695,23.958-61.531,30.442
			c-23.477,6.387-50.084,13.625-81.096,34.813c-14.812,10.12-24.257,26.157-25.914,44.001c-1.655,17.822,4.664,35.299,17.337,47.951
			L129.63,391.751c-0.039,0.038-0.082,0.07-0.12,0.109C118.219,403.151,112,418.179,112,434.177s6.219,31.026,17.509,42.317
			C140.8,487.782,155.828,494,171.826,494c15.997,0,31.025-6.218,42.316-17.509c0.063-0.063,0.115-0.132,0.176-0.195l18.181,18.151
			C243.835,505.764,259.032,512,274.883,512c1.863,0,3.737-0.086,5.612-0.26c17.846-1.658,33.889-11.083,44.017-25.858
			c6.245-9.111,3.923-21.559-5.188-27.804c-9.109-6.246-21.56-3.923-27.804,5.188c-3.387,4.94-8.753,8.091-14.725,8.646
			c-3.504,0.327-10.244,0.009-16.034-5.772L45.856,251.592c-5.772-5.763-6.093-12.463-5.77-15.944
			c0.325-3.494,1.88-10.046,8.65-14.672c25.449-17.387,47.604-23.415,69.031-29.243c26.013-7.077,52.91-14.395,79.291-40.732
			l21.237-21.201c8.764-8.75,18.827-15.987,29.77-21.508c0.514,6.85,4.514,13.014,10.68,16.232
			c12.51,6.529,27.736,11.778,44.023,15.516c-12.727,5.266-27.071,11.97-42.435,20.452c-9.67,5.338-13.182,17.505-7.843,27.175
			c3.646,6.606,10.479,10.338,17.526,10.338c3.269,0,6.585-0.803,9.648-2.495c19.138-10.565,36.34-18.015,50.234-23.188
			c-7.948,16.162-15.865,36.985-20.557,61.99c-2.037,10.856,5.112,21.309,15.969,23.345c1.246,0.234,2.487,0.347,3.711,0.347
			c9.435,0,17.831-6.705,19.635-16.315c3.655-19.479,9.668-35.89,15.757-48.804c3.719,22.038,12.252,43.414,25.587,63.992
			c3.024,4.667,7.805,7.797,13.136,8.786c-5.467,10.646-12.548,20.417-21.087,28.956l-21.212,21.213
			c-22.433,22.432-30.53,45.205-36.36,64.79c-3.151,10.586,2.877,21.723,13.463,24.875c1.904,0.566,3.824,0.836,5.714,0.836
			c8.619,0,16.576-5.617,19.161-14.3c5.801-19.488,11.965-33.576,26.307-47.917l21.212-21.213
			c18.765-18.764,32.332-41.901,39.637-67.406c25.24-11.333,46.859-31.01,59.758-55.717c3.513-6.73,2.913-14.868-1.548-21.011
			C490.437,154.34,458.821,129.729,426.96,114.177z M157.793,420.143c0.047-0.047,0.086-0.099,0.132-0.146l28.103,28.056
			c-0.055,0.054-0.116,0.099-0.171,0.154c-3.735,3.736-8.719,5.793-14.031,5.793c-5.313,0-10.297-2.057-14.033-5.793
			c-3.735-3.735-5.793-8.719-5.793-14.032S154.058,423.879,157.793,420.143z M289.272,94.342c3.61-19.796,14.625-38.1,30.406-50.46
			c22.986,16.151,38.41,36.831,46.699,62.659C339.487,107.516,310.01,102.11,289.272,94.342z M417.235,224.443
			c-13.264-24.641-17.692-50.059-13.387-76.993c24.497,10.88,48.458,28.663,63.538,44.746
			C455.191,208.513,437.009,220.218,417.235,224.443z"/>
	</g>
</g>
<g>
</g>
<g>
</g>
<g>
</g>
<g>
</g>
<g>
</g>
<g>
</g>
<g>
</g>
<g>
</g>
<g>
</g>
<g>
</g>
<g>
</g>
<g>
</g>
<g>
</g>
<g>
</g>
<g>
</g>
</svg>
