<svg id="Capa_1" enable-background="new 0 0 512 512" height="512" viewBox="0 0 512 512" width="512" xmlns="http://www.w3.org/2000/svg"><g><path d="m512 256c0 39.45-8.93 76.82-24.87 110.19-17.99 37.69-44.94 70.28-78.08 95.03-8.75 6.53-17.92 12.521-27.48 17.91-16.04 9.04-33.15 16.41-51.1 21.86-8.91 2.71-18.02 4.94-27.32 6.67-8.45 1.58-17.05 2.74-25.77 3.46-7.05.58-14.17.88-21.38.88-1.47 0-2.94-.01-4.4-.04-9.23-.15-18.34-.8-27.31-1.91-33.08-4.09-64.2-14.48-92.13-29.96-5.22-2.89-10.33-5.96-15.32-9.2-6.98-4.52-13.73-9.38-20.21-14.55-1.4-1.1-2.78-2.23-4.15-3.37-10.35-8.59-20-17.99-28.87-28.09 0 0-.01 0-.01-.01-5.74-6.54-11.16-13.37-16.22-20.47-12.14-17.03-22.24-35.62-29.96-55.4-.01-.01-.01-.02-.01-.02-11.24-28.82-17.41-60.18-17.41-92.98 0-45.98 12.13-89.13 33.36-126.43 9.96-17.51 21.93-33.74 35.61-48.36 9.05-9.69 18.85-18.67 29.31-26.87 43.47-34.04 98.23-54.34 157.72-54.34 141.38 0 256 114.62 256 256z" fill="#bc95e2"/><g><path d="m487.41 349.23c0 5.68-.09 11.34-.28 16.96-22.74 47.63-59.78 87.12-105.56 112.94-10.88-40.34-16.84-84.13-16.84-129.9 0-30.25 2.61-59.63 7.52-87.73l60.13-22.16 47.52 22.16c4.91 28.1 7.51 57.48 7.51 87.73z" fill="#d9723e"/><path d="m409.05 461.22c-8.75 6.53-17.92 12.521-27.48 17.91-10.88-40.34-16.84-84.13-16.84-129.9 0-30.25 2.6-59.63 7.51-87.73h35.12c-1.72 28.1-2.62 57.48-2.62 87.74 0 39.07 1.51 76.7 4.31 111.98z" fill="#bd5423"/><path d="m458.464 185.753-44.56 27.486-14.816-20.078-5.461-7.408c-12.692-12.692-22.347-31.29-26.574-52.602-7.219-36.318 1.324-80.499 37.508-116.694 7.341-7.33 19.877-2.214 20.178 8.164.523 17.886 4.46 39.165 19.599 44.015 8.109 2.603 16.585 9.655 23.292 19.61 0 .011.011.022.022.033 15.739 23.382 21.779 62.681-9.188 97.474z" fill="#2f373b"/><path d="m458.467 185.752h-64.835l-21.389 75.755h107.612z" fill="#f6f1f1"/><path d="m412.814 185.753-13.726 7.408-5.461-7.408c-12.692-12.692-22.347-31.29-26.574-52.602-7.219-36.318 1.324-80.499 37.508-116.694 7.341-7.33 19.877-2.214 20.178 8.164-52.213 61.434-19.533 140.777-11.925 161.132z" fill="#181e21"/><path d="m407.353 261.503 5.461-75.751h-19.182l-21.389 75.755z" fill="#dfeaef"/><path d="m426.073 113.129c-15.439-7.62-21.924-1.09-29.81 6.474-6.663 6.407-14.327 13.548-29.21 13.548-7.219-36.318 1.324-80.499 37.508-116.694 7.186-7.175 19.354-2.425 20.144 7.519.022.234.022.445.033.645.523 17.886 4.46 39.165 19.599 44.015 8.109 2.603 16.585 9.655 23.292 19.61 0 .011.011.022.022.033 9.311 19.511-13.113 38.888-41.578 24.85z" fill="#ecc32e"/><path d="m396.263 119.603c-6.663 6.407-14.327 13.548-29.21 13.548-7.219-36.318 1.324-80.499 37.508-116.694 7.186-7.175 19.354-2.425 20.144 7.519.022.234.022.445.033.645-25.817 30.378-30.878 65.149-28.475 94.982z" fill="#e7a52e"/></g><g><path d="m309.094 100.67v400.32c-8.91 2.71-18.02 4.94-27.32 6.67-15.28 2.85-31.04 4.34-47.15 4.34-1.47 0-2.94-.01-4.4-.04-9.23-.15-18.34-.8-27.31-1.91v-409.38z" fill="#ff719d"/><path d="m256.004 100.67v410.45c-7.05.58-14.17.88-21.38.88-1.47 0-2.94-.01-4.4-.04-9.23-.15-18.34-.8-27.31-1.91v-409.38z" fill="#e41753"/><path d="m281.774 100.67v406.99c-15.28 2.85-31.04 4.34-47.15 4.34-1.47 0-2.94-.01-4.4-.04v-411.29z" fill="#f93d6e"/><path d="m309.089 100.668-18.395-34.556-34.694-65.207-34.694 65.207-18.395 34.556z" fill="#f6f1f1"/><path d="m256 .905-34.694 65.207-18.395 34.556h35.777l5.99-34.556z" fill="#dfeaef"/><path d="m290.694 66.112-34.694-65.207-34.694 65.207c10.336 5.524 22.152 8.65 34.694 8.65 12.543-.001 24.358-3.127 34.694-8.65z" fill="#2f373b"/><path d="m256 .905-34.694 65.207c6.785 3.633 14.201 6.223 22.055 7.567l1.316-7.567z" fill="#181e21"/></g><g><path d="m77.942 8.782c-9.002 0-16.3 7.298-16.3 16.3v43.806h32.6v-43.806c0-9.002-7.298-16.3-16.3-16.3z" fill="#ecc32e"/><path d="m116.84 404.4v66.49c-6.98-4.52-13.73-9.38-20.21-14.55-1.4-1.1-2.78-2.23-4.15-3.37-10.35-8.59-20-17.99-28.87-28.09 0 0-.01 0-.01-.01-5.74-6.54-11.16-13.37-16.22-20.47z" fill="#ecc32e"/><path d="m84.547 10.182c-2.017-.891-4.253-1.391-6.598-1.391-9.006 0-16.307 7.286-16.307 16.292v43.809h13.18v-43.81c0-6.66 4.002-12.382 9.725-14.9z" fill="#e7a52e"/><path d="m141.59 285.19c0 49.47-5.57 97.34-15.98 142.81-3.39 14.77-14.58 24.97-27.25 24.97h-5.88c-33.11-27.51-59.16-63.21-75.07-103.99-2.06-20.92-3.12-42.21-3.12-63.79 0-54.14 6.67-106.39 19.07-155.62 6.62-26.34 14.89-51.81 24.66-76.25 1.43-3.57 4.44-5.82 7.72-5.82h24.41c3.28 0 6.3 2.25 7.73 5.82.14.34.27.68.4 1.02 27.76 69.85 43.31 148.14 43.31 230.85z" fill="#80e29d"/><path d="m74.32 47.5c-.97 0-1.86 2.25-2.28 5.82-1.09 9.15-2.11 18.45-3.07 27.89-6.37 62.83-9.89 131.73-9.89 203.98 0 48.34 1.58 95.15 4.52 139.68-19.52-22.21-35.24-47.84-46.18-75.87-.01-.01-.01-.02-.01-.02-2.06-20.92-3.12-42.21-3.12-63.79 0-54.14 6.67-106.39 19.07-155.62 6.63-26.34 14.89-51.81 24.66-76.25 1.43-3.57 4.44-5.82 7.72-5.82z" fill="#66b49d"/><path d="m208.9 310.37c-.2 2.04-.69 3.99-1.39 5.84 0 .03-.02.06-.02.09h-.01c-3.36 8.86-11.9 15.18-21.94 15.18-1.87 0-3.7-.22-5.45-.64-10.34-2.47-18.02-11.76-18.02-22.84 0-11.51 8.31-21.08 19.25-23.06-4.03-6.48-10.15-11.07-15.9-12.87-13.32-4.16-19.89 6.5-23.05 16.18-7.14 21.83 8.42 48.34 23.46 74 15.68 26.72 31.89 54.36 23.32 80.04-8.49 25.48-33.35 34.91-56.99 37.8-12.52-6.93-24.41-14.88-35.53-23.75 19.74 1.88 61.64 2.8 69.79-21.62 5.13-15.37-7.69-37.21-21.26-60.35-16.9-28.82-36.06-61.48-25.57-93.56 5.59-17.06 15.04-25.17 22-28.97 5.6-3.07 11.85-4.62 18.28-4.62 4.19 0 8.47.66 12.71 1.97 4.91 1.54 9.6 3.91 13.92 6.98.01.01.03.01.03.01 6.39 4.52 11.91 10.56 15.98 17.59 6.48 11.24 8.67 24.05 6.39 36.6z" fill="#ecc32e"/><g fill="#e7a52e"><path d="m186.496 256.167c-4.315-3.064-9.006-5.441-13.915-6.973-4.237-1.313-8.521-1.97-12.711-1.97-6.426 0-12.68 1.548-18.277 4.612-6.958 3.799-16.417 11.914-21.999 28.972-10.491 32.083 8.662 64.745 25.563 93.56 13.571 23.14 26.392 44.982 21.264 60.351-5.894 17.699-29.503 22.077-49.579 22.436v7.348c33.146-2.517 60.836-13.462 60.836-30.895 0-41.777-50.423-79.473-50.423-136.525 0-56.285 57.677-41.322 59.241-40.916z"/><path d="m188.888 288.938c-3.049-7.645-4.065-12.227-23.468-16.87 5.754 1.798 11.867 6.395 15.901 12.868-10.945 1.986-19.247 11.554-19.247 23.062 0 11.085 7.677 20.373 18.012 22.843 17.683-9.054 11.866-34.257 8.802-41.903z"/></g></g></g></svg>