<svg id="Capa_1" enable-background="new 0 0 512 512" height="512" viewBox="0 0 512 512" width="512" xmlns="http://www.w3.org/2000/svg"><g><circle cx="256" cy="256" fill="#80e29d" r="256"/><path d="m329.11 479.59h-146.22l6.31-27.95 5.7-25.26 13.21-58.53h95.78l13.21 58.53 5.7 25.26z" fill="#2f373b"/><path d="m223.01 367.85-9.1 58.53-8.28 53.21h-22.74l12.01-53.21 13.21-58.53z" fill="#181e21"/><path d="m317.1 426.38c-40.73.92-81.47.92-122.2 0l13.21-58.53h95.78z" fill="#181e21"/><path d="m488.37 363.53c-4.45 9.63-9.5 18.94-15.08 27.88-5.17 3.67-11.36 5.98-18.03 6.46-126.37 9.2-252.75 9.65-379.12 1.34h-.01c-6.46-.42-12.93-.87-19.39-1.34-6.67-.48-12.86-2.79-18.03-6.46-5.58-8.94-10.63-18.25-15.08-27.88-7.85-66.24-10.15-132.48-6.91-198.72 1.39-28.64 3.83-57.29 7.3-85.94 2.04-16.83 15.82-29.76 32.72-30.99 7.77-.57 15.53-1.1 23.3-1.59 10.6-.69 21.19-1.3 31.79-1.85 96.11-5.07 192.23-5.07 288.34 0 18.37.95 36.73 2.1 55.09 3.44 16.9 1.23 30.68 14.16 32.72 30.99 3.47 28.65 5.91 57.3 7.3 85.94 3.24 66.24.94 132.48-6.91 198.72z" fill="#2f373b"/><path d="m256 368.045c-62.347 0-125.572-2.3-187.919-6.835-2.537-.184-4.59-2.061-4.881-4.463-10.758-88.831-10.758-178.913 0-267.743.291-2.401 2.344-4.279 4.881-4.463 62.348-4.535 125.573-6.834 187.919-6.834s125.571 2.3 187.918 6.834c2.537.184 4.591 2.062 4.881 4.463 10.758 88.83 10.758 178.912 0 267.742-.291 2.401-2.344 4.279-4.881 4.463-62.346 4.537-125.57 6.836-187.918 6.836z" fill="#f6f1f1"/><path d="m329.11 479.59h-146.22l6.31-27.95h133.6z" fill="#181e21"/><path d="m380.23 479.88c-36.79 20.46-79.15 32.12-124.23 32.12s-87.44-11.66-124.23-32.12c3.01-10.54 12.71-18.25 24.21-18.25h200.04c6.96 0 13.25 2.82 17.81 7.37 2.98 2.98 5.21 6.71 6.4 10.88z" fill="#2f373b"/><path d="m202.04 504.62c.79.79 1.63 1.53 2.52 2.2-25.9-5.28-50.38-14.48-72.79-26.94 3.01-10.54 12.71-18.26 24.21-18.26h63.87c-13.91 0-25.19 11.28-25.19 25.19 0 6.96 2.82 13.25 7.38 17.81z" fill="#181e21"/><path d="m76.13 399.21c-6.46-.42-12.93-.87-19.39-1.34-6.67-.48-12.86-2.79-18.03-6.46-5.58-8.94-10.63-18.25-15.08-27.88-7.85-66.24-10.15-132.48-6.91-198.72 1.39-28.64 3.83-57.29 7.3-85.94 2.04-16.83 15.82-29.76 32.72-30.99 7.77-.57 15.53-1.1 23.3-1.59-23.3 1.59-44.1 27.171-44.1 63.331l4.395 233.1c-.001 25.41 13.295 51.079 35.795 56.489z" fill="#181e21"/><g><path d="m228.723 214.281-42.415-112.392c-.052-.138-.106-.276-.163-.413-2.724-6.618-9.104-10.892-16.26-10.892-.006 0-.014 0-.02 0-7.164.008-13.544 4.298-16.255 10.928-.046.112-.091.225-.134.339l-42.804 112.387c-2.949 7.742.937 16.408 8.679 19.357 1.757.669 3.561.986 5.336.986 6.044 0 11.741-3.681 14.021-9.665l6.981-18.329h48.067l6.901 18.286c2.925 7.751 11.579 11.663 19.33 8.738 7.749-2.925 11.662-11.58 8.736-19.33zm-71.609-37.694 12.718-33.391 12.602 33.391z" fill="#f93d6e"/><path d="m296.132 210.824c3.968-6.334 6.272-13.812 6.272-21.821 0-22.734-18.496-41.23-41.23-41.23h-33.112c-8.284 0-15 6.716-15 15v52.491.085 61.417c0 3.99 1.589 7.815 4.417 10.63 2.812 2.799 6.617 4.37 10.583 4.37h.066c.305-.001 30.554-.135 38.829-.135 25.19 0 45.684-20.493 45.684-45.683-.001-14.107-6.43-26.737-16.509-35.124zm-34.959-33.051c6.192 0 11.23 5.038 11.23 11.23s-5.038 11.23-11.23 11.23c-2.473 0-7.092.013-12.114.031h-5.999v-22.491zm5.783 83.858c-4.397 0-14.9.037-23.895.073v-31.417c2.029-.008 4.102-.016 6.11-.023h17.785c8.648 0 15.684 7.036 15.684 15.683s-7.036 15.684-15.684 15.684z" fill="#90d8f9"/><g><path d="m351.406 355.169c-39.699 0-71.997-32.297-71.997-71.996s32.297-71.997 71.997-71.997c14.426 0 28.349 4.255 40.264 12.305 6.865 4.638 8.67 13.962 4.032 20.826-4.637 6.865-13.961 8.67-20.826 4.032-6.937-4.687-15.053-7.164-23.47-7.164-23.157 0-41.997 18.84-41.997 41.997s18.84 41.996 41.997 41.996c8.535 0 15.703-2.53 21.305-7.519 1.092-.973 2.139-2.053 3.11-3.211 5.324-6.347 14.786-7.176 21.132-1.852 6.347 5.324 7.176 14.785 1.852 21.132-1.902 2.267-3.968 4.398-6.142 6.334-11.103 9.89-25.369 15.117-41.257 15.117z" fill="#ecc32e"/></g></g><g fill="#2f373b"><path d="m428.211 122.699h-96.667c-5.758 0-10.425-4.668-10.425-10.425 0-5.758 4.668-10.425 10.425-10.425h96.667c5.758 0 10.425 4.668 10.425 10.425 0 5.757-4.667 10.425-10.425 10.425z"/><path d="m428.211 153.199h-96.667c-5.758 0-10.425-4.668-10.425-10.425 0-5.758 4.668-10.425 10.425-10.425h96.667c5.758 0 10.425 4.668 10.425 10.425 0 5.757-4.667 10.425-10.425 10.425z"/><path d="m428.211 183.698h-96.667c-5.758 0-10.425-4.668-10.425-10.425 0-5.758 4.668-10.425 10.425-10.425h96.667c5.758 0 10.425 4.668 10.425 10.425 0 5.758-4.667 10.425-10.425 10.425z"/></g></g></svg>