<?xml version="1.0" encoding="iso-8859-1"?>
<!-- Generator: Adobe Illustrator 19.0.0, SVG Export Plug-In . SVG Version: 6.00 Build 0)  -->
<svg version="1.1" id="Capa_1" xmlns="http://www.w3.org/2000/svg" xmlns:xlink="http://www.w3.org/1999/xlink" x="0px" y="0px"
	 viewBox="0 0 512 512" style="enable-background:new 0 0 512 512;" xml:space="preserve">
<g>
	<g>
		<path d="M492,412c-11.046,0-20,8.954-20,20c0,22.056-17.944,40-40,40H80c-22.056,0-40-17.944-40-40V251.624
			c0.365,0.279,0.714,0.555,1.085,0.835c0.421,0.318,0.854,0.619,1.298,0.902L120,302.878V329c0,11.046,8.954,20,20,20
			s20-8.954,20-20v-29.179l15.311-8.651c0.068-0.038,0.136-0.077,0.204-0.116c49.794-28.91,111.842-29.27,161.968-0.954L352,298.627
			V329c0,11.046,8.954,20,20,20c11.046,0,20-8.954,20-20v-26.122l77.616-49.517c0.444-0.284,0.877-0.584,1.298-0.902
			c0.371-0.28,0.721-0.556,1.085-0.835v79.413c0,11.046,8.954,20,20,20c11.046,0,20-8.954,20-20V160C512,115.888,476.112,80,432,80
			h-86.074V60c0-33.084-26.916-60-60-60h-59.852c-33.084,0-60,26.916-60,60v20H80c-44.112,0-80,35.888-80,80v272
			c0,44.112,35.888,80,80,80h352c44.112,0,80-35.888,80-80C512,420.954,503.046,412,492,412z M206.074,60c0-11.028,8.972-20,20-20
			h59.852c11.028,0,20,8.972,20,20v20h-99.852V60z M40,160c0-22.056,17.944-40,40-40h352c22.056,0,40,17.944,40,40v23.122
			c0,9.785-0.001,18.247-24.579,36.952l-71.989,45.927l-17.831-10.473c-0.091-0.053-0.183-0.106-0.275-0.158
			c-30.457-17.245-65.01-26.344-100.001-26.344c-0.363,0-0.729,0.001-1.092,0.003c-35.324,0.191-70.141,9.656-100.7,27.374
			l-18.037,10.191l-72.917-46.519C40.001,201.369,40,192.907,40,183.122V160z"/>
	</g>
</g>
<g>
</g>
<g>
</g>
<g>
</g>
<g>
</g>
<g>
</g>
<g>
</g>
<g>
</g>
<g>
</g>
<g>
</g>
<g>
</g>
<g>
</g>
<g>
</g>
<g>
</g>
<g>
</g>
<g>
</g>
</svg>
