<svg id="Capa_1" enable-background="new 0 0 512 512" height="512" viewBox="0 0 512 512" width="512" xmlns="http://www.w3.org/2000/svg"><g><path d="m512 256c0 110.79-70.39 205.15-168.88 240.78-27.19 9.85-56.53 15.22-87.12 15.22-141.38 0-256-114.62-256-256 0-80.01 36.71-151.46 94.21-198.4 44.1-36 100.42-57.6 161.79-57.6 141.38 0 256 114.62 256 256z" fill="#bc95e2"/><path d="m343.12 496.78c-27.19 9.85-56.53 15.22-87.12 15.22-141.38 0-256-114.62-256-256 0-80.01 36.71-151.46 94.21-198.4l98.894-25.871c14.65-3.832 29.633 4.937 33.466 19.586z" fill="#f6f1f1"/><path d="m167.74 344.875c-.42-6.419-6.809-11.026-13.401-8.763-4.254 1.46-6.814 5.728-6.547 10.218.62 10.423-5.526 17.478-10.025 18.363-4.778.947-7.769-6.267-8.833-9.413-2.007-5.934 2.228-21.727 5.63-34.417 6.869-25.616 14.654-54.65-3.799-68.842-11.917-9.166-24.943-10.553-36.684-3.904-.387.219-.768.463-1.151.699 2.727-16.292 5.288-35.115 6.765-53.558 2.206-27.562 3.077-60.698-9.879-72.39-5.026-4.535-11.516-5.775-18.255-3.494-13.385 4.528-20.694 24.518-15.783 110.06.799 13.917 1.869 28.387 3.103 42.888.195 2.294-.114 4.633-1.109 6.708-1.407 2.933-3.83 5.133-7.405 6.806-5.604 2.622-11.642 2.724-11.645 2.725-5.659 0-10.22 4.7-9.992 10.41.218 5.458 4.979 9.648 10.441 9.587 6.94-.077 15.241-1.933 22.489-6.117 2.791 28.229 5.94 55.172 8.638 76.815.679 5.447 5.505 9.609 10.967 9.057.541-.055 1.067-.151 1.575-.286 4.76-1.262 7.975-5.879 7.348-10.902-2.05-16.425-4.398-36.236-6.652-57.452.361-1.242.487-2.574.328-3.939-1.847-15.915 7.556-43.125 20.074-50.216 3.104-1.757 7.57-3.078 14.634 2.355 7.87 6.053 1.399 30.187-3.326 47.808-4.94 18.423-9.206 34.333-5.258 46.005 6.755 19.97 20.788 24.78 31.668 22.623.555-.11 1.104-.237 1.647-.381 15.005-3.977 25.634-20.749 24.437-39.053zm-88.02-150.738c-.919 11.34-2.318 23.219-3.945 34.658-1.405-24.288-1.817-44.355-1.225-59.725.611-15.872 2.223-24.022 3.458-28.056 1.883 5.547 4.429 19.617 1.712 53.123z" fill="#90d8f9"/><g><path d="m156.452 347.779c-5.799-5.799-5.799-15.2 0-20.998l28.217-28.217 20.998 20.998-28.217 28.217c-5.798 5.799-15.199 5.799-20.998 0z" fill="#ecc32e"/><path d="m497.645 24.896-18.31-18.31c-8.78-8.78-23.015-8.78-31.795 0l-61.312 61.312 50.105 50.105 61.312-61.312c8.78-8.78 8.78-23.015 0-31.795z" fill="#ecc32e"/><path d="m496.072 23.314c-8.782-8.782-23.012-8.772-31.794.01l-61.312 61.312-16.738-16.738 61.312-61.312c8.782-8.782 23.022-8.782 31.804 0z" fill="#e7a52e"/><path d="m161.609 351.132c-1.873-.725-3.636-1.843-5.146-3.354-5.801-5.801-5.811-15.197-.01-20.998l28.219-28.219 8.49 8.49-28.219 28.219c-4.291 4.291-5.399 10.555-3.334 15.862z" fill="#e7a52e"/><path d="m384.099 219.351c-53.53 53.53-116.432 91.949-183.418 115.276-3.416 1.189-7.214.288-9.771-2.27l-19.026-19.026c-2.557-2.557-3.459-6.354-2.27-9.769 23.317-66.996 61.736-129.898 115.267-183.429 31.864-31.864 67.042-58.361 104.445-79.53 12.166-6.868 27.443-4.723 37.323 5.156l31.824 31.824c9.88 9.88 12.035 25.167 5.156 37.323-21.169 37.403-47.665 72.58-79.53 104.445z" fill="#80e29d"/><path d="m178.573 320.019-6.687-6.687c-2.558-2.558-3.454-6.355-2.276-9.769 23.324-66.992 61.745-129.904 115.271-183.431 31.864-31.864 67.042-58.361 104.445-79.53 12.166-6.868 27.443-4.723 37.323 5.156l11.199 11.199c-2.931-2.931-12.085 1.047-22.388 9.779-31.683 26.889-63.809 56.437-95.673 88.302-53.527 53.527-100.568 107.819-139.25 159.452-1.965 2.629-2.72 4.774-1.964 5.529z" fill="#66b49d"/><path d="m407.373 257.328c-7.15 1.913-14.593 2.246-21.622 1.037 0 0-.01-.01-.03-.01-4.753-.806-9.305-2.296-13.455-4.471-3.575-1.883-6.758-4.22-9.457-6.919-4.139-4.139-7.17-9.164-8.802-14.744-2.034-6.929-2.9-18.248 4.492-32.831 13.908-27.423 47.283-36.124 76.73-43.798 23.647-6.163 45.974-11.974 52.57-25.177 13.747-27.504-37.957-64.323-38.491-64.695l4.874-7.07 7.523-10.887c2.78 1.913 68.039 47.575 45.611 92.421-11.018 22.055-39.266 29.417-66.579 36.527-26.215 6.838-53.315 13.898-62.772 32.559-4.2 8.268-6.838 19.366 4.421 25.268 4.864 2.548 11.763 3.525 18.53 1.954-5.771-8.329-4.955-19.84 2.457-27.252 7.14-7.14 18.067-8.178 26.315-3.112 1.4.856 2.719 1.893 3.928 3.102 6.465 6.465 7.896 16.033 4.351 23.908l.01.01c-.02.02-.03.05-.05.07-.735 1.642-1.682 3.213-2.86 4.653-6.615 9.557-16.273 16.395-27.694 19.457z" fill="#ecc32e"/><g fill="#e7a52e"><path d="m385.721 258.355c-4.753-.806-9.305-2.296-13.455-4.471-3.575-1.883-6.758-4.22-9.457-6.919-4.139-4.139-7.17-9.164-8.802-14.744-2.034-6.929-2.9-18.248 4.492-32.831 13.908-27.423 47.283-36.124 76.73-43.798 23.647-6.163 45.974-11.974 52.57-25.177 7.603-15.197-4.784-33.224-17.483-46.387l4.733-4.733c19.729 22.972 30.515 47.857 19.286 59.086-26.909 26.909-83.669 18.712-120.418 55.46-36.255 36.255 10.535 63.769 11.804 64.514z"/><path d="m408.37 238.788c-6.888 2.961-10.494 5.257-25.983-4.25 4.864 2.548 11.763 3.525 18.53 1.954-5.771-8.329-4.955-19.84 2.457-27.252 7.14-7.14 18.067-8.178 26.315-3.112 5.56 17.221-14.42 29.709-21.319 32.66z"/></g></g></g></svg>