<svg id="Capa_1" enable-background="new 0 0 512 512" height="512" viewBox="0 0 512 512" width="512" xmlns="http://www.w3.org/2000/svg"><g><path d="m512 256c0 45.58-11.91 88.38-32.8 125.45-2.46 4.37-5.04 8.66-7.75 12.87-43.71 67.94-118.67 113.86-204.57 117.46-1.27.05-2.55.1-3.83.13-2.34.06-4.69.09-7.05.09-141.38 0-256-114.62-256-256 0-67.34 26.01-128.6 68.51-174.31 2.53-2.71 5.11-5.37 7.75-7.96 15.67-15.47 33.33-28.92 52.55-39.94 37.47-21.5 80.9-33.79 127.19-33.79s89.72 12.29 127.19 33.79c35.72 20.48 66.03 49.34 88.26 83.89 2.71 4.21 5.29 8.5 7.75 12.87 20.89 37.07 32.8 79.87 32.8 125.45z" fill="#f93d6e"/><path d="m54.221 167.469c-5.51 0-9.976-4.467-9.976-9.976v-57.862c0-5.51 4.467-9.976 9.976-9.976 5.51 0 9.976 4.467 9.976 9.976v57.862c0 5.51-4.466 9.976-9.976 9.976z" fill="#f6f1f1"/><path d="m64.2 364.01v57.87c0 1.08-.17 2.13-.5 3.1-6.99-7.94-13.49-16.32-19.46-25.09v-35.88c0-5.51 4.47-9.97 9.98-9.97 2.76 0 5.25 1.12 7.06 2.92 1.8 1.8 2.92 4.3 2.92 7.05z" fill="#f6f1f1"/><path d="m479.2 60.89v320.56c-2.46 4.37-5.04 8.66-7.75 12.87-43.71 67.94-118.67 113.86-204.57 117.46-72.25-3.01-136.77-35.98-181.45-86.8-3.16-3.59-6.22-7.27-9.17-11.04v-353.05c0-14.97 12.13-27.1 27.1-27.1h348.74c14.97 0 27.1 12.13 27.1 27.1z" fill="#80e29d"/><path d="m471.45 60.89v333.43c-44.36 68.95-120.9 115.22-208.4 117.59-73.84-1.96-139.88-35.19-185.37-86.93-3.16-3.59-6.22-7.27-9.17-11.04v-353.05c0-14.97 12.13-27.1 27.1-27.1h348.74c14.97 0 27.1 12.13 27.1 27.1z" fill="#f6f1f1"/><path d="m457.47 60.89v353.07c-46.87 59.69-119.69 98.04-201.47 98.04-76.63 0-145.39-33.67-192.3-87.02-3.16-3.59-6.22-7.27-9.17-11.04v-353.05c0-14.97 12.13-27.1 27.1-27.1h348.74c14.97 0 27.1 12.13 27.1 27.1z" fill="#80e29d"/><path d="m97.99 33.79c-14.97 0-27.11 12.13-27.11 27.1v371.92c-2.45-2.56-4.84-5.17-7.18-7.83-3.16-3.59-6.22-7.27-9.17-11.04v-353.05c0-14.97 12.13-27.1 27.1-27.1z" fill="#66b49d"/><path d="m348.15 324.847h-184.3c-17.523 0-31.728-14.205-31.728-31.728v-120.376c0-17.523 14.205-31.728 31.728-31.728h184.3c17.523 0 31.728 14.205 31.728 31.728v120.376c0 17.523-14.205 31.728-31.728 31.728z" fill="#66b49d"/><g fill="#f6f1f1"><path d="m333.198 213.734h-154.396c-6.81 0-12.331-5.521-12.331-12.331 0-6.81 5.521-12.331 12.331-12.331h154.397c6.81 0 12.331 5.521 12.331 12.331 0 6.81-5.521 12.331-12.332 12.331z"/><path d="m333.198 276.79h-154.396c-6.81 0-12.331-5.521-12.331-12.331 0-6.81 5.521-12.331 12.331-12.331h154.397c6.81 0 12.331 5.521 12.331 12.331 0 6.811-5.521 12.331-12.332 12.331z"/></g><g><path d="m394.192 283.172c-5.062 0-9.166-4.104-9.166-9.166v-24.634h18.332v24.634c.001 5.063-4.103 9.166-9.166 9.166z" fill="#ecc32e"/><path d="m400.847.003h-13.31c-6.382 0-11.556 5.174-11.556 11.556v44.569h36.422v-44.569c.001-6.382-5.173-11.556-11.556-11.556z" fill="#ecc32e"/><path d="m399.701 0c-6.384 0-11.552 5.176-11.552 11.559v44.568h-12.167v-44.568c-.001-6.383 5.175-11.559 11.559-11.559z" fill="#e7a52e"/><path d="m397.907 282.385c-1.134.501-2.392.782-3.71.782-5.064 0-9.17-4.097-9.17-9.161v-24.636h7.412v24.636c-.001 3.746 2.25 6.964 5.468 8.379z" fill="#e7a52e"/><path d="m437.503 127.74c0 46.734-10.687 90.962-29.745 130.385-.972 2.01-3.023 3.275-5.256 3.275h-16.61c-2.232 0-4.283-1.264-5.255-3.274-19.067-39.423-29.754-83.652-29.754-130.386 0-27.819 3.789-54.74 10.876-80.308 2.312-8.309 9.918-14.041 18.543-14.041h27.783c8.625 0 16.239 5.733 18.543 14.041 7.086 25.567 10.875 52.489 10.875 80.308z" fill="#bc95e2"/><path d="m391.731 261.399h-5.838c-2.233 0-4.282-1.266-5.258-3.271-19.062-39.424-29.753-83.658-29.753-130.389 0-27.819 3.789-54.74 10.876-80.308 2.312-8.309 9.918-14.041 18.543-14.041h9.777c-2.559 0-4.818 5.733-5.504 14.041-2.093 25.568-3.218 52.49-3.218 80.308 0 46.731 3.165 90.964 8.819 130.389.29 2.005.896 3.271 1.556 3.271z" fill="#9373b9"/><path d="m446.48 39.1c-4.5-3.34-10.07-5.31-16.11-5.31h-3.47c-11.22-4.34-28.54-1.42-28.78-1.38l-.8-4.34-1.22-6.69c1.7-.32 42.02-7.44 50.16 17.01.08.24.15.47.22.71z" fill="#ecc32e"/><path d="m435.48 34.28c-1.65-.33-3.36-.49-5.11-.49h-3.49c-4.35-1.69-9.63-2.27-14.47-2.36v-3.44c9.4.71 17.86 2.87 23.07 6.29z" fill="#e7a52e"/></g></g></svg>