<?xml version="1.0" encoding="iso-8859-1"?>
<!-- Generator: Adobe Illustrator 19.0.0, SVG Export Plug-In . SVG Version: 6.00 Build 0)  -->
<svg version="1.1" id="Capa_1" xmlns="http://www.w3.org/2000/svg" xmlns:xlink="http://www.w3.org/1999/xlink" x="0px" y="0px"
	 viewBox="0 0 512 512" style="enable-background:new 0 0 512 512;" xml:space="preserve">
<g>
	<g>
		<g>
			<path d="M314,125.161C314,93.643,288.43,68,257,68s-57,25.643-57,57.161V184c0,11.046,8.954,20,20,20s20-8.954,20-20v-11h34v11
				c0,11.046,8.954,20,20,20c11.046,0,20-8.954,20-20V125.161z M274,133h-34v-7.839c0-9.463,7.626-17.161,17-17.161
				c9.374,0,17,7.698,17,17.161V133z"/>
			<path d="M375,347c4.552,0,8.83,1.793,12.043,5.05c7.759,7.861,20.422,7.944,28.284,0.184c7.861-7.76,7.943-20.423,0.184-28.284
				C404.723,313.02,390.335,307,375,307c-31.43,0-57,25.643-57,57.161v21.678C318,417.357,343.57,443,375,443
				c14.319,0,28.01-5.347,38.55-15.056c8.125-7.483,8.644-20.135,1.161-28.26c-7.484-8.125-20.137-8.645-28.26-1.161
				C383.316,401.41,379.25,403,375,403c-9.374,0-17-7.698-17-17.161v-21.678C358,354.698,365.626,347,375,347z"/>
			<path d="M432,236h-48.763c6.83-11.777,10.763-25.434,10.763-40V80c0-44.112-35.888-80-80-80H198c-44.112,0-80,35.888-80,80v116
				c0,14.566,3.932,28.223,10.763,40H80c-44.112,0-80,35.888-80,80v116c0,44.112,35.888,80,80,80h116
				c23.877,0,45.329-10.528,60-27.169C270.671,501.472,292.123,512,316,512h116c44.112,0,80-35.888,80-80V316
				C512,271.888,476.112,236,432,236z M236,432c0,22.056-17.944,40-40,40H80c-22.056,0-40-17.944-40-40V316
				c0-22.056,17.944-40,40-40h116c22.056,0,40,17.944,40,40V432z M198,236c-22.056,0-40-17.944-40-40V80c0-22.056,17.944-40,40-40
				h116c22.056,0,40,17.944,40,40v116c0,22.056-17.944,40-40,40H198z M472,432c0,22.056-17.944,40-40,40H316
				c-22.056,0-40-17.944-40-40V316c0-22.056,17.944-40,40-40h116c22.056,0,40,17.944,40,40V432z"/>
			<path d="M181,350c0-24.262-19.738-44-44-44h-30c-5.304,0-10.392,2.107-14.142,5.858C89.107,315.608,87,320.696,87,326v96
				c0,11.046,8.954,20,20,20h38c24.262,0,44-19.738,44-44c0-11.59-4.512-22.141-11.863-30.008C179.612,362.495,181,356.408,181,350z
				 M127,346h10c2.206,0,4,1.794,4,4s-1.794,4-4,4h-10V346z M145,402h-18v-8h18c2.206,0,4,1.794,4,4S147.206,402,145,402z"/>
		</g>
	</g>
</g>
<g>
</g>
<g>
</g>
<g>
</g>
<g>
</g>
<g>
</g>
<g>
</g>
<g>
</g>
<g>
</g>
<g>
</g>
<g>
</g>
<g>
</g>
<g>
</g>
<g>
</g>
<g>
</g>
<g>
</g>
</svg>
