<svg id="Capa_1" enable-background="new 0 0 512 512" height="512" viewBox="0 0 512 512" width="512" xmlns="http://www.w3.org/2000/svg"><g><circle cx="256" cy="256" fill="#ecc32e" r="256"/><g><path d="m424.417 189.544-23.278 74.489-9.977-96.437" fill="#181e21"/><g><path d="m158.79 382.88c-16.91 7.37-35.58 11.45-55.2 11.45-28.1 0-54.26-8.38-76.08-22.78-17.6-34.71-27.51-73.97-27.51-115.55s9.91-80.84 27.51-115.55c21.82-14.4 47.98-22.78 76.08-22.78 19.62 0 38.29 4.09 55.2 11.45-48.93 21.32-83.14 70.1-83.14 126.88 0 56.77 34.21 105.56 83.14 126.88z" fill="#181e21"/><path d="m512 256c0 41.57-9.91 80.83-27.5 115.54-21.83 14.41-47.99 22.79-76.1 22.79-19.62 0-38.29-4.08-55.2-11.46 48.93-21.31 83.14-70.1 83.14-126.87 0-56.78-34.21-105.56-83.14-126.88 16.91-7.36 35.58-11.45 55.2-11.45 28.11 0 54.27 8.38 76.1 22.79 17.59 34.71 27.5 73.97 27.5 115.54z" fill="#2f373b"/></g><path d="m398.41 468.76c-12.34 8.28-25.44 15.52-39.18 21.57-6.56 2.9-13.26 5.52-20.1 7.86-3.32 1.15-6.67 2.22-10.05 3.22-.96.29-1.92.57-2.88.84-.79.22-1.58.44-2.37.65-21.6 5.94-44.34 9.1-67.83 9.1s-46.23-3.17-67.84-9.09c-.79-.21-1.58-.43-2.36-.65-.97-.28-1.94-.56-2.9-.84-3.38-1.01-6.72-2.08-10.04-3.22-2.82-.97-5.62-1.99-8.39-3.06-.43-.16-.86-.32-1.29-.49-3.51-1.36-6.98-2.81-10.41-4.32-13.74-6.06-26.84-13.29-39.19-21.58 10.39-14.37 23.76-26.43 39.19-35.32 6.37-3.67 13.09-6.78 20.09-9.29 4.22-1.52 8.54-2.81 12.94-3.86.78-.19 1.57-.37 2.36-.54 1.03-.24 2.08-.45 3.12-.65 3.47-.68 7-1.2 10.57-1.57 1.03-.11 2.05-.21 3.09-.29 3.38-.28 6.8-.42 10.26-.42h81.59c4.52 0 8.97.24 13.35.7 3.57.37 7.09.9 10.57 1.56 1.05.2 2.09.42 3.12.65.34.07.68.14 1.02.22.45.12.91.21 1.35.33 4.41 1.06 8.72 2.35 12.93 3.86 7.01 2.51 13.73 5.63 20.1 9.3 15.43 8.9 28.79 20.96 39.18 35.33z" fill="#f6f1f1"/><path d="m234.611 446.734h42.753v42.753h-42.753z" fill="#90d8f9" transform="matrix(.707 .707 -.707 .707 405.981 -43.904)"/><path d="m278.66 511.01c-7.46.66-15.02.99-22.66.99s-15.21-.34-22.68-.99l22.67-22.67z" fill="#90d8f9"/><path d="m255.987 468.111-52.994 29.451-16.121-79.986 32.929-14.393" fill="#dfeaef"/><path d="m255.987 468.111 52.994 29.451 16.121-79.986-32.928-14.393" fill="#dfeaef"/><path d="m215.2 416.81c-29.36 0-49.26 42.43-50.73 78.33-.43-.16-.86-.32-1.29-.49-3.51-1.36-6.98-2.81-10.41-4.32-13.74-6.06-26.84-13.29-39.19-21.58 10.39-14.37 23.76-26.43 39.19-35.32 10.2-5.87 21.3-10.34 33.03-13.15 1.81-.44 3.64-.84 5.48-1.19 3.47-.68 7-1.2 10.57-1.57 1.03-.11 2.05-.21 3.09-.29 3.38-.28 6.8-.42 10.26-.42z" fill="#dfeaef"/><path d="m300.706 368.538v54.869c0 20.088-13.245 37.067-31.489 42.707-4.176 1.296-8.627 1.997-13.23 1.997-24.691 0-44.703-20.012-44.703-44.703v-54.869h89.422z" fill="#eaac9d"/><path d="m300.706 419.932v3.475c0 20.088-13.245 37.067-31.489 42.707-16.461-5.06-28.837-19.372-31.123-36.884 2.987.183 5.99.274 9.008.274 8.459 0 16.75-.671 24.828-1.997 9.953-1.6 19.57-4.161 28.776-7.575z" fill="#ffcbbe"/><g><path d="m132.54 278.153c0 20.497-14.973 37.492-34.579 40.646-2.143.347-4.347.528-6.596.528-22.746 0-41.175-18.429-41.175-41.175s18.429-41.175 41.175-41.175c2.249 0 4.453.181 6.596.528 19.606 3.156 34.579 20.152 34.579 40.648z" fill="#ffcbbe"/><path d="m132.54 278.153c0 20.497-14.973 37.492-34.579 40.646-3.562-12.95-5.464-26.579-5.464-40.646s1.902-27.696 5.464-40.646c19.606 3.154 34.579 20.15 34.579 40.646z" fill="#eaac9d"/><circle cx="91.365" cy="278.153" fill="#eaac9d" r="14.716"/><path d="m379.449 278.153c0 20.497 14.973 37.492 34.579 40.646 2.143.347 4.347.528 6.596.528 22.746 0 41.175-18.429 41.175-41.175s-18.429-41.175-41.175-41.175c-2.249 0-4.453.181-6.596.528-19.606 3.156-34.579 20.152-34.579 40.648z" fill="#ffcbbe"/><g fill="#eaac9d"><path d="m379.449 278.153c0 20.497 14.973 37.492 34.579 40.646 3.562-12.95 5.464-26.579 5.464-40.646s-1.902-27.696-5.464-40.646c-19.606 3.154-34.579 20.15-34.579 40.646z"/><circle cx="420.624" cy="278.153" r="14.716"/></g></g><path d="m410.696 256.511c0 76.985-56.241 140.847-129.873 152.705-8.078 1.326-16.369 1.997-24.828 1.997-85.444 0-154.701-69.257-154.701-154.701v-157.5h309.403v157.499z" fill="#ffcbbe"/><path d="m283.243 408.81c-.8.14-1.61.28-2.42.41-8.08 1.32-16.37 1.99-24.83 1.99-85.44 0-154.7-69.25-154.7-154.7v-157.5h54.55v157.5c0 76.14 54.98 139.41 127.4 152.3z" fill="#eaac9d"/><g fill="#f6f1f1"><circle cx="184.052" cy="254.168" r="56.184"/><circle cx="327.937" cy="254.168" r="56.184"/></g><g fill="#dfeaef"><circle cx="341.181" cy="296.496" r="19.082"/><circle cx="170.805" cy="296.496" r="19.082"/></g><path d="m273.377 297.923h-34.757c-4.14 0-7.497-3.356-7.497-7.496 0-4.14 3.356-7.497 7.497-7.497h34.757c4.14 0 7.497 3.356 7.497 7.497 0 4.14-3.357 7.496-7.497 7.496z" fill="#eaac9d"/><path d="m255.999 345.352c-12.828 0-25.656-3.214-37.349-9.642-3.298-1.813-4.502-5.957-2.689-9.255 1.814-3.299 5.958-4.501 9.255-2.689 19.276 10.597 42.292 10.596 61.566 0 3.296-1.813 7.441-.61 9.255 2.689 1.814 3.298.61 7.442-2.689 9.255-11.693 6.428-24.521 9.642-37.349 9.642z" fill="#df9380"/><g><path d="m343.992 244.327c0-17.807-14.435-32.243-32.243-32.243-17.807 0-32.243 14.435-32.243 32.243" fill="#dfeaef"/><circle cx="311.75" cy="258.054" fill="#2f373b" r="22.023"/><circle cx="320.928" cy="254.168" fill="#fff" r="9.437"/><path d="m232.482 244.327c0-17.807-14.435-32.243-32.243-32.243s-32.243 14.435-32.243 32.243" fill="#dfeaef"/><circle cx="200.24" cy="258.054" fill="#2f373b" r="22.023"/><path d="m205.207 279.51c-1.6.38-3.26.57-4.97.57-12.16 0-22.02-9.86-22.02-22.03 0-12.16 9.86-22.02 22.02-22.02 1.71 0 3.37.2 4.97.57-9.78 2.25-17.06 11-17.06 21.45 0 10.46 7.28 19.21 17.06 21.46z" fill="#181e21"/><path d="m316.717 279.51c-1.6.38-3.26.57-4.97.57-12.16 0-22.02-9.86-22.02-22.03 0-12.16 9.86-22.02 22.02-22.02 1.71 0 3.37.2 4.97.57-9.78 2.25-17.06 11-17.06 21.45 0 10.46 7.28 19.21 17.06 21.46z" fill="#181e21"/><circle cx="209.417" cy="254.168" fill="#fff" r="9.437"/></g><path d="m256 0c-240.245 0-170.775 238.188-170.775 238.188h16.069c0-52.947 200.083-61.613 200.083-139.176 0 0 23.105 90.532 109.32 90.532h13.72s52.905-179.563-168.417-189.544z" fill="#2f373b"/><path d="m256 0c15.05.68 28.82 2.14 41.44 4.28-121.62 21.96-132.63 123.15-127.42 185.02-37.65 14.04-68.72 28.03-68.72 48.89h-16.07s-69.47-238.19 170.77-238.19z" fill="#181e21"/><path d="m420.624 177.272c0 7.027-.543 13.949-1.615 20.712-11.333-72.09-81.363-127.582-166.085-127.582-9.175 0-18.165.633-26.912 1.912-21.452 3.045-41.532 9.69-59.425 19.196-42.418 22.558-72.631 61.24-79.762 106.422-1.058-6.75-1.601-13.646-1.601-20.659 0-53.936 32.614-101.148 81.363-127.055 17.907-9.519 37.987-16.164 59.425-19.209 8.747-1.279 17.736-1.912 26.912-1.912 92.625-.001 167.7 66.341 167.7 148.175z" fill="#f6f1f1"/><g fill="#90d8f9"><g><path d="m184.052 320.352c-36.494 0-66.184-29.69-66.184-66.184s29.689-66.184 66.184-66.184 66.185 29.69 66.185 66.184-29.691 66.184-66.185 66.184zm0-112.368c-25.466 0-46.184 20.718-46.184 46.184s20.718 46.184 46.184 46.184 46.185-20.718 46.185-46.184c-.001-25.466-20.719-46.184-46.185-46.184z"/><path d="m327.938 320.352c-36.494 0-66.185-29.69-66.185-66.184s29.69-66.184 66.185-66.184 66.184 29.69 66.184 66.184-29.69 66.184-66.184 66.184zm0-112.368c-25.466 0-46.185 20.718-46.185 46.184s20.719 46.184 46.185 46.184 46.184-20.718 46.184-46.184c-.001-25.466-20.719-46.184-46.184-46.184z"/></g><path d="m378.748 216.293h42.577v20h-42.577z" transform="matrix(.967 -.255 .255 .967 -44.419 109.258)"/><path d="m102.519 205.005h20v42.577h-20z" transform="matrix(.255 -.967 .967 .255 -134.96 277.511)"/><path d="m235.564 221.712h43.942v20h-43.942z"/></g></g></g></svg>