<?xml version="1.0" encoding="iso-8859-1"?>
<!-- Generator: Adobe Illustrator 19.0.0, SVG Export Plug-In . SVG Version: 6.00 Build 0)  -->
<svg version="1.1" id="Capa_1" xmlns="http://www.w3.org/2000/svg" xmlns:xlink="http://www.w3.org/1999/xlink" x="0px" y="0px"
	 viewBox="0 0 512 512" style="enable-background:new 0 0 512 512;" xml:space="preserve">
<g>
	<g>
		<path d="M495.124,414.488c-0.052-0.052-0.104-0.104-0.156-0.154l-66.041-64.607c-3.841-3.758-9.05-5.82-14.405-5.698
			c-5.372,0.113-10.474,2.384-14.152,6.299c-30.784,32.762-49.903,76.352-53.785,121.678H145.98v-85.988
			c0-11.044-8.953-19.997-19.997-19.997H39.994V165.842c39.437-2.631,76.521-18.179,106.003-44.374l187.856,186.744
			c7.832,7.787,20.495,7.749,28.28-0.084c7.786-7.832,7.749-20.494-0.084-28.28L97.513,16.877
			C80.866,0.229,57.012-4.516,35.263,4.493C13.512,13.503,0,33.725,0,57.267v374.744C0,476.117,35.883,512,79.989,512h374.744
			c23.543,0,43.765-13.512,52.774-35.263C516.516,454.987,511.771,431.134,495.124,414.488z M39.994,57.267
			c0-10.619,8.093-14.796,10.574-15.823c2.479-1.027,11.155-3.797,18.706,3.754l48.291,48.005
			c-21.854,18.721-48.849,30.058-77.571,32.532V57.267z M105.985,472.006H79.989c-22.053,0-39.994-17.941-39.994-39.994v-25.996
			h65.991V472.006z M470.557,461.433c-1.027,2.481-5.205,10.574-15.824,10.574h-67.977c3.009-28.321,13.38-55.632,29.761-78.47
			l50.393,49.298C474.336,450.328,471.581,458.96,470.557,461.433z"/>
	</g>
</g>
<g>
</g>
<g>
</g>
<g>
</g>
<g>
</g>
<g>
</g>
<g>
</g>
<g>
</g>
<g>
</g>
<g>
</g>
<g>
</g>
<g>
</g>
<g>
</g>
<g>
</g>
<g>
</g>
<g>
</g>
</svg>
