<?xml version="1.0" encoding="iso-8859-1"?>
<!-- Generator: Adobe Illustrator 19.0.0, SVG Export Plug-In . SVG Version: 6.00 Build 0)  -->
<svg version="1.1" id="Capa_1" xmlns="http://www.w3.org/2000/svg" xmlns:xlink="http://www.w3.org/1999/xlink" x="0px" y="0px"
	 viewBox="0 0 512 512" style="enable-background:new 0 0 512 512;" xml:space="preserve">
<g>
	<g>
		<g>
			<path d="M303.5,180c22.43,0,40-21.962,40-50c0-28.038-17.57-50-40-50s-40,21.962-40,50C263.5,158.038,281.07,180,303.5,180z"/>
			<path d="M353.5,432c22.43,0,40-21.962,40-50c0-28.038-17.57-50-40-50s-40,21.962-40,50C313.5,410.038,331.07,432,353.5,432z"/>
			<path d="M451.5,352c11.046,0,20-8.954,20-20V80c0-44.112-35.888-80-80-80h-271c-44.112,0-80,35.888-80,80v352
				c0,44.112,35.888,80,80,80h271c44.112,0,80-35.888,80-80c0-11.046-8.954-20-20-20c-11.046,0-20,8.954-20,20
				c0,22.056-17.944,40-40,40h-271c-22.056,0-40-17.944-40-40v-30h156.224c6.061,17.808,20.067,30,36.776,30
				c22.43,0,40-21.962,40-50c0-28.038-17.57-50-40-50c-16.709,0-30.715,12.192-36.776,30H80.5v-86h53.224
				c6.061,17.808,20.067,30,36.776,30c22.43,0,40-21.962,40-50c0-28.038-17.57-50-40-50c-16.709,0-30.715,12.192-36.776,30H80.5v-86
				h106.224c6.061,17.808,20.067,30,36.776,30c22.43,0,40-21.962,40-50c0-28.038-17.57-50-40-50c-16.709,0-30.715,12.192-36.776,30
				H80.5V80c0-22.056,17.944-40,40-40h271c22.056,0,40,17.944,40,40v30h-30c-11.046,0-20,8.954-20,20s8.954,20,20,20h30v86h-161
				c-11.046,0-20,8.954-20,20c0,11.046,8.954,20,20,20h161v56C431.5,343.046,440.454,352,451.5,352z"/>
		</g>
	</g>
</g>
<g>
</g>
<g>
</g>
<g>
</g>
<g>
</g>
<g>
</g>
<g>
</g>
<g>
</g>
<g>
</g>
<g>
</g>
<g>
</g>
<g>
</g>
<g>
</g>
<g>
</g>
<g>
</g>
<g>
</g>
</svg>
