<?xml version="1.0" encoding="iso-8859-1"?>
<!-- Generator: Adobe Illustrator 19.0.0, SVG Export Plug-In . SVG Version: 6.00 Build 0)  -->
<svg version="1.1" id="Capa_1" xmlns="http://www.w3.org/2000/svg" xmlns:xlink="http://www.w3.org/1999/xlink" x="0px" y="0px"
	 viewBox="0 0 512 512" style="enable-background:new 0 0 512 512;" xml:space="preserve">
<g>
	<g>
		<g>
			<path d="M251.005,260.341l-45.218,45.572c-7.781,7.841-7.731,20.504,0.11,28.284c3.9,3.871,8.993,5.803,14.087,5.803
				c5.144,0,10.288-1.973,14.197-5.913l59-59.462c7.66-7.72,7.747-20.146,0.197-27.973L94.024,40h283.96c22.056,0,40,17.944,40,40
				c0,11.046,8.954,20,20,20c11.046,0,20-8.954,20-20c0-44.112-35.888-80-80-80H94.024C77.97,0,63.526,9.542,57.229,24.311
				c-6.297,14.768-3.183,31.796,7.97,43.421L251.005,260.341z"/>
			<path d="M437.984,412c-11.046,0-20,8.954-20,20c0,22.056-17.944,40-40,40H96.025c0.018-0.018,0.037-0.039,0.06-0.061
				l65.123-65.879c7.766-7.855,7.692-20.518-0.163-28.284c-7.855-7.765-20.518-7.691-28.284,0.164l-65.063,65.818
				c-11.454,11.488-14.837,28.593-8.617,43.577C65.3,502.318,79.802,512,96.024,512h281.96c44.112,0,80-35.888,80-80
				C457.984,420.954,449.03,412,437.984,412z"/>
		</g>
	</g>
</g>
<g>
</g>
<g>
</g>
<g>
</g>
<g>
</g>
<g>
</g>
<g>
</g>
<g>
</g>
<g>
</g>
<g>
</g>
<g>
</g>
<g>
</g>
<g>
</g>
<g>
</g>
<g>
</g>
<g>
</g>
</svg>
