<?xml version="1.0" encoding="iso-8859-1"?>
<!-- Generator: Adobe Illustrator 19.0.0, SVG Export Plug-In . SVG Version: 6.00 Build 0)  -->
<svg version="1.1" id="Capa_1" xmlns="http://www.w3.org/2000/svg" xmlns:xlink="http://www.w3.org/1999/xlink" x="0px" y="0px"
	 viewBox="0 0 512.001 512.001" style="enable-background:new 0 0 512.001 512.001;" xml:space="preserve">
<g>
	<g>
		<path d="M506.114,353.271L404.547,252.116l77.447-77.236C501.344,155.531,512,129.806,512,102.443
			c0-27.363-10.656-53.088-30.005-72.436c-19.348-19.35-45.073-30.006-72.436-30.006c-27.363,0-53.089,10.656-72.438,30.005
			l-77.053,77.052L158.425,5.83c-3.766-3.75-8.873-5.855-14.183-5.829C138.928,0.02,133.84,2.152,130.1,5.928L5.79,131.459
			c-7.757,7.833-7.713,20.464,0.098,28.244L106.86,260.268l-56.034,56.034c-2.436,2.436-4.201,5.46-5.125,8.779L0.733,486.638
			c-1.939,6.968,0.034,14.441,5.163,19.542c3.8,3.78,8.892,5.821,14.106,5.821c1.822,0,3.66-0.25,5.463-0.762l161.557-45.891
			c6.816-1.936,12.1-7.335,13.888-14.192c1.788-6.857-0.186-14.148-5.189-19.167L93.869,329.828L331.184,92.513l88.258,88.258
			L237.768,361.949c-3.769,3.758-5.883,8.863-5.877,14.185c0.006,5.322,2.134,10.422,5.911,14.171l116.76,115.891
			c3.747,3.719,8.812,5.805,14.089,5.805c0.028,0,0.058,0,0.086,0c5.309-0.023,10.39-2.155,14.125-5.927l123.35-124.559
			C513.969,373.682,513.925,361.049,506.114,353.271z M143.395,436.159l-94.568,26.862l26.485-95.152L143.395,436.159z
			 M135.145,231.984l-86.9-86.55l96.165-97.109l31.734,31.604l-39.4,40.045c-7.746,7.874-7.644,20.537,0.23,28.283
			c3.895,3.833,8.961,5.744,14.026,5.744c5.173,0,10.343-1.995,14.258-5.973l39.229-39.871l27.298,27.187L135.145,231.984z
			 M359.469,64.228l5.938-5.938c11.793-11.794,27.473-18.289,44.152-18.289c16.679,0,32.358,6.495,44.152,18.29
			C465.505,70.084,472,85.764,472,102.443c0,16.679-6.495,32.359-18.271,44.133l-5.965,5.949L359.469,64.228z M368.529,463.701
			l-88.281-87.624l95.977-95.714l26.981,26.872l-38.398,38.676c-7.782,7.839-7.736,20.502,0.103,28.284
			c3.9,3.873,8.996,5.807,14.091,5.807c5.142,0,10.284-1.971,14.193-5.909l38.354-38.631l32.209,32.078L368.529,463.701z"/>
	</g>
</g>
<g>
</g>
<g>
</g>
<g>
</g>
<g>
</g>
<g>
</g>
<g>
</g>
<g>
</g>
<g>
</g>
<g>
</g>
<g>
</g>
<g>
</g>
<g>
</g>
<g>
</g>
<g>
</g>
<g>
</g>
</svg>
