<?xml version="1.0" encoding="iso-8859-1"?>
<!-- Generator: Adobe Illustrator 19.0.0, SVG Export Plug-In . SVG Version: 6.00 Build 0)  -->
<svg version="1.1" id="Capa_1" xmlns="http://www.w3.org/2000/svg" xmlns:xlink="http://www.w3.org/1999/xlink" x="0px" y="0px"
	 viewBox="0 0 512 512" style="enable-background:new 0 0 512 512;" xml:space="preserve">
<g>
	<g>
		<path d="M452,392c-26.073,0-48.303,16.722-56.56,40h-41.88c-8.256-23.278-30.487-40-56.56-40c-4.458,0-8.798,0.504-12.981,1.43
			l-22.116-37.077C270.089,346.096,275,333.114,275,319c0-14.111-4.908-27.089-13.091-37.346l21.601-37.202
			c4.34,1.001,8.851,1.548,13.49,1.548c11.046,0,20-8.954,20-20s-8.954-20-20-20c-11.028,0-20-8.972-20-20s8.972-20,20-20
			s20,8.972,20,20c0,11.046,8.954,20,20,20c0.506,0,1.003-0.039,1.5-0.076c0.497,0.037,0.994,0.076,1.5,0.076h55.44
			c8.256,23.278,30.487,40,56.56,40c11.046,0,20-8.954,20-20s-8.954-20-20-20c-11.028,0-20-8.972-20-20s8.972-20,20-20
			s20,8.972,20,20c0,11.046,8.954,20,20,20c11.046,0,20-8.954,20-20c0-33.084-26.916-60-60-60c-26.073,0-48.303,16.722-56.56,40
			h-41.88c-8.256-23.278-30.487-40-56.56-40c-5.759,0-11.323,0.832-16.599,2.354l-24.27-33.977C262.97,84.632,267,72.781,267,60
			c0-33.084-26.916-60-60-60s-60,26.916-60,60s26.916,60,60,60c5.758,0,11.323-0.832,16.598-2.354l24.27,33.978
			C241.03,161.368,237,173.219,237,186c0,13.917,4.776,26.732,12.757,36.921l-21.779,37.508c-4.182-0.926-8.521-1.43-12.978-1.43
			c-26.073,0-48.303,16.722-56.56,40h-41.88c-8.256-23.278-30.487-40-56.56-40c-33.084,0-60,26.916-60,60s26.916,60,60,60
			c11.046,0,20-8.954,20-20c0-11.046-8.954-20-20-20c-11.028,0-20-8.972-20-20s8.972-20,20-20s20,8.972,20,20
			c0,11.046,8.954,20,20,20h58.44c8.256,23.278,30.487,40,56.56,40c4.458,0,8.798-0.504,12.981-1.43l22.116,37.077
			C241.911,424.904,237,437.886,237,452c0,33.084,26.916,60,60,60c11.046,0,20-8.954,20-20c0-11.046-8.954-20-20-20
			c-11.028,0-20-8.972-20-20s8.972-20,20-20s20,8.972,20,20c0,11.046,8.954,20,20,20c0.506,0,1.003-0.039,1.5-0.076
			c0.497,0.037,0.994,0.076,1.5,0.076h55.44c8.256,23.278,30.487,40,56.56,40c11.046,0,20-8.954,20-20c0-11.046-8.954-20-20-20
			c-11.028,0-20-8.972-20-20s8.972-20,20-20s20,8.972,20,20c0,11.046,8.954,20,20,20c11.046,0,20-8.954,20-20
			C512,418.916,485.084,392,452,392z M207,80c-11.028,0-20-8.972-20-20s8.972-20,20-20s20,8.972,20,20S218.028,80,207,80z M215,339
			c-11.028,0-20-8.972-20-20s8.972-20,20-20s20,8.972,20,20S226.028,339,215,339z"/>
	</g>
</g>
<g>
</g>
<g>
</g>
<g>
</g>
<g>
</g>
<g>
</g>
<g>
</g>
<g>
</g>
<g>
</g>
<g>
</g>
<g>
</g>
<g>
</g>
<g>
</g>
<g>
</g>
<g>
</g>
<g>
</g>
</svg>
