<?xml version="1.0" encoding="iso-8859-1"?>
<!-- Generator: Adobe Illustrator 19.0.0, SVG Export Plug-In . SVG Version: 6.00 Build 0)  -->
<svg version="1.1" id="Capa_1" xmlns="http://www.w3.org/2000/svg" xmlns:xlink="http://www.w3.org/1999/xlink" x="0px" y="0px"
	 viewBox="0 0 512 512" style="enable-background:new 0 0 512 512;" xml:space="preserve">
<g>
	<g>
		<path d="M468.86,446.934c-2.246-10.815-12.833-17.765-23.648-15.517c-10.815,2.245-17.762,12.833-15.517,23.648
			c0.878,4.231-0.194,8.595-2.943,11.973c-1.508,1.853-4.838,4.961-10.204,4.961H283.731l54.007-138.104
			c19.667,10.191,37.454,24.084,52.283,41.2c7.232,8.348,19.863,9.252,28.212,2.02c8.348-7.232,9.252-19.864,2.02-28.212
			c-24.557-28.345-55.72-49.488-90.244-61.959C355.057,265.832,371,234.245,371,198.999c0-20.703-5.437-40.557-15.624-57.954
			L417,118.339V217c0,11.046,8.954,20,20,20c11.046,0,20-8.954,20-20V91c0-0.197-0.024-0.389-0.03-0.585
			c0.01-0.253,0.03-0.505,0.03-0.76V88.53c0-8.306-5.134-15.748-12.899-18.697L263.666,1.303c-4.555-1.73-9.585-1.738-14.147-0.021
			L67.953,69.626c-7.794,2.934-12.954,10.39-12.954,18.718v1.125c0,8.397,5.245,15.9,13.131,18.784l88.7,32.435
			c-10.322,17.476-15.832,37.452-15.832,58.312c0,35.285,15.979,66.903,41.074,88.015c-23.168,8.394-44.914,20.711-64.132,36.564
			c-38.209,31.52-64.774,75.483-74.803,123.792c-3.312,15.955,0.671,32.335,10.929,44.94C64.248,504.824,79.332,512,95.45,512
			h321.098c16.007,0,31.035-7.186,41.23-19.715C468.156,479.531,472.195,463.001,468.86,446.934z M130.978,88.643l125.555-47.261
			l124.893,47.436l-56.265,20.732c-19.656-9.129-50.205-10.771-68.941-10.813c-18.741-0.063-49.314,1.452-68.976,10.481
			L130.978,88.643z M180.999,199c0-20.095,7.839-38.933,22.068-53.112c3.863-2.359,21.626-7.152,52.4-7.152c0.234,0,0.471,0,0.706,0
			c31.23,0.074,49.189,5.029,53.041,7.43c14.047,14.145,21.785,32.885,21.785,52.833c0,41.355-33.645,75-75,75
			C214.644,273.999,180.999,240.355,180.999,199z M95.45,472c-5.518,0-8.858-3.092-10.357-4.935
			c-1.544-1.898-3.96-5.924-2.79-11.563c11.089-53.417,45.963-97.285,92.045-121.379L228.267,472H95.45z M211.659,319.701
			c14.248-3.721,29.117-5.701,44.34-5.701c15.128,0,30.021,1.933,44.369,5.627l-44.369,113.458L211.659,319.701z"/>
	</g>
</g>
<g>
</g>
<g>
</g>
<g>
</g>
<g>
</g>
<g>
</g>
<g>
</g>
<g>
</g>
<g>
</g>
<g>
</g>
<g>
</g>
<g>
</g>
<g>
</g>
<g>
</g>
<g>
</g>
<g>
</g>
</svg>
