<?xml version="1.0" encoding="iso-8859-1"?>
<!-- Generator: Adobe Illustrator 19.0.0, SVG Export Plug-In . SVG Version: 6.00 Build 0)  -->
<svg version="1.1" id="Capa_1" xmlns="http://www.w3.org/2000/svg" xmlns:xlink="http://www.w3.org/1999/xlink" x="0px" y="0px"
	 viewBox="0 0 512.001 512.001" style="enable-background:new 0 0 512.001 512.001;" xml:space="preserve">
<g>
	<g>
		<path d="M506.098,248.042c-82.85-82.85-128.172-101.974-130.06-102.748l-2.162-1.107l37.436-78.679
			c9.444-19.96,7.129-40.543-6.042-53.713C392.1-1.377,371.518-3.691,351.598,5.733L167.946,92.124
			c-32.208,15.238-60.533,43.563-75.771,75.771c-0.061,0.127-0.119,0.255-0.177,0.384L1.791,369.857
			c-1.15,2.57-1.745,5.353-1.745,8.168v12.998v8.998v91.983C0.047,503.048,8.999,512,20.043,512s19.996-8.952,19.996-19.996v-68.671
			l105.45-50.14l0.697,1.741c0.773,1.934,19.9,48.302,102.808,131.21c3.889,3.889,9.008,5.857,14.143,5.857
			c4.603,0,9.219-1.582,12.97-4.78c0.584-0.498,59.382-50.013,146.421-70.854c7.321-1.753,13.038-7.47,14.79-14.79
			c5.044-21.065,12.628-42.453,23.867-67.31c4.55-10.063,0.081-21.909-9.981-26.459c-10.063-4.548-21.909-0.081-26.459,9.981
			c-10.262,22.695-17.782,42.919-23.272,62.688c-64.608,17.581-113.312,48.286-136.463,64.908
			c-64.104-66.425-80.841-103.374-81.717-105.372l-1.489-4.088l66.691-31.71c32.207-15.237,60.533-43.562,75.752-75.731
			l32.502-68.308l4.129,2.126l-0.153-0.063c0.403,0.173,41.169,18.159,117.092,94.082c3.904,3.904,9.021,5.857,14.139,5.857
			c5.118,0,10.235-1.953,14.139-5.857C513.906,268.511,513.906,255.85,506.098,248.042z M288.116,231.341
			c-11.408,24.112-32.613,45.317-56.759,56.741L76.494,361.717l143.843-147.709c7.705-7.912,7.537-20.571-0.375-28.277
			c-7.912-7.705-20.571-7.537-28.277,0.375L73.548,307.418l54.864-122.601c11.428-24.037,32.586-45.164,56.598-56.524l183.652-86.39
			c4.625-2.189,7.415-2.025,8.279-1.779c0.245,0.865,0.412,3.649-1.76,8.24L288.116,231.341z"/>
	</g>
</g>
<g>
</g>
<g>
</g>
<g>
</g>
<g>
</g>
<g>
</g>
<g>
</g>
<g>
</g>
<g>
</g>
<g>
</g>
<g>
</g>
<g>
</g>
<g>
</g>
<g>
</g>
<g>
</g>
<g>
</g>
</svg>
