<?xml version="1.0" encoding="iso-8859-1"?>
<!-- Generator: Adobe Illustrator 19.0.0, SVG Export Plug-In . SVG Version: 6.00 Build 0)  -->
<svg version="1.1" id="Capa_1" xmlns="http://www.w3.org/2000/svg" xmlns:xlink="http://www.w3.org/1999/xlink" x="0px" y="0px"
	 viewBox="0 0 512 512" style="enable-background:new 0 0 512 512;" xml:space="preserve">
<g>
	<g>
		<path d="M492,213c11.046,0,20-8.954,20-20V20c0-11.046-8.954-20-20-20H212.816C184.245,0,161,23.245,161,51.816V80H51.816
			C23.245,80,0,103.245,0,131.816V444c0,0.985,0.095,1.946,0.233,2.893C0.09,448.578,0,450.278,0,452c0,33.084,26.916,60,60,60h271
			c11.046,0,20-8.954,20-20c0-11.046-8.954-20-20-20H60c-11.028,0-20-8.972-20-20s8.972-20,20-20h432c11.046,0,20-8.954,20-20
			c0-11.046-8.954-20-20-20H221c-11.028,0-20-8.972-20-20s8.972-20,20-20h271c11.046,0,20-8.954,20-20v-39c0-11.046-8.954-20-20-20
			c-11.046,0-20,8.954-20,20v19H281V100c0-11.046-8.954-20-20-20c-11.046,0-20,8.954-20,20v212h-20c-7.011,0-13.74,1.22-20,3.44
			V51.816C201,45.301,206.301,40,212.816,40H472v153C472,204.046,480.954,213,492,213z M60,392c-7.011,0-13.74,1.22-20,3.44V131.816
			C40,125.301,45.301,120,51.816,120H80v212c0,11.046,8.954,20,20,20s20-8.954,20-20V120h41v244c0,0.985,0.095,1.946,0.233,2.893
			C161.09,368.578,161,370.278,161,372c0,7.011,1.22,13.74,3.44,20H60z"/>
	</g>
</g>
<g>
</g>
<g>
</g>
<g>
</g>
<g>
</g>
<g>
</g>
<g>
</g>
<g>
</g>
<g>
</g>
<g>
</g>
<g>
</g>
<g>
</g>
<g>
</g>
<g>
</g>
<g>
</g>
<g>
</g>
</svg>
