<?xml version="1.0" encoding="iso-8859-1"?>
<!-- Generator: Adobe Illustrator 19.0.0, SVG Export Plug-In . SVG Version: 6.00 Build 0)  -->
<svg version="1.1" id="Capa_1" xmlns="http://www.w3.org/2000/svg" xmlns:xlink="http://www.w3.org/1999/xlink" x="0px" y="0px"
	 viewBox="0 0 512 512" style="enable-background:new 0 0 512 512;" xml:space="preserve">
<g>
	<g>
		<path d="M451.5,272c11.046,0,20-8.954,20-20V20c0-11.046-8.954-20-20-20h-351c-33.084,0-60,26.916-60,60v392
			c0,33.084,26.916,60,60,60h351c11.046,0,20-8.954,20-20c0-11.046-8.954-20-20-20h-351c-11.028,0-20-8.972-20-20s8.972-20,20-20
			h351c11.046,0,20-8.954,20-20v-60c0-11.046-8.954-20-20-20c-11.046,0-20,8.954-20,20v40h-271V276.972c0-11.046-8.954-20-20-20
			s-20,8.954-20,20V392h-20c-7.011,0-13.74,1.22-20,3.44V60c0-11.028,8.972-20,20-20h20v158c0,7.598,4.306,14.541,11.113,17.917
			s14.939,2.604,20.989-1.994L190.5,185.12l37.898,28.803c3.547,2.696,7.811,4.077,12.104,4.077c3.028,0,6.07-0.687,8.885-2.083
			c6.807-3.376,11.113-10.319,11.113-17.917V40h171v212C431.5,263.046,440.454,272,451.5,272z M220.5,157.68l-17.898-13.603
			c-7.152-5.436-17.051-5.436-24.203,0L160.5,157.68V40h60V157.68z"/>
	</g>
</g>
<g>
</g>
<g>
</g>
<g>
</g>
<g>
</g>
<g>
</g>
<g>
</g>
<g>
</g>
<g>
</g>
<g>
</g>
<g>
</g>
<g>
</g>
<g>
</g>
<g>
</g>
<g>
</g>
<g>
</g>
</svg>
