<svg id="Capa_1" enable-background="new 0 0 512 512" height="512" viewBox="0 0 512 512" width="512" xmlns="http://www.w3.org/2000/svg"><g><g fill="#ffdf40"><path d="m164.301 362v30h91.699 91.699v-30h-91.699z"/><path d="m151 482v30h105 105l30-30h-135z"/><path d="m347.699 120h-91.699-91.699v30h91.699 91.699z"/><path d="m369.174 60h-113.174-113.174v30h113.174 113.174z"/><path d="m369.174 452v-30h-113.174-113.174v30h113.174z"/><path d="m391 30-30-30h-105-105l-30 30h135z"/></g><path d="m256 120h91.699v30h-91.699z" fill="#ffbe40"/><path d="m256 60h113.174v30h-113.174z" fill="#ffbe40"/><path d="m256 422h113.174v30h-113.174z" fill="#ffbe40"/><path d="m256 362h91.699v30h-91.699z" fill="#ffbe40"/><path d="m361 0h-105v30h135z" fill="#ffbe40"/><path d="m391 482h-135v30h105z" fill="#ffbe40"/><path d="m274.003 232.006c-6.191-4.644-12.096-9.957-18.003-15.242-58.046-51.927-101.343-133.359-105-201.764v-15h-60v15c4.541 93.647 65.215 203.646 146.997 264.994 6.191 4.644 12.096 9.957 18.003 15.242 58.046 51.927 101.343 133.359 105 201.764v15h60v-15c-4.541-93.647-65.215-203.646-146.997-264.994z" fill="#ff7f40"/><path d="m361 497v15h60v-15c-4.541-93.647-65.215-203.646-146.997-264.994-6.191-4.644-12.096-9.957-18.003-15.242v78.472c58.046 51.927 101.343 133.359 105 201.764z" fill="#f25a3c"/><path d="m361 0v15c-3.657 68.405-46.954 149.837-105 201.764-5.907 5.284-11.812 10.598-18.003 15.242-81.782 61.348-142.456 171.347-146.997 264.994v15h60v-15c3.657-68.405 46.954-149.837 105-201.764 5.907-5.284 11.812-10.598 18.003-15.242 81.782-61.348 142.456-171.347 146.997-264.994v-15z" fill="#9df"/><path d="m421 15v-15h-60v15c-3.657 68.405-46.954 149.837-105 201.764v78.472c5.907-5.284 11.812-10.598 18.003-15.242 81.782-61.348 142.456-171.347 146.997-264.994z" fill="#80bfff"/></g></svg>