<?xml version="1.0" encoding="iso-8859-1"?>
<!-- Generator: Adobe Illustrator 19.0.0, SVG Export Plug-In . SVG Version: 6.00 Build 0)  -->
<svg version="1.1" id="Layer_1" xmlns="http://www.w3.org/2000/svg" xmlns:xlink="http://www.w3.org/1999/xlink" x="0px" y="0px"
	 viewBox="0 0 485 485" style="enable-background:new 0 0 485 485;" xml:space="preserve">
<g transform="translate(0 -540.36)">
	<g>
		<g>
			<path d="M290.42,619.51c-5.399-1.1-10.698,2.301-11.898,7.703c-1.1,5.402,2.3,10.704,7.698,11.904
				c22.496,4.902,42.192,17.306,56.989,36.113c2,2.501,4.899,3.801,7.898,3.801c2.2,0,4.299-0.7,6.099-2.301
				c4.299-3.401,4.999-9.704,1.6-14.005C341.11,640.318,317.415,625.312,290.42,619.51z"/>
			<path d="M409.997,829.588c22.796-39.014,28.894-84.331,17.197-127.747c-11.698-43.316-39.692-79.529-78.985-101.738
				c-53.09-30.111-115.878-28.811-166.168-2.101l-35.793-53.22c-3.099-4.602-9.298-5.802-13.897-2.701
				c-4.599,3.101-5.799,9.303-2.7,13.905l12.598,18.707c-42.292,29.411-72.086,72.527-84.284,122.245
				c-12.997,53.12-4.599,108.14,23.695,154.957c27.895,46.917,72.786,80.53,126.376,94.735c13.297,3.501,26.695,5.702,40.192,6.702
				v52.019H186.24c-5.499,0-9.998,4.502-9.998,10.004s4.499,10.004,9.998,10.004h143.972c5.499,0,9.998-4.502,9.998-10.004
				c0-5.502-4.499-10.004-9.998-10.004h-61.988v-51.519c31.094-0.7,61.688-8.303,89.883-22.408l13.797,20.107
				c1.9,2.801,5.099,4.302,8.298,4.302c1.9,0,3.899-0.6,5.599-1.801c4.599-3.101,5.699-9.303,2.599-13.905l-35.593-52.019
				C376.203,873.804,395.9,853.897,409.997,829.588z M346.709,914.519c-88.483,42.516-197.662,11.204-247.852-73.027
				c-51.39-85.131-27.195-193.171,54.59-250.292l11.598,17.206c-19.596,13.605-36.593,31.512-49.291,53.22
				c-22.596,38.614-28.595,83.531-17.097,126.547c11.698,43.416,39.992,79.729,79.585,102.238
				c26.395,15.006,55.589,22.608,85.184,22.608c14.597,0,29.194-1.901,43.592-5.602c9.698-2.501,19.096-5.902,27.995-9.904
				L346.709,914.519L346.709,914.519z M263.225,892.911c-25.495,0-51.39-6.402-75.086-19.807
				c-34.893-19.807-59.888-51.819-70.187-90.033c-10.198-37.814-4.799-77.229,14.997-111.241
				c27.795-47.518,78.385-74.127,130.475-74.127c25.495,0,51.29,6.402,74.986,19.807c34.593,19.607,59.289,51.419,69.487,89.533
				c10.298,38.214,4.899,78.129-15.197,112.442C365.305,866.601,315.015,892.911,263.225,892.911z"/>
		</g>
	</g>
</g>
<g>
</g>
<g>
</g>
<g>
</g>
<g>
</g>
<g>
</g>
<g>
</g>
<g>
</g>
<g>
</g>
<g>
</g>
<g>
</g>
<g>
</g>
<g>
</g>
<g>
</g>
<g>
</g>
<g>
</g>
</svg>
