<?xml version="1.0" encoding="iso-8859-1"?>
<!-- Generator: Adobe Illustrator 19.0.0, SVG Export Plug-In . SVG Version: 6.00 Build 0)  -->
<svg version="1.1" id="Layer_1" xmlns="http://www.w3.org/2000/svg" xmlns:xlink="http://www.w3.org/1999/xlink" x="0px" y="0px"
	 viewBox="0 0 508 508" style="enable-background:new 0 0 508 508;" xml:space="preserve">
<circle style="fill:#fff;" cx="254" cy="254" r="254"/>
<rect x="113.6" y="94.4" style="fill:#FFFFFF;" width="280.8" height="318.8"/>
<g>
	<g>
		<line style="fill:none;stroke:#84DBFF;stroke-width:0.5;stroke-miterlimit:10;" x1="113.6" y1="146" x2="394.4" y2="146"/>
		<line style="fill:none;stroke:#84DBFF;stroke-width:0.5;stroke-miterlimit:10;" x1="113.6" y1="151.2" x2="394.4" y2="151.2"/>
	</g>
	<g>
		<line style="fill:none;stroke:#E6E9EE;stroke-width:0.5;stroke-miterlimit:10;" x1="113.6" y1="175.2" x2="394.4" y2="175.2"/>
		<line style="fill:none;stroke:#E6E9EE;stroke-width:0.5;stroke-miterlimit:10;" x1="113.6" y1="199.2" x2="394.4" y2="199.2"/>
		<line style="fill:none;stroke:#E6E9EE;stroke-width:0.5;stroke-miterlimit:10;" x1="113.6" y1="223.2" x2="394.4" y2="223.2"/>
		<line style="fill:none;stroke:#E6E9EE;stroke-width:0.5;stroke-miterlimit:10;" x1="113.6" y1="247.2" x2="394.4" y2="247.2"/>
		<line style="fill:none;stroke:#E6E9EE;stroke-width:0.5;stroke-miterlimit:10;" x1="113.6" y1="271.2" x2="394.4" y2="271.2"/>
		<line style="fill:none;stroke:#E6E9EE;stroke-width:0.5;stroke-miterlimit:10;" x1="113.6" y1="295.2" x2="394.4" y2="295.2"/>
		<line style="fill:none;stroke:#E6E9EE;stroke-width:0.5;stroke-miterlimit:10;" x1="113.6" y1="319.2" x2="394.4" y2="319.2"/>
		<line style="fill:none;stroke:#E6E9EE;stroke-width:0.5;stroke-miterlimit:10;" x1="113.6" y1="343.2" x2="394.4" y2="343.2"/>
		<line style="fill:none;stroke:#E6E9EE;stroke-width:0.5;stroke-miterlimit:10;" x1="113.6" y1="367.2" x2="394.4" y2="367.2"/>
		<line style="fill:none;stroke:#E6E9EE;stroke-width:0.5;stroke-miterlimit:10;" x1="113.6" y1="390.8" x2="394.4" y2="390.8"/>
	</g>
</g>
<g>
	<path style="fill:#FF7058;" d="M264.8,316l-11.2-9.6L230.4,318l0.8,14.4l-13.2,6.4l-3.2-67.2l12-6l51.2,44L264.8,316z M228.8,285.2
		l0.8,19.6l14-6.8L228.8,285.2z"/>
	<path style="fill:#FF7058;" d="M291.2,292.4l-6.8-14.4l-14,6.8l-4.8-9.6l14-6.8l-7.2-14.4l10.8-5.2l6.8,14.4l14-6.8l4.8,9.6
		l-14,6.8l6.8,14.4L291.2,292.4z"/>
	<path style="fill:#FF7058;" d="M348.8,240.8c0,0,0.8,1.6,1.6,4c0.8,1.2,1.2,3.2,1.6,5.2c0.8,2,0.8,4.4,1.2,7.2
		c0.4,5.6-0.4,12.4-2.8,19.6s-6.4,15.2-12,22.8c-11.2,15.2-28,30.4-48.8,41.6c-5.2,2.8-10.8,5.2-16,8c-5.6,2.4-11.6,4.4-17.6,6.4
		c-12,3.6-24.4,5.6-37.2,6c-12.8,0-25.6-1.6-37.6-7.2c-11.6-5.2-21.2-16-24.8-27.6c-3.2-12.8-0.8-24.4,3.6-34.8
		c4.4-10,10.8-18.4,17.2-25.6s12.8-12.8,19.2-17.2c3.2-2.4,6-4.4,8.8-6c2.8-2,5.2-3.6,7.6-4.8c4.8-2.8,8.4-4.8,11.2-6s4-2,4-2
		s-1.2,0.8-4,2.4c-2.4,1.6-6.4,3.6-10.8,6.4c-2.4,1.6-4.8,3.2-7.2,5.2c-2.8,2-5.6,4-8.4,6.4c-6,4.8-12,10.8-18,17.6
		S168,283.6,164,293.2c-4,9.6-5.6,20.8-2.8,31.2c3.2,10.8,11.2,19.6,22,24.4c10.8,5.2,22.8,6.8,34.8,6.8s24.4-2,36-5.6
		c6-1.6,11.6-3.6,16.8-5.6c5.6-2.4,10.8-4.8,16-7.6c10-5.6,19.6-11.2,27.6-18s15.2-14,20.8-21.2c5.6-7.2,10-14.8,12.8-21.6
		c2.8-6.8,4-13.6,4-18.8c0-2.8,0-5.2-0.4-7.2s-0.4-4-1.2-5.2C349.2,242,348.8,240.8,348.8,240.8z"/>
</g>
<g>
</g>
<g>
</g>
<g>
</g>
<g>
</g>
<g>
</g>
<g>
</g>
<g>
</g>
<g>
</g>
<g>
</g>
<g>
</g>
<g>
</g>
<g>
</g>
<g>
</g>
<g>
</g>
<g>
</g>
</svg>
