<?xml version="1.0" encoding="iso-8859-1"?>
<!-- Generator: Adobe Illustrator 19.0.0, SVG Export Plug-In . SVG Version: 6.00 Build 0)  -->
<svg version="1.1" id="Layer_1" xmlns="http://www.w3.org/2000/svg" xmlns:xlink="http://www.w3.org/1999/xlink" x="0px" y="0px"
	 viewBox="0 0 508.1 508.1" style="enable-background:new 0 0 508.1 508.1;" xml:space="preserve">
<g>
	<g>
		<path d="M448.7,105.2L355.5,12c-7.8-7.8-18-12-28.9-12H88.2C65.7,0,47.4,18.3,47.4,40.8v426.5c0,22.5,18.3,40.8,40.8,40.8h331.7
			c22.5,0,40.8-18.3,40.8-40.8V134C460.6,123.1,456.4,112.9,448.7,105.2z M351.7,48.2l60.7,60.6h-60.7V48.2z M432.4,467.3
			c0,6.9-5.6,12.5-12.6,12.5H88.2c-6.9,0-12.5-5.6-12.5-12.5V40.8c0-6.9,5.6-12.5,12.5-12.5h235.4V123c0,7.8,6.3,14.1,14.1,14.1
			h94.7V467.3z"/>
	</g>
</g>
<g>
	<g>
		<path d="M217.7,198.1h-28.8l-57.7,133.5h31.7l12.4-28.8h56l12.4,28.8h31.7L217.7,198.1z M186.6,276.6l16.8-38.8l16.6,38.8H186.6z"
			/>
	</g>
</g>
<g>
	<g>
		<polygon points="343.4,252.9 343.4,218.5 317,218.5 317,252.9 283.6,252.9 283.6,276.4 317,276.4 317,310.8 343.4,310.8 
			343.4,276.4 376.8,276.4 376.8,252.9 		"/>
	</g>
</g>
<g>
</g>
<g>
</g>
<g>
</g>
<g>
</g>
<g>
</g>
<g>
</g>
<g>
</g>
<g>
</g>
<g>
</g>
<g>
</g>
<g>
</g>
<g>
</g>
<g>
</g>
<g>
</g>
<g>
</g>
</svg>
