<?xml version="1.0" encoding="iso-8859-1"?>
<!-- Generator: Adobe Illustrator 19.0.0, SVG Export Plug-In . SVG Version: 6.00 Build 0)  -->
<svg version="1.1" id="Capa_1" xmlns="http://www.w3.org/2000/svg" xmlns:xlink="http://www.w3.org/1999/xlink" x="0px" y="0px"
	 viewBox="0 0 512 512" style="enable-background:new 0 0 512 512;" xml:space="preserve">
<path style="fill:#34ABE0;" d="M512,256c0,6.572-0.251,13.093-0.742,19.54c-0.679,9.017-1.829,17.91-3.427,26.645
	c-4.723,26.028-13.406,50.688-25.381,73.331c-8.495,16.06-18.651,31.117-30.239,44.92c-12.988,15.485-27.773,29.414-44.042,41.451
	c-7.032,5.204-14.336,10.062-21.901,14.535c-13.511,8.004-27.826,14.806-42.799,20.24h-0.01C316.165,506.587,286.72,512,256,512
	c-98.22,0-183.515-55.306-226.45-136.485c-2.633-4.974-5.099-10.052-7.398-15.214C11.055,335.496,3.814,308.6,1.149,280.367
	C0.387,272.342,0,264.213,0,256c0-55.265,17.512-106.444,47.292-148.281c6.322-8.871,13.187-17.324,20.553-25.307
	c0.418-0.449,0.825-0.888,1.254-1.337c15.088-16.133,32.266-30.312,51.075-42.109c8.046-5.047,16.384-9.655,24.984-13.793
	C178.698,9.038,216.294,0,256,0c62.38,0,119.547,22.309,163.955,59.392c9.341,7.795,18.119,16.238,26.258,25.276
	c2.038,2.257,4.044,4.556,5.998,6.896c10.909,12.999,20.543,27.084,28.714,42.088c9.122,16.729,16.426,34.576,21.65,53.29
	c3.208,11.463,5.632,23.249,7.21,35.297c1.16,8.756,1.87,17.648,2.121,26.655C511.969,251.256,512,253.628,512,256z"/>
<path style="fill:#EDBB4C;" d="M482.45,303.532v71.983c-8.495,16.06-18.651,31.117-30.239,44.92
	c-12.988,15.485-27.773,29.414-44.042,41.451c-7.032,5.204-14.336,10.062-21.901,14.535c-13.511,8.004-27.826,14.806-42.799,20.24
	h-0.01c-23.333-5.726-41.399-12.695-41.723-20.24v-0.01c-0.031-0.512-0.042-1.034-0.042-1.557V285.372H464.29
	C474.321,285.372,482.45,293.501,482.45,303.532z"/>
<polygon style="fill:#D6C8B0;" points="145.161,132.903 145.161,0.001 419.953,0.001 419.953,182.971 "/>
<path style="fill:#E8DBC4;" d="M452.211,84.668v335.768c-12.988,15.485-27.773,29.414-44.042,41.451
	c-7.032,5.204-14.336,10.062-21.901,14.535H230.463l1.421-138.083l0.178-17.471l0.543-52.308l0.125-12.873l0.178-16.792
	l0.136-13.448l0.24-23.51l0.146-13.448l0.188-18.651l0.052-4.859l0.084-8.579l0.052-4.869l0.031-2.476l0.658-64.387L452.211,84.668
	L452.211,84.668z"/>
<g>
	<path style="fill:#5C5E70;" d="M405.169,164.975H225.085c-3.711,0-6.72-3.008-6.72-6.72l0,0c0-3.711,3.008-6.72,6.72-6.72h180.084
		c3.711,0,6.72,3.008,6.72,6.72l0,0C411.888,161.966,408.88,164.975,405.169,164.975z"/>
	<path style="fill:#5C5E70;" d="M405.169,201.933H225.085c-3.711,0-6.72-3.008-6.72-6.72l0,0c0-3.711,3.008-6.72,6.72-6.72h180.084
		c3.711,0,6.72,3.008,6.72,6.72l0,0C411.888,198.925,408.88,201.933,405.169,201.933z"/>
	<path style="fill:#5C5E70;" d="M405.169,238.891H225.085c-3.711,0-6.72-3.008-6.72-6.72l0,0c0-3.711,3.008-6.72,6.72-6.72h180.084
		c3.711,0,6.72,3.008,6.72,6.72l0,0C411.888,235.882,408.88,238.891,405.169,238.891z"/>
</g>
<polygon style="fill:#F9EED7;" points="67.846,234.51 67.846,38.969 264.434,38.969 342.637,117.158 342.637,291.303 "/>
<polygon style="fill:#FCF8F2;" points="264.434,117.158 264.434,38.969 342.637,117.158 "/>
<g>
	<path style="fill:#797B89;" d="M221.053,149.738H116.227c-3.711,0-6.72-3.008-6.72-6.72l0,0c0-3.711,3.008-6.72,6.72-6.72h104.825
		c3.711,0,6.72,3.008,6.72,6.72l0,0C227.772,146.73,224.764,149.738,221.053,149.738z"/>
	<path style="fill:#797B89;" d="M296.311,185.516H116.227c-3.711,0-6.72-3.008-6.72-6.72l0,0c0-3.711,3.008-6.72,6.72-6.72h180.084
		c3.711,0,6.72,3.008,6.72,6.72l0,0C303.031,182.508,300.023,185.516,296.311,185.516z"/>
	<path style="fill:#797B89;" d="M296.311,222.088H116.227c-3.711,0-6.72-3.008-6.72-6.72l0,0c0-3.711,3.008-6.72,6.72-6.72h180.084
		c3.711,0,6.72,3.008,6.72,6.72l0,0C303.031,219.08,300.023,222.088,296.311,222.088z"/>
</g>
<path style="fill:#FFD15C;" d="M408.168,285.372v176.515c-7.032,5.204-14.336,10.062-21.901,14.535
	c-13.511,8.004-27.826,14.806-42.799,20.24h-0.01C316.165,506.587,286.72,512,256,512c-86.11,0-162.283-42.506-208.687-107.687
	c-6.531-9.164-12.466-18.787-17.763-28.797V225.917c0-14.923,12.098-27.021,27.021-27.021h96.872
	c11.128,0,21.107,6.823,25.172,17.189l6.793,17.361c5.249,13.413,18.181,22.241,32.585,22.241h160.49
	C394.877,255.687,408.168,268.978,408.168,285.372z"/>
<path style="fill:#EDBB4C;" d="M74.324,198.896c-14.921,0-27.011,12.11-27.011,27.021v178.395
	c-6.531-9.164-12.466-18.787-17.763-28.797V225.917c0-14.911,12.089-27.021,27.011-27.021H74.324z"/>
<g>
	<path style="fill:#797B89;" d="M232.478,320.869H76.584c-4.824,0-8.735,3.911-8.735,8.735l0,0c0,4.824,3.911,8.735,8.735,8.735
		h155.895c4.824,0,8.735-3.911,8.735-8.735l0,0C241.214,324.78,237.303,320.869,232.478,320.869z"/>
	<path style="fill:#797B89;" d="M153.187,357.154H76.584c-4.824,0-8.735,3.911-8.735,8.735l0,0c0,4.824,3.911,8.735,8.735,8.735
		h76.604c4.824,0,8.735-3.911,8.735-8.735l0,0C161.923,361.066,158.012,357.154,153.187,357.154z"/>
</g>
<g>
</g>
<g>
</g>
<g>
</g>
<g>
</g>
<g>
</g>
<g>
</g>
<g>
</g>
<g>
</g>
<g>
</g>
<g>
</g>
<g>
</g>
<g>
</g>
<g>
</g>
<g>
</g>
<g>
</g>
</svg>
