<svg id="Layer_1" enable-background="new 0 0 512 512" height="512" viewBox="0 0 512 512" width="512" xmlns="http://www.w3.org/2000/svg"><path d="m250.91 271.895c1.69.063 3.385.105 5.09.105 74.991 0 136-61.009 136-136s-61.009-136-136-136-136 61.009-136 136c0 44.509 21.492 84.092 54.643 108.918-30.371 9.998-58.871 25.546-83.813 46.062-45.732 37.617-77.529 90.086-89.532 147.743-3.762 18.066.745 36.622 12.363 50.909 11.561 14.215 28.704 22.368 47.032 22.368h188.307c11.046 0 20-8.954 20-20s-8.954-20-20-20h-188.307c-8.538 0-13.689-4.766-15.999-7.606-3.989-4.905-5.533-11.29-4.236-17.519 20.77-99.764 108.813-172.619 210.452-174.98zm-90.91-135.895c0-53.202 43.501-96.434 96.802-95.997 52.918.434 95.208 44.123 95.196 97.043-.047 52.991-43.053 95.906-96.043 95.882-53.043-.024-95.998-43.886-95.955-96.928zm248 252c0 11.046-8.954 20-20 20s-20-8.954-20-20 8.954-20 20-20 20 8.954 20 20zm88.079-19.58-26.14-5.446c-1.599-5.242-3.718-10.354-6.307-15.217.056-.088.112-.176.167-.265l14.209-22.972c4.983-8.055 3.632-18.5-3.236-25.023-6.867-6.522-17.368-7.334-25.156-1.942l-21.388 14.805c-4.844-2.58-9.955-4.698-15.204-6.301l-5.446-26.139c-1.931-9.274-10.105-15.92-19.578-15.92s-17.647 6.646-19.58 15.921l-5.446 26.14c-5.241 1.599-10.353 3.717-15.215 6.305l-22.719-15.042c-7.928-5.249-18.458-4.191-25.183 2.534s-7.784 17.254-2.534 25.183l15.043 22.719c-2.583 4.847-4.703 9.962-6.307 15.214l-26.139 5.446c-9.274 1.933-15.92 10.106-15.92 19.58s6.646 17.647 15.921 19.58l26.14 5.446c1.599 5.241 3.717 10.353 6.305 15.215l-15.042 22.719c-5.25 7.929-4.19 18.458 2.534 25.183s17.254 7.784 25.183 2.534l22.719-15.043c4.847 2.583 9.962 4.703 15.214 6.307l5.446 26.139c1.932 9.274 10.106 15.92 19.58 15.92s17.647-6.646 19.58-15.921l5.446-26.14c5.234-1.597 10.34-3.712 15.197-6.296l22.247 15.698c7.801 5.505 18.406 4.729 25.321-1.856 6.916-6.583 8.212-17.137 3.097-25.2l-15.209-23.972c-.015-.024-.031-.048-.046-.072 2.583-4.848 4.704-9.963 6.308-15.216l26.139-5.446c9.273-1.932 15.92-10.105 15.92-19.579s-6.647-17.647-15.921-19.58zm-64.384 32.884c-.855 2.813-1.993 5.559-3.381 8.159-2.43 4.55-3.917 9.432-4.472 14.379-4.946.556-9.829 2.042-14.377 4.471-2.602 1.39-5.347 2.527-8.16 3.382-4.925 1.497-9.42 3.893-13.305 6.994-3.885-3.101-8.379-5.497-13.304-6.994-2.813-.855-5.559-1.993-8.159-3.381-4.549-2.429-9.429-3.916-14.379-4.469-.555-4.948-2.042-9.831-4.471-14.38-1.39-2.602-2.527-5.347-3.382-8.16-1.497-4.925-3.893-9.42-6.994-13.305 3.101-3.885 5.497-8.379 6.994-13.304.855-2.813 1.993-5.559 3.381-8.159 2.429-4.548 3.916-9.43 4.469-14.379 4.947-.555 9.832-2.042 14.38-4.471 2.602-1.39 5.347-2.527 8.16-3.382 4.925-1.497 9.42-3.893 13.305-6.994 3.885 3.101 8.379 5.497 13.304 6.994 2.813.855 5.559 1.993 8.159 3.381 4.55 2.43 9.432 3.917 14.379 4.472.555 4.947 2.042 9.829 4.471 14.377 1.39 2.602 2.527 5.347 3.382 8.16 1.497 4.925 3.893 9.42 6.994 13.305-3.101 3.885-5.497 8.379-6.994 13.304z"/></svg>