<?xml version="1.0" encoding="iso-8859-1"?>
<!-- Generator: Adobe Illustrator 19.0.0, SVG Export Plug-In . SVG Version: 6.00 Build 0)  -->
<svg version="1.1" id="Layer_1" xmlns="http://www.w3.org/2000/svg" xmlns:xlink="http://www.w3.org/1999/xlink" x="0px" y="0px"
	 viewBox="0 0 488 488" style="enable-background:new 0 0 488 488;" xml:space="preserve">
<g transform="translate(0 -540.36)">
	<g>
		<g>
			<path d="M458.75,737.96c0-36.6-22.8-69.5-57.6-84.6c1.6-6.6,2.4-13.4,2.4-19.9c0-51.3-43-93.1-95.9-93.1
				c-26.4,0-47.4,8.3-63.9,25.4c-17.3-16.1-44.1-25.4-74.1-25.4c-52.9,0-95.9,41.8-95.9,93.1c0,8,1.2,16.1,3.8,24.6
				c-29.6,16-48.3,46.5-48.3,79.8c0,18,5.4,35.4,15.2,49.7c-9.9,14.8-15.2,32.1-15.2,49.4c0,32.2,18.1,62.5,46.7,79.1
				c-1.6,7.1-2.3,13.4-2.3,19.2c0,51.3,43,93.1,95.9,93.1c30,0,56.8-9.3,74.1-25.4c16.5,17.1,37.5,25.4,63.9,25.4l0,0
				c52.9,0,95.9-41.8,96-93c0-5.1-0.4-9.9-1.2-14.4c34.1-15,56.4-47.6,56.4-83.9c0-17.3-5.4-34.6-15.2-49.4
				C453.45,773.36,458.75,755.96,458.75,737.96z M423.25,793.56c10,12.5,15.5,27.9,15.5,43.3c0,30.7-20.6,58.1-51.4,68.3
				c-2.5,0.8-4.6,2.6-5.8,5s-1.3,5.2-0.5,7.7c1.7,5.2,2.5,10.7,2.5,17.4c0,40.3-34.1,73.1-75.9,73.1c-24.7,0-41.9-8.2-55.7-26.5
				c-1.9-2.5-4.9-4-8-4c-3.1,0-6.1,1.5-7.9,3.9c-14.7,19.5-44,26.5-66.4,26.5c-41.9,0-75.9-32.8-75.9-73.1c0-6,1.2-13.3,3.5-21.7
				c1.3-4.7-1-9.6-5.4-11.7c-25.9-12.2-42.6-37.7-42.6-64.9c0-15.4,5.5-30.7,15.5-43.3c2.9-3.7,2.9-9-0.2-12.6
				c-9.9-11.7-15.3-27.1-15.3-43.1c0-28.4,17.5-54.1,44.5-65.5c4.9-2.1,7.4-7.8,5.4-12.8c-3.7-9.5-5.5-18-5.5-26.1
				c0-40.3,34.1-73.1,75.9-73.1c22.4,0,51.7,7,66.4,26.5c1.9,2.5,4.8,4,8,4s6.1-1.5,8-4c13.9-18.3,31-26.5,55.7-26.5
				c41.9,0,75.9,32.8,75.9,73.1c0,7.5-1.4,15.5-4,22.5c-0.9,2.5-0.8,5.4,0.4,7.8c1.2,2.4,3.3,4.3,5.9,5.1c31.6,10.3,52.9,38,52.9,69
				c0,16-5.4,31.3-15.3,43.1C420.35,784.56,420.25,789.86,423.25,793.56z"/>
			<path d="M295.35,662.46c2.6,0,5.2-1,7.1-3l19.9-20.6c3.9-3.9,3.7-10.2-0.2-14.1c-3.9-3.9-10.3-3.8-14.1,0.2l-19.9,20.6
				c-3.9,3.9-3.8,10.3,0.2,14.1C290.35,661.56,292.85,662.46,295.35,662.46z"/>
			<path d="M185.35,659.46c2,2,4.6,3,7.2,3h0c2.5,0,5-0.9,6.9-2.8c3.9-3.8,4-10.1,0.2-14.1l-19.9-20.6c-3.8-3.9-10.1-4-14.1-0.2
				c-3.9,3.8-4,10.1-0.2,14.1L185.35,659.46z"/>
			<path d="M243.95,661.76c5.5,0,10-4.5,10-10v-29.7c0-5.5-4.5-10-10-10s-10,4.5-10,10v29.7
				C233.95,657.26,238.45,661.76,243.95,661.76z"/>
			<path d="M332.55,747.36c-5.1-18.3-16.7-34.9-32.9-46.5c-16-11.5-35.8-17.9-55.7-17.9s-39.7,6.4-55.7,17.9
				c-16.2,11.7-27.8,28.2-32.9,46.5c-10.6,35.8,5,73.8,38,94.6v54.5c0,27.8,22.7,50.4,50.6,50.4s50.6-22.6,50.6-50.4v-54.5
				C327.55,821.16,343.15,783.06,332.55,747.36L332.55,747.36z M243.95,926.76c-13.1,0-24.6-8.7-28.9-20.4h57.7
				C268.55,918.16,257.05,926.76,243.95,926.76z M274.55,886.36h-61.3v-10.5h61.3V886.36z M279.85,827.36c-3.2,1.8-5.2,5.1-5.2,8.8
				v19.7h-61.3v-19.7c0-3.7-2-7-5.2-8.8c-28.2-15.4-42-46-33.5-74.5c0-0.1,0-0.1,0.1-0.2c7.9-28.9,37.1-49.8,69.3-49.8
				s61.4,20.9,69.3,49.8c0,0.1,0,0.1,0.1,0.2C321.85,781.46,308.05,812.06,279.85,827.36z"/>
		</g>
	</g>
</g>
<g>
</g>
<g>
</g>
<g>
</g>
<g>
</g>
<g>
</g>
<g>
</g>
<g>
</g>
<g>
</g>
<g>
</g>
<g>
</g>
<g>
</g>
<g>
</g>
<g>
</g>
<g>
</g>
<g>
</g>
</svg>
