<svg xmlns="http://www.w3.org/2000/svg" viewBox="0 0 490.67 512">
    <defs>
        <style>.cls-1{fill:#e29aa6;}.cls-2{fill:#12a5b1;}.cls-3{fill:#0fb2c0;}.cls-4{fill:#fff;}</style>
    </defs>
    <g id="Layer_2">
        <g id="Capa_1">
            <circle cx="245.33" cy="394.67" r="117.33" fill="#e29aa6"/>
            <path fill="#12a5b1"
                d="M416,0H74.67A53.07,53.07,0,0,0,21.85,60.27a10.69,10.69,0,0,0,16,7.81A30.11,30.11,0,0,1,53.33,64H108a32.13,32.13,0,0,1,30.33,21.72l1.82,5.82A53.58,53.58,0,0,0,190.72,128H437.33a32.06,32.06,0,0,1,15.94,4.27,10.66,10.66,0,0,0,16.06-9.18V53.33A53.33,53.33,0,0,0,416,0Z" />
            <path fill="#0fb2c0"
                d="M464.06,113.88a52.93,52.93,0,0,0-26.73-7.21H190.72A32.15,32.15,0,0,1,160.38,85l-1.81-5.82A53.57,53.57,0,0,0,108,42.67H53.33A51.11,51.11,0,0,0,27.2,49.56a52.43,52.43,0,0,0-11.39,8.7A52.21,52.21,0,0,0,0,96V352a53.33,53.33,0,0,0,53.33,53.33H107.2c-.28-3.54-.53-7.06-.53-10.66a138.67,138.67,0,1,1,277.33,0c0,3.6-.28,7.12-.53,10.66h53.87A53.33,53.33,0,0,0,490.67,352V160A53,53,0,0,0,464.06,113.88Z" />
            <path fill="#fff"
                d="M280.79,376.42V354.85a34.85,34.85,0,1,0-69.69,0v21.57a47.15,47.15,0,1,0,69.69,0ZM246,332.3a22.57,22.57,0,0,1,22.55,22.55v11.9a47.09,47.09,0,0,0-45.1,0v-11.9A22.57,22.57,0,0,1,246,332.3ZM246,443a34.85,34.85,0,1,1,34.84-34.85A34.88,34.88,0,0,1,246,443Z" />
            <path  fill="#fff" d="M246,391.74a10.25,10.25,0,0,0-6.15,18.45v8.2a6.15,6.15,0,0,0,12.3,0v-8.2A10.25,10.25,0,0,0,246,391.74Z" />
        </g>
    </g>
</svg>