<svg xmlns="http://www.w3.org/2000/svg" viewBox="0 0 84.67 62.35">
    <defs>
        <style>.cls-1{fill:#303030;}.cls-2{fill:#f79138;}.cls-3{fill:#12b2c0;}</style>
    </defs>
    <title>Asset 2</title>
    <g id="Layer_2" data-name="Layer 2">
        <g id="Layer_1-2" data-name="Layer 1">
            <path
                d="M84.67,59c-10.55-7-22.91-4.21-35.17-.95-2.6.7-5.15,1.53-7.68,2.45a31.05,31.05,0,0,1-10.65,1.87c-.69,0-1.39,0-2.07-.07A31.2,31.2,0,0,1,1,39c-.11-.42-.21-.83-.3-1.25a31.18,31.18,0,1,1,59.52,4.74H47a19.48,19.48,0,0,0-2-25.1A19.46,19.46,0,1,0,21.5,48.07,14.78,14.78,0,0,0,31,49.84h0c2.34-.34,4.72-.78,7.11-1.25,6.7-1.32,13.56-2.87,20.27-2.91C67.68,45.63,76.73,48.5,84.67,59Z"  fill="#303030"/>
            <path
                d="M49.65,37.3a19.47,19.47,0,1,0-32.24,7.63,19.54,19.54,0,0,0,4.09,3.14A14.78,14.78,0,0,0,31,49.84h0l1.62-.25-.15,0c-.95.15-1.9.33-2.86.52-11.76,2.3-21.26-1.68-28.8-12,0-.1,0-.2-.07-.3A31.23,31.23,0,0,1,25,.62h0C44.89.62,56.11,21.26,49.65,37.3Z" fill="#f79138" />
            <path
                d="M25,.62H25A31.85,31.85,0,0,1,31.17,0,31.07,31.07,0,0,1,49.52,6h0A31.22,31.22,0,0,1,62.19,28c0,.05,0,.1,0,.15v0a30.08,30.08,0,0,1,.15,3,31.2,31.2,0,0,1-2.13,11.35H47a19.16,19.16,0,0,0,2.67-5.23C56.11,21.26,44.89.62,25,.62Z" />
            <path
                d="M84.67,59l-.28-.19-.29-.18-.27-.17-.29-.18-.29-.17L83,58l-.16-.09-.2-.12-.29-.15-.61-.31-.26-.13-.65-.3-.23-.1-.24-.1-.34-.14-.48-.18c-.27-.11-.55-.21-.83-.3L78.57,56l-.23-.08-.18-.05-.48-.15-.24-.07-.24-.06-.55-.14-.21-.05L76,55.3l-.24,0-.1,0-.88-.17h-.09L74.31,55h-.07l-.21,0-.25,0-.49-.06-.74-.08-.25,0-.5,0h-.25l-.23,0H71l-.48,0-.5,0h-.51c-6.5,0-13.29,1.62-20.05,3.42l-.48.14-.58.16-.29.08-.58.17-.49.14-.48.15-.48.15-1,.31-.48.16-.5.17-.45.15-.95.33-1,.34-.31.11-.63.22-.64.2-.31.09c-.43.13-.86.24-1.3.35L38,61.6l-.33.07c-.5.11-1,.2-1.5.28l-.5.08-.34,0-.34,0-.34,0-.32,0h0l-.67,0c-.47,0-.94.07-1.42.08h-1c-.69,0-1.39,0-2.07-.07l-.35,0-.28,0-.33,0-.29,0-.25,0h0l-.19,0-.19,0-.29,0L26.54,62l-.23,0L26,61.91l-.18,0-.36-.06-.35-.07-.34-.07h0l-.34-.08-.25-.05-.3-.07-.3-.08-.26-.06-.07,0-.27-.08-.22-.06-.12,0-.23-.07h0L22.05,61,22,61l-.21-.06-.3-.1-.25-.08-.33-.11-.41-.15,0,0L20,60.29l-.19-.07-.2-.08-.19-.08L19.16,60l-.22-.09-.3-.14-.16-.06-.15-.07c-.33-.15-.65-.3-1-.46L17.1,59l-.19-.1-.22-.11-.26-.15-.24-.12-.29-.17h0l-.36-.2,0,0L15.23,58l-.81-.5-.17-.11-.16-.1-.22-.15c-.28-.19-.56-.38-.83-.58l-.27-.2-.21-.15L12.37,56l-.17-.13L12,55.72l-.17-.13,0,0-1-.85-.22-.2-.15-.13-.2-.18-.75-.71h0L9,53.13c-.12-.12-.24-.24-.35-.37h0v0l-.29-.3-.08-.09h0L8,52H8l-.3-.35-.42-.49-.06-.07-.24-.29-.28-.36-.08-.1h0L6.31,50v0h0l-.22-.3L6,49.49c-.06-.07-.11-.15-.17-.23l-.1-.14v0l-.29-.42h0l-.3-.44-.24-.37-.11-.18-.17-.27-.12-.2-.34-.58L4,46.37a2.15,2.15,0,0,1-.14-.26l-.15-.27c-.05-.08-.09-.17-.14-.26s-.18-.36-.28-.54-.08-.18-.13-.27S3,44.58,3,44.49l-.13-.27c-.08-.19-.17-.37-.25-.56a1.19,1.19,0,0,1-.08-.2c-.09-.19-.16-.38-.24-.56s-.09-.22-.13-.32-.08-.22-.13-.33l-.12-.34-.12-.34c0-.07-.05-.14-.08-.22-.12-.35-.24-.7-.35-1.06l-.06-.21c0-.09-.05-.18-.08-.26a2,2,0,0,0-.07-.26c0-.18-.09-.35-.14-.52S1,38.83.92,38.73l-.06-.25-.09-.39c7.54,10.37,17,14.35,28.8,12,1-.19,1.91-.37,2.86-.52l.15,0,.14,0,.44-.07.48-.08.41-.08.49-.08,1.74-.32.82-.16,1-.19c6.7-1.32,13.56-2.87,20.27-2.91h1.55l.43,0h.58l.24,0h.12l.24,0,.2,0h0l.31,0,.32,0h0l.22,0h.06l.25,0,.42.05.34,0h0l.17,0,.27,0,.18,0,.25,0,.38.07h0l.21,0h0l.16,0,.22,0h0l.32.06.39.09.35.07.34.09.16,0,.15,0,.5.13.43.12.26.08.26.08.23.07h0l.29.1h0l.3.1h0l.19.07.26.09.25.1.09,0h0l.29.11h0l.15.06.15.06.2.09h0l.21.09.29.13.28.12h0l.47.21.29.14,0,0,.31.15.31.16.35.19.26.14.12.07.28.16.33.19L75,50l.4.25.31.19.6.41.09.06.28.2.32.22h0l.32.24.32.24L78,52l.31.25.08.07.12.1.11.09.32.27.43.37.21.19.32.29.24.23.07.06h0l.28.26.28.28.21.2.2.21.2.21.21.21.08.09.23.24.42.46.21.24.21.23.28.33.28.32c.08.11.17.21.26.32v0c.09.11.19.22.28.34l.22.27,0,.06,0,0,.13.17a1.83,1.83,0,0,0,.13.16Z" fill="#303030" />
            <path
                d="M84.67,59l-.28-.19-.29-.18-.27-.17-.29-.18-.29-.17L83,58l-.16-.09-.2-.12-.29-.15-.61-.31-.26-.13-.65-.3-.23-.1-.24-.1-.34-.14-.48-.18c-.27-.11-.55-.21-.83-.3L78.57,56l-.23-.08-.18-.05-.48-.15-.24-.07-.24-.06-.55-.14-.21-.05L76,55.3l-.24,0-.1,0-.88-.17h-.09L74.31,55h-.07l-.21,0-.25,0-.49-.06-.74-.08-.25,0-.5,0h-.25l-.23,0H71l-.48,0-.5,0h-.51c-6.5,0-13.28,1.62-20.05,3.42l-.48.14-.58.16-.29.08-.58.17-.49.14-.48.15-.48.15-1,.31-.48.16-.5.17-.45.15-.95.33-1,.34-.31.11-.63.22-.64.2-.31.09c-.43.13-.86.24-1.3.35L38,61.6l-.33.07c-.5.11-1,.2-1.5.28l-.5.08-.34,0-.34,0-.34,0-.32,0h0l-.67,0c-.47,0-.94.07-1.42.08h-1c-.69,0-1.39,0-2.07-.07l-.35,0-.28,0-.33,0-.29,0-.25,0h0l-.19,0-.19,0-.29,0L26.54,62l-.23,0L26,61.91l-.18,0-.36-.06-.35-.07-.34-.07h0l-.34-.08-.25-.05-.3-.07-.3-.08-.26-.06-.07,0-.27-.08-.22-.06-.12,0-.23-.07h0L22.05,61,22,61l-.21-.06-.3-.1-.25-.08-.33-.11-.41-.15,0,0L20,60.29l-.19-.07-.2-.08-.19-.08L19.16,60l-.22-.09-.3-.14-.16-.06-.15-.07c-.33-.15-.65-.3-1-.46L17.1,59l-.19-.1-.22-.11-.26-.15-.24-.12-.29-.17h0l-.36-.2,0,0L15.23,58l-.81-.5-.17-.11-.16-.1-.22-.15c-.28-.19-.56-.38-.83-.58l-.27-.2-.21-.15L12.37,56l-.17-.13L12,55.72l-.17-.13,0,0-1-.85-.22-.2-.15-.13-.2-.18-.75-.71h0L9,53.13c-.12-.12-.24-.24-.35-.37h0v0l-.29-.3-.08-.09h0L8,52H8l-.3-.35-.42-.49-.06-.07-.24-.29-.28-.36-.08-.1h0L6.31,50v0h0l-.22-.3L6,49.49c-.06-.07-.11-.15-.17-.23l-.1-.14v0l-.29-.42h0l-.3-.44-.24-.37-.11-.18-.17-.27-.12-.2-.34-.58L4,46.37a2.15,2.15,0,0,1-.14-.26l-.15-.27c-.05-.08-.09-.17-.14-.26s-.18-.36-.28-.54-.08-.18-.13-.27S3,44.58,3,44.49l-.13-.27c-.08-.19-.17-.37-.25-.56a1.19,1.19,0,0,1-.08-.2c-.09-.19-.16-.38-.24-.56s-.09-.22-.13-.32-.08-.22-.13-.33l-.12-.34-.12-.34c0-.07-.05-.14-.08-.22-.12-.35-.24-.7-.35-1.06l-.06-.21c0-.09-.05-.18-.08-.26a2,2,0,0,0-.07-.26c0-.18-.09-.35-.14-.52S1,38.83.92,38.73l-.06-.25-.09-.39c7.54,10.37,17,14.35,28.8,12,1-.19,1.91-.37,2.86-.52l.15,0,.14,0,.44-.07.48-.08.41-.08.49-.08,1.74-.32.82-.16,1-.19c6.7-1.32,13.56-2.87,20.27-2.91h1.55l.43,0h.58l.24,0h.12l.24,0,.2,0h0l.31,0,.32,0h0l.22,0h.06l.25,0,.42.05.34,0h0l.17,0,.27,0,.18,0,.25,0,.38.07h0l.21,0h0l.16,0,.22,0h0l.32.06.39.09.35.07.34.09.16,0,.15,0,.5.13.43.12.26.08.26.08.23.07h0l.29.1h0l.3.1h0l.19.07.26.09.25.1.09,0h0l.29.11h0l.15.06.15.06.2.09h0l.21.09.29.13.28.12h0l.47.21.29.14,0,0,.31.15.31.16.35.19.26.14.12.07.28.16.33.19L75,50l.4.25.31.19.6.41.09.06.28.2.32.22h0l.32.24.32.24L78,52l.31.25.08.07.12.1.11.09.32.27.43.37.21.19.32.29.24.23.07.06h0l.28.26.28.28.21.2.2.21.2.21.21.21.08.09.23.24.42.46.21.24.21.23.28.33.28.32c.08.11.17.21.26.32v0c.09.11.19.22.28.34l.22.27,0,.06,0,0,.13.17a1.83,1.83,0,0,0,.13.16Z"  fill="#12b2c0" />
            <path
                d="M60.22,42.53H47a33.11,33.11,0,0,0,2.67-5.23C56.11,21.26,44.89.62,25,.62H25A31.36,31.36,0,0,1,49.52,6h0A30.49,30.49,0,0,1,62.19,28c0,.05,0,.1,0,.15v0A31.85,31.85,0,0,1,60.22,42.53Z" fill="#12b2c0" />
        </g>
    </g>
</svg>