<svg id="Layer_1" enable-background="new 0 0 512 512" height="512" viewBox="0 0 512 512" width="512" xmlns="http://www.w3.org/2000/svg"><path d="m506.096 264.697c-3.901 3.875-8.999 5.812-14.096 5.812-5.141 0-10.279-1.969-14.188-5.904l-15.812-15.917v72.82c0 11.046-8.954 20-20 20s-20-8.954-20-20v-113.083l-152.107-153.11c-7.464-6.394-18.454-6.418-25.947-.055l-153.975 153.671c.006.193.029.382.029.577v212c0 22.056 17.944 40 40 40h252c22.056 0 40-17.944 40-40 0-11.046 8.954-20 20-20s20 8.954 20 20c0 44.112-35.888 80-80 80h-252c-44.112 0-80-35.888-80-80v-172.684l-15.872 15.841c-7.817 7.802-20.48 7.79-28.284-.028-7.803-7.818-7.79-20.481.028-28.285 0 0 210.834-210.404 211.118-210.657 22.842-20.336 57.227-20.262 79.982.169.282.254 209.216 210.549 209.216 210.549 7.786 7.836 7.744 20.499-.092 28.284zm-307.102 63.306c-10.146-12.411-16.244-28.252-16.244-45.495 0-39.701 32.299-72 72-72s72 32.299 72 72c0 17.337-6.161 33.261-16.406 45.701 14.518 6.944 27.864 16.58 39.189 28.559 7.588 8.026 7.233 20.685-.793 28.273-3.865 3.654-8.807 5.467-13.736 5.467-5.308 0-10.604-2.099-14.537-6.26-17.014-17.996-41.487-28.74-65.467-28.74-24.938 0-48.8 10.111-65.467 27.74-7.588 8.025-20.245 8.383-28.273.793-8.026-7.588-8.381-20.247-.793-28.273 10.996-11.63 24.117-20.997 38.527-27.765zm23.756-45.495c0 17.645 14.355 32 32 32s32-14.355 32-32-14.355-32-32-32-32 14.355-32 32z"/></svg>