<?xml version="1.0" encoding="iso-8859-1"?>
<!-- Generator: Adobe Illustrator 18.1.1, SVG Export Plug-In . SVG Version: 6.00 Build 0)  -->
<svg version="1.1" id="Capa_1" xmlns="http://www.w3.org/2000/svg" xmlns:xlink="http://www.w3.org/1999/xlink" x="0px" y="0px"
	 viewBox="0 0 355.437 355.437" style="enable-background:new 0 0 355.437 355.437;" xml:space="preserve">
<path d="M7.999,339.807c-1.002,0-2.02-0.189-3.005-0.589c-4.094-1.661-6.066-6.327-4.405-10.421l22.068-54.39
	c9.737-23.989,27.188-55.88,66.151-55.88h29.272c38.964,0,56.415,31.891,66.151,55.879l2.847,7.015l59.311-54.812
	c3.246-2.998,8.307-2.799,11.305,0.446c2.999,3.245,2.8,8.306-0.445,11.305l-67.806,62.663c-1.929,1.783-4.613,2.505-7.173,1.932
	c-2.563-0.572-4.683-2.366-5.67-4.8l-7.193-17.731c-10.44-25.721-22.345-39.651-38.412-44.202l-21.437,29.376
	c-1.506,2.064-3.907,3.284-6.462,3.284s-4.956-1.22-6.462-3.284l-21.315-29.208c-15.774,4.72-27.521,18.624-37.836,44.036
	l-22.067,54.389C14.153,337.922,11.159,339.807,7.999,339.807z M93.769,234.527l9.327,12.782l9.327-12.782H93.769z M347.437,314.278
	H225.832c-4.418,0-8-3.582-8-8s3.582-8,8-8h113.605V67.944h-15.277v34.983c0,17.262-14.043,31.305-31.305,31.305h-94.697
	l-28.867,16.179c-2.478,1.389-5.505,1.36-7.955-0.076c-2.45-1.436-3.956-4.062-3.956-6.902V46.935
	c0-17.262,14.044-31.305,31.306-31.305h104.17c17.262,0,31.305,14.043,31.305,31.305v5.009h23.277c4.418,0,8,3.582,8,8v246.334
	C355.437,310.697,351.855,314.278,347.437,314.278z M188.685,31.63c-8.439,0-15.306,6.866-15.306,15.305v82.843l18.778-10.524
	c1.194-0.67,2.541-1.021,3.911-1.021h96.786c8.439,0,15.305-6.866,15.305-15.305V46.935c0-8.439-6.865-15.305-15.305-15.305H188.685
	z M14.341,244.282c-4.418,0-8-3.582-8-8V59.944c0-4.418,3.582-8,8-8h116.104c4.418,0,8,3.582,8,8s-3.582,8-8,8H22.341v168.338
	C22.341,240.701,18.759,244.282,14.341,244.282z M103.444,203.937c-24.309,0-44.085-19.776-44.085-44.084
	c0-20.014,13.407-36.956,31.712-42.317c0.096-0.031,0.191-0.061,0.288-0.088c3.917-1.115,7.982-1.68,12.083-1.68
	c22.133,0,40.57,16.124,43.642,37.811c0.293,2.049,0.445,4.145,0.445,6.274C147.529,184.161,127.753,203.937,103.444,203.937z
	 M87.934,136.45c-7.573,5.036-12.574,13.646-12.574,23.403c0,15.486,12.599,28.084,28.085,28.084
	c13.515,0,24.83-9.593,27.492-22.329c-0.493,0.016-0.985,0.024-1.479,0.024C110.379,165.633,94.045,153.65,87.934,136.45z
	 M103.271,131.769c4.085,10.565,14.299,17.864,26.187,17.864c0.049,0,0.099,0,0.147,0c-4.096-10.447-14.278-17.864-26.16-17.864
	C103.387,131.769,103.328,131.769,103.271,131.769z M269.076,99.02h-63.969c-4.418,0-8-3.582-8-8s3.582-8,8-8h63.969
	c4.418,0,8,3.582,8,8S273.494,99.02,269.076,99.02z M249.314,66.842h-44.206c-4.418,0-8-3.582-8-8s3.582-8,8-8h44.206
	c4.418,0,8,3.582,8,8S253.732,66.842,249.314,66.842z M129.055,31.632H97.859c-4.418,0-8-3.582-8-8s3.582-8,8-8h31.196
	c4.418,0,8,3.582,8,8S133.473,31.632,129.055,31.632z"/>
<g>
</g>
<g>
</g>
<g>
</g>
<g>
</g>
<g>
</g>
<g>
</g>
<g>
</g>
<g>
</g>
<g>
</g>
<g>
</g>
<g>
</g>
<g>
</g>
<g>
</g>
<g>
</g>
<g>
</g>
</svg>
